M48
; DRILL file {KiCad 7.0.6} date Fri Oct 13 10:02:00 2023
; FORMAT={-:-/ absolute / inch / decimal}
; #@! TF.CreationDate,2023-10-13T10:02:00+08:00
; #@! TF.GenerationSoftware,Kicad,Pcbnew,7.0.6
; #@! TF.FileFunction,Plated,1,2,PTH
FMAT,2
INCH
; #@! TA.AperFunction,Plated,PTH,ViaDrill
T1C0.0118
; #@! TA.AperFunction,Plated,PTH,ComponentDrill
T2C0.0157
; #@! TA.AperFunction,Plated,PTH,ViaDrill
T3C0.0236
; #@! TA.AperFunction,Plated,PTH,ComponentDrill
T4C0.0256
; #@! TA.AperFunction,Plated,PTH,ComponentDrill
T5C0.0315
; #@! TA.AperFunction,Plated,PTH,ComponentDrill
T6C0.0394
; #@! TA.AperFunction,Plated,PTH,ComponentDrill
T7C0.0413
; #@! TA.AperFunction,Plated,PTH,ComponentDrill
T8C0.0606
; #@! TA.AperFunction,Plated,PTH,ComponentDrill
T9C0.0866
; #@! TA.AperFunction,Plated,PTH,ComponentDrill
T10C0.1555
%
G90
G05
T1
X4.4492Y-2.6724
X4.4699Y-2.575
X4.6067Y-2.5346
X4.6559Y-2.8791
X4.6756Y-3.5287
X4.7445Y-3.9717
X4.7937Y-3.6665
X4.8232Y-2.4657
X4.8429Y-3.5976
X4.9246Y-4.0256
X4.9413Y-2.8594
X4.9413Y-3.0268
X4.9413Y-3.6272
X4.9512Y-2.7413
X4.9906Y-2.6045
X5.0004Y-3.9028
X5.0201Y-2.5731
X5.0693Y-3.1744
X5.0706Y-2.6433
X5.0791Y-2.7512
X5.2022Y-2.8152
X5.2366Y-3.9421
X5.335Y-3.824
X5.3744Y-3.8732
X5.4039Y-2.5445
X5.4039Y-3.1843
X5.4335Y-3.7256
X5.4335Y-3.9717
X5.4531Y-4.0701
X5.5319Y-3.5189
X5.5319Y-3.5583
X5.5516Y-3.0071
X5.5713Y-3.4402
X5.5713Y-3.4697
X5.6008Y-3.4402
X5.6008Y-3.4697
X5.6205Y-3.6075
X5.6205Y-3.637
X5.6205Y-3.6665
X5.6303Y-3.4402
X5.6303Y-3.4697
X5.65Y-3.6075
X5.65Y-3.637
X5.65Y-3.6665
X5.6598Y-3.4402
X5.6598Y-3.4697
X5.6598Y-3.5189
X5.6598Y-3.5583
X5.6795Y-2.8201
X5.6795Y-3.6075
X5.6795Y-3.637
X5.6795Y-3.6665
X5.6992Y-3.5189
X5.6992Y-3.5583
X5.7362Y-3.6374
X5.7378Y-3.5949
X5.7386Y-3.5189
X5.7386Y-3.5583
X5.7823Y-3.637
X5.7835Y-3.5957
X5.7878Y-3.5189
X5.7878Y-3.5583
X5.837Y-3.5189
X5.837Y-3.5583
X5.8567Y-2.8102
X5.8764Y-2.4756
X5.8862Y-3.5189
X5.8862Y-3.5583
X5.8961Y-2.4362
X5.9256Y-3.5189
X5.9256Y-3.5583
X5.9551Y-3.4402
X5.9551Y-3.4992
X5.965Y-2.8102
X5.965Y-3.5287
X5.9846Y-3.4992
X5.986Y-2.5744
X6.008Y-3.3768
X6.008Y-3.524
X6.0155Y-2.5646
X6.0339Y-2.4854
X6.0339Y-3.6764
X6.0372Y-3.437
X6.0394Y-3.5985
X6.048Y-3.7378
X6.0634Y-3.45
X6.1717Y-3.8437
X6.271Y-3.7039
X6.2781Y-3.4472
X6.2799Y-3.5976
T2
X3.9906Y-2.5248
X3.9906Y-4.1587
X4.0096Y-2.4789
X4.0096Y-2.5707
X4.0096Y-4.1127
X4.0096Y-4.2046
X4.0555Y-2.4598
X4.0555Y-2.5898
X4.0555Y-4.0937
X4.0555Y-4.2236
X4.1014Y-2.4789
X4.1014Y-2.5707
X4.1014Y-4.1127
X4.1014Y-4.2046
X4.1205Y-2.5248
X4.1205Y-4.1587
X6.1165Y-4.1587
X6.1356Y-4.1127
X6.1356Y-4.2046
X6.1815Y-4.0937
X6.1815Y-4.2236
X6.2274Y-4.1127
X6.2274Y-4.2046
X6.2465Y-4.1587
T3
X5.6517Y-2.9586
X5.6517Y-3.0186
X5.6517Y-3.0786
X5.7106Y-2.9589
X5.7106Y-3.0189
X5.7106Y-3.0789
X5.7717Y-2.9586
X5.7717Y-3.0186
X5.7717Y-3.0786
T4
X4.25Y-2.4756
X4.3Y-2.4756
X4.35Y-2.4756
X4.4Y-2.4756
T5
X4.0752Y-3.4894
X4.374Y-3.0566
X4.4689Y-3.4894
X4.4882Y-2.7613
T6
X4.1002Y-3.6744
X4.1002Y-3.95
X4.2508Y-3.2925
X4.4151Y-3.6744
X4.4151Y-3.95
X4.4508Y-3.2929
T7
X4.9217Y-3.3417
X5.1185Y-3.3417
T8
X4.7031Y-2.5051
X4.9945Y-4.1783
X5.3016Y-4.1783
X5.5929Y-2.5051
T9
X4.0555Y-2.5248
X4.0555Y-4.1587
X6.1815Y-4.1587
T10
X4.0748Y-3.1055
X4.0773Y-2.7906
X5.8862Y-4.139
X6.1618Y-3.5386
T0
M30
