%TF.GenerationSoftware,KiCad,Pcbnew,7.0.6*%
%TF.CreationDate,2023-10-13T10:01:59+08:00*%
%TF.ProjectId,86_BOX_PANEL,38365f42-4f58-45f5-9041-4e454c2e6b69,rev?*%
%TF.SameCoordinates,Original*%
%TF.FileFunction,Drillmap*%
%TF.FilePolarity,Positive*%
%FSLAX45Y45*%
G04 Gerber Fmt 4.5, Leading zero omitted, Abs format (unit mm)*
G04 Created by KiCad (PCBNEW 7.0.6) date 2023-10-13 10:01:59*
%MOMM*%
%LPD*%
G01*
G04 APERTURE LIST*
%ADD10C,0.100000*%
%ADD11C,0.200000*%
%ADD12C,0.220000*%
G04 APERTURE END LIST*
D10*
X11651000Y-10863000D02*
X16001000Y-10863000D01*
X11651000Y-10863000D02*
X10001000Y-10863000D01*
X11651000Y-6113000D02*
X16001000Y-6113000D01*
X10001000Y-6113000D02*
X10001000Y-10863000D01*
X16001000Y-10863000D02*
X16001000Y-6113000D01*
X11651000Y-6113000D02*
X10001000Y-6113000D01*
D11*
D12*
X15591000Y-6303000D02*
X15811000Y-6523000D01*
X15811000Y-6303000D02*
X15591000Y-6523000D01*
D11*
X10256777Y-11179484D02*
X10256777Y-10979484D01*
X10256777Y-10979484D02*
X10304396Y-10979484D01*
X10304396Y-10979484D02*
X10332967Y-10989008D01*
X10332967Y-10989008D02*
X10352015Y-11008055D01*
X10352015Y-11008055D02*
X10361539Y-11027103D01*
X10361539Y-11027103D02*
X10371063Y-11065198D01*
X10371063Y-11065198D02*
X10371063Y-11093770D01*
X10371063Y-11093770D02*
X10361539Y-11131865D01*
X10361539Y-11131865D02*
X10352015Y-11150912D01*
X10352015Y-11150912D02*
X10332967Y-11169960D01*
X10332967Y-11169960D02*
X10304396Y-11179484D01*
X10304396Y-11179484D02*
X10256777Y-11179484D01*
X10456777Y-11179484D02*
X10456777Y-11046150D01*
X10456777Y-11084246D02*
X10466301Y-11065198D01*
X10466301Y-11065198D02*
X10475824Y-11055674D01*
X10475824Y-11055674D02*
X10494872Y-11046150D01*
X10494872Y-11046150D02*
X10513920Y-11046150D01*
X10580586Y-11179484D02*
X10580586Y-11046150D01*
X10580586Y-10979484D02*
X10571063Y-10989008D01*
X10571063Y-10989008D02*
X10580586Y-10998531D01*
X10580586Y-10998531D02*
X10590110Y-10989008D01*
X10590110Y-10989008D02*
X10580586Y-10979484D01*
X10580586Y-10979484D02*
X10580586Y-10998531D01*
X10704396Y-11179484D02*
X10685348Y-11169960D01*
X10685348Y-11169960D02*
X10675824Y-11150912D01*
X10675824Y-11150912D02*
X10675824Y-10979484D01*
X10809158Y-11179484D02*
X10790110Y-11169960D01*
X10790110Y-11169960D02*
X10780586Y-11150912D01*
X10780586Y-11150912D02*
X10780586Y-10979484D01*
X11037729Y-11179484D02*
X11037729Y-10979484D01*
X11037729Y-10979484D02*
X11104396Y-11122341D01*
X11104396Y-11122341D02*
X11171063Y-10979484D01*
X11171063Y-10979484D02*
X11171063Y-11179484D01*
X11352015Y-11179484D02*
X11352015Y-11074722D01*
X11352015Y-11074722D02*
X11342491Y-11055674D01*
X11342491Y-11055674D02*
X11323443Y-11046150D01*
X11323443Y-11046150D02*
X11285348Y-11046150D01*
X11285348Y-11046150D02*
X11266301Y-11055674D01*
X11352015Y-11169960D02*
X11332967Y-11179484D01*
X11332967Y-11179484D02*
X11285348Y-11179484D01*
X11285348Y-11179484D02*
X11266301Y-11169960D01*
X11266301Y-11169960D02*
X11256777Y-11150912D01*
X11256777Y-11150912D02*
X11256777Y-11131865D01*
X11256777Y-11131865D02*
X11266301Y-11112817D01*
X11266301Y-11112817D02*
X11285348Y-11103293D01*
X11285348Y-11103293D02*
X11332967Y-11103293D01*
X11332967Y-11103293D02*
X11352015Y-11093770D01*
X11447253Y-11046150D02*
X11447253Y-11246150D01*
X11447253Y-11055674D02*
X11466301Y-11046150D01*
X11466301Y-11046150D02*
X11504396Y-11046150D01*
X11504396Y-11046150D02*
X11523443Y-11055674D01*
X11523443Y-11055674D02*
X11532967Y-11065198D01*
X11532967Y-11065198D02*
X11542491Y-11084246D01*
X11542491Y-11084246D02*
X11542491Y-11141389D01*
X11542491Y-11141389D02*
X11532967Y-11160436D01*
X11532967Y-11160436D02*
X11523443Y-11169960D01*
X11523443Y-11169960D02*
X11504396Y-11179484D01*
X11504396Y-11179484D02*
X11466301Y-11179484D01*
X11466301Y-11179484D02*
X11447253Y-11169960D01*
X11628205Y-11160436D02*
X11637729Y-11169960D01*
X11637729Y-11169960D02*
X11628205Y-11179484D01*
X11628205Y-11179484D02*
X11618682Y-11169960D01*
X11618682Y-11169960D02*
X11628205Y-11160436D01*
X11628205Y-11160436D02*
X11628205Y-11179484D01*
X11628205Y-11055674D02*
X11637729Y-11065198D01*
X11637729Y-11065198D02*
X11628205Y-11074722D01*
X11628205Y-11074722D02*
X11618682Y-11065198D01*
X11618682Y-11065198D02*
X11628205Y-11055674D01*
X11628205Y-11055674D02*
X11628205Y-11074722D01*
X9796000Y-11408000D02*
X9996000Y-11608000D01*
X9996000Y-11408000D02*
X9796000Y-11608000D01*
X10247253Y-11418531D02*
X10256777Y-11409008D01*
X10256777Y-11409008D02*
X10275824Y-11399484D01*
X10275824Y-11399484D02*
X10323444Y-11399484D01*
X10323444Y-11399484D02*
X10342491Y-11409008D01*
X10342491Y-11409008D02*
X10352015Y-11418531D01*
X10352015Y-11418531D02*
X10361539Y-11437579D01*
X10361539Y-11437579D02*
X10361539Y-11456627D01*
X10361539Y-11456627D02*
X10352015Y-11485198D01*
X10352015Y-11485198D02*
X10237729Y-11599484D01*
X10237729Y-11599484D02*
X10361539Y-11599484D01*
X10447253Y-11580436D02*
X10456777Y-11589960D01*
X10456777Y-11589960D02*
X10447253Y-11599484D01*
X10447253Y-11599484D02*
X10437729Y-11589960D01*
X10437729Y-11589960D02*
X10447253Y-11580436D01*
X10447253Y-11580436D02*
X10447253Y-11599484D01*
X10532967Y-11418531D02*
X10542491Y-11409008D01*
X10542491Y-11409008D02*
X10561539Y-11399484D01*
X10561539Y-11399484D02*
X10609158Y-11399484D01*
X10609158Y-11399484D02*
X10628205Y-11409008D01*
X10628205Y-11409008D02*
X10637729Y-11418531D01*
X10637729Y-11418531D02*
X10647253Y-11437579D01*
X10647253Y-11437579D02*
X10647253Y-11456627D01*
X10647253Y-11456627D02*
X10637729Y-11485198D01*
X10637729Y-11485198D02*
X10523444Y-11599484D01*
X10523444Y-11599484D02*
X10647253Y-11599484D01*
X10771063Y-11399484D02*
X10790110Y-11399484D01*
X10790110Y-11399484D02*
X10809158Y-11409008D01*
X10809158Y-11409008D02*
X10818682Y-11418531D01*
X10818682Y-11418531D02*
X10828205Y-11437579D01*
X10828205Y-11437579D02*
X10837729Y-11475674D01*
X10837729Y-11475674D02*
X10837729Y-11523293D01*
X10837729Y-11523293D02*
X10828205Y-11561388D01*
X10828205Y-11561388D02*
X10818682Y-11580436D01*
X10818682Y-11580436D02*
X10809158Y-11589960D01*
X10809158Y-11589960D02*
X10790110Y-11599484D01*
X10790110Y-11599484D02*
X10771063Y-11599484D01*
X10771063Y-11599484D02*
X10752015Y-11589960D01*
X10752015Y-11589960D02*
X10742491Y-11580436D01*
X10742491Y-11580436D02*
X10732967Y-11561388D01*
X10732967Y-11561388D02*
X10723444Y-11523293D01*
X10723444Y-11523293D02*
X10723444Y-11475674D01*
X10723444Y-11475674D02*
X10732967Y-11437579D01*
X10732967Y-11437579D02*
X10742491Y-11418531D01*
X10742491Y-11418531D02*
X10752015Y-11409008D01*
X10752015Y-11409008D02*
X10771063Y-11399484D01*
X10961539Y-11399484D02*
X10980586Y-11399484D01*
X10980586Y-11399484D02*
X10999634Y-11409008D01*
X10999634Y-11409008D02*
X11009158Y-11418531D01*
X11009158Y-11418531D02*
X11018682Y-11437579D01*
X11018682Y-11437579D02*
X11028205Y-11475674D01*
X11028205Y-11475674D02*
X11028205Y-11523293D01*
X11028205Y-11523293D02*
X11018682Y-11561388D01*
X11018682Y-11561388D02*
X11009158Y-11580436D01*
X11009158Y-11580436D02*
X10999634Y-11589960D01*
X10999634Y-11589960D02*
X10980586Y-11599484D01*
X10980586Y-11599484D02*
X10961539Y-11599484D01*
X10961539Y-11599484D02*
X10942491Y-11589960D01*
X10942491Y-11589960D02*
X10932967Y-11580436D01*
X10932967Y-11580436D02*
X10923444Y-11561388D01*
X10923444Y-11561388D02*
X10913920Y-11523293D01*
X10913920Y-11523293D02*
X10913920Y-11475674D01*
X10913920Y-11475674D02*
X10923444Y-11437579D01*
X10923444Y-11437579D02*
X10932967Y-11418531D01*
X10932967Y-11418531D02*
X10942491Y-11409008D01*
X10942491Y-11409008D02*
X10961539Y-11399484D01*
X11113920Y-11599484D02*
X11113920Y-11466150D01*
X11113920Y-11485198D02*
X11123444Y-11475674D01*
X11123444Y-11475674D02*
X11142491Y-11466150D01*
X11142491Y-11466150D02*
X11171063Y-11466150D01*
X11171063Y-11466150D02*
X11190110Y-11475674D01*
X11190110Y-11475674D02*
X11199634Y-11494722D01*
X11199634Y-11494722D02*
X11199634Y-11599484D01*
X11199634Y-11494722D02*
X11209158Y-11475674D01*
X11209158Y-11475674D02*
X11228205Y-11466150D01*
X11228205Y-11466150D02*
X11256777Y-11466150D01*
X11256777Y-11466150D02*
X11275824Y-11475674D01*
X11275824Y-11475674D02*
X11285348Y-11494722D01*
X11285348Y-11494722D02*
X11285348Y-11599484D01*
X11380586Y-11599484D02*
X11380586Y-11466150D01*
X11380586Y-11485198D02*
X11390110Y-11475674D01*
X11390110Y-11475674D02*
X11409158Y-11466150D01*
X11409158Y-11466150D02*
X11437729Y-11466150D01*
X11437729Y-11466150D02*
X11456777Y-11475674D01*
X11456777Y-11475674D02*
X11466301Y-11494722D01*
X11466301Y-11494722D02*
X11466301Y-11599484D01*
X11466301Y-11494722D02*
X11475824Y-11475674D01*
X11475824Y-11475674D02*
X11494872Y-11466150D01*
X11494872Y-11466150D02*
X11523443Y-11466150D01*
X11523443Y-11466150D02*
X11542491Y-11475674D01*
X11542491Y-11475674D02*
X11552015Y-11494722D01*
X11552015Y-11494722D02*
X11552015Y-11599484D01*
X11942491Y-11389960D02*
X11771063Y-11647103D01*
X12199634Y-11399484D02*
X12218682Y-11399484D01*
X12218682Y-11399484D02*
X12237729Y-11409008D01*
X12237729Y-11409008D02*
X12247253Y-11418531D01*
X12247253Y-11418531D02*
X12256777Y-11437579D01*
X12256777Y-11437579D02*
X12266301Y-11475674D01*
X12266301Y-11475674D02*
X12266301Y-11523293D01*
X12266301Y-11523293D02*
X12256777Y-11561388D01*
X12256777Y-11561388D02*
X12247253Y-11580436D01*
X12247253Y-11580436D02*
X12237729Y-11589960D01*
X12237729Y-11589960D02*
X12218682Y-11599484D01*
X12218682Y-11599484D02*
X12199634Y-11599484D01*
X12199634Y-11599484D02*
X12180586Y-11589960D01*
X12180586Y-11589960D02*
X12171063Y-11580436D01*
X12171063Y-11580436D02*
X12161539Y-11561388D01*
X12161539Y-11561388D02*
X12152015Y-11523293D01*
X12152015Y-11523293D02*
X12152015Y-11475674D01*
X12152015Y-11475674D02*
X12161539Y-11437579D01*
X12161539Y-11437579D02*
X12171063Y-11418531D01*
X12171063Y-11418531D02*
X12180586Y-11409008D01*
X12180586Y-11409008D02*
X12199634Y-11399484D01*
X12352015Y-11580436D02*
X12361539Y-11589960D01*
X12361539Y-11589960D02*
X12352015Y-11599484D01*
X12352015Y-11599484D02*
X12342491Y-11589960D01*
X12342491Y-11589960D02*
X12352015Y-11580436D01*
X12352015Y-11580436D02*
X12352015Y-11599484D01*
X12485348Y-11399484D02*
X12504396Y-11399484D01*
X12504396Y-11399484D02*
X12523444Y-11409008D01*
X12523444Y-11409008D02*
X12532967Y-11418531D01*
X12532967Y-11418531D02*
X12542491Y-11437579D01*
X12542491Y-11437579D02*
X12552015Y-11475674D01*
X12552015Y-11475674D02*
X12552015Y-11523293D01*
X12552015Y-11523293D02*
X12542491Y-11561388D01*
X12542491Y-11561388D02*
X12532967Y-11580436D01*
X12532967Y-11580436D02*
X12523444Y-11589960D01*
X12523444Y-11589960D02*
X12504396Y-11599484D01*
X12504396Y-11599484D02*
X12485348Y-11599484D01*
X12485348Y-11599484D02*
X12466301Y-11589960D01*
X12466301Y-11589960D02*
X12456777Y-11580436D01*
X12456777Y-11580436D02*
X12447253Y-11561388D01*
X12447253Y-11561388D02*
X12437729Y-11523293D01*
X12437729Y-11523293D02*
X12437729Y-11475674D01*
X12437729Y-11475674D02*
X12447253Y-11437579D01*
X12447253Y-11437579D02*
X12456777Y-11418531D01*
X12456777Y-11418531D02*
X12466301Y-11409008D01*
X12466301Y-11409008D02*
X12485348Y-11399484D01*
X12666301Y-11485198D02*
X12647253Y-11475674D01*
X12647253Y-11475674D02*
X12637729Y-11466150D01*
X12637729Y-11466150D02*
X12628206Y-11447103D01*
X12628206Y-11447103D02*
X12628206Y-11437579D01*
X12628206Y-11437579D02*
X12637729Y-11418531D01*
X12637729Y-11418531D02*
X12647253Y-11409008D01*
X12647253Y-11409008D02*
X12666301Y-11399484D01*
X12666301Y-11399484D02*
X12704396Y-11399484D01*
X12704396Y-11399484D02*
X12723444Y-11409008D01*
X12723444Y-11409008D02*
X12732967Y-11418531D01*
X12732967Y-11418531D02*
X12742491Y-11437579D01*
X12742491Y-11437579D02*
X12742491Y-11447103D01*
X12742491Y-11447103D02*
X12732967Y-11466150D01*
X12732967Y-11466150D02*
X12723444Y-11475674D01*
X12723444Y-11475674D02*
X12704396Y-11485198D01*
X12704396Y-11485198D02*
X12666301Y-11485198D01*
X12666301Y-11485198D02*
X12647253Y-11494722D01*
X12647253Y-11494722D02*
X12637729Y-11504246D01*
X12637729Y-11504246D02*
X12628206Y-11523293D01*
X12628206Y-11523293D02*
X12628206Y-11561388D01*
X12628206Y-11561388D02*
X12637729Y-11580436D01*
X12637729Y-11580436D02*
X12647253Y-11589960D01*
X12647253Y-11589960D02*
X12666301Y-11599484D01*
X12666301Y-11599484D02*
X12704396Y-11599484D01*
X12704396Y-11599484D02*
X12723444Y-11589960D01*
X12723444Y-11589960D02*
X12732967Y-11580436D01*
X12732967Y-11580436D02*
X12742491Y-11561388D01*
X12742491Y-11561388D02*
X12742491Y-11523293D01*
X12742491Y-11523293D02*
X12732967Y-11504246D01*
X12732967Y-11504246D02*
X12723444Y-11494722D01*
X12723444Y-11494722D02*
X12704396Y-11485198D01*
X12913920Y-11399484D02*
X12875825Y-11399484D01*
X12875825Y-11399484D02*
X12856777Y-11409008D01*
X12856777Y-11409008D02*
X12847253Y-11418531D01*
X12847253Y-11418531D02*
X12828206Y-11447103D01*
X12828206Y-11447103D02*
X12818682Y-11485198D01*
X12818682Y-11485198D02*
X12818682Y-11561388D01*
X12818682Y-11561388D02*
X12828206Y-11580436D01*
X12828206Y-11580436D02*
X12837729Y-11589960D01*
X12837729Y-11589960D02*
X12856777Y-11599484D01*
X12856777Y-11599484D02*
X12894872Y-11599484D01*
X12894872Y-11599484D02*
X12913920Y-11589960D01*
X12913920Y-11589960D02*
X12923444Y-11580436D01*
X12923444Y-11580436D02*
X12932967Y-11561388D01*
X12932967Y-11561388D02*
X12932967Y-11513769D01*
X12932967Y-11513769D02*
X12923444Y-11494722D01*
X12923444Y-11494722D02*
X12913920Y-11485198D01*
X12913920Y-11485198D02*
X12894872Y-11475674D01*
X12894872Y-11475674D02*
X12856777Y-11475674D01*
X12856777Y-11475674D02*
X12837729Y-11485198D01*
X12837729Y-11485198D02*
X12828206Y-11494722D01*
X12828206Y-11494722D02*
X12818682Y-11513769D01*
X13104396Y-11399484D02*
X13066301Y-11399484D01*
X13066301Y-11399484D02*
X13047253Y-11409008D01*
X13047253Y-11409008D02*
X13037729Y-11418531D01*
X13037729Y-11418531D02*
X13018682Y-11447103D01*
X13018682Y-11447103D02*
X13009158Y-11485198D01*
X13009158Y-11485198D02*
X13009158Y-11561388D01*
X13009158Y-11561388D02*
X13018682Y-11580436D01*
X13018682Y-11580436D02*
X13028206Y-11589960D01*
X13028206Y-11589960D02*
X13047253Y-11599484D01*
X13047253Y-11599484D02*
X13085348Y-11599484D01*
X13085348Y-11599484D02*
X13104396Y-11589960D01*
X13104396Y-11589960D02*
X13113920Y-11580436D01*
X13113920Y-11580436D02*
X13123444Y-11561388D01*
X13123444Y-11561388D02*
X13123444Y-11513769D01*
X13123444Y-11513769D02*
X13113920Y-11494722D01*
X13113920Y-11494722D02*
X13104396Y-11485198D01*
X13104396Y-11485198D02*
X13085348Y-11475674D01*
X13085348Y-11475674D02*
X13047253Y-11475674D01*
X13047253Y-11475674D02*
X13028206Y-11485198D01*
X13028206Y-11485198D02*
X13018682Y-11494722D01*
X13018682Y-11494722D02*
X13009158Y-11513769D01*
X13199634Y-11399484D02*
X13199634Y-11437579D01*
X13275825Y-11399484D02*
X13275825Y-11437579D01*
X13571063Y-11675674D02*
X13561539Y-11666150D01*
X13561539Y-11666150D02*
X13542491Y-11637579D01*
X13542491Y-11637579D02*
X13532968Y-11618531D01*
X13532968Y-11618531D02*
X13523444Y-11589960D01*
X13523444Y-11589960D02*
X13513920Y-11542341D01*
X13513920Y-11542341D02*
X13513920Y-11504246D01*
X13513920Y-11504246D02*
X13523444Y-11456627D01*
X13523444Y-11456627D02*
X13532968Y-11428055D01*
X13532968Y-11428055D02*
X13542491Y-11409008D01*
X13542491Y-11409008D02*
X13561539Y-11380436D01*
X13561539Y-11380436D02*
X13571063Y-11370912D01*
X13752015Y-11599484D02*
X13637729Y-11599484D01*
X13694872Y-11599484D02*
X13694872Y-11399484D01*
X13694872Y-11399484D02*
X13675825Y-11428055D01*
X13675825Y-11428055D02*
X13656777Y-11447103D01*
X13656777Y-11447103D02*
X13637729Y-11456627D01*
X13990110Y-11599484D02*
X13990110Y-11399484D01*
X14075825Y-11599484D02*
X14075825Y-11494722D01*
X14075825Y-11494722D02*
X14066301Y-11475674D01*
X14066301Y-11475674D02*
X14047253Y-11466150D01*
X14047253Y-11466150D02*
X14018682Y-11466150D01*
X14018682Y-11466150D02*
X13999634Y-11475674D01*
X13999634Y-11475674D02*
X13990110Y-11485198D01*
X14199634Y-11599484D02*
X14180587Y-11589960D01*
X14180587Y-11589960D02*
X14171063Y-11580436D01*
X14171063Y-11580436D02*
X14161539Y-11561388D01*
X14161539Y-11561388D02*
X14161539Y-11504246D01*
X14161539Y-11504246D02*
X14171063Y-11485198D01*
X14171063Y-11485198D02*
X14180587Y-11475674D01*
X14180587Y-11475674D02*
X14199634Y-11466150D01*
X14199634Y-11466150D02*
X14228206Y-11466150D01*
X14228206Y-11466150D02*
X14247253Y-11475674D01*
X14247253Y-11475674D02*
X14256777Y-11485198D01*
X14256777Y-11485198D02*
X14266301Y-11504246D01*
X14266301Y-11504246D02*
X14266301Y-11561388D01*
X14266301Y-11561388D02*
X14256777Y-11580436D01*
X14256777Y-11580436D02*
X14247253Y-11589960D01*
X14247253Y-11589960D02*
X14228206Y-11599484D01*
X14228206Y-11599484D02*
X14199634Y-11599484D01*
X14380587Y-11599484D02*
X14361539Y-11589960D01*
X14361539Y-11589960D02*
X14352015Y-11570912D01*
X14352015Y-11570912D02*
X14352015Y-11399484D01*
X14532968Y-11589960D02*
X14513920Y-11599484D01*
X14513920Y-11599484D02*
X14475825Y-11599484D01*
X14475825Y-11599484D02*
X14456777Y-11589960D01*
X14456777Y-11589960D02*
X14447253Y-11570912D01*
X14447253Y-11570912D02*
X14447253Y-11494722D01*
X14447253Y-11494722D02*
X14456777Y-11475674D01*
X14456777Y-11475674D02*
X14475825Y-11466150D01*
X14475825Y-11466150D02*
X14513920Y-11466150D01*
X14513920Y-11466150D02*
X14532968Y-11475674D01*
X14532968Y-11475674D02*
X14542491Y-11494722D01*
X14542491Y-11494722D02*
X14542491Y-11513769D01*
X14542491Y-11513769D02*
X14447253Y-11532817D01*
X14609158Y-11675674D02*
X14618682Y-11666150D01*
X14618682Y-11666150D02*
X14637730Y-11637579D01*
X14637730Y-11637579D02*
X14647253Y-11618531D01*
X14647253Y-11618531D02*
X14656777Y-11589960D01*
X14656777Y-11589960D02*
X14666301Y-11542341D01*
X14666301Y-11542341D02*
X14666301Y-11504246D01*
X14666301Y-11504246D02*
X14656777Y-11456627D01*
X14656777Y-11456627D02*
X14647253Y-11428055D01*
X14647253Y-11428055D02*
X14637730Y-11409008D01*
X14637730Y-11409008D02*
X14618682Y-11380436D01*
X14618682Y-11380436D02*
X14609158Y-11370912D01*
X14971063Y-11675674D02*
X14961539Y-11666150D01*
X14961539Y-11666150D02*
X14942491Y-11637579D01*
X14942491Y-11637579D02*
X14932968Y-11618531D01*
X14932968Y-11618531D02*
X14923444Y-11589960D01*
X14923444Y-11589960D02*
X14913920Y-11542341D01*
X14913920Y-11542341D02*
X14913920Y-11504246D01*
X14913920Y-11504246D02*
X14923444Y-11456627D01*
X14923444Y-11456627D02*
X14932968Y-11428055D01*
X14932968Y-11428055D02*
X14942491Y-11409008D01*
X14942491Y-11409008D02*
X14961539Y-11380436D01*
X14961539Y-11380436D02*
X14971063Y-11370912D01*
X15047253Y-11466150D02*
X15047253Y-11599484D01*
X15047253Y-11485198D02*
X15056777Y-11475674D01*
X15056777Y-11475674D02*
X15075825Y-11466150D01*
X15075825Y-11466150D02*
X15104396Y-11466150D01*
X15104396Y-11466150D02*
X15123444Y-11475674D01*
X15123444Y-11475674D02*
X15132968Y-11494722D01*
X15132968Y-11494722D02*
X15132968Y-11599484D01*
X15256777Y-11599484D02*
X15237730Y-11589960D01*
X15237730Y-11589960D02*
X15228206Y-11580436D01*
X15228206Y-11580436D02*
X15218682Y-11561388D01*
X15218682Y-11561388D02*
X15218682Y-11504246D01*
X15218682Y-11504246D02*
X15228206Y-11485198D01*
X15228206Y-11485198D02*
X15237730Y-11475674D01*
X15237730Y-11475674D02*
X15256777Y-11466150D01*
X15256777Y-11466150D02*
X15285349Y-11466150D01*
X15285349Y-11466150D02*
X15304396Y-11475674D01*
X15304396Y-11475674D02*
X15313920Y-11485198D01*
X15313920Y-11485198D02*
X15323444Y-11504246D01*
X15323444Y-11504246D02*
X15323444Y-11561388D01*
X15323444Y-11561388D02*
X15313920Y-11580436D01*
X15313920Y-11580436D02*
X15304396Y-11589960D01*
X15304396Y-11589960D02*
X15285349Y-11599484D01*
X15285349Y-11599484D02*
X15256777Y-11599484D01*
X15380587Y-11466150D02*
X15456777Y-11466150D01*
X15409158Y-11399484D02*
X15409158Y-11570912D01*
X15409158Y-11570912D02*
X15418682Y-11589960D01*
X15418682Y-11589960D02*
X15437730Y-11599484D01*
X15437730Y-11599484D02*
X15456777Y-11599484D01*
X15675825Y-11466150D02*
X15675825Y-11666150D01*
X15675825Y-11475674D02*
X15694872Y-11466150D01*
X15694872Y-11466150D02*
X15732968Y-11466150D01*
X15732968Y-11466150D02*
X15752015Y-11475674D01*
X15752015Y-11475674D02*
X15761539Y-11485198D01*
X15761539Y-11485198D02*
X15771063Y-11504246D01*
X15771063Y-11504246D02*
X15771063Y-11561388D01*
X15771063Y-11561388D02*
X15761539Y-11580436D01*
X15761539Y-11580436D02*
X15752015Y-11589960D01*
X15752015Y-11589960D02*
X15732968Y-11599484D01*
X15732968Y-11599484D02*
X15694872Y-11599484D01*
X15694872Y-11599484D02*
X15675825Y-11589960D01*
X15885349Y-11599484D02*
X15866301Y-11589960D01*
X15866301Y-11589960D02*
X15856777Y-11570912D01*
X15856777Y-11570912D02*
X15856777Y-11399484D01*
X16047253Y-11599484D02*
X16047253Y-11494722D01*
X16047253Y-11494722D02*
X16037730Y-11475674D01*
X16037730Y-11475674D02*
X16018682Y-11466150D01*
X16018682Y-11466150D02*
X15980587Y-11466150D01*
X15980587Y-11466150D02*
X15961539Y-11475674D01*
X16047253Y-11589960D02*
X16028206Y-11599484D01*
X16028206Y-11599484D02*
X15980587Y-11599484D01*
X15980587Y-11599484D02*
X15961539Y-11589960D01*
X15961539Y-11589960D02*
X15952015Y-11570912D01*
X15952015Y-11570912D02*
X15952015Y-11551865D01*
X15952015Y-11551865D02*
X15961539Y-11532817D01*
X15961539Y-11532817D02*
X15980587Y-11523293D01*
X15980587Y-11523293D02*
X16028206Y-11523293D01*
X16028206Y-11523293D02*
X16047253Y-11513769D01*
X16113920Y-11466150D02*
X16190111Y-11466150D01*
X16142492Y-11399484D02*
X16142492Y-11570912D01*
X16142492Y-11570912D02*
X16152015Y-11589960D01*
X16152015Y-11589960D02*
X16171063Y-11599484D01*
X16171063Y-11599484D02*
X16190111Y-11599484D01*
X16332968Y-11589960D02*
X16313920Y-11599484D01*
X16313920Y-11599484D02*
X16275825Y-11599484D01*
X16275825Y-11599484D02*
X16256777Y-11589960D01*
X16256777Y-11589960D02*
X16247253Y-11570912D01*
X16247253Y-11570912D02*
X16247253Y-11494722D01*
X16247253Y-11494722D02*
X16256777Y-11475674D01*
X16256777Y-11475674D02*
X16275825Y-11466150D01*
X16275825Y-11466150D02*
X16313920Y-11466150D01*
X16313920Y-11466150D02*
X16332968Y-11475674D01*
X16332968Y-11475674D02*
X16342492Y-11494722D01*
X16342492Y-11494722D02*
X16342492Y-11513769D01*
X16342492Y-11513769D02*
X16247253Y-11532817D01*
X16513920Y-11599484D02*
X16513920Y-11399484D01*
X16513920Y-11589960D02*
X16494873Y-11599484D01*
X16494873Y-11599484D02*
X16456777Y-11599484D01*
X16456777Y-11599484D02*
X16437730Y-11589960D01*
X16437730Y-11589960D02*
X16428206Y-11580436D01*
X16428206Y-11580436D02*
X16418682Y-11561388D01*
X16418682Y-11561388D02*
X16418682Y-11504246D01*
X16418682Y-11504246D02*
X16428206Y-11485198D01*
X16428206Y-11485198D02*
X16437730Y-11475674D01*
X16437730Y-11475674D02*
X16456777Y-11466150D01*
X16456777Y-11466150D02*
X16494873Y-11466150D01*
X16494873Y-11466150D02*
X16513920Y-11475674D01*
X16590111Y-11675674D02*
X16599634Y-11666150D01*
X16599634Y-11666150D02*
X16618682Y-11637579D01*
X16618682Y-11637579D02*
X16628206Y-11618531D01*
X16628206Y-11618531D02*
X16637730Y-11589960D01*
X16637730Y-11589960D02*
X16647253Y-11542341D01*
X16647253Y-11542341D02*
X16647253Y-11504246D01*
X16647253Y-11504246D02*
X16637730Y-11456627D01*
X16637730Y-11456627D02*
X16628206Y-11428055D01*
X16628206Y-11428055D02*
X16618682Y-11409008D01*
X16618682Y-11409008D02*
X16599634Y-11380436D01*
X16599634Y-11380436D02*
X16590111Y-11370912D01*
M02*
