%TF.GenerationSoftware,KiCad,Pcbnew,7.0.6*%
%TF.CreationDate,2023-10-13T10:01:51+08:00*%
%TF.ProjectId,86_BOX_PANEL,38365f42-4f58-45f5-9041-4e454c2e6b69,rev?*%
%TF.SameCoordinates,Original*%
%TF.FileFunction,Copper,L2,Bot*%
%TF.FilePolarity,Positive*%
%FSLAX46Y46*%
G04 Gerber Fmt 4.6, Leading zero omitted, Abs format (unit mm)*
G04 Created by KiCad (PCBNEW 7.0.6) date 2023-10-13 10:01:51*
%MOMM*%
%LPD*%
G01*
G04 APERTURE LIST*
G04 Aperture macros list*
%AMRoundRect*
0 Rectangle with rounded corners*
0 $1 Rounding radius*
0 $2 $3 $4 $5 $6 $7 $8 $9 X,Y pos of 4 corners*
0 Add a 4 corners polygon primitive as box body*
4,1,4,$2,$3,$4,$5,$6,$7,$8,$9,$2,$3,0*
0 Add four circle primitives for the rounded corners*
1,1,$1+$1,$2,$3*
1,1,$1+$1,$4,$5*
1,1,$1+$1,$6,$7*
1,1,$1+$1,$8,$9*
0 Add four rect primitives between the rounded corners*
20,1,$1+$1,$2,$3,$4,$5,0*
20,1,$1+$1,$4,$5,$6,$7,0*
20,1,$1+$1,$6,$7,$8,$9,0*
20,1,$1+$1,$8,$9,$2,$3,0*%
G04 Aperture macros list end*
%TA.AperFunction,ComponentPad*%
%ADD10C,1.600000*%
%TD*%
%TA.AperFunction,ComponentPad*%
%ADD11C,6.000000*%
%TD*%
%TA.AperFunction,ComponentPad*%
%ADD12C,0.700000*%
%TD*%
%TA.AperFunction,ComponentPad*%
%ADD13C,4.400000*%
%TD*%
%TA.AperFunction,ComponentPad*%
%ADD14C,2.000000*%
%TD*%
%TA.AperFunction,ComponentPad*%
%ADD15O,2.000000X2.000000*%
%TD*%
%TA.AperFunction,ComponentPad*%
%ADD16C,1.800000*%
%TD*%
%TA.AperFunction,ComponentPad*%
%ADD17C,3.000000*%
%TD*%
%TA.AperFunction,SMDPad,CuDef*%
%ADD18RoundRect,0.250000X0.250000X0.475000X-0.250000X0.475000X-0.250000X-0.475000X0.250000X-0.475000X0*%
%TD*%
%TA.AperFunction,SMDPad,CuDef*%
%ADD19RoundRect,0.250000X-0.475000X0.250000X-0.475000X-0.250000X0.475000X-0.250000X0.475000X0.250000X0*%
%TD*%
%TA.AperFunction,SMDPad,CuDef*%
%ADD20RoundRect,0.237500X-0.300000X-0.237500X0.300000X-0.237500X0.300000X0.237500X-0.300000X0.237500X0*%
%TD*%
%TA.AperFunction,SMDPad,CuDef*%
%ADD21C,1.500000*%
%TD*%
%TA.AperFunction,SMDPad,CuDef*%
%ADD22RoundRect,0.237500X0.250000X0.237500X-0.250000X0.237500X-0.250000X-0.237500X0.250000X-0.237500X0*%
%TD*%
%TA.AperFunction,SMDPad,CuDef*%
%ADD23RoundRect,0.237500X-0.250000X-0.237500X0.250000X-0.237500X0.250000X0.237500X-0.250000X0.237500X0*%
%TD*%
%TA.AperFunction,SMDPad,CuDef*%
%ADD24R,0.650000X1.560000*%
%TD*%
%TA.AperFunction,SMDPad,CuDef*%
%ADD25R,0.900000X2.000000*%
%TD*%
%TA.AperFunction,SMDPad,CuDef*%
%ADD26R,2.000000X0.900000*%
%TD*%
%TA.AperFunction,SMDPad,CuDef*%
%ADD27R,5.000000X5.000000*%
%TD*%
%TA.AperFunction,SMDPad,CuDef*%
%ADD28R,2.000000X1.500000*%
%TD*%
%TA.AperFunction,SMDPad,CuDef*%
%ADD29R,2.000000X3.800000*%
%TD*%
%TA.AperFunction,SMDPad,CuDef*%
%ADD30RoundRect,0.200000X0.200000X0.800000X-0.200000X0.800000X-0.200000X-0.800000X0.200000X-0.800000X0*%
%TD*%
%TA.AperFunction,ComponentPad*%
%ADD31R,1.000000X1.000000*%
%TD*%
%TA.AperFunction,ComponentPad*%
%ADD32O,1.000000X1.000000*%
%TD*%
%TA.AperFunction,SMDPad,CuDef*%
%ADD33RoundRect,0.237500X0.300000X0.237500X-0.300000X0.237500X-0.300000X-0.237500X0.300000X-0.237500X0*%
%TD*%
%TA.AperFunction,SMDPad,CuDef*%
%ADD34RoundRect,0.250000X-0.250000X-0.475000X0.250000X-0.475000X0.250000X0.475000X-0.250000X0.475000X0*%
%TD*%
%TA.AperFunction,ViaPad*%
%ADD35C,0.500000*%
%TD*%
%TA.AperFunction,ViaPad*%
%ADD36C,0.800000*%
%TD*%
%TA.AperFunction,Conductor*%
%ADD37C,1.000000*%
%TD*%
%TA.AperFunction,Conductor*%
%ADD38C,0.250000*%
%TD*%
%TA.AperFunction,Conductor*%
%ADD39C,0.200000*%
%TD*%
%TA.AperFunction,Conductor*%
%ADD40C,0.600000*%
%TD*%
%TA.AperFunction,Conductor*%
%ADD41C,0.800000*%
%TD*%
%TA.AperFunction,Conductor*%
%ADD42C,1.500000*%
%TD*%
G04 APERTURE END LIST*
D10*
%TO.P,C5,1*%
%TO.N,Net-(C5-Pad1)*%
X113510000Y-88630000D03*
%TO.P,C5,2*%
%TO.N,Net-(J3-Pin_1)*%
X103510000Y-88630000D03*
%TD*%
D11*
%TO.P,J6,1,Pin_1*%
%TO.N,GND*%
X156510000Y-89880000D03*
%TD*%
D12*
%TO.P,H4,1*%
%TO.N,N/C*%
X101360000Y-64130000D03*
X101843274Y-62963274D03*
X101843274Y-65296726D03*
X103010000Y-62480000D03*
D13*
X103010000Y-64130000D03*
D12*
X103010000Y-65780000D03*
X104176726Y-62963274D03*
X104176726Y-65296726D03*
X104660000Y-64130000D03*
%TD*%
%TO.P,H1,1*%
%TO.N,N/C*%
X101360000Y-105630000D03*
X101843274Y-104463274D03*
X101843274Y-106796726D03*
X103010000Y-103980000D03*
D13*
X103010000Y-105630000D03*
D12*
X103010000Y-107280000D03*
X104176726Y-104463274D03*
X104176726Y-106796726D03*
X104660000Y-105630000D03*
%TD*%
D11*
%TO.P,J3,1,Pin_1*%
%TO.N,Net-(J3-Pin_1)*%
X103564000Y-70880000D03*
%TD*%
%TO.P,J2,1,Pin_1*%
%TO.N,Net-(J2-Pin_1)*%
X103500000Y-78880000D03*
%TD*%
D14*
%TO.P,FL1,1,1*%
%TO.N,Net-(C5-Pad1)*%
X104144000Y-93330000D03*
D15*
%TO.P,FL1,2,2*%
%TO.N,Net-(U1-AC1)*%
X104144000Y-100330000D03*
%TO.P,FL1,3,3*%
%TO.N,Net-(U1-AC2)*%
X112144000Y-100330000D03*
%TO.P,FL1,4,4*%
%TO.N,Net-(J3-Pin_1)*%
X112144000Y-93330000D03*
%TD*%
D12*
%TO.P,H2,1*%
%TO.N,N/C*%
X155360000Y-105630000D03*
X155843274Y-104463274D03*
X155843274Y-106796726D03*
X157010000Y-103980000D03*
D13*
X157010000Y-105630000D03*
D12*
X157010000Y-107280000D03*
X158176726Y-104463274D03*
X158176726Y-106796726D03*
X158660000Y-105630000D03*
%TD*%
D16*
%TO.P,RV1,1*%
%TO.N,Net-(C5-Pad1)*%
X111100000Y-77637500D03*
%TO.P,RV1,2*%
%TO.N,Net-(J3-Pin_1)*%
X114000000Y-70137500D03*
%TD*%
D11*
%TO.P,J5,1,Pin_1*%
%TO.N,Net-(D1-A)*%
X149510000Y-105130000D03*
%TD*%
D14*
%TO.P,F1,1*%
%TO.N,Net-(J2-Pin_1)*%
X107970000Y-83630000D03*
%TO.P,F1,2*%
%TO.N,Net-(C5-Pad1)*%
X113050000Y-83640000D03*
%TD*%
D17*
%TO.P,U1,1,AC1*%
%TO.N,Net-(U1-AC1)*%
X126860000Y-106130000D03*
%TO.P,U1,2,AC2*%
%TO.N,Net-(U1-AC2)*%
X134660000Y-106130000D03*
%TO.P,U1,3,VO+*%
%TO.N,5V*%
X142060000Y-63630000D03*
%TO.P,U1,4,VO-*%
%TO.N,GND*%
X119460000Y-63630000D03*
%TD*%
D18*
%TO.P,C4,1*%
%TO.N,GND*%
X130260000Y-91380000D03*
%TO.P,C4,2*%
%TO.N,5V*%
X128360000Y-91380000D03*
%TD*%
D19*
%TO.P,C2,1*%
%TO.N,3V3*%
X131141589Y-74370000D03*
%TO.P,C2,2*%
%TO.N,GND*%
X131141589Y-76270000D03*
%TD*%
D20*
%TO.P,C7,1*%
%TO.N,/EN*%
X141897500Y-101880000D03*
%TO.P,C7,2*%
%TO.N,GND*%
X143622500Y-101880000D03*
%TD*%
D14*
%TO.P,J1,1,Pin_1*%
%TO.N,5V_OUT*%
X125010000Y-84880000D03*
%TD*%
D21*
%TO.P,TP1,1,1*%
%TO.N,5V*%
X145260000Y-63630000D03*
%TD*%
D22*
%TO.P,R2,1*%
%TO.N,Net-(U2-EN)*%
X121672500Y-89630000D03*
%TO.P,R2,2*%
%TO.N,/CHARGER_EN*%
X119847500Y-89630000D03*
%TD*%
D14*
%TO.P,J4,1,Pin_1*%
%TO.N,GND*%
X130010000Y-84880000D03*
%TD*%
D23*
%TO.P,R1,1*%
%TO.N,Net-(U2-SET)*%
X119785000Y-91380000D03*
%TO.P,R1,2*%
%TO.N,GND*%
X121610000Y-91380000D03*
%TD*%
D21*
%TO.P,TP4,1,1*%
%TO.N,5V_OUT*%
X122010000Y-84380000D03*
%TD*%
%TO.P,TP3,1,1*%
%TO.N,3V3*%
X131510000Y-79380000D03*
%TD*%
D22*
%TO.P,R5,1*%
%TO.N,Net-(ESP1-RXD0)*%
X111672500Y-67880000D03*
%TO.P,R5,2*%
%TO.N,/RXD0*%
X109847500Y-67880000D03*
%TD*%
D24*
%TO.P,U2,1,VOUT*%
%TO.N,5V_OUT*%
X126510000Y-93980000D03*
%TO.P,U2,2,GND*%
%TO.N,GND*%
X125560000Y-93980000D03*
%TO.P,U2,3,SET*%
%TO.N,Net-(U2-SET)*%
X124610000Y-93980000D03*
%TO.P,U2,4,EN*%
%TO.N,Net-(U2-EN)*%
X124610000Y-91280000D03*
%TO.P,U2,5,VIN*%
%TO.N,5V*%
X126510000Y-91280000D03*
%TD*%
D21*
%TO.P,TP2,1,1*%
%TO.N,GND*%
X151010000Y-63630000D03*
%TD*%
D25*
%TO.P,ESP1,P$1,GND1*%
%TO.N,GND*%
X152550000Y-84180000D03*
%TO.P,ESP1,P$2,3V3*%
%TO.N,3V3*%
X151280000Y-84180000D03*
%TO.P,ESP1,P$3,EN*%
%TO.N,/EN*%
X150010000Y-84180000D03*
%TO.P,ESP1,P$4,SENSOR_VP*%
%TO.N,unconnected-(ESP1-SENSOR_VP-PadP$4)*%
X148740000Y-84180000D03*
%TO.P,ESP1,P$5,SENSOR_VN*%
%TO.N,unconnected-(ESP1-SENSOR_VN-PadP$5)*%
X147470000Y-84180000D03*
%TO.P,ESP1,P$6,IO34*%
%TO.N,unconnected-(ESP1-IO34-PadP$6)*%
X146200000Y-84180000D03*
%TO.P,ESP1,P$7,IO35*%
%TO.N,unconnected-(ESP1-IO35-PadP$7)*%
X144930000Y-84180000D03*
%TO.P,ESP1,P$8,IO32*%
%TO.N,unconnected-(ESP1-IO32-PadP$8)*%
X143660000Y-84180000D03*
%TO.P,ESP1,P$9,IO33*%
%TO.N,unconnected-(ESP1-IO33-PadP$9)*%
X142390000Y-84180000D03*
%TO.P,ESP1,P$10,IO25*%
%TO.N,unconnected-(ESP1-IO25-PadP$10)*%
X141120000Y-84180000D03*
%TO.P,ESP1,P$11,IO26*%
%TO.N,unconnected-(ESP1-IO26-PadP$11)*%
X139850000Y-84180000D03*
%TO.P,ESP1,P$12,IO27*%
%TO.N,unconnected-(ESP1-IO27-PadP$12)*%
X138580000Y-84180000D03*
%TO.P,ESP1,P$13,IO14*%
%TO.N,unconnected-(ESP1-IO14-PadP$13)*%
X137310000Y-84180000D03*
%TO.P,ESP1,P$14,IO12*%
%TO.N,unconnected-(ESP1-IO12-PadP$14)*%
X136040000Y-84180000D03*
D26*
%TO.P,ESP1,P$15,GND2*%
%TO.N,GND*%
X135040000Y-81395000D03*
%TO.P,ESP1,P$16,IO13*%
%TO.N,unconnected-(ESP1-IO13-PadP$16)*%
X135040000Y-80125000D03*
%TO.P,ESP1,P$17,SD2*%
%TO.N,unconnected-(ESP1-SD2-PadP$17)*%
X135040000Y-78855000D03*
%TO.P,ESP1,P$18,SD3*%
%TO.N,unconnected-(ESP1-SD3-PadP$18)*%
X135040000Y-77585000D03*
%TO.P,ESP1,P$19,CMD*%
%TO.N,unconnected-(ESP1-CMD-PadP$19)*%
X135040000Y-76315000D03*
%TO.P,ESP1,P$20,CLK*%
%TO.N,unconnected-(ESP1-CLK-PadP$20)*%
X135040000Y-75045000D03*
%TO.P,ESP1,P$21,SD0*%
%TO.N,unconnected-(ESP1-SD0-PadP$21)*%
X135040000Y-73775000D03*
%TO.P,ESP1,P$22,SD1*%
%TO.N,unconnected-(ESP1-SD1-PadP$22)*%
X135040000Y-72505000D03*
%TO.P,ESP1,P$23,IO15*%
%TO.N,unconnected-(ESP1-IO15-PadP$23)*%
X135040000Y-71235000D03*
%TO.P,ESP1,P$24,IO2*%
%TO.N,unconnected-(ESP1-IO2-PadP$24)*%
X135040000Y-69965000D03*
D25*
%TO.P,ESP1,P$25,IO0*%
%TO.N,/IO0*%
X136040000Y-67180000D03*
%TO.P,ESP1,P$26,IO4*%
%TO.N,unconnected-(ESP1-IO4-PadP$26)*%
X137310000Y-67180000D03*
%TO.P,ESP1,P$27,IO16*%
%TO.N,unconnected-(ESP1-IO16-PadP$27)*%
X138580000Y-67180000D03*
%TO.P,ESP1,P$28,IO17*%
%TO.N,unconnected-(ESP1-IO17-PadP$28)*%
X139850000Y-67180000D03*
%TO.P,ESP1,P$29,IO5*%
%TO.N,unconnected-(ESP1-IO5-PadP$29)*%
X141120000Y-67180000D03*
%TO.P,ESP1,P$30,IO18*%
%TO.N,unconnected-(ESP1-IO18-PadP$30)*%
X142390000Y-67180000D03*
%TO.P,ESP1,P$31,IO19*%
%TO.N,unconnected-(ESP1-IO19-PadP$31)*%
X143660000Y-67180000D03*
%TO.P,ESP1,P$32,NC1*%
%TO.N,unconnected-(ESP1-NC1-PadP$32)*%
X144930000Y-67180000D03*
%TO.P,ESP1,P$33,IO21*%
%TO.N,unconnected-(ESP1-IO21-PadP$33)*%
X146200000Y-67180000D03*
%TO.P,ESP1,P$34,RXD0*%
%TO.N,Net-(ESP1-RXD0)*%
X147470000Y-67180000D03*
%TO.P,ESP1,P$35,TXD0*%
%TO.N,Net-(ESP1-TXD0)*%
X148740000Y-67180000D03*
%TO.P,ESP1,P$36,IO22*%
%TO.N,unconnected-(ESP1-IO22-PadP$36)*%
X150010000Y-67180000D03*
%TO.P,ESP1,P$37,IO23*%
%TO.N,/CHARGER_EN*%
X151280000Y-67180000D03*
%TO.P,ESP1,P$38,GND3*%
%TO.N,GND*%
X152550000Y-67180000D03*
D27*
%TO.P,ESP1,P$39,GND4*%
X145050000Y-76680000D03*
%TD*%
D28*
%TO.P,U3,1,GND*%
%TO.N,GND*%
X122360000Y-76930000D03*
%TO.P,U3,2,VO*%
%TO.N,3V3*%
X122360000Y-74630000D03*
D29*
X128660000Y-74630000D03*
D28*
%TO.P,U3,3,VI*%
%TO.N,5V*%
X122360000Y-72330000D03*
%TD*%
D23*
%TO.P,R3,1*%
%TO.N,3V3*%
X137935000Y-101880000D03*
%TO.P,R3,2*%
%TO.N,/EN*%
X139760000Y-101880000D03*
%TD*%
D22*
%TO.P,R4,1*%
%TO.N,Net-(ESP1-TXD0)*%
X111676500Y-65990000D03*
%TO.P,R4,2*%
%TO.N,/TXD0*%
X109851500Y-65990000D03*
%TD*%
D30*
%TO.P,SW2,1,1*%
%TO.N,GND*%
X122860000Y-105880000D03*
%TO.P,SW2,2,2*%
%TO.N,/IO0*%
X118660000Y-105880000D03*
%TD*%
%TO.P,SW1,1,1*%
%TO.N,GND*%
X143860000Y-105880000D03*
%TO.P,SW1,2,2*%
%TO.N,/EN*%
X139660000Y-105880000D03*
%TD*%
D31*
%TO.P,J7,1,Pin_1*%
%TO.N,3V3*%
X111760000Y-62880000D03*
D32*
%TO.P,J7,2,Pin_2*%
%TO.N,/TXD0*%
X110490000Y-62880000D03*
%TO.P,J7,3,Pin_3*%
%TO.N,/RXD0*%
X109220000Y-62880000D03*
%TO.P,J7,4,Pin_4*%
%TO.N,GND*%
X107950000Y-62880000D03*
%TD*%
D33*
%TO.P,C9,1*%
%TO.N,GND*%
X122260000Y-102480000D03*
%TO.P,C9,2*%
%TO.N,/IO0*%
X120535000Y-102480000D03*
%TD*%
D34*
%TO.P,C1,1*%
%TO.N,5V*%
X122060000Y-69380000D03*
%TO.P,C1,2*%
%TO.N,GND*%
X123960000Y-69380000D03*
%TD*%
%TO.P,C3,1*%
%TO.N,GND*%
X119884000Y-87520000D03*
%TO.P,C3,2*%
%TO.N,5V_OUT*%
X121784000Y-87520000D03*
%TD*%
D20*
%TO.P,C8,1*%
%TO.N,GND*%
X137897500Y-99880000D03*
%TO.P,C8,2*%
%TO.N,/EN*%
X139622500Y-99880000D03*
%TD*%
D35*
%TO.N,5V*%
X153344000Y-87300000D03*
X153620000Y-94940000D03*
X153401225Y-91402775D03*
%TO.N,GND*%
X125510000Y-76880000D03*
X159284000Y-94080000D03*
X125510000Y-92130000D03*
X144760000Y-90380000D03*
X141010000Y-76380000D03*
X143760000Y-90380000D03*
X150510000Y-89380000D03*
D36*
X143552000Y-78196000D03*
D35*
X138010000Y-100880000D03*
X152604000Y-85770000D03*
X140510000Y-89380000D03*
X148760000Y-71380000D03*
X149760000Y-61880000D03*
X152010000Y-88880000D03*
X159464000Y-87560000D03*
X149260000Y-62880000D03*
D36*
X143552000Y-75148000D03*
D35*
X144760000Y-89380000D03*
X151510000Y-89630000D03*
X123010000Y-91380000D03*
D36*
X143552000Y-76672000D03*
D35*
X121760000Y-93130000D03*
X148260000Y-89380000D03*
D36*
X145050000Y-78204000D03*
D35*
X140510000Y-90380000D03*
X129010000Y-69880000D03*
X153260000Y-63130000D03*
X150510000Y-90380000D03*
X125760000Y-69630000D03*
X159510000Y-91380000D03*
X145740000Y-91310000D03*
D36*
X145050000Y-76680000D03*
D35*
X149510000Y-89380000D03*
X152794000Y-65140000D03*
X122510000Y-62630000D03*
D36*
X146600000Y-76672000D03*
D35*
X136510000Y-98380000D03*
X137260000Y-64630000D03*
X138510000Y-103380000D03*
X147010000Y-90380000D03*
D36*
X146600000Y-75148000D03*
D35*
X145760000Y-89380000D03*
X151510000Y-71380000D03*
X144260000Y-71630000D03*
X133010000Y-100130000D03*
X146900000Y-91330000D03*
D36*
X146600000Y-78196000D03*
D35*
X149510000Y-90380000D03*
X148260000Y-90380000D03*
X138010000Y-94630000D03*
X146870000Y-92380000D03*
X135510000Y-97130000D03*
D36*
X145050000Y-75156000D03*
D35*
X154010000Y-87630000D03*
X145760000Y-90380000D03*
X117010000Y-64380000D03*
X147010000Y-89380000D03*
X143760000Y-89380000D03*
X125084000Y-102250000D03*
X156760000Y-97630000D03*
X128760000Y-80630000D03*
X151260000Y-88880000D03*
X145700000Y-92390000D03*
X152044000Y-65390000D03*
X137260000Y-80880000D03*
X127010000Y-99130000D03*
X125510000Y-72630000D03*
X153260000Y-93380000D03*
%TO.N,/IO0*%
X128794000Y-67140000D03*
X120510000Y-100880000D03*
%TO.N,Net-(ESP1-RXD0)*%
X113010000Y-67880000D03*
X126760000Y-66155000D03*
%TO.N,Net-(ESP1-TXD0)*%
X127510000Y-65355500D03*
X113535000Y-65405000D03*
%TO.N,3V3*%
X132135000Y-71505000D03*
%TO.N,/CHARGER_EN*%
X118760000Y-89630000D03*
X118260000Y-73130000D03*
%TO.N,Net-(U4-SW)*%
X144260000Y-92380000D03*
X143510000Y-92380000D03*
X143760000Y-87380000D03*
X143010000Y-87380000D03*
X142760000Y-91630000D03*
X143510000Y-93130000D03*
X143010000Y-88130000D03*
X144260000Y-91630000D03*
X142260000Y-87380000D03*
X141510000Y-87380000D03*
X141510000Y-88130000D03*
X144260000Y-93130000D03*
X142760000Y-93130000D03*
X151260000Y-87380000D03*
X143760000Y-88130000D03*
X143510000Y-91630000D03*
X152604000Y-89510000D03*
X142260000Y-88130000D03*
X142760000Y-92380000D03*
%TD*%
D37*
%TO.N,5V*%
X122060000Y-69380000D02*
X122060000Y-72030000D01*
X131160000Y-81780000D02*
X132260000Y-82880000D01*
D38*
X153294000Y-87300000D02*
X153134000Y-87460000D01*
D37*
X126610000Y-91380000D02*
X126510000Y-91280000D01*
X131985000Y-92755000D02*
X129637208Y-92755000D01*
X132260000Y-82880000D02*
X132260000Y-92480000D01*
D38*
X153344000Y-87300000D02*
X153294000Y-87300000D01*
X153134000Y-87460000D02*
X153134000Y-91135550D01*
D37*
X119660000Y-74080000D02*
X119660000Y-78780000D01*
X132260000Y-92480000D02*
X131985000Y-92755000D01*
X122660000Y-81780000D02*
X131160000Y-81780000D01*
X119660000Y-78780000D02*
X122660000Y-81780000D01*
X142060000Y-63630000D02*
X126110000Y-63630000D01*
X128360000Y-91380000D02*
X126610000Y-91380000D01*
X122060000Y-72030000D02*
X122360000Y-72330000D01*
X122060000Y-67680000D02*
X122060000Y-69380000D01*
D38*
X145260000Y-63630000D02*
X142060000Y-63630000D01*
D37*
X128360000Y-91477792D02*
X128360000Y-91380000D01*
D39*
X153770000Y-91771550D02*
X153770000Y-94790000D01*
D37*
X122360000Y-72330000D02*
X121410000Y-72330000D01*
X121410000Y-72330000D02*
X119660000Y-74080000D01*
D39*
X153770000Y-94790000D02*
X153620000Y-94940000D01*
X153401225Y-91402775D02*
X153770000Y-91771550D01*
D37*
X126110000Y-63630000D02*
X122060000Y-67680000D01*
D38*
X153134000Y-91135550D02*
X153694225Y-91695775D01*
D37*
X129637208Y-92755000D02*
X128360000Y-91477792D01*
D40*
%TO.N,/EN*%
X141897500Y-101880000D02*
X139760000Y-101880000D01*
D38*
X135213250Y-95470750D02*
X139622500Y-99880000D01*
D40*
X139622500Y-101742500D02*
X139760000Y-101880000D01*
X139660000Y-101980000D02*
X139760000Y-101880000D01*
D38*
X150010000Y-84180000D02*
X150010000Y-85430000D01*
D40*
X139622500Y-99880000D02*
X139622500Y-101742500D01*
D38*
X149550000Y-85890000D02*
X138794000Y-85890000D01*
X135160000Y-89524000D02*
X135160000Y-95417500D01*
X150010000Y-85430000D02*
X149550000Y-85890000D01*
D40*
X139660000Y-105880000D02*
X139660000Y-101980000D01*
D38*
X135160000Y-95417500D02*
X135213250Y-95470750D01*
X138794000Y-85890000D02*
X135160000Y-89524000D01*
%TO.N,/IO0*%
X120535000Y-100905000D02*
X120510000Y-100880000D01*
X120535000Y-102480000D02*
X120535000Y-100905000D01*
X118660000Y-104355000D02*
X120535000Y-102480000D01*
X128834000Y-67180000D02*
X136040000Y-67180000D01*
X128794000Y-67140000D02*
X128834000Y-67180000D01*
X118660000Y-105880000D02*
X118660000Y-104355000D01*
%TO.N,Net-(ESP1-RXD0)*%
X147470000Y-68630000D02*
X147210000Y-68890000D01*
X113010000Y-67880000D02*
X111672500Y-67880000D01*
X129495000Y-68890000D02*
X126760000Y-66155000D01*
X147210000Y-68890000D02*
X129495000Y-68890000D01*
X147470000Y-68630000D02*
X147470000Y-67180000D01*
%TO.N,Net-(ESP1-TXD0)*%
X111672500Y-65880000D02*
X112360000Y-65880000D01*
X148740000Y-66086000D02*
X148134000Y-65480000D01*
X112360000Y-65880000D02*
X112835000Y-65405000D01*
X127634500Y-65480000D02*
X127510000Y-65355500D01*
X148134000Y-65480000D02*
X127634500Y-65480000D01*
X148740000Y-66086000D02*
X148740000Y-67180000D01*
X112835000Y-65405000D02*
X113535000Y-65405000D01*
%TO.N,/TXD0*%
X110490000Y-65237500D02*
X109847500Y-65880000D01*
X110490000Y-62880000D02*
X110490000Y-65237500D01*
%TO.N,/RXD0*%
X109220000Y-62880000D02*
X108760000Y-63340000D01*
X108760000Y-63340000D02*
X108760000Y-67380000D01*
X109260000Y-67880000D02*
X109847500Y-67880000D01*
X108760000Y-67380000D02*
X109260000Y-67880000D01*
D41*
%TO.N,3V3*%
X142160000Y-81680000D02*
X150060000Y-81680000D01*
D38*
X134760000Y-83460000D02*
X134760000Y-98705000D01*
D41*
X140960000Y-80480000D02*
X142160000Y-81680000D01*
D37*
X151280000Y-84180000D02*
X151280000Y-82900000D01*
X122360000Y-74630000D02*
X128660000Y-74630000D01*
D38*
X136891370Y-82380000D02*
X135840000Y-82380000D01*
D41*
X131260000Y-74251589D02*
X131141589Y-74370000D01*
D38*
X134760000Y-83460000D02*
X131510000Y-80210000D01*
X135840000Y-82380000D02*
X134760000Y-83460000D01*
D41*
X132135000Y-71505000D02*
X131260000Y-72380000D01*
X131260000Y-72380000D02*
X131260000Y-74251589D01*
D38*
X131510000Y-80210000D02*
X131510000Y-79380000D01*
X128660000Y-76530000D02*
X128660000Y-74630000D01*
D37*
X128920000Y-74370000D02*
X128660000Y-74630000D01*
D38*
X140960000Y-80480000D02*
X138791370Y-80480000D01*
X134760000Y-98705000D02*
X137935000Y-101880000D01*
D37*
X131141589Y-74370000D02*
X128920000Y-74370000D01*
D38*
X138791370Y-80480000D02*
X136891370Y-82380000D01*
D41*
X150060000Y-81680000D02*
X151280000Y-82900000D01*
D38*
X131510000Y-79380000D02*
X128660000Y-76530000D01*
D37*
%TO.N,5V_OUT*%
X116894000Y-86840000D02*
X116894000Y-92960000D01*
X126344000Y-96130000D02*
X126535000Y-95939000D01*
X121784000Y-86510000D02*
X120754000Y-85480000D01*
X120064000Y-96130000D02*
X126344000Y-96130000D01*
X118254000Y-85480000D02*
X116894000Y-86840000D01*
X125010000Y-84880000D02*
X124424000Y-84880000D01*
X120754000Y-85480000D02*
X118254000Y-85480000D01*
X121784000Y-87520000D02*
X121784000Y-84606000D01*
X121784000Y-84606000D02*
X122010000Y-84380000D01*
X116894000Y-92960000D02*
X120064000Y-96130000D01*
X124424000Y-84880000D02*
X121784000Y-87520000D01*
X121784000Y-87520000D02*
X121784000Y-86510000D01*
X126535000Y-95939000D02*
X126535000Y-93980000D01*
D42*
%TO.N,Net-(U1-AC2)*%
X132383654Y-106130000D02*
X125753654Y-99500000D01*
X125753654Y-99500000D02*
X118184000Y-99500000D01*
X118184000Y-99500000D02*
X117354000Y-100330000D01*
X117354000Y-100330000D02*
X112144000Y-100330000D01*
X134660000Y-106130000D02*
X132383654Y-106130000D01*
D40*
%TO.N,Net-(U2-SET)*%
X124610000Y-93980000D02*
X122935000Y-92305000D01*
X120710000Y-92305000D02*
X119785000Y-91380000D01*
X122935000Y-92305000D02*
X120710000Y-92305000D01*
D38*
%TO.N,Net-(U2-EN)*%
X122760000Y-89430000D02*
X122760000Y-89380000D01*
X121922500Y-89380000D02*
X121672500Y-89630000D01*
X124610000Y-91280000D02*
X122760000Y-89430000D01*
X122760000Y-89380000D02*
X121922500Y-89380000D01*
%TO.N,/CHARGER_EN*%
X126035000Y-61855000D02*
X118260000Y-69630000D01*
X118260000Y-69630000D02*
X118260000Y-73130000D01*
X151280000Y-65876000D02*
X151280000Y-67180000D01*
X147259000Y-61855000D02*
X126035000Y-61855000D01*
X151280000Y-65876000D02*
X147259000Y-61855000D01*
X118760000Y-89630000D02*
X119847500Y-89630000D01*
D42*
%TO.N,Net-(J3-Pin_1)*%
X108210000Y-93330000D02*
X112144000Y-93330000D01*
X108604000Y-75934000D02*
X103500000Y-70830000D01*
X103510000Y-88630000D02*
X103510000Y-84944000D01*
X103510000Y-88630000D02*
X108210000Y-93330000D01*
X103510000Y-84944000D02*
X108604000Y-79850000D01*
X108604000Y-79850000D02*
X108604000Y-75934000D01*
D38*
%TO.N,Net-(U4-SW)*%
X152201851Y-87380000D02*
X151260000Y-87380000D01*
X152544000Y-89450000D02*
X152544000Y-87722149D01*
X152604000Y-89510000D02*
X152544000Y-89450000D01*
X152544000Y-87722149D02*
X152201851Y-87380000D01*
%TD*%
%TA.AperFunction,Conductor*%
%TO.N,GND*%
G36*
X125778210Y-61300185D02*
G01*
X125823965Y-61352989D01*
X125833909Y-61422147D01*
X125804884Y-61485703D01*
X125784060Y-61504815D01*
X125781781Y-61506470D01*
X125757807Y-61530445D01*
X125757806Y-61530446D01*
X125757805Y-61530447D01*
X121877554Y-65410698D01*
X117989339Y-69298912D01*
X117911472Y-69376778D01*
X117900510Y-69398293D01*
X117890346Y-69414878D01*
X117876152Y-69434414D01*
X117876151Y-69434417D01*
X117868688Y-69457385D01*
X117861243Y-69475358D01*
X117850280Y-69496873D01*
X117846503Y-69520722D01*
X117841962Y-69539639D01*
X117834500Y-69562604D01*
X117834500Y-72738134D01*
X117814815Y-72805173D01*
X117808876Y-72813620D01*
X117779138Y-72852374D01*
X117723671Y-72986287D01*
X117723670Y-72986291D01*
X117710028Y-73089914D01*
X117704750Y-73130000D01*
X117721208Y-73255012D01*
X117723670Y-73273708D01*
X117723671Y-73273712D01*
X117779137Y-73407622D01*
X117779138Y-73407624D01*
X117779139Y-73407625D01*
X117867379Y-73522621D01*
X117982375Y-73610861D01*
X117982376Y-73610861D01*
X117982377Y-73610862D01*
X117994888Y-73616044D01*
X118116291Y-73666330D01*
X118243280Y-73683048D01*
X118259999Y-73685250D01*
X118260000Y-73685250D01*
X118260001Y-73685250D01*
X118274977Y-73683278D01*
X118403709Y-73666330D01*
X118537625Y-73610861D01*
X118652621Y-73522621D01*
X118740861Y-73407625D01*
X118796330Y-73273709D01*
X118815250Y-73130000D01*
X118796330Y-72986291D01*
X118740861Y-72852375D01*
X118740861Y-72852374D01*
X118711124Y-72813620D01*
X118685930Y-72748450D01*
X118685500Y-72738134D01*
X118685500Y-69857610D01*
X118705185Y-69790571D01*
X118721819Y-69769929D01*
X119828842Y-68662906D01*
X121060070Y-67431677D01*
X121121391Y-67398194D01*
X121191083Y-67403178D01*
X121247016Y-67445050D01*
X121271433Y-67510514D01*
X121270968Y-67533259D01*
X121269954Y-67542243D01*
X121268790Y-67549092D01*
X121259500Y-67589806D01*
X121259500Y-69335046D01*
X121259499Y-71215087D01*
X121239814Y-71282127D01*
X121195927Y-71320154D01*
X121196713Y-71321301D01*
X121187236Y-71327792D01*
X121107793Y-71407236D01*
X121062415Y-71510006D01*
X121062415Y-71510008D01*
X121059500Y-71535131D01*
X121059294Y-71538704D01*
X121059087Y-71538692D01*
X121059087Y-71538694D01*
X121059053Y-71538690D01*
X121057673Y-71538610D01*
X121039815Y-71599428D01*
X120989305Y-71644107D01*
X120986109Y-71645646D01*
X120981411Y-71647909D01*
X120948767Y-71673941D01*
X120943096Y-71677964D01*
X120907738Y-71700183D01*
X120907733Y-71700187D01*
X120817168Y-71790750D01*
X120817160Y-71790761D01*
X119140296Y-73467625D01*
X119030183Y-73577739D01*
X119007966Y-73613096D01*
X119003941Y-73618769D01*
X118977910Y-73651410D01*
X118959791Y-73689033D01*
X118956427Y-73695120D01*
X118934212Y-73730476D01*
X118934208Y-73730483D01*
X118920416Y-73769895D01*
X118917755Y-73776320D01*
X118899639Y-73813939D01*
X118890344Y-73854659D01*
X118888419Y-73861341D01*
X118874632Y-73900744D01*
X118869955Y-73942235D01*
X118868791Y-73949089D01*
X118859500Y-73989806D01*
X118859500Y-78870191D01*
X118859501Y-78870200D01*
X118868791Y-78910908D01*
X118869955Y-78917763D01*
X118874632Y-78959259D01*
X118888420Y-78998662D01*
X118890345Y-79005345D01*
X118899639Y-79046061D01*
X118917759Y-79083688D01*
X118920421Y-79090114D01*
X118934212Y-79129525D01*
X118956422Y-79164872D01*
X118959787Y-79170959D01*
X118977910Y-79208589D01*
X119003940Y-79241229D01*
X119007966Y-79246904D01*
X119030182Y-79282259D01*
X119030184Y-79282262D01*
X119062174Y-79314252D01*
X122027841Y-82279918D01*
X122027851Y-82279929D01*
X122030183Y-82282261D01*
X122030184Y-82282262D01*
X122157738Y-82409816D01*
X122193103Y-82432037D01*
X122198768Y-82436057D01*
X122231414Y-82462092D01*
X122269038Y-82480210D01*
X122275123Y-82483574D01*
X122310478Y-82505789D01*
X122349899Y-82519583D01*
X122356307Y-82522238D01*
X122393939Y-82540360D01*
X122434641Y-82549650D01*
X122441328Y-82551576D01*
X122480742Y-82565367D01*
X122480745Y-82565368D01*
X122522241Y-82570043D01*
X122529093Y-82571207D01*
X122569806Y-82580500D01*
X122615046Y-82580500D01*
X130777060Y-82580500D01*
X130844099Y-82600185D01*
X130864740Y-82616818D01*
X131423181Y-83175260D01*
X131456665Y-83236581D01*
X131459499Y-83262939D01*
X131459499Y-84518100D01*
X131439814Y-84585139D01*
X131387010Y-84630894D01*
X131317852Y-84640838D01*
X131254296Y-84611813D01*
X131216522Y-84553035D01*
X131215724Y-84550193D01*
X131189105Y-84450849D01*
X131189101Y-84450840D01*
X131096668Y-84252615D01*
X130980320Y-84086454D01*
X130459815Y-84606959D01*
X130442942Y-84574396D01*
X130344436Y-84468923D01*
X130282167Y-84431056D01*
X130803545Y-83909677D01*
X130803545Y-83909676D01*
X130637388Y-83793333D01*
X130637386Y-83793332D01*
X130439159Y-83700898D01*
X130439150Y-83700894D01*
X130227894Y-83644289D01*
X130227884Y-83644287D01*
X130010001Y-83625225D01*
X130009999Y-83625225D01*
X129792115Y-83644287D01*
X129792105Y-83644289D01*
X129580849Y-83700894D01*
X129580840Y-83700898D01*
X129382613Y-83793333D01*
X129216454Y-83909678D01*
X129734287Y-84427510D01*
X129622704Y-84518291D01*
X129560143Y-84606919D01*
X129039678Y-84086454D01*
X128923333Y-84252613D01*
X128830898Y-84450840D01*
X128830894Y-84450849D01*
X128774289Y-84662105D01*
X128774287Y-84662115D01*
X128755225Y-84879999D01*
X128755225Y-84880000D01*
X128774287Y-85097884D01*
X128774289Y-85097894D01*
X128830894Y-85309150D01*
X128830898Y-85309159D01*
X128923332Y-85507386D01*
X128923333Y-85507388D01*
X129039677Y-85673545D01*
X129560184Y-85153038D01*
X129577058Y-85185604D01*
X129675564Y-85291077D01*
X129737832Y-85328943D01*
X129216453Y-85850321D01*
X129382612Y-85966666D01*
X129580840Y-86059101D01*
X129580849Y-86059105D01*
X129792105Y-86115710D01*
X129792115Y-86115712D01*
X130009999Y-86134775D01*
X130010001Y-86134775D01*
X130227884Y-86115712D01*
X130227894Y-86115710D01*
X130439150Y-86059105D01*
X130439159Y-86059101D01*
X130637387Y-85966666D01*
X130803545Y-85850321D01*
X130285712Y-85332489D01*
X130397296Y-85241709D01*
X130459856Y-85153080D01*
X130980321Y-85673545D01*
X131096666Y-85507387D01*
X131189101Y-85309159D01*
X131189105Y-85309150D01*
X131215724Y-85209806D01*
X131252089Y-85150146D01*
X131314935Y-85119616D01*
X131384311Y-85127910D01*
X131438189Y-85172395D01*
X131459464Y-85238947D01*
X131459499Y-85241899D01*
X131459500Y-91830500D01*
X131439815Y-91897539D01*
X131387011Y-91943294D01*
X131335500Y-91954500D01*
X131134000Y-91954500D01*
X131066961Y-91934815D01*
X131021206Y-91882011D01*
X131010000Y-91830500D01*
X131010000Y-91505000D01*
X130259000Y-91505000D01*
X130191961Y-91485315D01*
X130146206Y-91432511D01*
X130135000Y-91381000D01*
X130135000Y-90405000D01*
X130385000Y-90405000D01*
X130385000Y-91255000D01*
X131010000Y-91255000D01*
X131010000Y-90857172D01*
X131009999Y-90857155D01*
X131003598Y-90797627D01*
X131003596Y-90797620D01*
X130953354Y-90662913D01*
X130953350Y-90662906D01*
X130867190Y-90547812D01*
X130867187Y-90547809D01*
X130752093Y-90461649D01*
X130752086Y-90461645D01*
X130617379Y-90411403D01*
X130617372Y-90411401D01*
X130557844Y-90405000D01*
X130385000Y-90405000D01*
X130135000Y-90405000D01*
X129962155Y-90405000D01*
X129902627Y-90411401D01*
X129902620Y-90411403D01*
X129767913Y-90461645D01*
X129767906Y-90461649D01*
X129652812Y-90547809D01*
X129652809Y-90547812D01*
X129566649Y-90662906D01*
X129566645Y-90662913D01*
X129516403Y-90797620D01*
X129516401Y-90797627D01*
X129510000Y-90857155D01*
X129510000Y-91196351D01*
X129490315Y-91263390D01*
X129437511Y-91309145D01*
X129368353Y-91319089D01*
X129304797Y-91290064D01*
X129298319Y-91284033D01*
X129249473Y-91235187D01*
X129196816Y-91182530D01*
X129163333Y-91121210D01*
X129160500Y-91094859D01*
X129160500Y-90861898D01*
X129149877Y-90773436D01*
X129094361Y-90632658D01*
X129094360Y-90632657D01*
X129094360Y-90632656D01*
X129002922Y-90512077D01*
X128882343Y-90420639D01*
X128741561Y-90365122D01*
X128695926Y-90359642D01*
X128653102Y-90354500D01*
X128066898Y-90354500D01*
X128027853Y-90359188D01*
X127978438Y-90365122D01*
X127837656Y-90420639D01*
X127717078Y-90512077D01*
X127703163Y-90530427D01*
X127646970Y-90571949D01*
X127604360Y-90579500D01*
X127259499Y-90579500D01*
X127192460Y-90559815D01*
X127146705Y-90507011D01*
X127136190Y-90458680D01*
X127135705Y-90458709D01*
X127135527Y-90455628D01*
X127135499Y-90455500D01*
X127135499Y-90455143D01*
X127135499Y-90455136D01*
X127135497Y-90455117D01*
X127132586Y-90430012D01*
X127132585Y-90430010D01*
X127132585Y-90430009D01*
X127087206Y-90327235D01*
X127007765Y-90247794D01*
X127007765Y-90247793D01*
X126904992Y-90202415D01*
X126879865Y-90199500D01*
X126140143Y-90199500D01*
X126140117Y-90199502D01*
X126115012Y-90202413D01*
X126115008Y-90202415D01*
X126012235Y-90247793D01*
X125932794Y-90327234D01*
X125887415Y-90430006D01*
X125887415Y-90430008D01*
X125884500Y-90455131D01*
X125884500Y-90737060D01*
X125864815Y-90804099D01*
X125857448Y-90814372D01*
X125827907Y-90851415D01*
X125749639Y-91013939D01*
X125709500Y-91189799D01*
X125709500Y-91370200D01*
X125749639Y-91546060D01*
X125827907Y-91708584D01*
X125827908Y-91708585D01*
X125827909Y-91708587D01*
X125836975Y-91719956D01*
X125857447Y-91745626D01*
X125883855Y-91810313D01*
X125884500Y-91822939D01*
X125884500Y-92104856D01*
X125884502Y-92104882D01*
X125887413Y-92129987D01*
X125887415Y-92129991D01*
X125932793Y-92232764D01*
X125932794Y-92232765D01*
X126012235Y-92312206D01*
X126115009Y-92357585D01*
X126140135Y-92360500D01*
X126879864Y-92360499D01*
X126879879Y-92360497D01*
X126879882Y-92360497D01*
X126904987Y-92357586D01*
X126904988Y-92357585D01*
X126904991Y-92357585D01*
X127007765Y-92312206D01*
X127087206Y-92232765D01*
X127087206Y-92232764D01*
X127095331Y-92224640D01*
X127096555Y-92225864D01*
X127140190Y-92190242D01*
X127188369Y-92180500D01*
X127604360Y-92180500D01*
X127671399Y-92200185D01*
X127703163Y-92229573D01*
X127717078Y-92247922D01*
X127837656Y-92339360D01*
X127837657Y-92339360D01*
X127837658Y-92339361D01*
X127978436Y-92394877D01*
X128066898Y-92405500D01*
X128104268Y-92405500D01*
X128171307Y-92425185D01*
X128191949Y-92441819D01*
X129134947Y-93384817D01*
X129140947Y-93388587D01*
X129170299Y-93407030D01*
X129175963Y-93411048D01*
X129208621Y-93437092D01*
X129246262Y-93455218D01*
X129252324Y-93458569D01*
X129276073Y-93473492D01*
X129287682Y-93480787D01*
X129287683Y-93480787D01*
X129287686Y-93480789D01*
X129326163Y-93494252D01*
X129327089Y-93494576D01*
X129333518Y-93497239D01*
X129349369Y-93504872D01*
X129371147Y-93515360D01*
X129411863Y-93524653D01*
X129418536Y-93526576D01*
X129446070Y-93536210D01*
X129457953Y-93540368D01*
X129499449Y-93545043D01*
X129506301Y-93546207D01*
X129547014Y-93555500D01*
X129547016Y-93555500D01*
X132075194Y-93555500D01*
X132115903Y-93546208D01*
X132122760Y-93545043D01*
X132164255Y-93540368D01*
X132203680Y-93526571D01*
X132210321Y-93524658D01*
X132251061Y-93515360D01*
X132288693Y-93497236D01*
X132295105Y-93494580D01*
X132334522Y-93480789D01*
X132369889Y-93458565D01*
X132375961Y-93455209D01*
X132413587Y-93437091D01*
X132446239Y-93411051D01*
X132451895Y-93407037D01*
X132487262Y-93384816D01*
X132614816Y-93257262D01*
X132614816Y-93257261D01*
X132857826Y-93014252D01*
X132857825Y-93014252D01*
X132889816Y-92982262D01*
X132889817Y-92982259D01*
X132894078Y-92977999D01*
X132896627Y-92971421D01*
X132912041Y-92946890D01*
X132916045Y-92941247D01*
X132942092Y-92908586D01*
X132960213Y-92870955D01*
X132963570Y-92864881D01*
X132985789Y-92829522D01*
X132999581Y-92790107D01*
X133002244Y-92783679D01*
X133015749Y-92755635D01*
X133020360Y-92746061D01*
X133029658Y-92705321D01*
X133031571Y-92698680D01*
X133045368Y-92659255D01*
X133050043Y-92617760D01*
X133051208Y-92610905D01*
X133058933Y-92577059D01*
X133060500Y-92570194D01*
X133060500Y-92389806D01*
X133060500Y-82835046D01*
X133060500Y-82789806D01*
X133051207Y-82749093D01*
X133050042Y-82742233D01*
X133045368Y-82700745D01*
X133045367Y-82700742D01*
X133034457Y-82669562D01*
X133030896Y-82599784D01*
X133065625Y-82539156D01*
X133127618Y-82506929D01*
X133197194Y-82513334D01*
X133239180Y-82540927D01*
X134298181Y-83599928D01*
X134331666Y-83661251D01*
X134334500Y-83687609D01*
X134334500Y-98772394D01*
X134341962Y-98795358D01*
X134346503Y-98814273D01*
X134349470Y-98833010D01*
X134350281Y-98838127D01*
X134361243Y-98859641D01*
X134368688Y-98877615D01*
X134376150Y-98900579D01*
X134390341Y-98920111D01*
X134400508Y-98936703D01*
X134411469Y-98958216D01*
X134411471Y-98958219D01*
X134411472Y-98958220D01*
X134435446Y-98982193D01*
X134435446Y-98982194D01*
X135803083Y-100349830D01*
X137110681Y-101657428D01*
X137144166Y-101718751D01*
X137147000Y-101745109D01*
X137147000Y-102159618D01*
X137157382Y-102246074D01*
X137157382Y-102246075D01*
X137211639Y-102383660D01*
X137300999Y-102501500D01*
X137418839Y-102590860D01*
X137418842Y-102590862D01*
X137556423Y-102645117D01*
X137614062Y-102652039D01*
X137642881Y-102655500D01*
X137642882Y-102655500D01*
X138227119Y-102655500D01*
X138248732Y-102652904D01*
X138313577Y-102645117D01*
X138451158Y-102590862D01*
X138569000Y-102501500D01*
X138658362Y-102383658D01*
X138712617Y-102246077D01*
X138723000Y-102159618D01*
X138723000Y-101600382D01*
X138712617Y-101513923D01*
X138658362Y-101376342D01*
X138604438Y-101305232D01*
X138569000Y-101258499D01*
X138451160Y-101169139D01*
X138451158Y-101169138D01*
X138313577Y-101114883D01*
X138313576Y-101114882D01*
X138313574Y-101114882D01*
X138227119Y-101104500D01*
X138227118Y-101104500D01*
X137812609Y-101104500D01*
X137745570Y-101084815D01*
X137724928Y-101068181D01*
X137473428Y-100816681D01*
X137439943Y-100755358D01*
X137444927Y-100685666D01*
X137486799Y-100629733D01*
X137552263Y-100605316D01*
X137561109Y-100605000D01*
X137772500Y-100605000D01*
X137772500Y-100005000D01*
X137110000Y-100005000D01*
X137110000Y-100153890D01*
X137090315Y-100220929D01*
X137037511Y-100266684D01*
X136968353Y-100276628D01*
X136904797Y-100247603D01*
X136898319Y-100241571D01*
X136411748Y-99755000D01*
X137110000Y-99755000D01*
X137772500Y-99755000D01*
X137772500Y-99155000D01*
X137550853Y-99155000D01*
X137492812Y-99161241D01*
X137361462Y-99210232D01*
X137249241Y-99294241D01*
X137165232Y-99406462D01*
X137116241Y-99537812D01*
X137110000Y-99595853D01*
X137110000Y-99755000D01*
X136411748Y-99755000D01*
X135221819Y-98565071D01*
X135188334Y-98503748D01*
X135185500Y-98477390D01*
X135185500Y-96344109D01*
X135205185Y-96277070D01*
X135257989Y-96231315D01*
X135327147Y-96221371D01*
X135390703Y-96250396D01*
X135397181Y-96256428D01*
X138084072Y-98943319D01*
X138117557Y-99004642D01*
X138112573Y-99074334D01*
X138070701Y-99130267D01*
X138033272Y-99144227D01*
X138022500Y-99155000D01*
X138022500Y-100605000D01*
X138244130Y-100605000D01*
X138244146Y-100604999D01*
X138302187Y-100598758D01*
X138433537Y-100549767D01*
X138545758Y-100465758D01*
X138632542Y-100349830D01*
X138688476Y-100307959D01*
X138758167Y-100302975D01*
X138819490Y-100336460D01*
X138847163Y-100378650D01*
X138849137Y-100383656D01*
X138849139Y-100383660D01*
X138911396Y-100465758D01*
X138938500Y-100501500D01*
X138972925Y-100527605D01*
X139014448Y-100583795D01*
X139022000Y-100626408D01*
X139022000Y-101389893D01*
X139013355Y-101435382D01*
X138982383Y-101513921D01*
X138982382Y-101513925D01*
X138972000Y-101600381D01*
X138972000Y-102159618D01*
X138982382Y-102246074D01*
X138982382Y-102246075D01*
X139036639Y-102383660D01*
X139040796Y-102391053D01*
X139038725Y-102392217D01*
X139059126Y-102445883D01*
X139059500Y-102455505D01*
X139059500Y-104738561D01*
X139039815Y-104805600D01*
X139034767Y-104812872D01*
X139016204Y-104837668D01*
X139016202Y-104837671D01*
X138965908Y-104972517D01*
X138962210Y-105006921D01*
X138959501Y-105032123D01*
X138959500Y-105032135D01*
X138959500Y-106727870D01*
X138959501Y-106727876D01*
X138965908Y-106787483D01*
X139016202Y-106922328D01*
X139016206Y-106922335D01*
X139102452Y-107037544D01*
X139102455Y-107037547D01*
X139217664Y-107123793D01*
X139217671Y-107123797D01*
X139235158Y-107130319D01*
X139352517Y-107174091D01*
X139412127Y-107180500D01*
X139907872Y-107180499D01*
X139967483Y-107174091D01*
X140102331Y-107123796D01*
X140217546Y-107037546D01*
X140303796Y-106922331D01*
X140354091Y-106787483D01*
X140360500Y-106727873D01*
X140360499Y-106005000D01*
X143210001Y-106005000D01*
X143210001Y-106734196D01*
X143212851Y-106764606D01*
X143257653Y-106892645D01*
X143338207Y-107001792D01*
X143447354Y-107082346D01*
X143575397Y-107127149D01*
X143605778Y-107129998D01*
X143605806Y-107129999D01*
X143734999Y-107129999D01*
X143735000Y-107129998D01*
X143735000Y-106005000D01*
X143985000Y-106005000D01*
X143985000Y-107129999D01*
X144114196Y-107129999D01*
X144144606Y-107127148D01*
X144272645Y-107082346D01*
X144381792Y-107001792D01*
X144462346Y-106892645D01*
X144507149Y-106764604D01*
X144507149Y-106764600D01*
X144510000Y-106734206D01*
X144510000Y-106005000D01*
X143985000Y-106005000D01*
X143735000Y-106005000D01*
X143210001Y-106005000D01*
X140360499Y-106005000D01*
X140360499Y-105755000D01*
X143210000Y-105755000D01*
X143735000Y-105755000D01*
X143735000Y-104630000D01*
X143985000Y-104630000D01*
X143985000Y-105755000D01*
X144509999Y-105755000D01*
X144509999Y-105025803D01*
X144507148Y-104995393D01*
X144462346Y-104867354D01*
X144381792Y-104758207D01*
X144272645Y-104677653D01*
X144144602Y-104632850D01*
X144114207Y-104630000D01*
X143985000Y-104630000D01*
X143735000Y-104630000D01*
X143605804Y-104630000D01*
X143575393Y-104632851D01*
X143447354Y-104677653D01*
X143338207Y-104758207D01*
X143257653Y-104867354D01*
X143212850Y-104995395D01*
X143212850Y-104995399D01*
X143210000Y-105025793D01*
X143210000Y-105755000D01*
X140360499Y-105755000D01*
X140360499Y-105032128D01*
X140354091Y-104972517D01*
X140327756Y-104901910D01*
X140303797Y-104837671D01*
X140303795Y-104837668D01*
X140285233Y-104812872D01*
X140260816Y-104747408D01*
X140260500Y-104738561D01*
X140260500Y-102664325D01*
X140280185Y-102597286D01*
X140309575Y-102565521D01*
X140330350Y-102549767D01*
X140388467Y-102505695D01*
X140453777Y-102480873D01*
X140463391Y-102480500D01*
X141144109Y-102480500D01*
X141211148Y-102500185D01*
X141219013Y-102505680D01*
X141331342Y-102590862D01*
X141468923Y-102645117D01*
X141526562Y-102652038D01*
X141555381Y-102655500D01*
X141555382Y-102655500D01*
X142239619Y-102655500D01*
X142261232Y-102652904D01*
X142326077Y-102645117D01*
X142463658Y-102590862D01*
X142581500Y-102501500D01*
X142670862Y-102383658D01*
X142672834Y-102378656D01*
X142715735Y-102323512D01*
X142781641Y-102300314D01*
X142849627Y-102316431D01*
X142887457Y-102349830D01*
X142974241Y-102465758D01*
X143086462Y-102549767D01*
X143217812Y-102598758D01*
X143275853Y-102604999D01*
X143275870Y-102605000D01*
X143497500Y-102605000D01*
X143497500Y-102005000D01*
X143747500Y-102005000D01*
X143747500Y-102605000D01*
X143969130Y-102605000D01*
X143969146Y-102604999D01*
X144027187Y-102598758D01*
X144158537Y-102549767D01*
X144270758Y-102465758D01*
X144354767Y-102353537D01*
X144403758Y-102222187D01*
X144409999Y-102164146D01*
X144410000Y-102164129D01*
X144410000Y-102005000D01*
X143747500Y-102005000D01*
X143497500Y-102005000D01*
X143497500Y-101155000D01*
X143747500Y-101155000D01*
X143747500Y-101755000D01*
X144410000Y-101755000D01*
X144410000Y-101595870D01*
X144409999Y-101595853D01*
X144403758Y-101537812D01*
X144354767Y-101406462D01*
X144270758Y-101294241D01*
X144158537Y-101210232D01*
X144027187Y-101161241D01*
X143969146Y-101155000D01*
X143747500Y-101155000D01*
X143497500Y-101155000D01*
X143275853Y-101155000D01*
X143217812Y-101161241D01*
X143086462Y-101210232D01*
X142974240Y-101294241D01*
X142887456Y-101410170D01*
X142831522Y-101452040D01*
X142761831Y-101457024D01*
X142700508Y-101423538D01*
X142672835Y-101381346D01*
X142670862Y-101376342D01*
X142670861Y-101376341D01*
X142670861Y-101376340D01*
X142670860Y-101376339D01*
X142581500Y-101258499D01*
X142463660Y-101169139D01*
X142463658Y-101169138D01*
X142326077Y-101114883D01*
X142326076Y-101114882D01*
X142326074Y-101114882D01*
X142239619Y-101104500D01*
X142239618Y-101104500D01*
X141555382Y-101104500D01*
X141555381Y-101104500D01*
X141468925Y-101114882D01*
X141468924Y-101114882D01*
X141331341Y-101169138D01*
X141294347Y-101197192D01*
X141219031Y-101254305D01*
X141153723Y-101279127D01*
X141144109Y-101279500D01*
X140463391Y-101279500D01*
X140396352Y-101259815D01*
X140388470Y-101254306D01*
X140330349Y-101210232D01*
X140272074Y-101166040D01*
X140230551Y-101109848D01*
X140223000Y-101067237D01*
X140223000Y-100626408D01*
X140242685Y-100559369D01*
X140272072Y-100527606D01*
X140306500Y-100501500D01*
X140395862Y-100383658D01*
X140450117Y-100246077D01*
X140460500Y-100159618D01*
X140460500Y-99600382D01*
X140450117Y-99513923D01*
X140395862Y-99376342D01*
X140395860Y-99376339D01*
X140306500Y-99258499D01*
X140188660Y-99169139D01*
X140188658Y-99169138D01*
X140051077Y-99114883D01*
X140051076Y-99114882D01*
X140051074Y-99114882D01*
X139964619Y-99104500D01*
X139964618Y-99104500D01*
X139500109Y-99104500D01*
X139433070Y-99084815D01*
X139412428Y-99068181D01*
X135621819Y-95277571D01*
X135588334Y-95216248D01*
X135585500Y-95189890D01*
X135585500Y-93256000D01*
X140704500Y-93256000D01*
X140704501Y-93256009D01*
X140711481Y-93320935D01*
X140711483Y-93320947D01*
X140722688Y-93372451D01*
X140722687Y-93372450D01*
X140733644Y-93410654D01*
X140733646Y-93410658D01*
X140790323Y-93507568D01*
X140790325Y-93507571D01*
X140836081Y-93560376D01*
X140836091Y-93560387D01*
X140880807Y-93602548D01*
X140880809Y-93602549D01*
X140880813Y-93602553D01*
X140980889Y-93653439D01*
X141047928Y-93673124D01*
X141134000Y-93685500D01*
X141134003Y-93685500D01*
X144385990Y-93685500D01*
X144386000Y-93685500D01*
X144450941Y-93678518D01*
X144502450Y-93667312D01*
X144502450Y-93667313D01*
X144530846Y-93659168D01*
X144540658Y-93656354D01*
X144637571Y-93599675D01*
X144690375Y-93553920D01*
X144690382Y-93553912D01*
X144690387Y-93553908D01*
X144720147Y-93522343D01*
X144732553Y-93509187D01*
X144783439Y-93409111D01*
X144803124Y-93342072D01*
X144815500Y-93256000D01*
X144815500Y-91504000D01*
X144808518Y-91439059D01*
X144797312Y-91387549D01*
X144797313Y-91387550D01*
X144786355Y-91349345D01*
X144786354Y-91349344D01*
X144786354Y-91349342D01*
X144729675Y-91252429D01*
X144683920Y-91199625D01*
X144683918Y-91199623D01*
X144683908Y-91199612D01*
X144639192Y-91157451D01*
X144639189Y-91157449D01*
X144639187Y-91157447D01*
X144539111Y-91106561D01*
X144539110Y-91106560D01*
X144539109Y-91106560D01*
X144472078Y-91086877D01*
X144472072Y-91086876D01*
X144386000Y-91074500D01*
X144385997Y-91074500D01*
X143439500Y-91074500D01*
X143372461Y-91054815D01*
X143326706Y-91002011D01*
X143315500Y-90950500D01*
X143315500Y-89309500D01*
X143335185Y-89242461D01*
X143387989Y-89196706D01*
X143439500Y-89185500D01*
X143885990Y-89185500D01*
X143886000Y-89185500D01*
X143950941Y-89178518D01*
X144002450Y-89167312D01*
X144002450Y-89167313D01*
X144030846Y-89159168D01*
X144040658Y-89156354D01*
X144137571Y-89099675D01*
X144190375Y-89053920D01*
X144190382Y-89053912D01*
X144190387Y-89053908D01*
X144232548Y-89009192D01*
X144232553Y-89009187D01*
X144283439Y-88909111D01*
X144303124Y-88842072D01*
X144315500Y-88756000D01*
X144315500Y-87004000D01*
X144308518Y-86939059D01*
X144297312Y-86887549D01*
X144297313Y-86887550D01*
X144286355Y-86849345D01*
X144286354Y-86849344D01*
X144286354Y-86849342D01*
X144229675Y-86752429D01*
X144183920Y-86699625D01*
X144183918Y-86699623D01*
X144183908Y-86699612D01*
X144139192Y-86657451D01*
X144139189Y-86657449D01*
X144139187Y-86657447D01*
X144039111Y-86606561D01*
X144039110Y-86606560D01*
X144039109Y-86606560D01*
X143972078Y-86586877D01*
X143972072Y-86586876D01*
X143886000Y-86574500D01*
X141134000Y-86574500D01*
X141133991Y-86574500D01*
X141133990Y-86574501D01*
X141069064Y-86581481D01*
X141069052Y-86581483D01*
X141032682Y-86589395D01*
X141017549Y-86592687D01*
X141017550Y-86592687D01*
X140979345Y-86603644D01*
X140979341Y-86603646D01*
X140882431Y-86660323D01*
X140882428Y-86660325D01*
X140829623Y-86706081D01*
X140829612Y-86706091D01*
X140787451Y-86750807D01*
X140787445Y-86750816D01*
X140736560Y-86850890D01*
X140716877Y-86917921D01*
X140710111Y-86964977D01*
X140704500Y-87004000D01*
X140704500Y-93256000D01*
X135585500Y-93256000D01*
X135585500Y-89751609D01*
X135605185Y-89684570D01*
X135621819Y-89663928D01*
X138933928Y-86351819D01*
X138995251Y-86318334D01*
X139021609Y-86315500D01*
X149617392Y-86315500D01*
X149617393Y-86315500D01*
X149640360Y-86308036D01*
X149659276Y-86303495D01*
X149683126Y-86299719D01*
X149704636Y-86288757D01*
X149722614Y-86281310D01*
X149745581Y-86273849D01*
X149765118Y-86259653D01*
X149781706Y-86249488D01*
X149803220Y-86238528D01*
X149898528Y-86143220D01*
X149898528Y-86143219D01*
X150334553Y-85707195D01*
X150334552Y-85707195D01*
X150358528Y-85683220D01*
X150358530Y-85683215D01*
X150362231Y-85679515D01*
X150365773Y-85669000D01*
X150369495Y-85661695D01*
X150379647Y-85645126D01*
X150393849Y-85625581D01*
X150401309Y-85602616D01*
X150408759Y-85584634D01*
X150424153Y-85554426D01*
X150425300Y-85555010D01*
X150459118Y-85505545D01*
X150523337Y-85478356D01*
X150529991Y-85477585D01*
X150594914Y-85448918D01*
X150664190Y-85439847D01*
X150695085Y-85448919D01*
X150760004Y-85477583D01*
X150760009Y-85477585D01*
X150785135Y-85480500D01*
X151774864Y-85480499D01*
X151774879Y-85480497D01*
X151774882Y-85480497D01*
X151799987Y-85477586D01*
X151799988Y-85477585D01*
X151799991Y-85477585D01*
X151902765Y-85432206D01*
X151982206Y-85352765D01*
X152027585Y-85249991D01*
X152030500Y-85224865D01*
X152030499Y-84479969D01*
X152037457Y-84439017D01*
X152065368Y-84359255D01*
X152065848Y-84355000D01*
X152077383Y-84252615D01*
X152080500Y-84224954D01*
X152080500Y-82855046D01*
X152074193Y-82799072D01*
X152065369Y-82720750D01*
X152065368Y-82720745D01*
X152013731Y-82573176D01*
X152005789Y-82550478D01*
X151999431Y-82540360D01*
X151943542Y-82451413D01*
X151909816Y-82397738D01*
X151782262Y-82270184D01*
X151629522Y-82174211D01*
X151629520Y-82174210D01*
X151526013Y-82137991D01*
X151479287Y-82108631D01*
X151288837Y-81918181D01*
X150571598Y-81200941D01*
X150569064Y-81198250D01*
X150527929Y-81151817D01*
X150527928Y-81151816D01*
X150527924Y-81151812D01*
X150476896Y-81116591D01*
X150473887Y-81114377D01*
X150425060Y-81076124D01*
X150425055Y-81076120D01*
X150415813Y-81071961D01*
X150396266Y-81060936D01*
X150387931Y-81055183D01*
X150387932Y-81055183D01*
X150387930Y-81055182D01*
X150329941Y-81033189D01*
X150326490Y-81031759D01*
X150269930Y-81006304D01*
X150259946Y-81004474D01*
X150238343Y-80998451D01*
X150228874Y-80994860D01*
X150228870Y-80994859D01*
X150167313Y-80987384D01*
X150163612Y-80986821D01*
X150102608Y-80975642D01*
X150102603Y-80975642D01*
X150040697Y-80979387D01*
X150036952Y-80979500D01*
X142501519Y-80979500D01*
X142434480Y-80959815D01*
X142413838Y-80943181D01*
X141425370Y-79954712D01*
X141386843Y-79924528D01*
X141325057Y-79876122D01*
X141237071Y-79836522D01*
X141169935Y-79806306D01*
X141169931Y-79806304D01*
X141002607Y-79775642D01*
X141002603Y-79775642D01*
X140875254Y-79783346D01*
X140832804Y-79785914D01*
X140751598Y-79811217D01*
X140670393Y-79836522D01*
X140524811Y-79924530D01*
X140524810Y-79924531D01*
X140431161Y-80018181D01*
X140369838Y-80051666D01*
X140343480Y-80054500D01*
X138858763Y-80054500D01*
X138723977Y-80054500D01*
X138723973Y-80054501D01*
X138723974Y-80054501D01*
X138701005Y-80061963D01*
X138682092Y-80066503D01*
X138658244Y-80070280D01*
X138636729Y-80081242D01*
X138618759Y-80088685D01*
X138595791Y-80096148D01*
X138595787Y-80096149D01*
X138576250Y-80110344D01*
X138559669Y-80120506D01*
X138538150Y-80131471D01*
X138538148Y-80131473D01*
X138496738Y-80172881D01*
X138496734Y-80172887D01*
X136751441Y-81918181D01*
X136690118Y-81951666D01*
X136663760Y-81954500D01*
X135907393Y-81954500D01*
X135772607Y-81954500D01*
X135772603Y-81954501D01*
X135772604Y-81954501D01*
X135749635Y-81961963D01*
X135730722Y-81966503D01*
X135706874Y-81970280D01*
X135685359Y-81981242D01*
X135667389Y-81988685D01*
X135644421Y-81996148D01*
X135644417Y-81996149D01*
X135624880Y-82010344D01*
X135608299Y-82020506D01*
X135586780Y-82031471D01*
X135586778Y-82031473D01*
X135504245Y-82114002D01*
X135504219Y-82114032D01*
X134847680Y-82770571D01*
X134786357Y-82804056D01*
X134716665Y-82799072D01*
X134672318Y-82770571D01*
X132227784Y-80326036D01*
X132194299Y-80264713D01*
X132199283Y-80195021D01*
X132236799Y-80142503D01*
X132256410Y-80126410D01*
X132387685Y-79966450D01*
X132485232Y-79783954D01*
X132545300Y-79585934D01*
X132565583Y-79380000D01*
X132545300Y-79174066D01*
X132485232Y-78976046D01*
X132387685Y-78793550D01*
X132302545Y-78689806D01*
X132256410Y-78633589D01*
X132096452Y-78502317D01*
X132096453Y-78502317D01*
X132096450Y-78502315D01*
X131913954Y-78404768D01*
X131715934Y-78344700D01*
X131715932Y-78344699D01*
X131715934Y-78344699D01*
X131510000Y-78324417D01*
X131304067Y-78344699D01*
X131200545Y-78376102D01*
X131130678Y-78376725D01*
X131076870Y-78345122D01*
X129739603Y-77007855D01*
X129706118Y-76946532D01*
X129711102Y-76876840D01*
X129752974Y-76820907D01*
X129777191Y-76806744D01*
X129832765Y-76782206D01*
X129912206Y-76702765D01*
X129945711Y-76626882D01*
X129990795Y-76573509D01*
X130057581Y-76552981D01*
X130124863Y-76571819D01*
X130171280Y-76624042D01*
X130175326Y-76633638D01*
X130223234Y-76762086D01*
X130223238Y-76762093D01*
X130309398Y-76877187D01*
X130309401Y-76877190D01*
X130424495Y-76963350D01*
X130424502Y-76963354D01*
X130559209Y-77013596D01*
X130559216Y-77013598D01*
X130618744Y-77019999D01*
X130618761Y-77020000D01*
X131016589Y-77020000D01*
X131016589Y-76395000D01*
X131266589Y-76395000D01*
X131266589Y-77020000D01*
X131664417Y-77020000D01*
X131664433Y-77019999D01*
X131723961Y-77013598D01*
X131723968Y-77013596D01*
X131858675Y-76963354D01*
X131858682Y-76963350D01*
X131973776Y-76877190D01*
X131973779Y-76877187D01*
X132059939Y-76762093D01*
X132059943Y-76762086D01*
X132110185Y-76627379D01*
X132110187Y-76627372D01*
X132116588Y-76567844D01*
X132116588Y-76567827D01*
X132116589Y-76395000D01*
X131266589Y-76395000D01*
X131016589Y-76395000D01*
X131016589Y-75520000D01*
X131266589Y-75520000D01*
X131266589Y-76145000D01*
X132116589Y-76145000D01*
X132116588Y-75972172D01*
X132116588Y-75972155D01*
X132110187Y-75912627D01*
X132110185Y-75912620D01*
X132059943Y-75777913D01*
X132059939Y-75777906D01*
X131973779Y-75662812D01*
X131973776Y-75662809D01*
X131858682Y-75576649D01*
X131858675Y-75576645D01*
X131723968Y-75526403D01*
X131723961Y-75526401D01*
X131664433Y-75520000D01*
X131266589Y-75520000D01*
X131016589Y-75520000D01*
X130618744Y-75520000D01*
X130559216Y-75526401D01*
X130559209Y-75526403D01*
X130424502Y-75576645D01*
X130424495Y-75576649D01*
X130309401Y-75662809D01*
X130309398Y-75662812D01*
X130223238Y-75777906D01*
X130223234Y-75777913D01*
X130200682Y-75838380D01*
X130158811Y-75894314D01*
X130093346Y-75918731D01*
X130025073Y-75903879D01*
X129975668Y-75854474D01*
X129960500Y-75795047D01*
X129960500Y-75294500D01*
X129980185Y-75227461D01*
X130032989Y-75181706D01*
X130084500Y-75170500D01*
X131659686Y-75170500D01*
X131659691Y-75170500D01*
X131748153Y-75159877D01*
X131888931Y-75104361D01*
X132009511Y-75012922D01*
X132100950Y-74892342D01*
X132156466Y-74751564D01*
X132167089Y-74663102D01*
X132167089Y-74076898D01*
X132156466Y-73988436D01*
X132100950Y-73847658D01*
X132100949Y-73847657D01*
X132100949Y-73847656D01*
X132009514Y-73727082D01*
X132009511Y-73727078D01*
X132009506Y-73727074D01*
X132003517Y-73721085D01*
X132004431Y-73720170D01*
X131968047Y-73670922D01*
X131960500Y-73628322D01*
X131960500Y-73190084D01*
X131960500Y-72721514D01*
X131980183Y-72654479D01*
X131996813Y-72633842D01*
X132660290Y-71970367D01*
X132738878Y-71870057D01*
X132808695Y-71714931D01*
X132839358Y-71547606D01*
X132829086Y-71377804D01*
X132778478Y-71215394D01*
X132690472Y-71069815D01*
X132690470Y-71069813D01*
X132690469Y-71069811D01*
X132570188Y-70949530D01*
X132424606Y-70861522D01*
X132424605Y-70861522D01*
X132262196Y-70810914D01*
X132177295Y-70805778D01*
X132092396Y-70800642D01*
X132092392Y-70800642D01*
X131925069Y-70831304D01*
X131925064Y-70831306D01*
X131769944Y-70901121D01*
X131669629Y-70979712D01*
X130780966Y-71868375D01*
X130778240Y-71870942D01*
X130731818Y-71912068D01*
X130696586Y-71963109D01*
X130694368Y-71966124D01*
X130656124Y-72014939D01*
X130656119Y-72014948D01*
X130651960Y-72024188D01*
X130640942Y-72043723D01*
X130635187Y-72052061D01*
X130635183Y-72052067D01*
X130635182Y-72052070D01*
X130635180Y-72052074D01*
X130635179Y-72052077D01*
X130613189Y-72110055D01*
X130611757Y-72113513D01*
X130586305Y-72170068D01*
X130584477Y-72180042D01*
X130578453Y-72201653D01*
X130574860Y-72211127D01*
X130574859Y-72211128D01*
X130567384Y-72272685D01*
X130566821Y-72276386D01*
X130555642Y-72337390D01*
X130555642Y-72337395D01*
X130559387Y-72399302D01*
X130559500Y-72403047D01*
X130559500Y-73445500D01*
X130539815Y-73512539D01*
X130487011Y-73558294D01*
X130435500Y-73569500D01*
X130084499Y-73569500D01*
X130017460Y-73549815D01*
X129971705Y-73497011D01*
X129960499Y-73445500D01*
X129960499Y-72685143D01*
X129960499Y-72685136D01*
X129958762Y-72670156D01*
X129957586Y-72660012D01*
X129957585Y-72660010D01*
X129957585Y-72660009D01*
X129912206Y-72557235D01*
X129832765Y-72477794D01*
X129832763Y-72477793D01*
X129729992Y-72432415D01*
X129704865Y-72429500D01*
X127615143Y-72429500D01*
X127615117Y-72429502D01*
X127590012Y-72432413D01*
X127590008Y-72432415D01*
X127487235Y-72477793D01*
X127407794Y-72557234D01*
X127362415Y-72660006D01*
X127362415Y-72660008D01*
X127359500Y-72685131D01*
X127359500Y-73705500D01*
X127339815Y-73772539D01*
X127287011Y-73818294D01*
X127235500Y-73829500D01*
X123746989Y-73829500D01*
X123679950Y-73809815D01*
X123634195Y-73757011D01*
X123633607Y-73755704D01*
X123612206Y-73707235D01*
X123532765Y-73627794D01*
X123532764Y-73627794D01*
X123454946Y-73593433D01*
X123401570Y-73548347D01*
X123381043Y-73481560D01*
X123399882Y-73414278D01*
X123452105Y-73367862D01*
X123454851Y-73366607D01*
X123532765Y-73332206D01*
X123612206Y-73252765D01*
X123657585Y-73149991D01*
X123660500Y-73124865D01*
X123660499Y-71535136D01*
X123660497Y-71535117D01*
X123657586Y-71510012D01*
X123657585Y-71510010D01*
X123657585Y-71510009D01*
X123612206Y-71407235D01*
X123532765Y-71327794D01*
X123460498Y-71295885D01*
X123429992Y-71282415D01*
X123404868Y-71279500D01*
X123404865Y-71279500D01*
X122984500Y-71279500D01*
X122917461Y-71259815D01*
X122871706Y-71207011D01*
X122860500Y-71155500D01*
X122860500Y-69505000D01*
X123210000Y-69505000D01*
X123210000Y-69902844D01*
X123216401Y-69962372D01*
X123216403Y-69962379D01*
X123266645Y-70097086D01*
X123266649Y-70097093D01*
X123352809Y-70212187D01*
X123352812Y-70212190D01*
X123467906Y-70298350D01*
X123467913Y-70298354D01*
X123602620Y-70348596D01*
X123602627Y-70348598D01*
X123662155Y-70354999D01*
X123662172Y-70355000D01*
X123835000Y-70355000D01*
X123835000Y-69505000D01*
X124085000Y-69505000D01*
X124085000Y-70355000D01*
X124257828Y-70355000D01*
X124257844Y-70354999D01*
X124317372Y-70348598D01*
X124317379Y-70348596D01*
X124452086Y-70298354D01*
X124452093Y-70298350D01*
X124567187Y-70212190D01*
X124567190Y-70212187D01*
X124653350Y-70097093D01*
X124653354Y-70097086D01*
X124703596Y-69962379D01*
X124703598Y-69962372D01*
X124709999Y-69902844D01*
X124710000Y-69902827D01*
X124710000Y-69505000D01*
X124085000Y-69505000D01*
X123835000Y-69505000D01*
X123210000Y-69505000D01*
X122860500Y-69505000D01*
X122860500Y-69255000D01*
X123210000Y-69255000D01*
X123835000Y-69255000D01*
X123835000Y-68405000D01*
X124085000Y-68405000D01*
X124085000Y-69255000D01*
X124710000Y-69255000D01*
X124710000Y-68857172D01*
X124709999Y-68857155D01*
X124703598Y-68797627D01*
X124703596Y-68797620D01*
X124653354Y-68662913D01*
X124653350Y-68662906D01*
X124567190Y-68547812D01*
X124567187Y-68547809D01*
X124452093Y-68461649D01*
X124452086Y-68461645D01*
X124317379Y-68411403D01*
X124317372Y-68411401D01*
X124257844Y-68405000D01*
X124085000Y-68405000D01*
X123835000Y-68405000D01*
X123662155Y-68405000D01*
X123602627Y-68411401D01*
X123602620Y-68411403D01*
X123467913Y-68461645D01*
X123467906Y-68461649D01*
X123352812Y-68547809D01*
X123352809Y-68547812D01*
X123266649Y-68662906D01*
X123266645Y-68662913D01*
X123216403Y-68797620D01*
X123216401Y-68797627D01*
X123210000Y-68857155D01*
X123210000Y-69255000D01*
X122860500Y-69255000D01*
X122860500Y-68062939D01*
X122880185Y-67995900D01*
X122896819Y-67975258D01*
X126405259Y-64466819D01*
X126466582Y-64433334D01*
X126492940Y-64430500D01*
X140371539Y-64430500D01*
X140438578Y-64450185D01*
X140478926Y-64492500D01*
X140487693Y-64507685D01*
X140568185Y-64647102D01*
X140732535Y-64853189D01*
X140758942Y-64917873D01*
X140746187Y-64986569D01*
X140698316Y-65037463D01*
X140635587Y-65054500D01*
X128034075Y-65054500D01*
X127967036Y-65034815D01*
X127935700Y-65005987D01*
X127902624Y-64962882D01*
X127902622Y-64962880D01*
X127902621Y-64962879D01*
X127787625Y-64874639D01*
X127787624Y-64874638D01*
X127787622Y-64874637D01*
X127653712Y-64819171D01*
X127653710Y-64819170D01*
X127653709Y-64819170D01*
X127581854Y-64809710D01*
X127510001Y-64800250D01*
X127509999Y-64800250D01*
X127366291Y-64819170D01*
X127366287Y-64819171D01*
X127232377Y-64874637D01*
X127117379Y-64962879D01*
X127029137Y-65077877D01*
X126973671Y-65211787D01*
X126973670Y-65211791D01*
X126954750Y-65355499D01*
X126954750Y-65355502D01*
X126969815Y-65469932D01*
X126959049Y-65538967D01*
X126912669Y-65591223D01*
X126845400Y-65610108D01*
X126830691Y-65609056D01*
X126760002Y-65599750D01*
X126759999Y-65599750D01*
X126616291Y-65618670D01*
X126616287Y-65618671D01*
X126482377Y-65674137D01*
X126367379Y-65762379D01*
X126279137Y-65877377D01*
X126223671Y-66011287D01*
X126223670Y-66011291D01*
X126207618Y-66133219D01*
X126204750Y-66155000D01*
X126222486Y-66289719D01*
X126223670Y-66298708D01*
X126223671Y-66298712D01*
X126279137Y-66432622D01*
X126279138Y-66432624D01*
X126279139Y-66432625D01*
X126367379Y-66547621D01*
X126482375Y-66635861D01*
X126482376Y-66635861D01*
X126482377Y-66635862D01*
X126527013Y-66654350D01*
X126616291Y-66691330D01*
X126664719Y-66697705D01*
X126728615Y-66725971D01*
X126736215Y-66732963D01*
X129146470Y-69143218D01*
X129146472Y-69143220D01*
X129241780Y-69238528D01*
X129263301Y-69249493D01*
X129279880Y-69259653D01*
X129299419Y-69273849D01*
X129322381Y-69281309D01*
X129340354Y-69288753D01*
X129361874Y-69299719D01*
X129385724Y-69303495D01*
X129404645Y-69308039D01*
X129426489Y-69315136D01*
X129427607Y-69315500D01*
X129461512Y-69315500D01*
X133618222Y-69315500D01*
X133685261Y-69335185D01*
X133731016Y-69387989D01*
X133741396Y-69453790D01*
X133739500Y-69470128D01*
X133739500Y-70459856D01*
X133739502Y-70459882D01*
X133742413Y-70484987D01*
X133742414Y-70484988D01*
X133771081Y-70549914D01*
X133780152Y-70619192D01*
X133771081Y-70650084D01*
X133742415Y-70715006D01*
X133742415Y-70715008D01*
X133739500Y-70740131D01*
X133739500Y-71729856D01*
X133739502Y-71729882D01*
X133742413Y-71754987D01*
X133742414Y-71754988D01*
X133771081Y-71819914D01*
X133780152Y-71889192D01*
X133771081Y-71920084D01*
X133742415Y-71985006D01*
X133742415Y-71985008D01*
X133739500Y-72010131D01*
X133739500Y-72999856D01*
X133739502Y-72999882D01*
X133742413Y-73024987D01*
X133742414Y-73024988D01*
X133771081Y-73089914D01*
X133780152Y-73159192D01*
X133771081Y-73190084D01*
X133742415Y-73255006D01*
X133742415Y-73255008D01*
X133739500Y-73280131D01*
X133739500Y-74269856D01*
X133739502Y-74269882D01*
X133742413Y-74294987D01*
X133742414Y-74294988D01*
X133771081Y-74359914D01*
X133780152Y-74429192D01*
X133771081Y-74460084D01*
X133742415Y-74525006D01*
X133742415Y-74525008D01*
X133739500Y-74550131D01*
X133739500Y-75539856D01*
X133739502Y-75539882D01*
X133742413Y-75564987D01*
X133742414Y-75564988D01*
X133742414Y-75564990D01*
X133742415Y-75564991D01*
X133759900Y-75604591D01*
X133771081Y-75629914D01*
X133780152Y-75699192D01*
X133771081Y-75730084D01*
X133742415Y-75795006D01*
X133742415Y-75795008D01*
X133739500Y-75820131D01*
X133739500Y-76809856D01*
X133739502Y-76809882D01*
X133742413Y-76834987D01*
X133742414Y-76834988D01*
X133771081Y-76899914D01*
X133780152Y-76969192D01*
X133771081Y-77000084D01*
X133742415Y-77065006D01*
X133742415Y-77065008D01*
X133739500Y-77090131D01*
X133739500Y-78079856D01*
X133739502Y-78079882D01*
X133742413Y-78104987D01*
X133742414Y-78104988D01*
X133771081Y-78169914D01*
X133780152Y-78239192D01*
X133771081Y-78270084D01*
X133742415Y-78335006D01*
X133742415Y-78335008D01*
X133739500Y-78360131D01*
X133739500Y-79349856D01*
X133739502Y-79349882D01*
X133742413Y-79374987D01*
X133742414Y-79374989D01*
X133771081Y-79439915D01*
X133780152Y-79509193D01*
X133771081Y-79540085D01*
X133742415Y-79605006D01*
X133742415Y-79605008D01*
X133739500Y-79630131D01*
X133739500Y-80619856D01*
X133739502Y-80619882D01*
X133742413Y-80644987D01*
X133742415Y-80644991D01*
X133787793Y-80747764D01*
X133787794Y-80747764D01*
X133787794Y-80747765D01*
X133867235Y-80827206D01*
X133970009Y-80872585D01*
X133995135Y-80875500D01*
X136084864Y-80875499D01*
X136084879Y-80875497D01*
X136084882Y-80875497D01*
X136109987Y-80872586D01*
X136109988Y-80872585D01*
X136109991Y-80872585D01*
X136212765Y-80827206D01*
X136292206Y-80747765D01*
X136337585Y-80644991D01*
X136340500Y-80619865D01*
X136340499Y-79630136D01*
X136340497Y-79630117D01*
X136337586Y-79605012D01*
X136337585Y-79605010D01*
X136337585Y-79605009D01*
X136308919Y-79540086D01*
X136299847Y-79470808D01*
X136308919Y-79439913D01*
X136337584Y-79374993D01*
X136337585Y-79374991D01*
X136340500Y-79349865D01*
X136340499Y-78360136D01*
X136338709Y-78344699D01*
X136337586Y-78335012D01*
X136337585Y-78335010D01*
X136337585Y-78335009D01*
X136308919Y-78270086D01*
X136299847Y-78200808D01*
X136308919Y-78169913D01*
X136337584Y-78104993D01*
X136337585Y-78104991D01*
X136340500Y-78079865D01*
X136340499Y-77090136D01*
X136340497Y-77090117D01*
X136337586Y-77065012D01*
X136337585Y-77065010D01*
X136337585Y-77065009D01*
X136308919Y-77000086D01*
X136299847Y-76930808D01*
X136308919Y-76899913D01*
X136337584Y-76834993D01*
X136337585Y-76834991D01*
X136340500Y-76809865D01*
X136340499Y-75820136D01*
X136340497Y-75820117D01*
X136337586Y-75795012D01*
X136337585Y-75795010D01*
X136337585Y-75795009D01*
X136308919Y-75730086D01*
X136299847Y-75660808D01*
X136308919Y-75629913D01*
X136332438Y-75576649D01*
X136337585Y-75564991D01*
X136340500Y-75539865D01*
X136340499Y-74550136D01*
X136340497Y-74550117D01*
X136337586Y-74525012D01*
X136337585Y-74525010D01*
X136337585Y-74525009D01*
X136308919Y-74460086D01*
X136299847Y-74390808D01*
X136308919Y-74359913D01*
X136337584Y-74294993D01*
X136337585Y-74294991D01*
X136340500Y-74269865D01*
X136340499Y-73280136D01*
X136339754Y-73273708D01*
X136337586Y-73255012D01*
X136337585Y-73255010D01*
X136337585Y-73255009D01*
X136308919Y-73190086D01*
X136299847Y-73120808D01*
X136308919Y-73089913D01*
X136337584Y-73024993D01*
X136337585Y-73024991D01*
X136340500Y-72999865D01*
X136340499Y-72010136D01*
X136340497Y-72010117D01*
X136337586Y-71985012D01*
X136337585Y-71985010D01*
X136337585Y-71985009D01*
X136308919Y-71920086D01*
X136299847Y-71850808D01*
X136308919Y-71819913D01*
X136337584Y-71754993D01*
X136337585Y-71754991D01*
X136340500Y-71729865D01*
X136340499Y-70740136D01*
X136340497Y-70740117D01*
X136337586Y-70715012D01*
X136337585Y-70715010D01*
X136337585Y-70715009D01*
X136308919Y-70650086D01*
X136299847Y-70580808D01*
X136308919Y-70549913D01*
X136337584Y-70484993D01*
X136337585Y-70484991D01*
X136340500Y-70459865D01*
X136340499Y-69470136D01*
X136338602Y-69453786D01*
X136350433Y-69384925D01*
X136397613Y-69333391D01*
X136461777Y-69315500D01*
X147277392Y-69315500D01*
X147277393Y-69315500D01*
X147300360Y-69308036D01*
X147319276Y-69303495D01*
X147343126Y-69299719D01*
X147364636Y-69288757D01*
X147382614Y-69281310D01*
X147405581Y-69273849D01*
X147425118Y-69259653D01*
X147441706Y-69249488D01*
X147463220Y-69238528D01*
X147558528Y-69143220D01*
X147794554Y-68907194D01*
X147794554Y-68907193D01*
X147818528Y-68883220D01*
X147829493Y-68861698D01*
X147839652Y-68845120D01*
X147853850Y-68825580D01*
X147861314Y-68802605D01*
X147868751Y-68784650D01*
X147879719Y-68763126D01*
X147883496Y-68739271D01*
X147888034Y-68720366D01*
X147895500Y-68697393D01*
X147895500Y-68598063D01*
X147915185Y-68531024D01*
X147967989Y-68485269D01*
X147986954Y-68478410D01*
X147989980Y-68477586D01*
X147989991Y-68477585D01*
X148054914Y-68448918D01*
X148124190Y-68439847D01*
X148155085Y-68448919D01*
X148220002Y-68477582D01*
X148220009Y-68477585D01*
X148245135Y-68480500D01*
X149234864Y-68480499D01*
X149234879Y-68480497D01*
X149234882Y-68480497D01*
X149259987Y-68477586D01*
X149259987Y-68477585D01*
X149259991Y-68477585D01*
X149324914Y-68448918D01*
X149394190Y-68439847D01*
X149425085Y-68448919D01*
X149490002Y-68477582D01*
X149490009Y-68477585D01*
X149515135Y-68480500D01*
X150504864Y-68480499D01*
X150504879Y-68480497D01*
X150504882Y-68480497D01*
X150529987Y-68477586D01*
X150529987Y-68477585D01*
X150529991Y-68477585D01*
X150594914Y-68448918D01*
X150664190Y-68439847D01*
X150695085Y-68448919D01*
X150760002Y-68477582D01*
X150760009Y-68477585D01*
X150785135Y-68480500D01*
X151774864Y-68480499D01*
X151774879Y-68480497D01*
X151774882Y-68480497D01*
X151799987Y-68477586D01*
X151799988Y-68477585D01*
X151799991Y-68477585D01*
X151902765Y-68432206D01*
X151982206Y-68352765D01*
X152027585Y-68249991D01*
X152030500Y-68224865D01*
X152030499Y-66135136D01*
X152030277Y-66133219D01*
X152027586Y-66110012D01*
X152027585Y-66110010D01*
X152027585Y-66110009D01*
X151982206Y-66007235D01*
X151902765Y-65927794D01*
X151896856Y-65925185D01*
X151799993Y-65882415D01*
X151790993Y-65879967D01*
X151791760Y-65877146D01*
X151741432Y-65855796D01*
X151702128Y-65798228D01*
X151698038Y-65785640D01*
X151693495Y-65766719D01*
X151692808Y-65762379D01*
X151689719Y-65742874D01*
X151678757Y-65721362D01*
X151671309Y-65703379D01*
X151664566Y-65682625D01*
X151663850Y-65680419D01*
X151649653Y-65660878D01*
X151639491Y-65644296D01*
X151628528Y-65622780D01*
X151533220Y-65527472D01*
X150845280Y-64839532D01*
X150811795Y-64778209D01*
X150816779Y-64708517D01*
X150858651Y-64652584D01*
X150924115Y-64628167D01*
X150945116Y-64628448D01*
X151010000Y-64634838D01*
X151206032Y-64615531D01*
X151394539Y-64558348D01*
X151568258Y-64465493D01*
X151568262Y-64465490D01*
X151623433Y-64420210D01*
X151623433Y-64420209D01*
X150850664Y-63647441D01*
X150850662Y-63647438D01*
X150833224Y-63630000D01*
X151186776Y-63630000D01*
X151800209Y-64243433D01*
X151800210Y-64243433D01*
X151845490Y-64188262D01*
X151845493Y-64188258D01*
X151938348Y-64014539D01*
X151995531Y-63826032D01*
X152014838Y-63630000D01*
X151995531Y-63433967D01*
X151938348Y-63245460D01*
X151845497Y-63071747D01*
X151845491Y-63071738D01*
X151800210Y-63016565D01*
X151800209Y-63016565D01*
X151186776Y-63629999D01*
X151186776Y-63630000D01*
X150833224Y-63630000D01*
X150219789Y-63016564D01*
X150219788Y-63016565D01*
X150174507Y-63071739D01*
X150174503Y-63071746D01*
X150081651Y-63245460D01*
X150024468Y-63433967D01*
X150005161Y-63630000D01*
X150011551Y-63694885D01*
X149998532Y-63763531D01*
X149950466Y-63814241D01*
X149882615Y-63830915D01*
X149816521Y-63808258D01*
X149800467Y-63794719D01*
X148845537Y-62839789D01*
X150396564Y-62839789D01*
X151010000Y-63453223D01*
X151010001Y-63453223D01*
X151623433Y-62839789D01*
X151623433Y-62839788D01*
X151568261Y-62794508D01*
X151568252Y-62794502D01*
X151394539Y-62701651D01*
X151206030Y-62644468D01*
X151206034Y-62644468D01*
X151010000Y-62625161D01*
X150813967Y-62644468D01*
X150625460Y-62701651D01*
X150451746Y-62794503D01*
X150451739Y-62794507D01*
X150396565Y-62839788D01*
X150396564Y-62839789D01*
X148845537Y-62839789D01*
X147512223Y-61506475D01*
X147512220Y-61506472D01*
X147512216Y-61506470D01*
X147509941Y-61504817D01*
X147507839Y-61502091D01*
X147505319Y-61499571D01*
X147505644Y-61499245D01*
X147467277Y-61449486D01*
X147461299Y-61379872D01*
X147493907Y-61318078D01*
X147554746Y-61283722D01*
X147582829Y-61280500D01*
X153636000Y-61280500D01*
X153703039Y-61300185D01*
X153748794Y-61352989D01*
X153760000Y-61404500D01*
X153760000Y-86690877D01*
X153740315Y-86757916D01*
X153687511Y-86803671D01*
X153618353Y-86813615D01*
X153588548Y-86805438D01*
X153487712Y-86763671D01*
X153487710Y-86763670D01*
X153487709Y-86763670D01*
X153390075Y-86750816D01*
X153344001Y-86744750D01*
X153343999Y-86744750D01*
X153200291Y-86763670D01*
X153200287Y-86763671D01*
X153066377Y-86819137D01*
X152951379Y-86907379D01*
X152863138Y-87022376D01*
X152811972Y-87145903D01*
X152768131Y-87200306D01*
X152701837Y-87222371D01*
X152634137Y-87205092D01*
X152609730Y-87186131D01*
X152496486Y-87072887D01*
X152496482Y-87072881D01*
X152455072Y-87031473D01*
X152455071Y-87031472D01*
X152433547Y-87020505D01*
X152416963Y-87010341D01*
X152404116Y-87001007D01*
X152397431Y-86996150D01*
X152374466Y-86988688D01*
X152356492Y-86981243D01*
X152334978Y-86970281D01*
X152329861Y-86969470D01*
X152311124Y-86966503D01*
X152292209Y-86961962D01*
X152269245Y-86954500D01*
X152269244Y-86954500D01*
X152235339Y-86954500D01*
X151651864Y-86954500D01*
X151584825Y-86934815D01*
X151576390Y-86928885D01*
X151537625Y-86899139D01*
X151537624Y-86899138D01*
X151537622Y-86899137D01*
X151403712Y-86843671D01*
X151403710Y-86843670D01*
X151403709Y-86843670D01*
X151331854Y-86834210D01*
X151260001Y-86824750D01*
X151259999Y-86824750D01*
X151116291Y-86843670D01*
X151116287Y-86843671D01*
X150982377Y-86899137D01*
X150867379Y-86987379D01*
X150779137Y-87102377D01*
X150723671Y-87236287D01*
X150723670Y-87236291D01*
X150715283Y-87299999D01*
X150704750Y-87380000D01*
X150713137Y-87443708D01*
X150723670Y-87523708D01*
X150723671Y-87523712D01*
X150779137Y-87657622D01*
X150779138Y-87657624D01*
X150779139Y-87657625D01*
X150867379Y-87772621D01*
X150982375Y-87860861D01*
X151116291Y-87916330D01*
X151243280Y-87933048D01*
X151259999Y-87935250D01*
X151260000Y-87935250D01*
X151260001Y-87935250D01*
X151274977Y-87933278D01*
X151403709Y-87916330D01*
X151537625Y-87860861D01*
X151576378Y-87831124D01*
X151641545Y-87805930D01*
X151651864Y-87805500D01*
X151974241Y-87805500D01*
X152041280Y-87825185D01*
X152061920Y-87841816D01*
X152082180Y-87862077D01*
X152115666Y-87923397D01*
X152118500Y-87949758D01*
X152118500Y-89218910D01*
X152109062Y-89266357D01*
X152067670Y-89366291D01*
X152067669Y-89366294D01*
X152051872Y-89486287D01*
X152048750Y-89510000D01*
X152064548Y-89629999D01*
X152067670Y-89653708D01*
X152067671Y-89653712D01*
X152123137Y-89787622D01*
X152123138Y-89787624D01*
X152123139Y-89787625D01*
X152211379Y-89902621D01*
X152326375Y-89990861D01*
X152326376Y-89990861D01*
X152326377Y-89990862D01*
X152371013Y-90009350D01*
X152460291Y-90046330D01*
X152600686Y-90064813D01*
X152664582Y-90093079D01*
X152703053Y-90151404D01*
X152708500Y-90187752D01*
X152708500Y-91202944D01*
X152715962Y-91225908D01*
X152720503Y-91244823D01*
X152722759Y-91259066D01*
X152724281Y-91268677D01*
X152735243Y-91290191D01*
X152742688Y-91308165D01*
X152750150Y-91331130D01*
X152764340Y-91350660D01*
X152774508Y-91367253D01*
X152785470Y-91388768D01*
X152823260Y-91426558D01*
X152856745Y-91487881D01*
X152858518Y-91498051D01*
X152864895Y-91546485D01*
X152920362Y-91680397D01*
X152920363Y-91680399D01*
X152920364Y-91680400D01*
X153008604Y-91795396D01*
X153123600Y-91883636D01*
X153257516Y-91939105D01*
X153261681Y-91939653D01*
X153264934Y-91941092D01*
X153265366Y-91941208D01*
X153265347Y-91941275D01*
X153325576Y-91967915D01*
X153364051Y-92026237D01*
X153369500Y-92062592D01*
X153369500Y-94377175D01*
X153349815Y-94444214D01*
X153320987Y-94475550D01*
X153227381Y-94547377D01*
X153139137Y-94662377D01*
X153083671Y-94796287D01*
X153083670Y-94796291D01*
X153065703Y-94932765D01*
X153064750Y-94940000D01*
X153080614Y-95060500D01*
X153083670Y-95083708D01*
X153083671Y-95083712D01*
X153139137Y-95217622D01*
X153139138Y-95217624D01*
X153139139Y-95217625D01*
X153227379Y-95332621D01*
X153342375Y-95420861D01*
X153476291Y-95476330D01*
X153603280Y-95493048D01*
X153619999Y-95495250D01*
X153620000Y-95495250D01*
X153620001Y-95495250D01*
X153634977Y-95493278D01*
X153763709Y-95476330D01*
X153897625Y-95420861D01*
X154012621Y-95332621D01*
X154100861Y-95217625D01*
X154156330Y-95083709D01*
X154175250Y-94940000D01*
X154169216Y-94894171D01*
X154169683Y-94858582D01*
X154170497Y-94853439D01*
X154170500Y-94853433D01*
X154170500Y-94726567D01*
X154170500Y-92428776D01*
X154190185Y-92361738D01*
X154242989Y-92315983D01*
X154312147Y-92306039D01*
X154375703Y-92335064D01*
X154379776Y-92338755D01*
X154402903Y-92360663D01*
X154402907Y-92360666D01*
X154683460Y-92573938D01*
X154683464Y-92573941D01*
X154985445Y-92755635D01*
X155305273Y-92903603D01*
X155639256Y-93016136D01*
X155983437Y-93091896D01*
X156333788Y-93129999D01*
X156333795Y-93130000D01*
X156686205Y-93130000D01*
X156686211Y-93129999D01*
X157036562Y-93091896D01*
X157380743Y-93016136D01*
X157714726Y-92903603D01*
X158034554Y-92755635D01*
X158336535Y-92573941D01*
X158336539Y-92573938D01*
X158617092Y-92360665D01*
X158617096Y-92360662D01*
X158718155Y-92264933D01*
X158718155Y-92264932D01*
X157818147Y-91364924D01*
X157994924Y-91188147D01*
X158896893Y-92090117D01*
X158896894Y-92090116D01*
X159101102Y-91849704D01*
X159298875Y-91558011D01*
X159463947Y-91246652D01*
X159463956Y-91246634D01*
X159594397Y-90919250D01*
X159594399Y-90919243D01*
X159616020Y-90841373D01*
X159652921Y-90782043D01*
X159716041Y-90752082D01*
X159785339Y-90761003D01*
X159838814Y-90805973D01*
X159859486Y-90872714D01*
X159859500Y-90874546D01*
X159859500Y-108355500D01*
X159839815Y-108422539D01*
X159787011Y-108468294D01*
X159735500Y-108479500D01*
X150662029Y-108479500D01*
X150594990Y-108459815D01*
X150549235Y-108407011D01*
X150539291Y-108337853D01*
X150568316Y-108274297D01*
X150622433Y-108237991D01*
X150733435Y-108200591D01*
X151058253Y-108050315D01*
X151364919Y-107865800D01*
X151649837Y-107649211D01*
X151909668Y-107403086D01*
X152141365Y-107130311D01*
X152342211Y-106834085D01*
X152509853Y-106517880D01*
X152642324Y-106185403D01*
X152738071Y-105840552D01*
X152755891Y-105731848D01*
X152772588Y-105630005D01*
X154504556Y-105630005D01*
X154524310Y-105944004D01*
X154524311Y-105944011D01*
X154524312Y-105944015D01*
X154570358Y-106185399D01*
X154583270Y-106253083D01*
X154680497Y-106552316D01*
X154680499Y-106552321D01*
X154814461Y-106837003D01*
X154814464Y-106837009D01*
X154983051Y-107102661D01*
X154983054Y-107102665D01*
X155183606Y-107345090D01*
X155183608Y-107345092D01*
X155412968Y-107560476D01*
X155412978Y-107560484D01*
X155667504Y-107745408D01*
X155667509Y-107745410D01*
X155667516Y-107745416D01*
X155943234Y-107896994D01*
X155943239Y-107896996D01*
X155943241Y-107896997D01*
X155943242Y-107896998D01*
X156235771Y-108012818D01*
X156235774Y-108012819D01*
X156540523Y-108091065D01*
X156540527Y-108091066D01*
X156606010Y-108099338D01*
X156852670Y-108130499D01*
X156852679Y-108130499D01*
X156852682Y-108130500D01*
X156852684Y-108130500D01*
X157167316Y-108130500D01*
X157167318Y-108130500D01*
X157167321Y-108130499D01*
X157167329Y-108130499D01*
X157353593Y-108106968D01*
X157479473Y-108091066D01*
X157784225Y-108012819D01*
X157784228Y-108012818D01*
X158076757Y-107896998D01*
X158076758Y-107896997D01*
X158076756Y-107896997D01*
X158076766Y-107896994D01*
X158352484Y-107745416D01*
X158607030Y-107560478D01*
X158836390Y-107345094D01*
X159036947Y-107102663D01*
X159205537Y-106837007D01*
X159339503Y-106552315D01*
X159436731Y-106253079D01*
X159495688Y-105944015D01*
X159495689Y-105944004D01*
X159515444Y-105630005D01*
X159515444Y-105629994D01*
X159495689Y-105315995D01*
X159495688Y-105315988D01*
X159495688Y-105315985D01*
X159436731Y-105006921D01*
X159339503Y-104707685D01*
X159295365Y-104613888D01*
X159272993Y-104566344D01*
X159205537Y-104422993D01*
X159105043Y-104264639D01*
X159036948Y-104157338D01*
X159036945Y-104157334D01*
X158836393Y-103914909D01*
X158836391Y-103914907D01*
X158652383Y-103742111D01*
X158607030Y-103699522D01*
X158607027Y-103699520D01*
X158607021Y-103699515D01*
X158352495Y-103514591D01*
X158352488Y-103514586D01*
X158352484Y-103514584D01*
X158076766Y-103363006D01*
X158076763Y-103363004D01*
X158076758Y-103363002D01*
X158076757Y-103363001D01*
X157784228Y-103247181D01*
X157784225Y-103247180D01*
X157479476Y-103168934D01*
X157479463Y-103168932D01*
X157167329Y-103129500D01*
X157167318Y-103129500D01*
X156852682Y-103129500D01*
X156852670Y-103129500D01*
X156540536Y-103168932D01*
X156540523Y-103168934D01*
X156235774Y-103247180D01*
X156235771Y-103247181D01*
X155943242Y-103363001D01*
X155943241Y-103363002D01*
X155667516Y-103514584D01*
X155667504Y-103514591D01*
X155412978Y-103699515D01*
X155412968Y-103699523D01*
X155183608Y-103914907D01*
X155183606Y-103914909D01*
X154983054Y-104157334D01*
X154983051Y-104157338D01*
X154814464Y-104422990D01*
X154814461Y-104422996D01*
X154680499Y-104707678D01*
X154680497Y-104707683D01*
X154583270Y-105006916D01*
X154524311Y-105315988D01*
X154524310Y-105315995D01*
X154504556Y-105629994D01*
X154504556Y-105630005D01*
X152772588Y-105630005D01*
X152795970Y-105487385D01*
X152795970Y-105487382D01*
X152795972Y-105487371D01*
X152815348Y-105130000D01*
X152795972Y-104772629D01*
X152791837Y-104747408D01*
X152738073Y-104419460D01*
X152738072Y-104419459D01*
X152738071Y-104419448D01*
X152642324Y-104074597D01*
X152599868Y-103968041D01*
X152509857Y-103742129D01*
X152509848Y-103742111D01*
X152342215Y-103425922D01*
X152342213Y-103425919D01*
X152342211Y-103425915D01*
X152141365Y-103129689D01*
X152141361Y-103129684D01*
X152141358Y-103129680D01*
X151909668Y-102856914D01*
X151909667Y-102856913D01*
X151649837Y-102610789D01*
X151649830Y-102610783D01*
X151649827Y-102610781D01*
X151569564Y-102549767D01*
X151364919Y-102394200D01*
X151058253Y-102209685D01*
X151058252Y-102209684D01*
X151058248Y-102209682D01*
X151058244Y-102209680D01*
X150733447Y-102059414D01*
X150733441Y-102059411D01*
X150733435Y-102059409D01*
X150563854Y-102002270D01*
X150394273Y-101945131D01*
X150044744Y-101868194D01*
X149688949Y-101829500D01*
X149688948Y-101829500D01*
X149331052Y-101829500D01*
X149331050Y-101829500D01*
X148975255Y-101868194D01*
X148625726Y-101945131D01*
X148393026Y-102023538D01*
X148286565Y-102059409D01*
X148286562Y-102059410D01*
X148286563Y-102059410D01*
X148286552Y-102059414D01*
X147961755Y-102209680D01*
X147961751Y-102209682D01*
X147784334Y-102316431D01*
X147655081Y-102394200D01*
X147629290Y-102413806D01*
X147370172Y-102610781D01*
X147370163Y-102610789D01*
X147110331Y-102856914D01*
X146878641Y-103129680D01*
X146878634Y-103129690D01*
X146677790Y-103425913D01*
X146677784Y-103425922D01*
X146510151Y-103742111D01*
X146510142Y-103742129D01*
X146377674Y-104074600D01*
X146377672Y-104074607D01*
X146281932Y-104419434D01*
X146281926Y-104419460D01*
X146224029Y-104772614D01*
X146224028Y-104772627D01*
X146224028Y-104772629D01*
X146222240Y-104805600D01*
X146204652Y-105129997D01*
X146204652Y-105130002D01*
X146224028Y-105487368D01*
X146224029Y-105487385D01*
X146281926Y-105840539D01*
X146281932Y-105840565D01*
X146377672Y-106185392D01*
X146377674Y-106185399D01*
X146510142Y-106517870D01*
X146510151Y-106517888D01*
X146677784Y-106834077D01*
X146677787Y-106834082D01*
X146677789Y-106834085D01*
X146878423Y-107129999D01*
X146878634Y-107130309D01*
X146878641Y-107130319D01*
X146925583Y-107185583D01*
X147110332Y-107403086D01*
X147370163Y-107649211D01*
X147655081Y-107865800D01*
X147961747Y-108050315D01*
X147961749Y-108050316D01*
X147961751Y-108050317D01*
X147961755Y-108050319D01*
X148135065Y-108130500D01*
X148286565Y-108200591D01*
X148397566Y-108237991D01*
X148454809Y-108278051D01*
X148481309Y-108342701D01*
X148468649Y-108411414D01*
X148420850Y-108462375D01*
X148357971Y-108479500D01*
X116168000Y-108479500D01*
X116100961Y-108459815D01*
X116055206Y-108407011D01*
X116044000Y-108355500D01*
X116044000Y-101504500D01*
X116063685Y-101437461D01*
X116116489Y-101391706D01*
X116168000Y-101380500D01*
X117299343Y-101380500D01*
X117305424Y-101380799D01*
X117319580Y-101382192D01*
X117354000Y-101385583D01*
X117559934Y-101365300D01*
X117757955Y-101305232D01*
X117940450Y-101207685D01*
X117987420Y-101169138D01*
X118001453Y-101157622D01*
X118100411Y-101076409D01*
X118131378Y-101038674D01*
X118135458Y-101034171D01*
X118582811Y-100586819D01*
X118644135Y-100553334D01*
X118670493Y-100550500D01*
X119865048Y-100550500D01*
X119932087Y-100570185D01*
X119977842Y-100622989D01*
X119987786Y-100692147D01*
X119979610Y-100721951D01*
X119973670Y-100736291D01*
X119954750Y-100879999D01*
X119954750Y-100880000D01*
X119973670Y-101023708D01*
X119973671Y-101023712D01*
X120029137Y-101157622D01*
X120029138Y-101157624D01*
X120029139Y-101157625D01*
X120083875Y-101228957D01*
X120109069Y-101294126D01*
X120109499Y-101304444D01*
X120109500Y-101629275D01*
X120089816Y-101696314D01*
X120037012Y-101742069D01*
X120030991Y-101744629D01*
X119968843Y-101769137D01*
X119968839Y-101769139D01*
X119850999Y-101858499D01*
X119761639Y-101976339D01*
X119707382Y-102113924D01*
X119707382Y-102113925D01*
X119697000Y-102200381D01*
X119697000Y-102664889D01*
X119677315Y-102731928D01*
X119660681Y-102752570D01*
X118348196Y-104065053D01*
X118348192Y-104065059D01*
X118311472Y-104101778D01*
X118300510Y-104123293D01*
X118290346Y-104139878D01*
X118276152Y-104159414D01*
X118276151Y-104159417D01*
X118268688Y-104182385D01*
X118261243Y-104200358D01*
X118250280Y-104221873D01*
X118246503Y-104245722D01*
X118241962Y-104264639D01*
X118234500Y-104287604D01*
X118234500Y-104561534D01*
X118214815Y-104628573D01*
X118184812Y-104660800D01*
X118102452Y-104722455D01*
X118016206Y-104837664D01*
X118016202Y-104837671D01*
X117965908Y-104972517D01*
X117962210Y-105006921D01*
X117959501Y-105032123D01*
X117959500Y-105032135D01*
X117959500Y-106727870D01*
X117959501Y-106727876D01*
X117965908Y-106787483D01*
X118016202Y-106922328D01*
X118016206Y-106922335D01*
X118102452Y-107037544D01*
X118102455Y-107037547D01*
X118217664Y-107123793D01*
X118217671Y-107123797D01*
X118235158Y-107130319D01*
X118352517Y-107174091D01*
X118412127Y-107180500D01*
X118907872Y-107180499D01*
X118967483Y-107174091D01*
X119102331Y-107123796D01*
X119217546Y-107037546D01*
X119303796Y-106922331D01*
X119354091Y-106787483D01*
X119360500Y-106727873D01*
X119360499Y-106005000D01*
X122210001Y-106005000D01*
X122210001Y-106734196D01*
X122212851Y-106764606D01*
X122257653Y-106892645D01*
X122338207Y-107001792D01*
X122447354Y-107082346D01*
X122575397Y-107127149D01*
X122605778Y-107129998D01*
X122605806Y-107129999D01*
X122734999Y-107129999D01*
X122734999Y-107129998D01*
X122735000Y-106005000D01*
X122985000Y-106005000D01*
X122985000Y-107129999D01*
X123114196Y-107129999D01*
X123144606Y-107127148D01*
X123272645Y-107082346D01*
X123381792Y-107001792D01*
X123462346Y-106892645D01*
X123507149Y-106764604D01*
X123507149Y-106764600D01*
X123510000Y-106734206D01*
X123510000Y-106130004D01*
X125054451Y-106130004D01*
X125074616Y-106399101D01*
X125134664Y-106662188D01*
X125134666Y-106662195D01*
X125202128Y-106834085D01*
X125233257Y-106913398D01*
X125368185Y-107147102D01*
X125432051Y-107227187D01*
X125536442Y-107358089D01*
X125723183Y-107531358D01*
X125734259Y-107541635D01*
X125957226Y-107693651D01*
X126200359Y-107810738D01*
X126458228Y-107890280D01*
X126458229Y-107890280D01*
X126458232Y-107890281D01*
X126725063Y-107930499D01*
X126725068Y-107930499D01*
X126725071Y-107930500D01*
X126725072Y-107930500D01*
X126994928Y-107930500D01*
X126994929Y-107930500D01*
X126994936Y-107930499D01*
X127261767Y-107890281D01*
X127261768Y-107890280D01*
X127261772Y-107890280D01*
X127519641Y-107810738D01*
X127762775Y-107693651D01*
X127985741Y-107541635D01*
X128183561Y-107358085D01*
X128351815Y-107147102D01*
X128486743Y-106913398D01*
X128585334Y-106662195D01*
X128645383Y-106399103D01*
X128652105Y-106309401D01*
X128665549Y-106130004D01*
X128665549Y-106129995D01*
X128645383Y-105860898D01*
X128640736Y-105840539D01*
X128585334Y-105597805D01*
X128486743Y-105346602D01*
X128351815Y-105112898D01*
X128183561Y-104901915D01*
X128183560Y-104901914D01*
X128183557Y-104901910D01*
X127985741Y-104718365D01*
X127970066Y-104707678D01*
X127762775Y-104566349D01*
X127762769Y-104566346D01*
X127762768Y-104566345D01*
X127762767Y-104566344D01*
X127519643Y-104449263D01*
X127519645Y-104449263D01*
X127261773Y-104369720D01*
X127261767Y-104369718D01*
X126994936Y-104329500D01*
X126994929Y-104329500D01*
X126725071Y-104329500D01*
X126725063Y-104329500D01*
X126458232Y-104369718D01*
X126458226Y-104369720D01*
X126200358Y-104449262D01*
X125957230Y-104566346D01*
X125734258Y-104718365D01*
X125536442Y-104901910D01*
X125368185Y-105112898D01*
X125233258Y-105346599D01*
X125233256Y-105346603D01*
X125134666Y-105597804D01*
X125134664Y-105597811D01*
X125074616Y-105860898D01*
X125054451Y-106129995D01*
X125054451Y-106130004D01*
X123510000Y-106130004D01*
X123510000Y-106005000D01*
X122985000Y-106005000D01*
X122735000Y-106005000D01*
X122210001Y-106005000D01*
X119360499Y-106005000D01*
X119360499Y-105755000D01*
X122210000Y-105755000D01*
X122735000Y-105755000D01*
X122735000Y-104630000D01*
X122985000Y-104630000D01*
X122985000Y-105755000D01*
X123509999Y-105755000D01*
X123509999Y-105754999D01*
X123509998Y-105025803D01*
X123507148Y-104995393D01*
X123462346Y-104867354D01*
X123381792Y-104758207D01*
X123272645Y-104677653D01*
X123144602Y-104632850D01*
X123114207Y-104630000D01*
X122985000Y-104630000D01*
X122735000Y-104630000D01*
X122605804Y-104630000D01*
X122575393Y-104632851D01*
X122447354Y-104677653D01*
X122338207Y-104758207D01*
X122257653Y-104867354D01*
X122212850Y-104995395D01*
X122212850Y-104995399D01*
X122210000Y-105025793D01*
X122210000Y-105755000D01*
X119360499Y-105755000D01*
X119360499Y-105032128D01*
X119354091Y-104972517D01*
X119327756Y-104901910D01*
X119303797Y-104837671D01*
X119303793Y-104837664D01*
X119217547Y-104722455D01*
X119147240Y-104669822D01*
X119105369Y-104613888D01*
X119100386Y-104544196D01*
X119133869Y-104482877D01*
X120324928Y-103291819D01*
X120386252Y-103258334D01*
X120412610Y-103255500D01*
X120877119Y-103255500D01*
X120898732Y-103252904D01*
X120963577Y-103245117D01*
X121101158Y-103190862D01*
X121219000Y-103101500D01*
X121308362Y-102983658D01*
X121310334Y-102978656D01*
X121353235Y-102923512D01*
X121419141Y-102900314D01*
X121487127Y-102916431D01*
X121524957Y-102949830D01*
X121611741Y-103065758D01*
X121723962Y-103149767D01*
X121855312Y-103198758D01*
X121913353Y-103204999D01*
X121913370Y-103205000D01*
X122135000Y-103205000D01*
X122135000Y-102605000D01*
X122385000Y-102605000D01*
X122385000Y-103205000D01*
X122606630Y-103205000D01*
X122606646Y-103204999D01*
X122664687Y-103198758D01*
X122796037Y-103149767D01*
X122908258Y-103065758D01*
X122992267Y-102953537D01*
X123041258Y-102822187D01*
X123047499Y-102764146D01*
X123047500Y-102764129D01*
X123047500Y-102605000D01*
X122385000Y-102605000D01*
X122135000Y-102605000D01*
X122135000Y-101755000D01*
X122385000Y-101755000D01*
X122385000Y-102355000D01*
X123047500Y-102355000D01*
X123047500Y-102195870D01*
X123047499Y-102195853D01*
X123041258Y-102137812D01*
X122992267Y-102006462D01*
X122908258Y-101894241D01*
X122796037Y-101810232D01*
X122664687Y-101761241D01*
X122606646Y-101755000D01*
X122385000Y-101755000D01*
X122135000Y-101755000D01*
X121913353Y-101755000D01*
X121855312Y-101761241D01*
X121723962Y-101810232D01*
X121611740Y-101894241D01*
X121524956Y-102010170D01*
X121469022Y-102052040D01*
X121399331Y-102057024D01*
X121338008Y-102023538D01*
X121310335Y-101981346D01*
X121308362Y-101976342D01*
X121308361Y-101976341D01*
X121308361Y-101976340D01*
X121308360Y-101976339D01*
X121219000Y-101858499D01*
X121101160Y-101769139D01*
X121101154Y-101769136D01*
X121039009Y-101744629D01*
X120983865Y-101701723D01*
X120960672Y-101635816D01*
X120960500Y-101629312D01*
X120960499Y-101239283D01*
X120980185Y-101172244D01*
X120986116Y-101163808D01*
X120990861Y-101157625D01*
X121046330Y-101023709D01*
X121065250Y-100880000D01*
X121046330Y-100736291D01*
X121040389Y-100721950D01*
X121032922Y-100652482D01*
X121064198Y-100590003D01*
X121124288Y-100554351D01*
X121154952Y-100550500D01*
X125267161Y-100550500D01*
X125334200Y-100570185D01*
X125354841Y-100586818D01*
X131602195Y-106834172D01*
X131606275Y-106838674D01*
X131637244Y-106876410D01*
X131725539Y-106948872D01*
X131768825Y-106984395D01*
X131797204Y-107007685D01*
X131979700Y-107105232D01*
X132177720Y-107165300D01*
X132177719Y-107165300D01*
X132196183Y-107167118D01*
X132383654Y-107185583D01*
X132419090Y-107182092D01*
X132432230Y-107180799D01*
X132438311Y-107180500D01*
X133135104Y-107180500D01*
X133202143Y-107200185D01*
X133232051Y-107227187D01*
X133336442Y-107358089D01*
X133523183Y-107531358D01*
X133534259Y-107541635D01*
X133757226Y-107693651D01*
X134000359Y-107810738D01*
X134258228Y-107890280D01*
X134258229Y-107890280D01*
X134258232Y-107890281D01*
X134525063Y-107930499D01*
X134525068Y-107930499D01*
X134525071Y-107930500D01*
X134525072Y-107930500D01*
X134794928Y-107930500D01*
X134794929Y-107930500D01*
X134794936Y-107930499D01*
X135061767Y-107890281D01*
X135061768Y-107890280D01*
X135061772Y-107890280D01*
X135319641Y-107810738D01*
X135562775Y-107693651D01*
X135785741Y-107541635D01*
X135983561Y-107358085D01*
X136151815Y-107147102D01*
X136286743Y-106913398D01*
X136385334Y-106662195D01*
X136445383Y-106399103D01*
X136452105Y-106309401D01*
X136465549Y-106130004D01*
X136465549Y-106129995D01*
X136445383Y-105860898D01*
X136440736Y-105840539D01*
X136385334Y-105597805D01*
X136286743Y-105346602D01*
X136151815Y-105112898D01*
X135983561Y-104901915D01*
X135983560Y-104901914D01*
X135983557Y-104901910D01*
X135785741Y-104718365D01*
X135770066Y-104707678D01*
X135562775Y-104566349D01*
X135562769Y-104566346D01*
X135562768Y-104566345D01*
X135562767Y-104566344D01*
X135319643Y-104449263D01*
X135319645Y-104449263D01*
X135061773Y-104369720D01*
X135061767Y-104369718D01*
X134794936Y-104329500D01*
X134794929Y-104329500D01*
X134525071Y-104329500D01*
X134525063Y-104329500D01*
X134258232Y-104369718D01*
X134258226Y-104369720D01*
X134000358Y-104449262D01*
X133757230Y-104566346D01*
X133534258Y-104718365D01*
X133336442Y-104901910D01*
X133232051Y-105032813D01*
X133174862Y-105072953D01*
X133135104Y-105079500D01*
X132870147Y-105079500D01*
X132803108Y-105059815D01*
X132782466Y-105043181D01*
X129684416Y-101945131D01*
X126535110Y-98795825D01*
X126531032Y-98791325D01*
X126515495Y-98772393D01*
X126500064Y-98753590D01*
X126423755Y-98690965D01*
X126342460Y-98624248D01*
X126341327Y-98623221D01*
X126340107Y-98622317D01*
X126340105Y-98622316D01*
X126340104Y-98622315D01*
X126340103Y-98622314D01*
X126232771Y-98564943D01*
X126157612Y-98524769D01*
X126157609Y-98524768D01*
X125959588Y-98464700D01*
X125959585Y-98464699D01*
X125959587Y-98464699D01*
X125773935Y-98446414D01*
X125753654Y-98444417D01*
X125753653Y-98444417D01*
X125705078Y-98449201D01*
X125698997Y-98449500D01*
X118238657Y-98449500D01*
X118232576Y-98449201D01*
X118184000Y-98444417D01*
X117978068Y-98464699D01*
X117780041Y-98524769D01*
X117597545Y-98622317D01*
X117513899Y-98690965D01*
X117437588Y-98753591D01*
X117437587Y-98753592D01*
X117406616Y-98791329D01*
X117402529Y-98795838D01*
X116955188Y-99243181D01*
X116893865Y-99276666D01*
X116867507Y-99279500D01*
X116168000Y-99279500D01*
X116100961Y-99259815D01*
X116055206Y-99207011D01*
X116044000Y-99155500D01*
X116044000Y-93540531D01*
X116063685Y-93473492D01*
X116116489Y-93427737D01*
X116185647Y-93417793D01*
X116249203Y-93446818D01*
X116260277Y-93458354D01*
X116264182Y-93462259D01*
X116264184Y-93462262D01*
X116296173Y-93494252D01*
X116296174Y-93494252D01*
X116313612Y-93511691D01*
X116313615Y-93511693D01*
X119434184Y-96632262D01*
X119561738Y-96759816D01*
X119597089Y-96782028D01*
X119602765Y-96786055D01*
X119635411Y-96812090D01*
X119635412Y-96812091D01*
X119656548Y-96822269D01*
X119673035Y-96830208D01*
X119679112Y-96833567D01*
X119696635Y-96844577D01*
X119714477Y-96855789D01*
X119753891Y-96869581D01*
X119760320Y-96872244D01*
X119797941Y-96890361D01*
X119838641Y-96899650D01*
X119845328Y-96901576D01*
X119884742Y-96915367D01*
X119884745Y-96915368D01*
X119926241Y-96920043D01*
X119933093Y-96921207D01*
X119973806Y-96930500D01*
X119973808Y-96930500D01*
X126434194Y-96930500D01*
X126474903Y-96921208D01*
X126481760Y-96920043D01*
X126523255Y-96915368D01*
X126562680Y-96901571D01*
X126569321Y-96899658D01*
X126610061Y-96890360D01*
X126647693Y-96872236D01*
X126654105Y-96869580D01*
X126693522Y-96855789D01*
X126728889Y-96833565D01*
X126734961Y-96830209D01*
X126772587Y-96812091D01*
X126805236Y-96786052D01*
X126810895Y-96782037D01*
X126846262Y-96759816D01*
X126973816Y-96632262D01*
X127032396Y-96573682D01*
X127032397Y-96573679D01*
X127132826Y-96473252D01*
X127132825Y-96473251D01*
X127146622Y-96459453D01*
X127164816Y-96441262D01*
X127187038Y-96405895D01*
X127191051Y-96400239D01*
X127217092Y-96367586D01*
X127235213Y-96329955D01*
X127238570Y-96323881D01*
X127260789Y-96288522D01*
X127274581Y-96249107D01*
X127277244Y-96242679D01*
X127295360Y-96205061D01*
X127304658Y-96164321D01*
X127306571Y-96157680D01*
X127320368Y-96118255D01*
X127325043Y-96076760D01*
X127326208Y-96069905D01*
X127331950Y-96044747D01*
X127335500Y-96029194D01*
X127335500Y-95848806D01*
X127335500Y-93935046D01*
X127320368Y-93800745D01*
X127260789Y-93630478D01*
X127164816Y-93477738D01*
X127164812Y-93477734D01*
X127162550Y-93474897D01*
X127161658Y-93472713D01*
X127161111Y-93471842D01*
X127161263Y-93471746D01*
X127136143Y-93410210D01*
X127135499Y-93397586D01*
X127135499Y-93155143D01*
X127135499Y-93155136D01*
X127135497Y-93155117D01*
X127132586Y-93130012D01*
X127132585Y-93130010D01*
X127132585Y-93130009D01*
X127087206Y-93027235D01*
X127007765Y-92947794D01*
X126994233Y-92941819D01*
X126904992Y-92902415D01*
X126879865Y-92899500D01*
X126140143Y-92899500D01*
X126140117Y-92899502D01*
X126115012Y-92902413D01*
X126115010Y-92902414D01*
X126012765Y-92947559D01*
X125943487Y-92956630D01*
X125938488Y-92955741D01*
X125909626Y-92950000D01*
X125685000Y-92950000D01*
X125685000Y-95010000D01*
X125698181Y-95023181D01*
X125731666Y-95084504D01*
X125734500Y-95110862D01*
X125734500Y-95205500D01*
X125714815Y-95272539D01*
X125662011Y-95318294D01*
X125610500Y-95329500D01*
X120446940Y-95329500D01*
X120379901Y-95309815D01*
X120359259Y-95293181D01*
X117730819Y-92664740D01*
X117697334Y-92603417D01*
X117694500Y-92577059D01*
X117694500Y-89630000D01*
X118204750Y-89630000D01*
X118220760Y-89751609D01*
X118223670Y-89773708D01*
X118223671Y-89773712D01*
X118279137Y-89907622D01*
X118279138Y-89907624D01*
X118279139Y-89907625D01*
X118367379Y-90022621D01*
X118482375Y-90110861D01*
X118616291Y-90166330D01*
X118743280Y-90183048D01*
X118759999Y-90185250D01*
X118760000Y-90185250D01*
X118760001Y-90185250D01*
X118774977Y-90183278D01*
X118903709Y-90166330D01*
X119001880Y-90125666D01*
X119071348Y-90118198D01*
X119133827Y-90149473D01*
X119148135Y-90165303D01*
X119213499Y-90251500D01*
X119313372Y-90327235D01*
X119331342Y-90340862D01*
X119425983Y-90378183D01*
X119481126Y-90421088D01*
X119504319Y-90486995D01*
X119488199Y-90554980D01*
X119437882Y-90603457D01*
X119410885Y-90613755D01*
X119406426Y-90614882D01*
X119406423Y-90614882D01*
X119406423Y-90614883D01*
X119361354Y-90632656D01*
X119268839Y-90669139D01*
X119150999Y-90758499D01*
X119061639Y-90876339D01*
X119007382Y-91013924D01*
X119007382Y-91013925D01*
X118997000Y-91100381D01*
X118997000Y-91659618D01*
X119007382Y-91746074D01*
X119007382Y-91746075D01*
X119026832Y-91795396D01*
X119061629Y-91883636D01*
X119061639Y-91883660D01*
X119150999Y-92001500D01*
X119268839Y-92090860D01*
X119268842Y-92090862D01*
X119406423Y-92145117D01*
X119464062Y-92152038D01*
X119492881Y-92155500D01*
X119492882Y-92155500D01*
X119659903Y-92155500D01*
X119726942Y-92175185D01*
X119747584Y-92191819D01*
X120254669Y-92698904D01*
X120260020Y-92705005D01*
X120281718Y-92733282D01*
X120332986Y-92772621D01*
X120407159Y-92829536D01*
X120407161Y-92829536D01*
X120407163Y-92829538D01*
X120461122Y-92851888D01*
X120553238Y-92890044D01*
X120689359Y-92907965D01*
X120709999Y-92910683D01*
X120710000Y-92910683D01*
X120745334Y-92906030D01*
X120753434Y-92905500D01*
X122634903Y-92905500D01*
X122701942Y-92925185D01*
X122722584Y-92941819D01*
X123948181Y-94167416D01*
X123981666Y-94228739D01*
X123984500Y-94255097D01*
X123984500Y-94804856D01*
X123984502Y-94804882D01*
X123987413Y-94829987D01*
X123987415Y-94829991D01*
X124032793Y-94932764D01*
X124032794Y-94932765D01*
X124112235Y-95012206D01*
X124215009Y-95057585D01*
X124240135Y-95060500D01*
X124979864Y-95060499D01*
X124979879Y-95060497D01*
X124979882Y-95060497D01*
X125004987Y-95057586D01*
X125004987Y-95057585D01*
X125004991Y-95057585D01*
X125107233Y-95012440D01*
X125176510Y-95003369D01*
X125181512Y-95004258D01*
X125210376Y-95010000D01*
X125434999Y-95010000D01*
X125435000Y-92950000D01*
X125210376Y-92950000D01*
X125181508Y-92955742D01*
X125111917Y-92949513D01*
X125107232Y-92947558D01*
X125004996Y-92902416D01*
X125004991Y-92902415D01*
X124979868Y-92899500D01*
X124979865Y-92899500D01*
X124430097Y-92899500D01*
X124363058Y-92879815D01*
X124342416Y-92863181D01*
X124006857Y-92527622D01*
X123973372Y-92466299D01*
X123978356Y-92396607D01*
X124020228Y-92340674D01*
X124085692Y-92316257D01*
X124144623Y-92326506D01*
X124215009Y-92357585D01*
X124240135Y-92360500D01*
X124979864Y-92360499D01*
X124979879Y-92360497D01*
X124979882Y-92360497D01*
X125004987Y-92357586D01*
X125004988Y-92357585D01*
X125004991Y-92357585D01*
X125107765Y-92312206D01*
X125187206Y-92232765D01*
X125232585Y-92129991D01*
X125235500Y-92104865D01*
X125235499Y-90455136D01*
X125235497Y-90455117D01*
X125232586Y-90430012D01*
X125232585Y-90430010D01*
X125232585Y-90430009D01*
X125187206Y-90327235D01*
X125107765Y-90247794D01*
X125107764Y-90247793D01*
X125004992Y-90202415D01*
X124979865Y-90199500D01*
X124240143Y-90199500D01*
X124240117Y-90199502D01*
X124205742Y-90203489D01*
X124205398Y-90200524D01*
X124150949Y-90199422D01*
X124100605Y-90168858D01*
X123174358Y-89242610D01*
X123151554Y-89211224D01*
X123144157Y-89196706D01*
X123108528Y-89126780D01*
X123108524Y-89126776D01*
X123108523Y-89126774D01*
X123013225Y-89031476D01*
X123013221Y-89031473D01*
X123013221Y-89031472D01*
X123013220Y-89031472D01*
X122893126Y-88970281D01*
X122893124Y-88970280D01*
X122893121Y-88970279D01*
X122760002Y-88949196D01*
X122760000Y-88949196D01*
X122736152Y-88952973D01*
X122716755Y-88954500D01*
X122276989Y-88954500D01*
X122209950Y-88934815D01*
X122202063Y-88929303D01*
X122188660Y-88919139D01*
X122188658Y-88919138D01*
X122051077Y-88864883D01*
X122051076Y-88864882D01*
X122051074Y-88864882D01*
X121964619Y-88854500D01*
X121964618Y-88854500D01*
X121380382Y-88854500D01*
X121380381Y-88854500D01*
X121293925Y-88864882D01*
X121293924Y-88864882D01*
X121156339Y-88919139D01*
X121038499Y-89008499D01*
X120949139Y-89126339D01*
X120894882Y-89263924D01*
X120894882Y-89263925D01*
X120884500Y-89350381D01*
X120884500Y-89909618D01*
X120894882Y-89996074D01*
X120894882Y-89996075D01*
X120914699Y-90046328D01*
X120943041Y-90118198D01*
X120949139Y-90133660D01*
X121038499Y-90251500D01*
X121138372Y-90327235D01*
X121156342Y-90340862D01*
X121293923Y-90395117D01*
X121351562Y-90402039D01*
X121380381Y-90405500D01*
X121380382Y-90405500D01*
X121964619Y-90405500D01*
X121986232Y-90402904D01*
X122051077Y-90395117D01*
X122188658Y-90340862D01*
X122306500Y-90251500D01*
X122395862Y-90133658D01*
X122450117Y-89996077D01*
X122450117Y-89996069D01*
X122451935Y-89988883D01*
X122487445Y-89928710D01*
X122549850Y-89897288D01*
X122619337Y-89904592D01*
X122659836Y-89931584D01*
X123948181Y-91219928D01*
X123981666Y-91281251D01*
X123984500Y-91307609D01*
X123984500Y-92104856D01*
X123984502Y-92104882D01*
X123987413Y-92129986D01*
X123987414Y-92129990D01*
X123987415Y-92129991D01*
X124018493Y-92200376D01*
X124027564Y-92269653D01*
X123997740Y-92332838D01*
X123938491Y-92369869D01*
X123868627Y-92368988D01*
X123817377Y-92338142D01*
X123390328Y-91911093D01*
X123384974Y-91904988D01*
X123363286Y-91876722D01*
X123363283Y-91876720D01*
X123363282Y-91876718D01*
X123237841Y-91780464D01*
X123236332Y-91779839D01*
X123091762Y-91719956D01*
X123091760Y-91719955D01*
X122974361Y-91704500D01*
X122935000Y-91699318D01*
X122899670Y-91703969D01*
X122891572Y-91704500D01*
X122471500Y-91704500D01*
X122404461Y-91684815D01*
X122358706Y-91632011D01*
X122347500Y-91580500D01*
X122347500Y-91505000D01*
X120846682Y-91505000D01*
X120842214Y-91507439D01*
X120772522Y-91502448D01*
X120728187Y-91473952D01*
X120609318Y-91355083D01*
X120575834Y-91293760D01*
X120573000Y-91267402D01*
X120573000Y-91254999D01*
X120872499Y-91254999D01*
X120872500Y-91255000D01*
X121484999Y-91255000D01*
X121485000Y-90655000D01*
X121735000Y-90655000D01*
X121735000Y-91255000D01*
X122347500Y-91255000D01*
X122347500Y-91095870D01*
X122347499Y-91095853D01*
X122341258Y-91037812D01*
X122292267Y-90906462D01*
X122208258Y-90794241D01*
X122096037Y-90710232D01*
X121964687Y-90661241D01*
X121906646Y-90655000D01*
X121735000Y-90655000D01*
X121485000Y-90655000D01*
X121313353Y-90655000D01*
X121255312Y-90661241D01*
X121123962Y-90710232D01*
X121011741Y-90794241D01*
X120927732Y-90906462D01*
X120878741Y-91037812D01*
X120872500Y-91095853D01*
X120872500Y-91095870D01*
X120872499Y-91254999D01*
X120573000Y-91254999D01*
X120573000Y-91100381D01*
X120562617Y-91013925D01*
X120562617Y-91013924D01*
X120562617Y-91013923D01*
X120508362Y-90876342D01*
X120493812Y-90857155D01*
X120419000Y-90758499D01*
X120301160Y-90669139D01*
X120301158Y-90669138D01*
X120206515Y-90631815D01*
X120151373Y-90588911D01*
X120128180Y-90523003D01*
X120144301Y-90455018D01*
X120194617Y-90406542D01*
X120221626Y-90396241D01*
X120226063Y-90395118D01*
X120226077Y-90395117D01*
X120363658Y-90340862D01*
X120481500Y-90251500D01*
X120570862Y-90133658D01*
X120625117Y-89996077D01*
X120635500Y-89909618D01*
X120635500Y-89350382D01*
X120625117Y-89263923D01*
X120570862Y-89126342D01*
X120550639Y-89099674D01*
X120481500Y-89008499D01*
X120363660Y-88919139D01*
X120363658Y-88919138D01*
X120226077Y-88864883D01*
X120226076Y-88864882D01*
X120226074Y-88864882D01*
X120139619Y-88854500D01*
X120139618Y-88854500D01*
X119555382Y-88854500D01*
X119555381Y-88854500D01*
X119468925Y-88864882D01*
X119468924Y-88864882D01*
X119331339Y-88919139D01*
X119213499Y-89008499D01*
X119148135Y-89094696D01*
X119091942Y-89136220D01*
X119022221Y-89140771D01*
X119001881Y-89134333D01*
X118903709Y-89093670D01*
X118903708Y-89093669D01*
X118903706Y-89093669D01*
X118760001Y-89074750D01*
X118759999Y-89074750D01*
X118616291Y-89093670D01*
X118616287Y-89093671D01*
X118482377Y-89149137D01*
X118367379Y-89237379D01*
X118279137Y-89352377D01*
X118223671Y-89486287D01*
X118223670Y-89486291D01*
X118204750Y-89630000D01*
X117694500Y-89630000D01*
X117694500Y-87645000D01*
X119134000Y-87645000D01*
X119134000Y-88042844D01*
X119140401Y-88102372D01*
X119140403Y-88102379D01*
X119190645Y-88237086D01*
X119190649Y-88237093D01*
X119276809Y-88352187D01*
X119276812Y-88352190D01*
X119391906Y-88438350D01*
X119391913Y-88438354D01*
X119526620Y-88488596D01*
X119526627Y-88488598D01*
X119586155Y-88494999D01*
X119586172Y-88495000D01*
X119759000Y-88495000D01*
X119759000Y-87645000D01*
X120009000Y-87645000D01*
X120009000Y-88495000D01*
X120181828Y-88495000D01*
X120181844Y-88494999D01*
X120241372Y-88488598D01*
X120241379Y-88488596D01*
X120376086Y-88438354D01*
X120376093Y-88438350D01*
X120491187Y-88352190D01*
X120491190Y-88352187D01*
X120577350Y-88237093D01*
X120577354Y-88237086D01*
X120627596Y-88102379D01*
X120627598Y-88102372D01*
X120633999Y-88042844D01*
X120634000Y-88042827D01*
X120634000Y-87645000D01*
X120009000Y-87645000D01*
X119759000Y-87645000D01*
X119134000Y-87645000D01*
X117694500Y-87645000D01*
X117694500Y-87395000D01*
X119134000Y-87395000D01*
X119759000Y-87395000D01*
X119759000Y-86545000D01*
X120009000Y-86545000D01*
X120009000Y-87395000D01*
X120634000Y-87395000D01*
X120634000Y-86997172D01*
X120633999Y-86997155D01*
X120627598Y-86937627D01*
X120627596Y-86937620D01*
X120577354Y-86802913D01*
X120577352Y-86802910D01*
X120522144Y-86729162D01*
X120501746Y-86674475D01*
X120464722Y-86666421D01*
X120449838Y-86656855D01*
X120376093Y-86601649D01*
X120376086Y-86601645D01*
X120241379Y-86551403D01*
X120241372Y-86551401D01*
X120181844Y-86545000D01*
X120009000Y-86545000D01*
X119759000Y-86545000D01*
X119586155Y-86545000D01*
X119526627Y-86551401D01*
X119526620Y-86551403D01*
X119391913Y-86601645D01*
X119391906Y-86601649D01*
X119276812Y-86687809D01*
X119276809Y-86687812D01*
X119190649Y-86802906D01*
X119190645Y-86802913D01*
X119140403Y-86937620D01*
X119140401Y-86937627D01*
X119134000Y-86997155D01*
X119134000Y-87395000D01*
X117694500Y-87395000D01*
X117694500Y-87222940D01*
X117714185Y-87155901D01*
X117730819Y-87135259D01*
X118549259Y-86316819D01*
X118610582Y-86283334D01*
X118636940Y-86280500D01*
X120371060Y-86280500D01*
X120438099Y-86300185D01*
X120458741Y-86316819D01*
X120611830Y-86469908D01*
X120645315Y-86531231D01*
X120644928Y-86536638D01*
X120695719Y-86555582D01*
X120709091Y-86567169D01*
X120947181Y-86805259D01*
X120980666Y-86866582D01*
X120983500Y-86892940D01*
X120983500Y-87001897D01*
X120983500Y-87001898D01*
X120983500Y-88038102D01*
X120988398Y-88078888D01*
X120994122Y-88126561D01*
X121049639Y-88267343D01*
X121141077Y-88387922D01*
X121261656Y-88479360D01*
X121261657Y-88479360D01*
X121261658Y-88479361D01*
X121402436Y-88534877D01*
X121490898Y-88545500D01*
X121490903Y-88545500D01*
X122077097Y-88545500D01*
X122077102Y-88545500D01*
X122165564Y-88534877D01*
X122306342Y-88479361D01*
X122426922Y-88387922D01*
X122518361Y-88267342D01*
X122573877Y-88126564D01*
X122584500Y-88038102D01*
X122584500Y-87902939D01*
X122604185Y-87835900D01*
X122620819Y-87815258D01*
X123481577Y-86954500D01*
X124342413Y-86093663D01*
X124403734Y-86060180D01*
X124473426Y-86065164D01*
X124482491Y-86068961D01*
X124563504Y-86106739D01*
X124783308Y-86165635D01*
X124945230Y-86179801D01*
X125009998Y-86185468D01*
X125010000Y-86185468D01*
X125010002Y-86185468D01*
X125066673Y-86180509D01*
X125236692Y-86165635D01*
X125456496Y-86106739D01*
X125662734Y-86010568D01*
X125849139Y-85880047D01*
X126010047Y-85719139D01*
X126140568Y-85532734D01*
X126236739Y-85326496D01*
X126295635Y-85106692D01*
X126315468Y-84880000D01*
X126312859Y-84850184D01*
X126300625Y-84710348D01*
X126295635Y-84653308D01*
X126241384Y-84450840D01*
X126236741Y-84433511D01*
X126236738Y-84433502D01*
X126218288Y-84393937D01*
X126140568Y-84227266D01*
X126010047Y-84040861D01*
X126010045Y-84040858D01*
X125849141Y-83879954D01*
X125662734Y-83749432D01*
X125662732Y-83749431D01*
X125456497Y-83653261D01*
X125456488Y-83653258D01*
X125236697Y-83594366D01*
X125236693Y-83594365D01*
X125236692Y-83594365D01*
X125236691Y-83594364D01*
X125236686Y-83594364D01*
X125010002Y-83574532D01*
X125009998Y-83574532D01*
X124783313Y-83594364D01*
X124783302Y-83594366D01*
X124563511Y-83653258D01*
X124563502Y-83653261D01*
X124357267Y-83749431D01*
X124357265Y-83749432D01*
X124170858Y-83879954D01*
X124009954Y-84040858D01*
X123879430Y-84227268D01*
X123879427Y-84227273D01*
X123831680Y-84329665D01*
X123806980Y-84364940D01*
X123113875Y-85058046D01*
X123052552Y-85091531D01*
X122982861Y-85086547D01*
X122926927Y-85044676D01*
X122902510Y-84979211D01*
X122916835Y-84911913D01*
X122985232Y-84783954D01*
X123045300Y-84585934D01*
X123065583Y-84380000D01*
X123045300Y-84174066D01*
X122985232Y-83976046D01*
X122887685Y-83793550D01*
X122779111Y-83661251D01*
X122756410Y-83633589D01*
X122596452Y-83502317D01*
X122596453Y-83502317D01*
X122596450Y-83502315D01*
X122413954Y-83404768D01*
X122215934Y-83344700D01*
X122215932Y-83344699D01*
X122215934Y-83344699D01*
X122010000Y-83324417D01*
X121804067Y-83344699D01*
X121606043Y-83404769D01*
X121495898Y-83463643D01*
X121423550Y-83502315D01*
X121423548Y-83502316D01*
X121423547Y-83502317D01*
X121263589Y-83633589D01*
X121132317Y-83793547D01*
X121034769Y-83976043D01*
X120974699Y-84174067D01*
X120954417Y-84380000D01*
X120970505Y-84543346D01*
X120957486Y-84611992D01*
X120909421Y-84662702D01*
X120847102Y-84679500D01*
X120844194Y-84679500D01*
X120798954Y-84679500D01*
X118344194Y-84679500D01*
X118163805Y-84679500D01*
X118163803Y-84679500D01*
X118163797Y-84679501D01*
X118123098Y-84688790D01*
X118116242Y-84689955D01*
X118074743Y-84694632D01*
X118035328Y-84708423D01*
X118028646Y-84710348D01*
X117987940Y-84719640D01*
X117950326Y-84737753D01*
X117943901Y-84740414D01*
X117904482Y-84754209D01*
X117904474Y-84754213D01*
X117869117Y-84776428D01*
X117863032Y-84779791D01*
X117825413Y-84797908D01*
X117825411Y-84797909D01*
X117792769Y-84823941D01*
X117787096Y-84827966D01*
X117751739Y-84850183D01*
X117702307Y-84899614D01*
X117702306Y-84899615D01*
X116333159Y-86268760D01*
X116333151Y-86268771D01*
X116264184Y-86337738D01*
X116264182Y-86337740D01*
X116259261Y-86342662D01*
X116258151Y-86341552D01*
X116207747Y-86376925D01*
X116137935Y-86379768D01*
X116077669Y-86344417D01*
X116046082Y-86282094D01*
X116044000Y-86259468D01*
X116044000Y-66640000D01*
X112524345Y-66640000D01*
X112457306Y-66620315D01*
X112411551Y-66567511D01*
X112401607Y-66498353D01*
X112408990Y-66470510D01*
X112454117Y-66356077D01*
X112454117Y-66356074D01*
X112457033Y-66348681D01*
X112458709Y-66349342D01*
X112489158Y-66297737D01*
X112535558Y-66270354D01*
X112555581Y-66263849D01*
X112575118Y-66249653D01*
X112591706Y-66239488D01*
X112613220Y-66228528D01*
X112708528Y-66133220D01*
X112708528Y-66133219D01*
X112974930Y-65866816D01*
X113036252Y-65833334D01*
X113062610Y-65830500D01*
X113143136Y-65830500D01*
X113210175Y-65850185D01*
X113218609Y-65856114D01*
X113257375Y-65885861D01*
X113257376Y-65885861D01*
X113257377Y-65885862D01*
X113292454Y-65900391D01*
X113391291Y-65941330D01*
X113518280Y-65958048D01*
X113534999Y-65960250D01*
X113535000Y-65960250D01*
X113535001Y-65960250D01*
X113549977Y-65958278D01*
X113678709Y-65941330D01*
X113812625Y-65885861D01*
X113927621Y-65797621D01*
X114015861Y-65682625D01*
X114071330Y-65548709D01*
X114090250Y-65405000D01*
X114071330Y-65261291D01*
X114025147Y-65149793D01*
X114015862Y-65127377D01*
X114015861Y-65127376D01*
X114015861Y-65127375D01*
X113927621Y-65012379D01*
X113812625Y-64924139D01*
X113812624Y-64924138D01*
X113812622Y-64924137D01*
X113678712Y-64868671D01*
X113678710Y-64868670D01*
X113678709Y-64868670D01*
X113606854Y-64859210D01*
X113535001Y-64849750D01*
X113534999Y-64849750D01*
X113391291Y-64868670D01*
X113391287Y-64868671D01*
X113257377Y-64924137D01*
X113244703Y-64933862D01*
X113218621Y-64953875D01*
X113153455Y-64979070D01*
X113143136Y-64979500D01*
X112767604Y-64979500D01*
X112744639Y-64986962D01*
X112725722Y-64991503D01*
X112701873Y-64995280D01*
X112680358Y-65006243D01*
X112662386Y-65013688D01*
X112639418Y-65021151D01*
X112639416Y-65021152D01*
X112619884Y-65035343D01*
X112603299Y-65045506D01*
X112581782Y-65056469D01*
X112581780Y-65056471D01*
X112557805Y-65080447D01*
X112363779Y-65274472D01*
X112302456Y-65307957D01*
X112232764Y-65302973D01*
X112201172Y-65285594D01*
X112192660Y-65279139D01*
X112192658Y-65279138D01*
X112055077Y-65224883D01*
X112055076Y-65224882D01*
X112055074Y-65224882D01*
X111968619Y-65214500D01*
X111968618Y-65214500D01*
X111384382Y-65214500D01*
X111384381Y-65214500D01*
X111297925Y-65224882D01*
X111297924Y-65224882D01*
X111160339Y-65279139D01*
X111160335Y-65279141D01*
X111114424Y-65313957D01*
X111049113Y-65338780D01*
X110980749Y-65324352D01*
X110931038Y-65275253D01*
X110915500Y-65215153D01*
X110915500Y-65170107D01*
X110915500Y-64465490D01*
X110915500Y-63746674D01*
X110935184Y-63679639D01*
X110987987Y-63633884D01*
X111057146Y-63623940D01*
X111089585Y-63633244D01*
X111162342Y-63665369D01*
X111190009Y-63677585D01*
X111215135Y-63680500D01*
X112304864Y-63680499D01*
X112304879Y-63680497D01*
X112304882Y-63680497D01*
X112329987Y-63677586D01*
X112329988Y-63677585D01*
X112329991Y-63677585D01*
X112432765Y-63632206D01*
X112434967Y-63630004D01*
X117705093Y-63630004D01*
X117724692Y-63891545D01*
X117724693Y-63891550D01*
X117783058Y-64147270D01*
X117878883Y-64391426D01*
X117878882Y-64391426D01*
X118010028Y-64618573D01*
X118136303Y-64776919D01*
X118833311Y-64079911D01*
X118854181Y-64113125D01*
X118976875Y-64235819D01*
X119010087Y-64256687D01*
X118313391Y-64953382D01*
X118365831Y-65002041D01*
X118582546Y-65149793D01*
X118582550Y-65149795D01*
X118818854Y-65263594D01*
X118818858Y-65263595D01*
X119069494Y-65340907D01*
X119069500Y-65340909D01*
X119328848Y-65379999D01*
X119328857Y-65380000D01*
X119591143Y-65380000D01*
X119591151Y-65379999D01*
X119850499Y-65340909D01*
X119850505Y-65340907D01*
X120101143Y-65263595D01*
X120337445Y-65149798D01*
X120337454Y-65149793D01*
X120554162Y-65002045D01*
X120554167Y-65002041D01*
X120606607Y-64953382D01*
X119909912Y-64256687D01*
X119943125Y-64235819D01*
X120065819Y-64113125D01*
X120086687Y-64079912D01*
X120783694Y-64776919D01*
X120909972Y-64618574D01*
X121041116Y-64391426D01*
X121136941Y-64147270D01*
X121195306Y-63891550D01*
X121195307Y-63891545D01*
X121214907Y-63630004D01*
X121214907Y-63629995D01*
X121195307Y-63368454D01*
X121195306Y-63368449D01*
X121136941Y-63112729D01*
X121041116Y-62868573D01*
X121041117Y-62868573D01*
X120909971Y-62641426D01*
X120783695Y-62483079D01*
X120086687Y-63180087D01*
X120065819Y-63146875D01*
X119943125Y-63024181D01*
X119909910Y-63003311D01*
X120606607Y-62306615D01*
X120554168Y-62257958D01*
X120337454Y-62110206D01*
X120337445Y-62110201D01*
X120101142Y-61996404D01*
X120101144Y-61996404D01*
X119850505Y-61919092D01*
X119850499Y-61919090D01*
X119591151Y-61880000D01*
X119328848Y-61880000D01*
X119069500Y-61919090D01*
X119069494Y-61919092D01*
X118818858Y-61996404D01*
X118818854Y-61996405D01*
X118582550Y-62110204D01*
X118582546Y-62110206D01*
X118365835Y-62257956D01*
X118313392Y-62306616D01*
X119010087Y-63003311D01*
X118976875Y-63024181D01*
X118854181Y-63146875D01*
X118833312Y-63180087D01*
X118136303Y-62483079D01*
X118010030Y-62641422D01*
X117878883Y-62868573D01*
X117783058Y-63112729D01*
X117724693Y-63368449D01*
X117724692Y-63368454D01*
X117705093Y-63629995D01*
X117705093Y-63630004D01*
X112434967Y-63630004D01*
X112512206Y-63552765D01*
X112557585Y-63449991D01*
X112560500Y-63424865D01*
X112560499Y-62335136D01*
X112559756Y-62328725D01*
X112557586Y-62310012D01*
X112557585Y-62310010D01*
X112557585Y-62310009D01*
X112512206Y-62207235D01*
X112432765Y-62127794D01*
X112392932Y-62110206D01*
X112329992Y-62082415D01*
X112304865Y-62079500D01*
X111215143Y-62079500D01*
X111215117Y-62079502D01*
X111190012Y-62082413D01*
X111190008Y-62082415D01*
X111087235Y-62127793D01*
X111087233Y-62127794D01*
X111045347Y-62169681D01*
X110984024Y-62203165D01*
X110914332Y-62198180D01*
X110891696Y-62186993D01*
X110839521Y-62154209D01*
X110669262Y-62094633D01*
X110669249Y-62094630D01*
X110490004Y-62074435D01*
X110489996Y-62074435D01*
X110310750Y-62094630D01*
X110310745Y-62094631D01*
X110140476Y-62154211D01*
X109987737Y-62250184D01*
X109942680Y-62295241D01*
X109881357Y-62328725D01*
X109811665Y-62323740D01*
X109767320Y-62295241D01*
X109722263Y-62250185D01*
X109722262Y-62250184D01*
X109569523Y-62154211D01*
X109399254Y-62094631D01*
X109399249Y-62094630D01*
X109220004Y-62074435D01*
X109219996Y-62074435D01*
X109040750Y-62094630D01*
X109040745Y-62094631D01*
X108870476Y-62154211D01*
X108717737Y-62250184D01*
X108636972Y-62330950D01*
X108575649Y-62364435D01*
X108505957Y-62359451D01*
X108461610Y-62330950D01*
X108420575Y-62289915D01*
X108277471Y-62199996D01*
X108117945Y-62144176D01*
X108075000Y-62139337D01*
X108074999Y-62576890D01*
X108062871Y-62569888D01*
X107978436Y-62555000D01*
X107921564Y-62555000D01*
X107837129Y-62569888D01*
X107824999Y-62576890D01*
X107824999Y-62139337D01*
X107782054Y-62144176D01*
X107622528Y-62199996D01*
X107479424Y-62289915D01*
X107359915Y-62409424D01*
X107269996Y-62552528D01*
X107214176Y-62712054D01*
X107209337Y-62754999D01*
X107209337Y-62755000D01*
X107649638Y-62755000D01*
X107625000Y-62822694D01*
X107625000Y-62937306D01*
X107649638Y-63005000D01*
X107209337Y-63005000D01*
X107214176Y-63047945D01*
X107269996Y-63207471D01*
X107359915Y-63350575D01*
X107479424Y-63470084D01*
X107622528Y-63560003D01*
X107782051Y-63615822D01*
X107825000Y-63620660D01*
X107825000Y-63183109D01*
X107837129Y-63190112D01*
X107921564Y-63205000D01*
X107978436Y-63205000D01*
X108062871Y-63190112D01*
X108074999Y-63183109D01*
X108074999Y-63620659D01*
X108117949Y-63615822D01*
X108169544Y-63597768D01*
X108239323Y-63594205D01*
X108299951Y-63628934D01*
X108332178Y-63690927D01*
X108334500Y-63714809D01*
X108334500Y-66516000D01*
X108314815Y-66583039D01*
X108262011Y-66628794D01*
X108210500Y-66640000D01*
X104113035Y-66640000D01*
X104045996Y-66620315D01*
X104000241Y-66567511D01*
X103990297Y-66498353D01*
X104019322Y-66434797D01*
X104067386Y-66400708D01*
X104069786Y-66399757D01*
X104076766Y-66396994D01*
X104352484Y-66245416D01*
X104607030Y-66060478D01*
X104836390Y-65845094D01*
X105036947Y-65602663D01*
X105205537Y-65337007D01*
X105339503Y-65052315D01*
X105436731Y-64753079D01*
X105495688Y-64444015D01*
X105496360Y-64433334D01*
X105515444Y-64130005D01*
X105515444Y-64129994D01*
X105495689Y-63815995D01*
X105495688Y-63815988D01*
X105495688Y-63815985D01*
X105436731Y-63506921D01*
X105339503Y-63207685D01*
X105339402Y-63207471D01*
X105253152Y-63024181D01*
X105205537Y-62922993D01*
X105155808Y-62844632D01*
X105036948Y-62657338D01*
X105036945Y-62657334D01*
X104836393Y-62414909D01*
X104836391Y-62414907D01*
X104805596Y-62385988D01*
X104607030Y-62199522D01*
X104607027Y-62199520D01*
X104607021Y-62199515D01*
X104352495Y-62014591D01*
X104352488Y-62014586D01*
X104352484Y-62014584D01*
X104076766Y-61863006D01*
X104076763Y-61863004D01*
X104076758Y-61863002D01*
X104076757Y-61863001D01*
X103784228Y-61747181D01*
X103784225Y-61747180D01*
X103479476Y-61668934D01*
X103479463Y-61668932D01*
X103167329Y-61629500D01*
X103167318Y-61629500D01*
X102852682Y-61629500D01*
X102852670Y-61629500D01*
X102540536Y-61668932D01*
X102540523Y-61668934D01*
X102235774Y-61747180D01*
X102235771Y-61747181D01*
X101943242Y-61863001D01*
X101943241Y-61863002D01*
X101667516Y-62014584D01*
X101667504Y-62014591D01*
X101412978Y-62199515D01*
X101412968Y-62199523D01*
X101183608Y-62414907D01*
X101183606Y-62414909D01*
X100983054Y-62657334D01*
X100983051Y-62657338D01*
X100814464Y-62922990D01*
X100814461Y-62922996D01*
X100680499Y-63207678D01*
X100680497Y-63207683D01*
X100583270Y-63506916D01*
X100524311Y-63815988D01*
X100524310Y-63815995D01*
X100504556Y-64129994D01*
X100504556Y-64130005D01*
X100524310Y-64444004D01*
X100524311Y-64444011D01*
X100528409Y-64465493D01*
X100574768Y-64708517D01*
X100583270Y-64753083D01*
X100680497Y-65052316D01*
X100680499Y-65052321D01*
X100814461Y-65337003D01*
X100814464Y-65337009D01*
X100983051Y-65602661D01*
X100983054Y-65602665D01*
X101183606Y-65845090D01*
X101183608Y-65845092D01*
X101183610Y-65845094D01*
X101325129Y-65977989D01*
X101412968Y-66060476D01*
X101412978Y-66060484D01*
X101667504Y-66245408D01*
X101667509Y-66245410D01*
X101667516Y-66245416D01*
X101943234Y-66396994D01*
X101943238Y-66396995D01*
X101943237Y-66396995D01*
X101952614Y-66400708D01*
X102007698Y-66443690D01*
X102030801Y-66509629D01*
X102014587Y-66577592D01*
X101964203Y-66625999D01*
X101906965Y-66640000D01*
X100284500Y-66640000D01*
X100217461Y-66620315D01*
X100171706Y-66567511D01*
X100160500Y-66516000D01*
X100160500Y-61404500D01*
X100180185Y-61337461D01*
X100232989Y-61291706D01*
X100284500Y-61280500D01*
X116490186Y-61280500D01*
X125711171Y-61280500D01*
X125778210Y-61300185D01*
G37*
%TD.AperFunction*%
%TA.AperFunction,Conductor*%
G36*
X159802539Y-86899685D02*
G01*
X159848294Y-86952489D01*
X159859500Y-87004000D01*
X159859500Y-88885453D01*
X159839815Y-88952492D01*
X159787011Y-88998247D01*
X159717853Y-89008191D01*
X159654297Y-88979166D01*
X159616523Y-88920388D01*
X159616020Y-88918626D01*
X159594399Y-88840756D01*
X159594397Y-88840749D01*
X159463956Y-88513365D01*
X159463947Y-88513347D01*
X159298875Y-88201988D01*
X159101102Y-87910295D01*
X158896894Y-87669882D01*
X158896893Y-87669881D01*
X157994923Y-88571851D01*
X157818146Y-88395074D01*
X158718155Y-87495066D01*
X158617084Y-87399327D01*
X158617082Y-87399326D01*
X158336539Y-87186061D01*
X158336522Y-87186049D01*
X158210541Y-87110250D01*
X158163246Y-87058821D01*
X158151263Y-86989987D01*
X158178398Y-86925601D01*
X158236034Y-86886107D01*
X158274469Y-86880000D01*
X159735500Y-86880000D01*
X159802539Y-86899685D01*
G37*
%TD.AperFunction*%
%TA.AperFunction,Conductor*%
G36*
X154812570Y-86899685D02*
G01*
X154858325Y-86952489D01*
X154868269Y-87021647D01*
X154839244Y-87085203D01*
X154809459Y-87110250D01*
X154683477Y-87186049D01*
X154683460Y-87186061D01*
X154402907Y-87399333D01*
X154402903Y-87399336D01*
X154301843Y-87495065D01*
X154301842Y-87495066D01*
X155201852Y-88395075D01*
X155025075Y-88571852D01*
X154123105Y-87669881D01*
X154123104Y-87669882D01*
X153918900Y-87910291D01*
X153786133Y-88106108D01*
X153732219Y-88150549D01*
X153662836Y-88158787D01*
X153600015Y-88128206D01*
X153563699Y-88068516D01*
X153559500Y-88036521D01*
X153559500Y-87888320D01*
X153579185Y-87821281D01*
X153615687Y-87786476D01*
X153615176Y-87785810D01*
X153621378Y-87781050D01*
X153621506Y-87780929D01*
X153621616Y-87780864D01*
X153621625Y-87780861D01*
X153736621Y-87692621D01*
X153824861Y-87577625D01*
X153880330Y-87443709D01*
X153899250Y-87300000D01*
X153880330Y-87156291D01*
X153836905Y-87051452D01*
X153829436Y-86981983D01*
X153860711Y-86919504D01*
X153920801Y-86883852D01*
X153951466Y-86880000D01*
X154745531Y-86880000D01*
X154812570Y-86899685D01*
G37*
%TD.AperFunction*%
%TA.AperFunction,Conductor*%
G36*
X120978834Y-73995757D02*
G01*
X121034767Y-74037629D01*
X121059184Y-74103093D01*
X121059500Y-74111939D01*
X121059500Y-75424856D01*
X121059502Y-75424882D01*
X121062413Y-75449987D01*
X121062415Y-75449991D01*
X121107793Y-75552764D01*
X121107793Y-75552765D01*
X121107794Y-75552765D01*
X121187235Y-75632206D01*
X121290009Y-75677585D01*
X121315135Y-75680500D01*
X123404864Y-75680499D01*
X123404879Y-75680497D01*
X123404882Y-75680497D01*
X123429987Y-75677586D01*
X123429988Y-75677585D01*
X123429991Y-75677585D01*
X123532765Y-75632206D01*
X123612206Y-75552765D01*
X123633556Y-75504411D01*
X123678640Y-75451038D01*
X123745426Y-75430510D01*
X123746989Y-75430500D01*
X127235501Y-75430500D01*
X127302540Y-75450185D01*
X127348295Y-75502989D01*
X127359501Y-75554500D01*
X127359501Y-76574856D01*
X127359502Y-76574882D01*
X127362413Y-76599987D01*
X127362415Y-76599991D01*
X127407793Y-76702764D01*
X127407794Y-76702765D01*
X127487235Y-76782206D01*
X127590009Y-76827585D01*
X127615135Y-76830500D01*
X128307389Y-76830499D01*
X128374428Y-76850183D01*
X128395070Y-76866818D01*
X130475122Y-78946870D01*
X130508607Y-79008193D01*
X130506102Y-79070545D01*
X130474699Y-79174067D01*
X130454417Y-79380000D01*
X130474699Y-79585932D01*
X130488107Y-79630131D01*
X130534768Y-79783954D01*
X130632315Y-79966450D01*
X130632317Y-79966452D01*
X130763589Y-80126410D01*
X130923548Y-80257684D01*
X130923550Y-80257685D01*
X131066534Y-80334112D01*
X131116378Y-80383073D01*
X131126010Y-80405147D01*
X131126151Y-80405581D01*
X131140340Y-80425110D01*
X131150508Y-80441703D01*
X131161470Y-80463218D01*
X131499071Y-80800819D01*
X131532556Y-80862142D01*
X131527572Y-80931834D01*
X131485700Y-80987767D01*
X131420236Y-81012184D01*
X131370437Y-81005542D01*
X131339258Y-80994632D01*
X131297763Y-80989955D01*
X131290908Y-80988791D01*
X131250200Y-80979501D01*
X131250196Y-80979500D01*
X131250194Y-80979500D01*
X131250191Y-80979500D01*
X123042939Y-80979500D01*
X122975900Y-80959815D01*
X122955258Y-80943181D01*
X120496819Y-78484741D01*
X120463334Y-78423418D01*
X120460500Y-78397060D01*
X120460500Y-77055000D01*
X121110000Y-77055000D01*
X121110000Y-77704628D01*
X121124503Y-77777540D01*
X121124505Y-77777544D01*
X121179760Y-77860239D01*
X121262455Y-77915494D01*
X121262459Y-77915496D01*
X121335371Y-77929999D01*
X121335374Y-77930000D01*
X122235000Y-77930000D01*
X122235000Y-77055000D01*
X122485000Y-77055000D01*
X122485000Y-77930000D01*
X123384626Y-77930000D01*
X123384628Y-77929999D01*
X123457540Y-77915496D01*
X123457544Y-77915494D01*
X123540239Y-77860239D01*
X123595494Y-77777544D01*
X123595496Y-77777540D01*
X123609999Y-77704628D01*
X123610000Y-77704626D01*
X123610000Y-77055000D01*
X122485000Y-77055000D01*
X122235000Y-77055000D01*
X121110000Y-77055000D01*
X120460500Y-77055000D01*
X120460500Y-76805000D01*
X121110000Y-76805000D01*
X122235000Y-76805000D01*
X122235000Y-75930000D01*
X122485000Y-75930000D01*
X122485000Y-76805000D01*
X123610000Y-76805000D01*
X123610000Y-76155373D01*
X123609999Y-76155371D01*
X123595496Y-76082459D01*
X123595494Y-76082455D01*
X123540239Y-75999760D01*
X123457544Y-75944505D01*
X123457540Y-75944503D01*
X123384627Y-75930000D01*
X122485000Y-75930000D01*
X122235000Y-75930000D01*
X121335373Y-75930000D01*
X121262459Y-75944503D01*
X121262455Y-75944505D01*
X121179760Y-75999760D01*
X121124505Y-76082455D01*
X121124503Y-76082459D01*
X121110000Y-76155371D01*
X121110000Y-76805000D01*
X120460500Y-76805000D01*
X120460500Y-74462939D01*
X120480185Y-74395900D01*
X120496815Y-74375262D01*
X120847819Y-74024257D01*
X120909142Y-73990773D01*
X120978834Y-73995757D01*
G37*
%TD.AperFunction*%
%TD*%
%TA.AperFunction,Conductor*%
%TO.N,Net-(U4-SW)*%
G36*
X143953039Y-86899685D02*
G01*
X143998794Y-86952489D01*
X144010000Y-87004000D01*
X144010000Y-88756000D01*
X143990315Y-88823039D01*
X143937511Y-88868794D01*
X143886000Y-88880000D01*
X143010000Y-88880000D01*
X143010000Y-91380000D01*
X144386000Y-91380000D01*
X144453039Y-91399685D01*
X144498794Y-91452489D01*
X144510000Y-91504000D01*
X144510000Y-93256000D01*
X144490315Y-93323039D01*
X144437511Y-93368794D01*
X144386000Y-93380000D01*
X141134000Y-93380000D01*
X141066961Y-93360315D01*
X141021206Y-93307511D01*
X141010000Y-93256000D01*
X141010000Y-87004000D01*
X141029685Y-86936961D01*
X141082489Y-86891206D01*
X141134000Y-86880000D01*
X143886000Y-86880000D01*
X143953039Y-86899685D01*
G37*
%TD.AperFunction*%
%TD*%
M02*
