%TF.GenerationSoftware,KiCad,Pcbnew,7.0.6*%
%TF.CreationDate,2023-10-13T10:01:51+08:00*%
%TF.ProjectId,86_BOX_PANEL,38365f42-4f58-45f5-9041-4e454c2e6b69,rev?*%
%TF.SameCoordinates,Original*%
%TF.FileFunction,Legend,Top*%
%TF.FilePolarity,Positive*%
%FSLAX46Y46*%
G04 Gerber Fmt 4.6, Leading zero omitted, Abs format (unit mm)*
G04 Created by KiCad (PCBNEW 7.0.6) date 2023-10-13 10:01:51*
%MOMM*%
%LPD*%
G01*
G04 APERTURE LIST*
%ADD10C,0.200000*%
%ADD11C,0.250000*%
%ADD12C,0.100000*%
%ADD13C,0.150000*%
%ADD14C,0.120000*%
G04 APERTURE END LIST*
D10*
X155676054Y-84982409D02*
X155552244Y-84920504D01*
X155552244Y-84920504D02*
X155366530Y-84920504D01*
X155366530Y-84920504D02*
X155180816Y-84982409D01*
X155180816Y-84982409D02*
X155057006Y-85106219D01*
X155057006Y-85106219D02*
X154995101Y-85230028D01*
X154995101Y-85230028D02*
X154933197Y-85477647D01*
X154933197Y-85477647D02*
X154933197Y-85663361D01*
X154933197Y-85663361D02*
X154995101Y-85910980D01*
X154995101Y-85910980D02*
X155057006Y-86034790D01*
X155057006Y-86034790D02*
X155180816Y-86158600D01*
X155180816Y-86158600D02*
X155366530Y-86220504D01*
X155366530Y-86220504D02*
X155490339Y-86220504D01*
X155490339Y-86220504D02*
X155676054Y-86158600D01*
X155676054Y-86158600D02*
X155737958Y-86096695D01*
X155737958Y-86096695D02*
X155737958Y-85663361D01*
X155737958Y-85663361D02*
X155490339Y-85663361D01*
X156295101Y-86220504D02*
X156295101Y-84920504D01*
X156295101Y-84920504D02*
X157037958Y-86220504D01*
X157037958Y-86220504D02*
X157037958Y-84920504D01*
X157657006Y-86220504D02*
X157657006Y-84920504D01*
X157657006Y-84920504D02*
X157966530Y-84920504D01*
X157966530Y-84920504D02*
X158152244Y-84982409D01*
X158152244Y-84982409D02*
X158276054Y-85106219D01*
X158276054Y-85106219D02*
X158337959Y-85230028D01*
X158337959Y-85230028D02*
X158399863Y-85477647D01*
X158399863Y-85477647D02*
X158399863Y-85663361D01*
X158399863Y-85663361D02*
X158337959Y-85910980D01*
X158337959Y-85910980D02*
X158276054Y-86034790D01*
X158276054Y-86034790D02*
X158152244Y-86158600D01*
X158152244Y-86158600D02*
X157966530Y-86220504D01*
X157966530Y-86220504D02*
X157657006Y-86220504D01*
D11*
X107135142Y-69580187D02*
X107135142Y-70294473D01*
X106706571Y-69437330D02*
X108206571Y-69937330D01*
X108206571Y-69937330D02*
X106706571Y-70437330D01*
X106849428Y-71794472D02*
X106778000Y-71723044D01*
X106778000Y-71723044D02*
X106706571Y-71508758D01*
X106706571Y-71508758D02*
X106706571Y-71365901D01*
X106706571Y-71365901D02*
X106778000Y-71151615D01*
X106778000Y-71151615D02*
X106920857Y-71008758D01*
X106920857Y-71008758D02*
X107063714Y-70937329D01*
X107063714Y-70937329D02*
X107349428Y-70865901D01*
X107349428Y-70865901D02*
X107563714Y-70865901D01*
X107563714Y-70865901D02*
X107849428Y-70937329D01*
X107849428Y-70937329D02*
X107992285Y-71008758D01*
X107992285Y-71008758D02*
X108135142Y-71151615D01*
X108135142Y-71151615D02*
X108206571Y-71365901D01*
X108206571Y-71365901D02*
X108206571Y-71508758D01*
X108206571Y-71508758D02*
X108135142Y-71723044D01*
X108135142Y-71723044D02*
X108063714Y-71794472D01*
X107278000Y-72223044D02*
X107349428Y-72294472D01*
X107349428Y-72294472D02*
X107420857Y-72437329D01*
X107420857Y-72437329D02*
X107278000Y-72723044D01*
X107278000Y-72723044D02*
X107349428Y-72865901D01*
X107349428Y-72865901D02*
X107420857Y-72937329D01*
X108063714Y-74580187D02*
X108135142Y-74651615D01*
X108135142Y-74651615D02*
X108206571Y-74794473D01*
X108206571Y-74794473D02*
X108206571Y-75151615D01*
X108206571Y-75151615D02*
X108135142Y-75294473D01*
X108135142Y-75294473D02*
X108063714Y-75365901D01*
X108063714Y-75365901D02*
X107920857Y-75437330D01*
X107920857Y-75437330D02*
X107778000Y-75437330D01*
X107778000Y-75437330D02*
X107563714Y-75365901D01*
X107563714Y-75365901D02*
X106706571Y-74508758D01*
X106706571Y-74508758D02*
X106706571Y-75437330D01*
X108063714Y-76008758D02*
X108135142Y-76080186D01*
X108135142Y-76080186D02*
X108206571Y-76223044D01*
X108206571Y-76223044D02*
X108206571Y-76580186D01*
X108206571Y-76580186D02*
X108135142Y-76723044D01*
X108135142Y-76723044D02*
X108063714Y-76794472D01*
X108063714Y-76794472D02*
X107920857Y-76865901D01*
X107920857Y-76865901D02*
X107778000Y-76865901D01*
X107778000Y-76865901D02*
X107563714Y-76794472D01*
X107563714Y-76794472D02*
X106706571Y-75937329D01*
X106706571Y-75937329D02*
X106706571Y-76865901D01*
X108206571Y-77794472D02*
X108206571Y-77937329D01*
X108206571Y-77937329D02*
X108135142Y-78080186D01*
X108135142Y-78080186D02*
X108063714Y-78151615D01*
X108063714Y-78151615D02*
X107920857Y-78223043D01*
X107920857Y-78223043D02*
X107635142Y-78294472D01*
X107635142Y-78294472D02*
X107278000Y-78294472D01*
X107278000Y-78294472D02*
X106992285Y-78223043D01*
X106992285Y-78223043D02*
X106849428Y-78151615D01*
X106849428Y-78151615D02*
X106778000Y-78080186D01*
X106778000Y-78080186D02*
X106706571Y-77937329D01*
X106706571Y-77937329D02*
X106706571Y-77794472D01*
X106706571Y-77794472D02*
X106778000Y-77651615D01*
X106778000Y-77651615D02*
X106849428Y-77580186D01*
X106849428Y-77580186D02*
X106992285Y-77508757D01*
X106992285Y-77508757D02*
X107278000Y-77437329D01*
X107278000Y-77437329D02*
X107635142Y-77437329D01*
X107635142Y-77437329D02*
X107920857Y-77508757D01*
X107920857Y-77508757D02*
X108063714Y-77580186D01*
X108063714Y-77580186D02*
X108135142Y-77651615D01*
X108135142Y-77651615D02*
X108206571Y-77794472D01*
X108206571Y-78723043D02*
X106706571Y-79223043D01*
X106706571Y-79223043D02*
X108206571Y-79723043D01*
D12*
X112871068Y-65108628D02*
X112671068Y-64508628D01*
X112671068Y-64508628D02*
X112471068Y-65108628D01*
X111899639Y-65108628D02*
X111556782Y-65108628D01*
X111728210Y-64508628D02*
X111728210Y-65108628D01*
X111413924Y-65108628D02*
X111013924Y-64508628D01*
X111013924Y-65108628D02*
X111413924Y-64508628D01*
X110785352Y-64508628D02*
X110785352Y-65108628D01*
X110785352Y-65108628D02*
X110642495Y-65108628D01*
X110642495Y-65108628D02*
X110556781Y-65080057D01*
X110556781Y-65080057D02*
X110499638Y-65022914D01*
X110499638Y-65022914D02*
X110471067Y-64965771D01*
X110471067Y-64965771D02*
X110442495Y-64851485D01*
X110442495Y-64851485D02*
X110442495Y-64765771D01*
X110442495Y-64765771D02*
X110471067Y-64651485D01*
X110471067Y-64651485D02*
X110499638Y-64594342D01*
X110499638Y-64594342D02*
X110556781Y-64537200D01*
X110556781Y-64537200D02*
X110642495Y-64508628D01*
X110642495Y-64508628D02*
X110785352Y-64508628D01*
X109385352Y-64508628D02*
X109585352Y-64794342D01*
X109728209Y-64508628D02*
X109728209Y-65108628D01*
X109728209Y-65108628D02*
X109499638Y-65108628D01*
X109499638Y-65108628D02*
X109442495Y-65080057D01*
X109442495Y-65080057D02*
X109413924Y-65051485D01*
X109413924Y-65051485D02*
X109385352Y-64994342D01*
X109385352Y-64994342D02*
X109385352Y-64908628D01*
X109385352Y-64908628D02*
X109413924Y-64851485D01*
X109413924Y-64851485D02*
X109442495Y-64822914D01*
X109442495Y-64822914D02*
X109499638Y-64794342D01*
X109499638Y-64794342D02*
X109728209Y-64794342D01*
X109185352Y-65108628D02*
X108785352Y-64508628D01*
X108785352Y-65108628D02*
X109185352Y-64508628D01*
X108556780Y-64508628D02*
X108556780Y-65108628D01*
X108556780Y-65108628D02*
X108413923Y-65108628D01*
X108413923Y-65108628D02*
X108328209Y-65080057D01*
X108328209Y-65080057D02*
X108271066Y-65022914D01*
X108271066Y-65022914D02*
X108242495Y-64965771D01*
X108242495Y-64965771D02*
X108213923Y-64851485D01*
X108213923Y-64851485D02*
X108213923Y-64765771D01*
X108213923Y-64765771D02*
X108242495Y-64651485D01*
X108242495Y-64651485D02*
X108271066Y-64594342D01*
X108271066Y-64594342D02*
X108328209Y-64537200D01*
X108328209Y-64537200D02*
X108413923Y-64508628D01*
X108413923Y-64508628D02*
X108556780Y-64508628D01*
X107185352Y-65080057D02*
X107242495Y-65108628D01*
X107242495Y-65108628D02*
X107328209Y-65108628D01*
X107328209Y-65108628D02*
X107413923Y-65080057D01*
X107413923Y-65080057D02*
X107471066Y-65022914D01*
X107471066Y-65022914D02*
X107499637Y-64965771D01*
X107499637Y-64965771D02*
X107528209Y-64851485D01*
X107528209Y-64851485D02*
X107528209Y-64765771D01*
X107528209Y-64765771D02*
X107499637Y-64651485D01*
X107499637Y-64651485D02*
X107471066Y-64594342D01*
X107471066Y-64594342D02*
X107413923Y-64537200D01*
X107413923Y-64537200D02*
X107328209Y-64508628D01*
X107328209Y-64508628D02*
X107271066Y-64508628D01*
X107271066Y-64508628D02*
X107185352Y-64537200D01*
X107185352Y-64537200D02*
X107156780Y-64565771D01*
X107156780Y-64565771D02*
X107156780Y-64765771D01*
X107156780Y-64765771D02*
X107271066Y-64765771D01*
D10*
X151083673Y-102117219D02*
X151083673Y-101117219D01*
X151083673Y-101117219D02*
X151321768Y-101117219D01*
X151321768Y-101117219D02*
X151464625Y-101164838D01*
X151464625Y-101164838D02*
X151559863Y-101260076D01*
X151559863Y-101260076D02*
X151607482Y-101355314D01*
X151607482Y-101355314D02*
X151655101Y-101545790D01*
X151655101Y-101545790D02*
X151655101Y-101688647D01*
X151655101Y-101688647D02*
X151607482Y-101879123D01*
X151607482Y-101879123D02*
X151559863Y-101974361D01*
X151559863Y-101974361D02*
X151464625Y-102069600D01*
X151464625Y-102069600D02*
X151321768Y-102117219D01*
X151321768Y-102117219D02*
X151083673Y-102117219D01*
X152655101Y-102021980D02*
X152607482Y-102069600D01*
X152607482Y-102069600D02*
X152464625Y-102117219D01*
X152464625Y-102117219D02*
X152369387Y-102117219D01*
X152369387Y-102117219D02*
X152226530Y-102069600D01*
X152226530Y-102069600D02*
X152131292Y-101974361D01*
X152131292Y-101974361D02*
X152083673Y-101879123D01*
X152083673Y-101879123D02*
X152036054Y-101688647D01*
X152036054Y-101688647D02*
X152036054Y-101545790D01*
X152036054Y-101545790D02*
X152083673Y-101355314D01*
X152083673Y-101355314D02*
X152131292Y-101260076D01*
X152131292Y-101260076D02*
X152226530Y-101164838D01*
X152226530Y-101164838D02*
X152369387Y-101117219D01*
X152369387Y-101117219D02*
X152464625Y-101117219D01*
X152464625Y-101117219D02*
X152607482Y-101164838D01*
X152607482Y-101164838D02*
X152655101Y-101212457D01*
X153607482Y-102117219D02*
X153036054Y-102117219D01*
X153321768Y-102117219D02*
X153321768Y-101117219D01*
X153321768Y-101117219D02*
X153226530Y-101260076D01*
X153226530Y-101260076D02*
X153131292Y-101355314D01*
X153131292Y-101355314D02*
X153036054Y-101402933D01*
X153988435Y-101212457D02*
X154036054Y-101164838D01*
X154036054Y-101164838D02*
X154131292Y-101117219D01*
X154131292Y-101117219D02*
X154369387Y-101117219D01*
X154369387Y-101117219D02*
X154464625Y-101164838D01*
X154464625Y-101164838D02*
X154512244Y-101212457D01*
X154512244Y-101212457D02*
X154559863Y-101307695D01*
X154559863Y-101307695D02*
X154559863Y-101402933D01*
X154559863Y-101402933D02*
X154512244Y-101545790D01*
X154512244Y-101545790D02*
X153940816Y-102117219D01*
X153940816Y-102117219D02*
X154559863Y-102117219D01*
X155702720Y-101069600D02*
X154845578Y-102355314D01*
X155988435Y-101212457D02*
X156036054Y-101164838D01*
X156036054Y-101164838D02*
X156131292Y-101117219D01*
X156131292Y-101117219D02*
X156369387Y-101117219D01*
X156369387Y-101117219D02*
X156464625Y-101164838D01*
X156464625Y-101164838D02*
X156512244Y-101212457D01*
X156512244Y-101212457D02*
X156559863Y-101307695D01*
X156559863Y-101307695D02*
X156559863Y-101402933D01*
X156559863Y-101402933D02*
X156512244Y-101545790D01*
X156512244Y-101545790D02*
X155940816Y-102117219D01*
X155940816Y-102117219D02*
X156559863Y-102117219D01*
X157417006Y-101450552D02*
X157417006Y-102117219D01*
X157178911Y-101069600D02*
X156940816Y-101783885D01*
X156940816Y-101783885D02*
X157559863Y-101783885D01*
X157797959Y-101117219D02*
X158131292Y-102117219D01*
X158131292Y-102117219D02*
X158464625Y-101117219D01*
D13*
X144593580Y-89689524D02*
X144641200Y-89737143D01*
X144641200Y-89737143D02*
X144688819Y-89880000D01*
X144688819Y-89880000D02*
X144688819Y-89975238D01*
X144688819Y-89975238D02*
X144641200Y-90118095D01*
X144641200Y-90118095D02*
X144545961Y-90213333D01*
X144545961Y-90213333D02*
X144450723Y-90260952D01*
X144450723Y-90260952D02*
X144260247Y-90308571D01*
X144260247Y-90308571D02*
X144117390Y-90308571D01*
X144117390Y-90308571D02*
X143926914Y-90260952D01*
X143926914Y-90260952D02*
X143831676Y-90213333D01*
X143831676Y-90213333D02*
X143736438Y-90118095D01*
X143736438Y-90118095D02*
X143688819Y-89975238D01*
X143688819Y-89975238D02*
X143688819Y-89880000D01*
X143688819Y-89880000D02*
X143736438Y-89737143D01*
X143736438Y-89737143D02*
X143784057Y-89689524D01*
X144688819Y-89260952D02*
X143688819Y-89260952D01*
X144069771Y-89260952D02*
X144022152Y-89165714D01*
X144022152Y-89165714D02*
X144022152Y-88975238D01*
X144022152Y-88975238D02*
X144069771Y-88880000D01*
X144069771Y-88880000D02*
X144117390Y-88832381D01*
X144117390Y-88832381D02*
X144212628Y-88784762D01*
X144212628Y-88784762D02*
X144498342Y-88784762D01*
X144498342Y-88784762D02*
X144593580Y-88832381D01*
X144593580Y-88832381D02*
X144641200Y-88880000D01*
X144641200Y-88880000D02*
X144688819Y-88975238D01*
X144688819Y-88975238D02*
X144688819Y-89165714D01*
X144688819Y-89165714D02*
X144641200Y-89260952D01*
X144641200Y-88403809D02*
X144688819Y-88308571D01*
X144688819Y-88308571D02*
X144688819Y-88118095D01*
X144688819Y-88118095D02*
X144641200Y-88022857D01*
X144641200Y-88022857D02*
X144545961Y-87975238D01*
X144545961Y-87975238D02*
X144498342Y-87975238D01*
X144498342Y-87975238D02*
X144403104Y-88022857D01*
X144403104Y-88022857D02*
X144355485Y-88118095D01*
X144355485Y-88118095D02*
X144355485Y-88260952D01*
X144355485Y-88260952D02*
X144307866Y-88356190D01*
X144307866Y-88356190D02*
X144212628Y-88403809D01*
X144212628Y-88403809D02*
X144165009Y-88403809D01*
X144165009Y-88403809D02*
X144069771Y-88356190D01*
X144069771Y-88356190D02*
X144022152Y-88260952D01*
X144022152Y-88260952D02*
X144022152Y-88118095D01*
X144022152Y-88118095D02*
X144069771Y-88022857D01*
X144022152Y-87689523D02*
X144022152Y-87308571D01*
X143688819Y-87546666D02*
X144545961Y-87546666D01*
X144545961Y-87546666D02*
X144641200Y-87499047D01*
X144641200Y-87499047D02*
X144688819Y-87403809D01*
X144688819Y-87403809D02*
X144688819Y-87308571D01*
X144688819Y-86451428D02*
X144688819Y-87022856D01*
X144688819Y-86737142D02*
X143688819Y-86737142D01*
X143688819Y-86737142D02*
X143831676Y-86832380D01*
X143831676Y-86832380D02*
X143926914Y-86927618D01*
X143926914Y-86927618D02*
X143974533Y-87022856D01*
X101093333Y-88989580D02*
X101045714Y-89037200D01*
X101045714Y-89037200D02*
X100902857Y-89084819D01*
X100902857Y-89084819D02*
X100807619Y-89084819D01*
X100807619Y-89084819D02*
X100664762Y-89037200D01*
X100664762Y-89037200D02*
X100569524Y-88941961D01*
X100569524Y-88941961D02*
X100521905Y-88846723D01*
X100521905Y-88846723D02*
X100474286Y-88656247D01*
X100474286Y-88656247D02*
X100474286Y-88513390D01*
X100474286Y-88513390D02*
X100521905Y-88322914D01*
X100521905Y-88322914D02*
X100569524Y-88227676D01*
X100569524Y-88227676D02*
X100664762Y-88132438D01*
X100664762Y-88132438D02*
X100807619Y-88084819D01*
X100807619Y-88084819D02*
X100902857Y-88084819D01*
X100902857Y-88084819D02*
X101045714Y-88132438D01*
X101045714Y-88132438D02*
X101093333Y-88180057D01*
X101998095Y-88084819D02*
X101521905Y-88084819D01*
X101521905Y-88084819D02*
X101474286Y-88561009D01*
X101474286Y-88561009D02*
X101521905Y-88513390D01*
X101521905Y-88513390D02*
X101617143Y-88465771D01*
X101617143Y-88465771D02*
X101855238Y-88465771D01*
X101855238Y-88465771D02*
X101950476Y-88513390D01*
X101950476Y-88513390D02*
X101998095Y-88561009D01*
X101998095Y-88561009D02*
X102045714Y-88656247D01*
X102045714Y-88656247D02*
X102045714Y-88894342D01*
X102045714Y-88894342D02*
X101998095Y-88989580D01*
X101998095Y-88989580D02*
X101950476Y-89037200D01*
X101950476Y-89037200D02*
X101855238Y-89084819D01*
X101855238Y-89084819D02*
X101617143Y-89084819D01*
X101617143Y-89084819D02*
X101521905Y-89037200D01*
X101521905Y-89037200D02*
X101474286Y-88989580D01*
X155530666Y-94194819D02*
X155197333Y-93718628D01*
X154959238Y-94194819D02*
X154959238Y-93194819D01*
X154959238Y-93194819D02*
X155340190Y-93194819D01*
X155340190Y-93194819D02*
X155435428Y-93242438D01*
X155435428Y-93242438D02*
X155483047Y-93290057D01*
X155483047Y-93290057D02*
X155530666Y-93385295D01*
X155530666Y-93385295D02*
X155530666Y-93528152D01*
X155530666Y-93528152D02*
X155483047Y-93623390D01*
X155483047Y-93623390D02*
X155435428Y-93671009D01*
X155435428Y-93671009D02*
X155340190Y-93718628D01*
X155340190Y-93718628D02*
X154959238Y-93718628D01*
X155816381Y-93528152D02*
X156197333Y-93528152D01*
X155959238Y-94194819D02*
X155959238Y-93337676D01*
X155959238Y-93337676D02*
X156006857Y-93242438D01*
X156006857Y-93242438D02*
X156102095Y-93194819D01*
X156102095Y-93194819D02*
X156197333Y-93194819D01*
X156864000Y-93671009D02*
X157006857Y-93718628D01*
X157006857Y-93718628D02*
X157054476Y-93766247D01*
X157054476Y-93766247D02*
X157102095Y-93861485D01*
X157102095Y-93861485D02*
X157102095Y-94004342D01*
X157102095Y-94004342D02*
X157054476Y-94099580D01*
X157054476Y-94099580D02*
X157006857Y-94147200D01*
X157006857Y-94147200D02*
X156911619Y-94194819D01*
X156911619Y-94194819D02*
X156530667Y-94194819D01*
X156530667Y-94194819D02*
X156530667Y-93194819D01*
X156530667Y-93194819D02*
X156864000Y-93194819D01*
X156864000Y-93194819D02*
X156959238Y-93242438D01*
X156959238Y-93242438D02*
X157006857Y-93290057D01*
X157006857Y-93290057D02*
X157054476Y-93385295D01*
X157054476Y-93385295D02*
X157054476Y-93480533D01*
X157054476Y-93480533D02*
X157006857Y-93575771D01*
X157006857Y-93575771D02*
X156959238Y-93623390D01*
X156959238Y-93623390D02*
X156864000Y-93671009D01*
X156864000Y-93671009D02*
X156530667Y-93671009D01*
X157387810Y-93194819D02*
X157959238Y-93194819D01*
X157673524Y-94194819D02*
X157673524Y-93194819D01*
X158816381Y-94194819D02*
X158244953Y-94194819D01*
X158530667Y-94194819D02*
X158530667Y-93194819D01*
X158530667Y-93194819D02*
X158435429Y-93337676D01*
X158435429Y-93337676D02*
X158340191Y-93432914D01*
X158340191Y-93432914D02*
X158244953Y-93480533D01*
X158720666Y-86154819D02*
X158720666Y-86869104D01*
X158720666Y-86869104D02*
X158673047Y-87011961D01*
X158673047Y-87011961D02*
X158577809Y-87107200D01*
X158577809Y-87107200D02*
X158434952Y-87154819D01*
X158434952Y-87154819D02*
X158339714Y-87154819D01*
X159625428Y-86154819D02*
X159434952Y-86154819D01*
X159434952Y-86154819D02*
X159339714Y-86202438D01*
X159339714Y-86202438D02*
X159292095Y-86250057D01*
X159292095Y-86250057D02*
X159196857Y-86392914D01*
X159196857Y-86392914D02*
X159149238Y-86583390D01*
X159149238Y-86583390D02*
X159149238Y-86964342D01*
X159149238Y-86964342D02*
X159196857Y-87059580D01*
X159196857Y-87059580D02*
X159244476Y-87107200D01*
X159244476Y-87107200D02*
X159339714Y-87154819D01*
X159339714Y-87154819D02*
X159530190Y-87154819D01*
X159530190Y-87154819D02*
X159625428Y-87107200D01*
X159625428Y-87107200D02*
X159673047Y-87059580D01*
X159673047Y-87059580D02*
X159720666Y-86964342D01*
X159720666Y-86964342D02*
X159720666Y-86726247D01*
X159720666Y-86726247D02*
X159673047Y-86631009D01*
X159673047Y-86631009D02*
X159625428Y-86583390D01*
X159625428Y-86583390D02*
X159530190Y-86535771D01*
X159530190Y-86535771D02*
X159339714Y-86535771D01*
X159339714Y-86535771D02*
X159244476Y-86583390D01*
X159244476Y-86583390D02*
X159196857Y-86631009D01*
X159196857Y-86631009D02*
X159149238Y-86726247D01*
X143395905Y-98294819D02*
X143395905Y-97294819D01*
X143395905Y-97294819D02*
X143634000Y-97294819D01*
X143634000Y-97294819D02*
X143776857Y-97342438D01*
X143776857Y-97342438D02*
X143872095Y-97437676D01*
X143872095Y-97437676D02*
X143919714Y-97532914D01*
X143919714Y-97532914D02*
X143967333Y-97723390D01*
X143967333Y-97723390D02*
X143967333Y-97866247D01*
X143967333Y-97866247D02*
X143919714Y-98056723D01*
X143919714Y-98056723D02*
X143872095Y-98151961D01*
X143872095Y-98151961D02*
X143776857Y-98247200D01*
X143776857Y-98247200D02*
X143634000Y-98294819D01*
X143634000Y-98294819D02*
X143395905Y-98294819D01*
X144919714Y-98294819D02*
X144348286Y-98294819D01*
X144634000Y-98294819D02*
X144634000Y-97294819D01*
X144634000Y-97294819D02*
X144538762Y-97437676D01*
X144538762Y-97437676D02*
X144443524Y-97532914D01*
X144443524Y-97532914D02*
X144348286Y-97580533D01*
X105032095Y-66594819D02*
X105032095Y-65594819D01*
X105032095Y-66071009D02*
X105603523Y-66071009D01*
X105603523Y-66594819D02*
X105603523Y-65594819D01*
X106508285Y-65928152D02*
X106508285Y-66594819D01*
X106270190Y-65547200D02*
X106032095Y-66261485D01*
X106032095Y-66261485D02*
X106651142Y-66261485D01*
X150903580Y-75497143D02*
X150951200Y-75544762D01*
X150951200Y-75544762D02*
X150998819Y-75687619D01*
X150998819Y-75687619D02*
X150998819Y-75782857D01*
X150998819Y-75782857D02*
X150951200Y-75925714D01*
X150951200Y-75925714D02*
X150855961Y-76020952D01*
X150855961Y-76020952D02*
X150760723Y-76068571D01*
X150760723Y-76068571D02*
X150570247Y-76116190D01*
X150570247Y-76116190D02*
X150427390Y-76116190D01*
X150427390Y-76116190D02*
X150236914Y-76068571D01*
X150236914Y-76068571D02*
X150141676Y-76020952D01*
X150141676Y-76020952D02*
X150046438Y-75925714D01*
X150046438Y-75925714D02*
X149998819Y-75782857D01*
X149998819Y-75782857D02*
X149998819Y-75687619D01*
X149998819Y-75687619D02*
X150046438Y-75544762D01*
X150046438Y-75544762D02*
X150094057Y-75497143D01*
X150998819Y-74925714D02*
X150951200Y-75020952D01*
X150951200Y-75020952D02*
X150903580Y-75068571D01*
X150903580Y-75068571D02*
X150808342Y-75116190D01*
X150808342Y-75116190D02*
X150522628Y-75116190D01*
X150522628Y-75116190D02*
X150427390Y-75068571D01*
X150427390Y-75068571D02*
X150379771Y-75020952D01*
X150379771Y-75020952D02*
X150332152Y-74925714D01*
X150332152Y-74925714D02*
X150332152Y-74782857D01*
X150332152Y-74782857D02*
X150379771Y-74687619D01*
X150379771Y-74687619D02*
X150427390Y-74640000D01*
X150427390Y-74640000D02*
X150522628Y-74592381D01*
X150522628Y-74592381D02*
X150808342Y-74592381D01*
X150808342Y-74592381D02*
X150903580Y-74640000D01*
X150903580Y-74640000D02*
X150951200Y-74687619D01*
X150951200Y-74687619D02*
X150998819Y-74782857D01*
X150998819Y-74782857D02*
X150998819Y-74925714D01*
X150332152Y-73735238D02*
X150998819Y-73735238D01*
X150332152Y-74163809D02*
X150855961Y-74163809D01*
X150855961Y-74163809D02*
X150951200Y-74116190D01*
X150951200Y-74116190D02*
X150998819Y-74020952D01*
X150998819Y-74020952D02*
X150998819Y-73878095D01*
X150998819Y-73878095D02*
X150951200Y-73782857D01*
X150951200Y-73782857D02*
X150903580Y-73735238D01*
X150332152Y-73401904D02*
X150332152Y-73020952D01*
X149998819Y-73259047D02*
X150855961Y-73259047D01*
X150855961Y-73259047D02*
X150951200Y-73211428D01*
X150951200Y-73211428D02*
X150998819Y-73116190D01*
X150998819Y-73116190D02*
X150998819Y-73020952D01*
X150998819Y-72163809D02*
X150998819Y-72735237D01*
X150998819Y-72449523D02*
X149998819Y-72449523D01*
X149998819Y-72449523D02*
X150141676Y-72544761D01*
X150141676Y-72544761D02*
X150236914Y-72639999D01*
X150236914Y-72639999D02*
X150284533Y-72735237D01*
X155569404Y-96989580D02*
X155521785Y-97037200D01*
X155521785Y-97037200D02*
X155378928Y-97084819D01*
X155378928Y-97084819D02*
X155283690Y-97084819D01*
X155283690Y-97084819D02*
X155140833Y-97037200D01*
X155140833Y-97037200D02*
X155045595Y-96941961D01*
X155045595Y-96941961D02*
X154997976Y-96846723D01*
X154997976Y-96846723D02*
X154950357Y-96656247D01*
X154950357Y-96656247D02*
X154950357Y-96513390D01*
X154950357Y-96513390D02*
X154997976Y-96322914D01*
X154997976Y-96322914D02*
X155045595Y-96227676D01*
X155045595Y-96227676D02*
X155140833Y-96132438D01*
X155140833Y-96132438D02*
X155283690Y-96084819D01*
X155283690Y-96084819D02*
X155378928Y-96084819D01*
X155378928Y-96084819D02*
X155521785Y-96132438D01*
X155521785Y-96132438D02*
X155569404Y-96180057D01*
X155855119Y-96418152D02*
X156236071Y-96418152D01*
X155997976Y-97084819D02*
X155997976Y-96227676D01*
X155997976Y-96227676D02*
X156045595Y-96132438D01*
X156045595Y-96132438D02*
X156140833Y-96084819D01*
X156140833Y-96084819D02*
X156236071Y-96084819D01*
X156426548Y-96418152D02*
X156807500Y-96418152D01*
X156569405Y-97084819D02*
X156569405Y-96227676D01*
X156569405Y-96227676D02*
X156617024Y-96132438D01*
X156617024Y-96132438D02*
X156712262Y-96084819D01*
X156712262Y-96084819D02*
X156807500Y-96084819D01*
X157664643Y-97084819D02*
X157093215Y-97084819D01*
X157378929Y-97084819D02*
X157378929Y-96084819D01*
X157378929Y-96084819D02*
X157283691Y-96227676D01*
X157283691Y-96227676D02*
X157188453Y-96322914D01*
X157188453Y-96322914D02*
X157093215Y-96370533D01*
X100282095Y-103094819D02*
X100282095Y-102094819D01*
X100282095Y-102571009D02*
X100853523Y-102571009D01*
X100853523Y-103094819D02*
X100853523Y-102094819D01*
X101853523Y-103094819D02*
X101282095Y-103094819D01*
X101567809Y-103094819D02*
X101567809Y-102094819D01*
X101567809Y-102094819D02*
X101472571Y-102237676D01*
X101472571Y-102237676D02*
X101377333Y-102332914D01*
X101377333Y-102332914D02*
X101282095Y-102380533D01*
X145264819Y-84321666D02*
X145264819Y-84797856D01*
X145264819Y-84797856D02*
X144264819Y-84797856D01*
X145264819Y-83464523D02*
X145264819Y-84035951D01*
X145264819Y-83750237D02*
X144264819Y-83750237D01*
X144264819Y-83750237D02*
X144407676Y-83845475D01*
X144407676Y-83845475D02*
X144502914Y-83940713D01*
X144502914Y-83940713D02*
X144550533Y-84035951D01*
X100760666Y-73874819D02*
X100760666Y-74589104D01*
X100760666Y-74589104D02*
X100713047Y-74731961D01*
X100713047Y-74731961D02*
X100617809Y-74827200D01*
X100617809Y-74827200D02*
X100474952Y-74874819D01*
X100474952Y-74874819D02*
X100379714Y-74874819D01*
X101141619Y-73874819D02*
X101760666Y-73874819D01*
X101760666Y-73874819D02*
X101427333Y-74255771D01*
X101427333Y-74255771D02*
X101570190Y-74255771D01*
X101570190Y-74255771D02*
X101665428Y-74303390D01*
X101665428Y-74303390D02*
X101713047Y-74351009D01*
X101713047Y-74351009D02*
X101760666Y-74446247D01*
X101760666Y-74446247D02*
X101760666Y-74684342D01*
X101760666Y-74684342D02*
X101713047Y-74779580D01*
X101713047Y-74779580D02*
X101665428Y-74827200D01*
X101665428Y-74827200D02*
X101570190Y-74874819D01*
X101570190Y-74874819D02*
X101284476Y-74874819D01*
X101284476Y-74874819D02*
X101189238Y-74827200D01*
X101189238Y-74827200D02*
X101141619Y-74779580D01*
X100890666Y-81994819D02*
X100890666Y-82709104D01*
X100890666Y-82709104D02*
X100843047Y-82851961D01*
X100843047Y-82851961D02*
X100747809Y-82947200D01*
X100747809Y-82947200D02*
X100604952Y-82994819D01*
X100604952Y-82994819D02*
X100509714Y-82994819D01*
X101319238Y-82090057D02*
X101366857Y-82042438D01*
X101366857Y-82042438D02*
X101462095Y-81994819D01*
X101462095Y-81994819D02*
X101700190Y-81994819D01*
X101700190Y-81994819D02*
X101795428Y-82042438D01*
X101795428Y-82042438D02*
X101843047Y-82090057D01*
X101843047Y-82090057D02*
X101890666Y-82185295D01*
X101890666Y-82185295D02*
X101890666Y-82280533D01*
X101890666Y-82280533D02*
X101843047Y-82423390D01*
X101843047Y-82423390D02*
X101271619Y-82994819D01*
X101271619Y-82994819D02*
X101890666Y-82994819D01*
X155516856Y-95614819D02*
X155183523Y-95138628D01*
X154945428Y-95614819D02*
X154945428Y-94614819D01*
X154945428Y-94614819D02*
X155326380Y-94614819D01*
X155326380Y-94614819D02*
X155421618Y-94662438D01*
X155421618Y-94662438D02*
X155469237Y-94710057D01*
X155469237Y-94710057D02*
X155516856Y-94805295D01*
X155516856Y-94805295D02*
X155516856Y-94948152D01*
X155516856Y-94948152D02*
X155469237Y-95043390D01*
X155469237Y-95043390D02*
X155421618Y-95091009D01*
X155421618Y-95091009D02*
X155326380Y-95138628D01*
X155326380Y-95138628D02*
X154945428Y-95138628D01*
X155802571Y-94948152D02*
X156183523Y-94948152D01*
X155945428Y-95614819D02*
X155945428Y-94757676D01*
X155945428Y-94757676D02*
X155993047Y-94662438D01*
X155993047Y-94662438D02*
X156088285Y-94614819D01*
X156088285Y-94614819D02*
X156183523Y-94614819D01*
X156516857Y-95614819D02*
X156516857Y-94614819D01*
X156516857Y-94995771D02*
X156612095Y-94948152D01*
X156612095Y-94948152D02*
X156802571Y-94948152D01*
X156802571Y-94948152D02*
X156897809Y-94995771D01*
X156897809Y-94995771D02*
X156945428Y-95043390D01*
X156945428Y-95043390D02*
X156993047Y-95138628D01*
X156993047Y-95138628D02*
X156993047Y-95424342D01*
X156993047Y-95424342D02*
X156945428Y-95519580D01*
X156945428Y-95519580D02*
X156897809Y-95567200D01*
X156897809Y-95567200D02*
X156802571Y-95614819D01*
X156802571Y-95614819D02*
X156612095Y-95614819D01*
X156612095Y-95614819D02*
X156516857Y-95567200D01*
X157421619Y-95614819D02*
X157421619Y-94614819D01*
X157421619Y-94995771D02*
X157516857Y-94948152D01*
X157516857Y-94948152D02*
X157707333Y-94948152D01*
X157707333Y-94948152D02*
X157802571Y-94995771D01*
X157802571Y-94995771D02*
X157850190Y-95043390D01*
X157850190Y-95043390D02*
X157897809Y-95138628D01*
X157897809Y-95138628D02*
X157897809Y-95424342D01*
X157897809Y-95424342D02*
X157850190Y-95519580D01*
X157850190Y-95519580D02*
X157802571Y-95567200D01*
X157802571Y-95567200D02*
X157707333Y-95614819D01*
X157707333Y-95614819D02*
X157516857Y-95614819D01*
X157516857Y-95614819D02*
X157421619Y-95567200D01*
X158850190Y-95614819D02*
X158278762Y-95614819D01*
X158564476Y-95614819D02*
X158564476Y-94614819D01*
X158564476Y-94614819D02*
X158469238Y-94757676D01*
X158469238Y-94757676D02*
X158374000Y-94852914D01*
X158374000Y-94852914D02*
X158278762Y-94900533D01*
X146313333Y-96449580D02*
X146265714Y-96497200D01*
X146265714Y-96497200D02*
X146122857Y-96544819D01*
X146122857Y-96544819D02*
X146027619Y-96544819D01*
X146027619Y-96544819D02*
X145884762Y-96497200D01*
X145884762Y-96497200D02*
X145789524Y-96401961D01*
X145789524Y-96401961D02*
X145741905Y-96306723D01*
X145741905Y-96306723D02*
X145694286Y-96116247D01*
X145694286Y-96116247D02*
X145694286Y-95973390D01*
X145694286Y-95973390D02*
X145741905Y-95782914D01*
X145741905Y-95782914D02*
X145789524Y-95687676D01*
X145789524Y-95687676D02*
X145884762Y-95592438D01*
X145884762Y-95592438D02*
X146027619Y-95544819D01*
X146027619Y-95544819D02*
X146122857Y-95544819D01*
X146122857Y-95544819D02*
X146265714Y-95592438D01*
X146265714Y-95592438D02*
X146313333Y-95640057D01*
X147170476Y-95544819D02*
X146980000Y-95544819D01*
X146980000Y-95544819D02*
X146884762Y-95592438D01*
X146884762Y-95592438D02*
X146837143Y-95640057D01*
X146837143Y-95640057D02*
X146741905Y-95782914D01*
X146741905Y-95782914D02*
X146694286Y-95973390D01*
X146694286Y-95973390D02*
X146694286Y-96354342D01*
X146694286Y-96354342D02*
X146741905Y-96449580D01*
X146741905Y-96449580D02*
X146789524Y-96497200D01*
X146789524Y-96497200D02*
X146884762Y-96544819D01*
X146884762Y-96544819D02*
X147075238Y-96544819D01*
X147075238Y-96544819D02*
X147170476Y-96497200D01*
X147170476Y-96497200D02*
X147218095Y-96449580D01*
X147218095Y-96449580D02*
X147265714Y-96354342D01*
X147265714Y-96354342D02*
X147265714Y-96116247D01*
X147265714Y-96116247D02*
X147218095Y-96021009D01*
X147218095Y-96021009D02*
X147170476Y-95973390D01*
X147170476Y-95973390D02*
X147075238Y-95925771D01*
X147075238Y-95925771D02*
X146884762Y-95925771D01*
X146884762Y-95925771D02*
X146789524Y-95973390D01*
X146789524Y-95973390D02*
X146741905Y-96021009D01*
X146741905Y-96021009D02*
X146694286Y-96116247D01*
X100405904Y-93011009D02*
X100072571Y-93011009D01*
X100072571Y-93534819D02*
X100072571Y-92534819D01*
X100072571Y-92534819D02*
X100548761Y-92534819D01*
X101405904Y-93534819D02*
X100929714Y-93534819D01*
X100929714Y-93534819D02*
X100929714Y-92534819D01*
X102263047Y-93534819D02*
X101691619Y-93534819D01*
X101977333Y-93534819D02*
X101977333Y-92534819D01*
X101977333Y-92534819D02*
X101882095Y-92677676D01*
X101882095Y-92677676D02*
X101786857Y-92772914D01*
X101786857Y-92772914D02*
X101691619Y-92820533D01*
X153032095Y-108094819D02*
X153032095Y-107094819D01*
X153032095Y-107571009D02*
X153603523Y-107571009D01*
X153603523Y-108094819D02*
X153603523Y-107094819D01*
X154032095Y-107190057D02*
X154079714Y-107142438D01*
X154079714Y-107142438D02*
X154174952Y-107094819D01*
X154174952Y-107094819D02*
X154413047Y-107094819D01*
X154413047Y-107094819D02*
X154508285Y-107142438D01*
X154508285Y-107142438D02*
X154555904Y-107190057D01*
X154555904Y-107190057D02*
X154603523Y-107285295D01*
X154603523Y-107285295D02*
X154603523Y-107380533D01*
X154603523Y-107380533D02*
X154555904Y-107523390D01*
X154555904Y-107523390D02*
X153984476Y-108094819D01*
X153984476Y-108094819D02*
X154603523Y-108094819D01*
X116664761Y-67834819D02*
X116331428Y-67358628D01*
X116093333Y-67834819D02*
X116093333Y-66834819D01*
X116093333Y-66834819D02*
X116474285Y-66834819D01*
X116474285Y-66834819D02*
X116569523Y-66882438D01*
X116569523Y-66882438D02*
X116617142Y-66930057D01*
X116617142Y-66930057D02*
X116664761Y-67025295D01*
X116664761Y-67025295D02*
X116664761Y-67168152D01*
X116664761Y-67168152D02*
X116617142Y-67263390D01*
X116617142Y-67263390D02*
X116569523Y-67311009D01*
X116569523Y-67311009D02*
X116474285Y-67358628D01*
X116474285Y-67358628D02*
X116093333Y-67358628D01*
X116950476Y-66834819D02*
X117283809Y-67834819D01*
X117283809Y-67834819D02*
X117617142Y-66834819D01*
X118474285Y-67834819D02*
X117902857Y-67834819D01*
X118188571Y-67834819D02*
X118188571Y-66834819D01*
X118188571Y-66834819D02*
X118093333Y-66977676D01*
X118093333Y-66977676D02*
X117998095Y-67072914D01*
X117998095Y-67072914D02*
X117902857Y-67120533D01*
X157798095Y-67434819D02*
X157798095Y-66434819D01*
X157798095Y-66911009D02*
X158369523Y-66911009D01*
X158369523Y-67434819D02*
X158369523Y-66434819D01*
X158750476Y-66434819D02*
X159369523Y-66434819D01*
X159369523Y-66434819D02*
X159036190Y-66815771D01*
X159036190Y-66815771D02*
X159179047Y-66815771D01*
X159179047Y-66815771D02*
X159274285Y-66863390D01*
X159274285Y-66863390D02*
X159321904Y-66911009D01*
X159321904Y-66911009D02*
X159369523Y-67006247D01*
X159369523Y-67006247D02*
X159369523Y-67244342D01*
X159369523Y-67244342D02*
X159321904Y-67339580D01*
X159321904Y-67339580D02*
X159274285Y-67387200D01*
X159274285Y-67387200D02*
X159179047Y-67434819D01*
X159179047Y-67434819D02*
X158893333Y-67434819D01*
X158893333Y-67434819D02*
X158798095Y-67387200D01*
X158798095Y-67387200D02*
X158750476Y-67339580D01*
X146830666Y-101184819D02*
X146830666Y-101899104D01*
X146830666Y-101899104D02*
X146783047Y-102041961D01*
X146783047Y-102041961D02*
X146687809Y-102137200D01*
X146687809Y-102137200D02*
X146544952Y-102184819D01*
X146544952Y-102184819D02*
X146449714Y-102184819D01*
X147783047Y-101184819D02*
X147306857Y-101184819D01*
X147306857Y-101184819D02*
X147259238Y-101661009D01*
X147259238Y-101661009D02*
X147306857Y-101613390D01*
X147306857Y-101613390D02*
X147402095Y-101565771D01*
X147402095Y-101565771D02*
X147640190Y-101565771D01*
X147640190Y-101565771D02*
X147735428Y-101613390D01*
X147735428Y-101613390D02*
X147783047Y-101661009D01*
X147783047Y-101661009D02*
X147830666Y-101756247D01*
X147830666Y-101756247D02*
X147830666Y-101994342D01*
X147830666Y-101994342D02*
X147783047Y-102089580D01*
X147783047Y-102089580D02*
X147735428Y-102137200D01*
X147735428Y-102137200D02*
X147640190Y-102184819D01*
X147640190Y-102184819D02*
X147402095Y-102184819D01*
X147402095Y-102184819D02*
X147306857Y-102137200D01*
X147306857Y-102137200D02*
X147259238Y-102089580D01*
X104426666Y-84061009D02*
X104093333Y-84061009D01*
X104093333Y-84584819D02*
X104093333Y-83584819D01*
X104093333Y-83584819D02*
X104569523Y-83584819D01*
X105474285Y-84584819D02*
X104902857Y-84584819D01*
X105188571Y-84584819D02*
X105188571Y-83584819D01*
X105188571Y-83584819D02*
X105093333Y-83727676D01*
X105093333Y-83727676D02*
X104998095Y-83822914D01*
X104998095Y-83822914D02*
X104902857Y-83870533D01*
X147748095Y-90084819D02*
X147748095Y-90894342D01*
X147748095Y-90894342D02*
X147795714Y-90989580D01*
X147795714Y-90989580D02*
X147843333Y-91037200D01*
X147843333Y-91037200D02*
X147938571Y-91084819D01*
X147938571Y-91084819D02*
X148129047Y-91084819D01*
X148129047Y-91084819D02*
X148224285Y-91037200D01*
X148224285Y-91037200D02*
X148271904Y-90989580D01*
X148271904Y-90989580D02*
X148319523Y-90894342D01*
X148319523Y-90894342D02*
X148319523Y-90084819D01*
X149224285Y-90418152D02*
X149224285Y-91084819D01*
X148986190Y-90037200D02*
X148748095Y-90751485D01*
X148748095Y-90751485D02*
X149367142Y-90751485D01*
D12*
X119477419Y-106981904D02*
X120286942Y-106981904D01*
X120286942Y-106981904D02*
X120382180Y-106934285D01*
X120382180Y-106934285D02*
X120429800Y-106886666D01*
X120429800Y-106886666D02*
X120477419Y-106791428D01*
X120477419Y-106791428D02*
X120477419Y-106600952D01*
X120477419Y-106600952D02*
X120429800Y-106505714D01*
X120429800Y-106505714D02*
X120382180Y-106458095D01*
X120382180Y-106458095D02*
X120286942Y-106410476D01*
X120286942Y-106410476D02*
X119477419Y-106410476D01*
X120477419Y-105410476D02*
X120477419Y-105981904D01*
X120477419Y-105696190D02*
X119477419Y-105696190D01*
X119477419Y-105696190D02*
X119620276Y-105791428D01*
X119620276Y-105791428D02*
X119715514Y-105886666D01*
X119715514Y-105886666D02*
X119763133Y-105981904D01*
D14*
%TO.C,Cbst1*%
X151808165Y-90260000D02*
X152039835Y-90260000D01*
X151808165Y-90980000D02*
X152039835Y-90980000D01*
%TO.C,C5*%
X114130000Y-90850000D02*
X114130000Y-89555000D01*
X114130000Y-90850000D02*
X102890000Y-90850000D01*
X114130000Y-87705000D02*
X114130000Y-86410000D01*
X114130000Y-86410000D02*
X102890000Y-86410000D01*
X102890000Y-90850000D02*
X102890000Y-89555000D01*
X102890000Y-87705000D02*
X102890000Y-86410000D01*
%TO.C,RfBT1*%
X152744879Y-92000000D02*
X153080121Y-92000000D01*
X152744879Y-92760000D02*
X153080121Y-92760000D01*
%TO.C,G\u002A\u002A\u002A*%
G36*
X154129321Y-71214692D02*
G01*
X154250049Y-71241546D01*
X154362841Y-71289532D01*
X154464797Y-71356860D01*
X154553019Y-71441740D01*
X154624609Y-71542382D01*
X154676666Y-71656997D01*
X154706293Y-71783795D01*
X154712152Y-71873779D01*
X154698710Y-72013234D01*
X154659837Y-72142250D01*
X154597715Y-72258277D01*
X154514523Y-72358766D01*
X154412443Y-72441168D01*
X154293654Y-72502934D01*
X154160338Y-72541516D01*
X154137600Y-72545399D01*
X154007596Y-72551600D01*
X153880910Y-72531315D01*
X153760931Y-72486823D01*
X153651046Y-72420403D01*
X153554645Y-72334333D01*
X153475117Y-72230893D01*
X153415850Y-72112361D01*
X153394133Y-72045402D01*
X153380941Y-71967890D01*
X153376715Y-71876674D01*
X153381405Y-71785341D01*
X153394960Y-71707474D01*
X153395400Y-71705860D01*
X153440834Y-71590481D01*
X153509413Y-71481630D01*
X153595996Y-71385527D01*
X153695440Y-71308389D01*
X153748505Y-71278815D01*
X153875650Y-71231536D01*
X154003555Y-71210758D01*
X154129321Y-71214692D01*
G37*
G36*
X155546303Y-70352209D02*
G01*
X155557635Y-70357405D01*
X155606167Y-70388289D01*
X155666517Y-70438009D01*
X155734035Y-70501815D01*
X155804072Y-70574957D01*
X155871977Y-70652687D01*
X155933101Y-70730253D01*
X155960956Y-70769378D01*
X156086507Y-70978234D01*
X156186340Y-71199063D01*
X156261107Y-71433395D01*
X156282208Y-71522251D01*
X156299883Y-71630360D01*
X156311456Y-71758090D01*
X156316921Y-71897153D01*
X156316273Y-72039262D01*
X156309506Y-72176129D01*
X156296616Y-72299466D01*
X156282750Y-72378916D01*
X156218623Y-72613273D01*
X156131394Y-72834259D01*
X156022213Y-73039732D01*
X155892230Y-73227551D01*
X155742593Y-73395575D01*
X155730703Y-73407229D01*
X155654375Y-73477284D01*
X155589588Y-73526484D01*
X155531246Y-73557442D01*
X155474256Y-73572773D01*
X155413522Y-73575088D01*
X155404487Y-73574526D01*
X155315796Y-73554269D01*
X155237674Y-73508082D01*
X155172547Y-73437625D01*
X155148805Y-73399672D01*
X155127146Y-73356551D01*
X155114695Y-73317462D01*
X155109056Y-73271341D01*
X155107828Y-73210408D01*
X155110248Y-73143668D01*
X155119338Y-73088437D01*
X155138138Y-73038772D01*
X155169687Y-72988730D01*
X155217024Y-72932369D01*
X155283189Y-72863745D01*
X155287113Y-72859819D01*
X155414077Y-72717054D01*
X155513708Y-72568763D01*
X155587205Y-72412058D01*
X155635771Y-72244051D01*
X155660604Y-72061854D01*
X155664595Y-71951914D01*
X155653747Y-71762038D01*
X155618828Y-71586419D01*
X155558851Y-71422680D01*
X155472829Y-71268446D01*
X155359772Y-71121339D01*
X155287113Y-71044009D01*
X155235721Y-70990246D01*
X155189858Y-70937897D01*
X155154812Y-70893271D01*
X155136798Y-70864729D01*
X155119615Y-70810572D01*
X155108734Y-70740666D01*
X155105068Y-70667215D01*
X155109525Y-70602422D01*
X155115291Y-70576412D01*
X155145876Y-70508483D01*
X155192051Y-70442152D01*
X155246114Y-70387182D01*
X155286130Y-70359840D01*
X155369985Y-70331529D01*
X155459234Y-70328963D01*
X155546303Y-70352209D01*
G37*
G36*
X157968106Y-68434309D02*
G01*
X158012400Y-68446363D01*
X158062524Y-68471084D01*
X158120861Y-68510284D01*
X158189797Y-68565774D01*
X158271714Y-68639365D01*
X158368998Y-68732869D01*
X158395362Y-68758935D01*
X158625886Y-69008001D01*
X158834416Y-69274870D01*
X159020405Y-69558177D01*
X159183306Y-69856552D01*
X159322571Y-70168630D01*
X159437653Y-70493043D01*
X159528005Y-70828423D01*
X159593077Y-71173403D01*
X159632324Y-71526616D01*
X159645201Y-71880000D01*
X159631825Y-72239917D01*
X159592062Y-72592999D01*
X159526462Y-72937872D01*
X159435576Y-73273163D01*
X159319953Y-73597496D01*
X159180143Y-73909500D01*
X159016698Y-74207800D01*
X158830165Y-74491023D01*
X158621097Y-74757794D01*
X158395468Y-75001355D01*
X158293894Y-75100222D01*
X158208210Y-75178662D01*
X158136046Y-75238475D01*
X158075030Y-75281459D01*
X158022793Y-75309413D01*
X157976963Y-75324138D01*
X157968106Y-75325691D01*
X157879018Y-75325677D01*
X157796840Y-75300357D01*
X157724828Y-75252959D01*
X157666239Y-75186708D01*
X157624332Y-75104832D01*
X157602362Y-75010558D01*
X157599862Y-74960873D01*
X157602195Y-74903955D01*
X157609900Y-74854862D01*
X157625531Y-74809488D01*
X157651640Y-74763731D01*
X157690780Y-74713487D01*
X157745505Y-74654652D01*
X157818369Y-74583122D01*
X157858755Y-74544755D01*
X157971744Y-74435739D01*
X158067492Y-74337650D01*
X158151704Y-74244067D01*
X158230086Y-74148572D01*
X158308346Y-74044746D01*
X158330298Y-74014308D01*
X158495646Y-73758801D01*
X158637656Y-73488400D01*
X158756086Y-73205360D01*
X158850691Y-72911938D01*
X158921227Y-72610390D01*
X158967452Y-72302973D01*
X158989120Y-71991943D01*
X158985989Y-71679556D01*
X158957814Y-71368069D01*
X158904352Y-71059737D01*
X158825358Y-70756818D01*
X158720590Y-70461568D01*
X158715519Y-70449119D01*
X158598320Y-70190911D01*
X158464972Y-69950738D01*
X158411732Y-69866410D01*
X158327449Y-69742348D01*
X158241216Y-69626740D01*
X158148965Y-69514980D01*
X158046630Y-69402460D01*
X157930142Y-69284572D01*
X157795437Y-69156710D01*
X157741856Y-69107493D01*
X157665670Y-69021573D01*
X157617091Y-68928163D01*
X157596292Y-68827749D01*
X157603445Y-68720821D01*
X157604017Y-68717898D01*
X157634814Y-68625576D01*
X157685327Y-68547630D01*
X157751544Y-68487186D01*
X157829454Y-68447368D01*
X157915046Y-68431299D01*
X157968106Y-68434309D01*
G37*
G36*
X156690271Y-69328354D02*
G01*
X156745828Y-69354188D01*
X156791596Y-69386581D01*
X156851336Y-69437117D01*
X156920910Y-69501593D01*
X156996179Y-69575804D01*
X157073004Y-69655547D01*
X157147245Y-69736616D01*
X157214764Y-69814808D01*
X157271423Y-69885919D01*
X157278072Y-69894827D01*
X157446809Y-70145781D01*
X157589104Y-70407010D01*
X157705866Y-70680455D01*
X157798001Y-70968054D01*
X157819759Y-71052401D01*
X157848466Y-71174893D01*
X157870708Y-71283999D01*
X157887223Y-71386543D01*
X157898747Y-71489348D01*
X157906018Y-71599238D01*
X157909771Y-71723036D01*
X157910744Y-71867565D01*
X157910687Y-71894383D01*
X157910025Y-72010896D01*
X157908578Y-72104573D01*
X157905941Y-72181340D01*
X157901707Y-72247126D01*
X157895469Y-72307856D01*
X157886823Y-72369457D01*
X157875362Y-72437857D01*
X157872261Y-72455311D01*
X157804149Y-72762866D01*
X157712682Y-73053937D01*
X157597434Y-73329412D01*
X157457980Y-73590176D01*
X157293894Y-73837116D01*
X157104750Y-74071119D01*
X157086197Y-74091893D01*
X157022404Y-74159168D01*
X156952398Y-74227019D01*
X156881301Y-74291004D01*
X156814236Y-74346677D01*
X156756326Y-74389594D01*
X156714269Y-74414589D01*
X156630827Y-74438470D01*
X156545583Y-74435563D01*
X156463442Y-74407054D01*
X156389309Y-74354128D01*
X156366607Y-74330563D01*
X156317252Y-74263478D01*
X156288041Y-74193708D01*
X156275434Y-74111389D01*
X156274250Y-74073375D01*
X156277223Y-74006626D01*
X156288975Y-73948945D01*
X156312428Y-73895173D01*
X156350499Y-73840154D01*
X156406109Y-73778730D01*
X156482177Y-73705745D01*
X156482576Y-73705377D01*
X156667211Y-73516193D01*
X156827602Y-73311587D01*
X156963539Y-73091943D01*
X157074813Y-72857644D01*
X157161215Y-72609073D01*
X157221071Y-72354632D01*
X157255551Y-72092459D01*
X157263622Y-71828200D01*
X157245706Y-71565293D01*
X157202229Y-71307179D01*
X157133613Y-71057295D01*
X157040284Y-70819081D01*
X157028698Y-70794100D01*
X156944223Y-70627623D01*
X156855343Y-70480130D01*
X156756546Y-70344023D01*
X156642318Y-70211701D01*
X156508014Y-70076392D01*
X156444451Y-70013742D01*
X156388454Y-69954690D01*
X156344190Y-69903872D01*
X156315828Y-69865927D01*
X156310501Y-69856687D01*
X156282305Y-69773876D01*
X156272075Y-69680907D01*
X156281021Y-69591004D01*
X156284829Y-69575924D01*
X156322904Y-69483258D01*
X156377796Y-69408739D01*
X156445744Y-69354179D01*
X156522981Y-69321388D01*
X156605745Y-69312176D01*
X156690271Y-69328354D01*
G37*
%TO.C,D1*%
X145500000Y-97480000D02*
X145500000Y-100780000D01*
X145500000Y-97480000D02*
X152510000Y-97480000D01*
X145500000Y-100780000D02*
X152510000Y-100780000D01*
%TO.C,G\u002A\u002A\u002A*%
G36*
X111465886Y-107657835D02*
G01*
X111464759Y-107680645D01*
X111460196Y-107703386D01*
X111450422Y-107729770D01*
X111433660Y-107763511D01*
X111408137Y-107808321D01*
X111372077Y-107867912D01*
X111342782Y-107915310D01*
X111219677Y-108113644D01*
X111339679Y-108119848D01*
X111459682Y-108126052D01*
X111463351Y-108209809D01*
X111467020Y-108293566D01*
X111224489Y-108293566D01*
X110981958Y-108293566D01*
X110982257Y-108228422D01*
X110983191Y-108204129D01*
X110986936Y-108181372D01*
X110995273Y-108156349D01*
X111009979Y-108125259D01*
X111032834Y-108084302D01*
X111065616Y-108029677D01*
X111105663Y-107964743D01*
X111228770Y-107766209D01*
X111105364Y-107762672D01*
X110981958Y-107759136D01*
X110981958Y-107678916D01*
X110981958Y-107598695D01*
X111223922Y-107598695D01*
X111465886Y-107598695D01*
X111465886Y-107657835D01*
G37*
G36*
X110231091Y-107586774D02*
G01*
X110256809Y-107590083D01*
X110277405Y-107599736D01*
X110296585Y-107619062D01*
X110318052Y-107651392D01*
X110345511Y-107700056D01*
X110367150Y-107739855D01*
X110420194Y-107837584D01*
X110484092Y-107719405D01*
X110511990Y-107670327D01*
X110537627Y-107629725D01*
X110557746Y-107602510D01*
X110567454Y-107593756D01*
X110594307Y-107589036D01*
X110635221Y-107587313D01*
X110679782Y-107588418D01*
X110717577Y-107592184D01*
X110734798Y-107596465D01*
X110739714Y-107602769D01*
X110738343Y-107616811D01*
X110729544Y-107641189D01*
X110712178Y-107678502D01*
X110685106Y-107731351D01*
X110647187Y-107802332D01*
X110633146Y-107828251D01*
X110511874Y-108051602D01*
X110511157Y-108172584D01*
X110510439Y-108293566D01*
X110425648Y-108293566D01*
X110381865Y-108292435D01*
X110348449Y-108289471D01*
X110332606Y-108285314D01*
X110332585Y-108285293D01*
X110328964Y-108269996D01*
X110326148Y-108235875D01*
X110324539Y-108188923D01*
X110324313Y-108162006D01*
X110324313Y-108046991D01*
X110205404Y-107827313D01*
X110163352Y-107748684D01*
X110132813Y-107689170D01*
X110112765Y-107646470D01*
X110102182Y-107618284D01*
X110100043Y-107602309D01*
X110103035Y-107597151D01*
X110123647Y-107591554D01*
X110160351Y-107587677D01*
X110196547Y-107586477D01*
X110231091Y-107586774D01*
G37*
G36*
X109606245Y-107597044D02*
G01*
X109650394Y-107604969D01*
X109694057Y-107621537D01*
X109708638Y-107628459D01*
X109748257Y-107652139D01*
X109788210Y-107683005D01*
X109823670Y-107716340D01*
X109849812Y-107747429D01*
X109861811Y-107771555D01*
X109861637Y-107777992D01*
X109849306Y-107790183D01*
X109821114Y-107809028D01*
X109787578Y-107828045D01*
X109717502Y-107865065D01*
X109682778Y-107832664D01*
X109636526Y-107795947D01*
X109592555Y-107777237D01*
X109546501Y-107772459D01*
X109487650Y-107783255D01*
X109437509Y-107812362D01*
X109399166Y-107855045D01*
X109375711Y-107906565D01*
X109370234Y-107962187D01*
X109385824Y-108017173D01*
X109386299Y-108018095D01*
X109408048Y-108050468D01*
X109436301Y-108082029D01*
X109436933Y-108082623D01*
X109459813Y-108100327D01*
X109485780Y-108109758D01*
X109523505Y-108113317D01*
X109549098Y-108113644D01*
X109593932Y-108112507D01*
X109623419Y-108106891D01*
X109646999Y-108093494D01*
X109672703Y-108070378D01*
X109717341Y-108027113D01*
X109787498Y-108064174D01*
X109824798Y-108085918D01*
X109852156Y-108105683D01*
X109862815Y-108117803D01*
X109857274Y-108137040D01*
X109835569Y-108165177D01*
X109802561Y-108197924D01*
X109763107Y-108230991D01*
X109722067Y-108260090D01*
X109684299Y-108280932D01*
X109672926Y-108285424D01*
X109598696Y-108301290D01*
X109517625Y-108303351D01*
X109441711Y-108291597D01*
X109422523Y-108285655D01*
X109363575Y-108254964D01*
X109304570Y-108207430D01*
X109252948Y-108149867D01*
X109222792Y-108102766D01*
X109195637Y-108026201D01*
X109187196Y-107941786D01*
X109197474Y-107857855D01*
X109222583Y-107789908D01*
X109276543Y-107711054D01*
X109345119Y-107652073D01*
X109427257Y-107613590D01*
X109521906Y-107596232D01*
X109549577Y-107595248D01*
X109606245Y-107597044D01*
G37*
G36*
X110888895Y-102786538D02*
G01*
X110975754Y-102790439D01*
X110981958Y-103521320D01*
X110988162Y-104252201D01*
X111093634Y-104285327D01*
X111165195Y-104309135D01*
X111222087Y-104332116D01*
X111273846Y-104358935D01*
X111330003Y-104394258D01*
X111364921Y-104418101D01*
X111403585Y-104443651D01*
X111434656Y-104461806D01*
X111452481Y-104469320D01*
X111454016Y-104469242D01*
X111466449Y-104460030D01*
X111493663Y-104437236D01*
X111532060Y-104403954D01*
X111578040Y-104363276D01*
X111595449Y-104347694D01*
X111726744Y-104229814D01*
X111673867Y-104181776D01*
X111565152Y-104096082D01*
X111438921Y-104019149D01*
X111302017Y-103954985D01*
X111258045Y-103938157D01*
X111180493Y-103910074D01*
X111180493Y-103738752D01*
X111181189Y-103676114D01*
X111183098Y-103622812D01*
X111185953Y-103583536D01*
X111189485Y-103562976D01*
X111190637Y-103561159D01*
X111206507Y-103562228D01*
X111240558Y-103570670D01*
X111287858Y-103584812D01*
X111343480Y-103602985D01*
X111402492Y-103623516D01*
X111459964Y-103644733D01*
X111510968Y-103664966D01*
X111550573Y-103682543D01*
X111554792Y-103684628D01*
X111630976Y-103726930D01*
X111716569Y-103780994D01*
X111803252Y-103841213D01*
X111882707Y-103901982D01*
X111906119Y-103921368D01*
X111943654Y-103955484D01*
X111989210Y-104000335D01*
X112038678Y-104051476D01*
X112087948Y-104104462D01*
X112132911Y-104154848D01*
X112169457Y-104198189D01*
X112193475Y-104230041D01*
X112197562Y-104236583D01*
X112196680Y-104244833D01*
X112187052Y-104259797D01*
X112167367Y-104282777D01*
X112136312Y-104315078D01*
X112092572Y-104358004D01*
X112034837Y-104412859D01*
X111961792Y-104480946D01*
X111872124Y-104563570D01*
X111822729Y-104608836D01*
X111740313Y-104684149D01*
X111663485Y-104754149D01*
X111594191Y-104817077D01*
X111534375Y-104871177D01*
X111485981Y-104914694D01*
X111450955Y-104945870D01*
X111431240Y-104962949D01*
X111427667Y-104965684D01*
X111417843Y-104957445D01*
X111400592Y-104932215D01*
X111379469Y-104895256D01*
X111377342Y-104891233D01*
X111330795Y-104818981D01*
X111269173Y-104746671D01*
X111199265Y-104681066D01*
X111127859Y-104628929D01*
X111096357Y-104611321D01*
X111009494Y-104575324D01*
X110921352Y-104554590D01*
X110823833Y-104547614D01*
X110761709Y-104549177D01*
X110646931Y-104555178D01*
X110646931Y-104221491D01*
X110646751Y-104119715D01*
X110646118Y-104040113D01*
X110644892Y-103980044D01*
X110642932Y-103936869D01*
X110640098Y-103907947D01*
X110636251Y-103890636D01*
X110631248Y-103882297D01*
X110628839Y-103880861D01*
X110605190Y-103880116D01*
X110563556Y-103886828D01*
X110509108Y-103899532D01*
X110447018Y-103916762D01*
X110382459Y-103937052D01*
X110320601Y-103958935D01*
X110266617Y-103980947D01*
X110252157Y-103987631D01*
X110095673Y-104075768D01*
X109952049Y-104183090D01*
X109823809Y-104307153D01*
X109713477Y-104445513D01*
X109623579Y-104595728D01*
X109623297Y-104596283D01*
X109599509Y-104649372D01*
X109573666Y-104717007D01*
X109548287Y-104791461D01*
X109525892Y-104865009D01*
X109509000Y-104929926D01*
X109501033Y-104971216D01*
X109494510Y-105017747D01*
X109840359Y-105017747D01*
X110186209Y-105017747D01*
X110179230Y-105126321D01*
X110178415Y-105230146D01*
X110191776Y-105322072D01*
X110221223Y-105411777D01*
X110246518Y-105466783D01*
X110309405Y-105566123D01*
X110390554Y-105652802D01*
X110486074Y-105724391D01*
X110592073Y-105778456D01*
X110704662Y-105812567D01*
X110818653Y-105824294D01*
X110925546Y-105812645D01*
X111032821Y-105779647D01*
X111135685Y-105728221D01*
X111229343Y-105661290D01*
X111309004Y-105581776D01*
X111369875Y-105492600D01*
X111373243Y-105486197D01*
X111393241Y-105450181D01*
X111409609Y-105425610D01*
X111418437Y-105417951D01*
X111431109Y-105427000D01*
X111459932Y-105450015D01*
X111502519Y-105484964D01*
X111556482Y-105529818D01*
X111619432Y-105582546D01*
X111688981Y-105641119D01*
X111762742Y-105703507D01*
X111838327Y-105767678D01*
X111913347Y-105831603D01*
X111985415Y-105893253D01*
X112052142Y-105950596D01*
X112111141Y-106001603D01*
X112160023Y-106044244D01*
X112196401Y-106076488D01*
X112217886Y-106096306D01*
X112222795Y-106101759D01*
X112215479Y-106115189D01*
X112195618Y-106143546D01*
X112166346Y-106182521D01*
X112134844Y-106222736D01*
X112000468Y-106372289D01*
X111851283Y-106503712D01*
X111689372Y-106616202D01*
X111516817Y-106708955D01*
X111335701Y-106781169D01*
X111148104Y-106832040D01*
X110956110Y-106860764D01*
X110761801Y-106866540D01*
X110567258Y-106848563D01*
X110529051Y-106842146D01*
X110328401Y-106794533D01*
X110142046Y-106726751D01*
X109969647Y-106638676D01*
X109957572Y-106631432D01*
X109787640Y-106514281D01*
X109634924Y-106379767D01*
X109500431Y-106229168D01*
X109385167Y-106063760D01*
X109290138Y-105884819D01*
X109216350Y-105693623D01*
X109214812Y-105688781D01*
X109195000Y-105625913D01*
X109184328Y-105583275D01*
X109185588Y-105557107D01*
X109201571Y-105543648D01*
X109235070Y-105539138D01*
X109288876Y-105539816D01*
X109324573Y-105540935D01*
X109400780Y-105544987D01*
X109456699Y-105553097D01*
X109496748Y-105566941D01*
X109525342Y-105588193D01*
X109546895Y-105618529D01*
X109551320Y-105626965D01*
X109562961Y-105650479D01*
X109582393Y-105690025D01*
X109606536Y-105739325D01*
X109623801Y-105774660D01*
X109715037Y-105934904D01*
X109823586Y-106077455D01*
X109949203Y-106202064D01*
X110091643Y-106308481D01*
X110220207Y-106381684D01*
X110365957Y-106444834D01*
X110512303Y-106487781D01*
X110664597Y-106511600D01*
X110828190Y-106517368D01*
X110886032Y-106515470D01*
X111044308Y-106499403D01*
X111191512Y-106465755D01*
X111336014Y-106412370D01*
X111397640Y-106383679D01*
X111479802Y-106339532D01*
X111560228Y-106289573D01*
X111632724Y-106238045D01*
X111691100Y-106189187D01*
X111711592Y-106168682D01*
X111740151Y-106137745D01*
X111618529Y-106034514D01*
X111570644Y-105993892D01*
X111528135Y-105957869D01*
X111495388Y-105930161D01*
X111476791Y-105914483D01*
X111475993Y-105913815D01*
X111463210Y-105906561D01*
X111447567Y-105907979D01*
X111423909Y-105920090D01*
X111387080Y-105944912D01*
X111375404Y-105953202D01*
X111242185Y-106034250D01*
X111103044Y-106091278D01*
X110957155Y-106124552D01*
X110815562Y-106134417D01*
X110659397Y-106123088D01*
X110513630Y-106089237D01*
X110377950Y-106032728D01*
X110252046Y-105953426D01*
X110135610Y-105851197D01*
X110115394Y-105830095D01*
X110052124Y-105752296D01*
X109993285Y-105661350D01*
X109943461Y-105565486D01*
X109907238Y-105472934D01*
X109897817Y-105439633D01*
X109880986Y-105371387D01*
X109147202Y-105368186D01*
X108413419Y-105364986D01*
X108413419Y-105177449D01*
X108421209Y-105017747D01*
X108760561Y-105017747D01*
X108950618Y-105017747D01*
X109140675Y-105017747D01*
X109156820Y-104921582D01*
X109186036Y-104783496D01*
X109227437Y-104650331D01*
X109283881Y-104513496D01*
X109312613Y-104453165D01*
X109413100Y-104274873D01*
X109530003Y-104114955D01*
X109664018Y-103972724D01*
X109815839Y-103847492D01*
X109986161Y-103738572D01*
X110090314Y-103684237D01*
X110279749Y-103605826D01*
X110474176Y-103551421D01*
X110547884Y-103537334D01*
X110640727Y-103521802D01*
X110644152Y-103332941D01*
X110646108Y-103258094D01*
X110646507Y-103204984D01*
X110641862Y-103170604D01*
X110628686Y-103151948D01*
X110603493Y-103146011D01*
X110562797Y-103149787D01*
X110503111Y-103160270D01*
X110453993Y-103168999D01*
X110268340Y-103211053D01*
X110080468Y-103273072D01*
X109897911Y-103352200D01*
X109734914Y-103441449D01*
X109570334Y-103555606D01*
X109413521Y-103690359D01*
X109267915Y-103841866D01*
X109136956Y-104006286D01*
X109024084Y-104179777D01*
X108952669Y-104315005D01*
X108891714Y-104455784D01*
X108843166Y-104597428D01*
X108805019Y-104746985D01*
X108775268Y-104911505D01*
X108767656Y-104965012D01*
X108760561Y-105017747D01*
X108421209Y-105017747D01*
X108425295Y-104933975D01*
X108460952Y-104697544D01*
X108520433Y-104468011D01*
X108603783Y-104245232D01*
X108711046Y-104029062D01*
X108810395Y-103866367D01*
X108955724Y-103668883D01*
X109117811Y-103489234D01*
X109295493Y-103328207D01*
X109487607Y-103186589D01*
X109692990Y-103065167D01*
X109910480Y-102964728D01*
X110138912Y-102886059D01*
X110327617Y-102839561D01*
X110420408Y-102823037D01*
X110524020Y-102808715D01*
X110631174Y-102797284D01*
X110734593Y-102789430D01*
X110827000Y-102785841D01*
X110888895Y-102786538D01*
G37*
%TO.C,Cout1*%
X150148748Y-76520000D02*
X151571252Y-76520000D01*
X150148748Y-79240000D02*
X151571252Y-79240000D01*
%TO.C,Cff1*%
X153075835Y-96240000D02*
X152844165Y-96240000D01*
X153075835Y-95520000D02*
X152844165Y-95520000D01*
%TO.C,L1*%
X147060000Y-87615000D02*
X146210000Y-87615000D01*
X151760000Y-87615000D02*
X150960000Y-87615000D01*
X145600000Y-87005000D02*
X145600000Y-81305000D01*
X152420000Y-81305000D02*
X152420000Y-86955000D01*
X146210000Y-80695000D02*
X147060000Y-80695000D01*
X150960000Y-80695000D02*
X151810000Y-80695000D01*
X145600000Y-87005000D02*
G75*
G03*
X146210000Y-87615000I610000J0D01*
G01*
X151760000Y-87615000D02*
G75*
G03*
X152420000Y-86955000I-2J660002D01*
G01*
X146210000Y-80695000D02*
G75*
G03*
X145600000Y-81305000I0J-610000D01*
G01*
X152420000Y-81305000D02*
G75*
G03*
X151810000Y-80695000I-610000J0D01*
G01*
%TO.C,Rfbb1*%
X153080121Y-94510000D02*
X152744879Y-94510000D01*
X153080121Y-93750000D02*
X152744879Y-93750000D01*
%TO.C,C6*%
X149018748Y-95355000D02*
X149541252Y-95355000D01*
X149018748Y-96825000D02*
X149541252Y-96825000D01*
D12*
%TO.C,FL1*%
X104144000Y-94430000D02*
X104144000Y-99130000D01*
X112144000Y-99230000D02*
X112144000Y-94430000D01*
X105685421Y-93330000D02*
G75*
G03*
X105685421Y-93330000I-141421J0D01*
G01*
X110785421Y-93330000D02*
G75*
G03*
X110785421Y-93330000I-141421J0D01*
G01*
D13*
%TO.C,RV1*%
X109500000Y-79887500D02*
X115600000Y-79887500D01*
X109500000Y-79887500D02*
X109500000Y-67887500D01*
X115600000Y-79887500D02*
X115600000Y-67887500D01*
X109500000Y-67887500D02*
X115600000Y-67887500D01*
D14*
%TO.C,F1*%
X106140000Y-81510000D02*
X106140000Y-85750000D01*
X106140000Y-81510000D02*
X114880000Y-81510000D01*
X114880000Y-85750000D02*
X106140000Y-85750000D01*
X114880000Y-85750000D02*
X114880000Y-81510000D01*
%TO.C,U4*%
X149647500Y-91570000D02*
X147847500Y-91570000D01*
X149647500Y-91570000D02*
X150447500Y-91570000D01*
X149647500Y-94690000D02*
X148847500Y-94690000D01*
X149647500Y-94690000D02*
X150447500Y-94690000D01*
%TD*%
M02*
