%TF.GenerationSoftware,KiCad,Pcbnew,7.0.6*%
%TF.CreationDate,2023-10-13T10:01:51+08:00*%
%TF.ProjectId,86_BOX_PANEL,38365f42-4f58-45f5-9041-4e454c2e6b69,rev?*%
%TF.SameCoordinates,Original*%
%TF.FileFunction,Soldermask,Top*%
%TF.FilePolarity,Negative*%
%FSLAX46Y46*%
G04 Gerber Fmt 4.6, Leading zero omitted, Abs format (unit mm)*
G04 Created by KiCad (PCBNEW 7.0.6) date 2023-10-13 10:01:51*
%MOMM*%
%LPD*%
G01*
G04 APERTURE LIST*
G04 Aperture macros list*
%AMRoundRect*
0 Rectangle with rounded corners*
0 $1 Rounding radius*
0 $2 $3 $4 $5 $6 $7 $8 $9 X,Y pos of 4 corners*
0 Add a 4 corners polygon primitive as box body*
4,1,4,$2,$3,$4,$5,$6,$7,$8,$9,$2,$3,0*
0 Add four circle primitives for the rounded corners*
1,1,$1+$1,$2,$3*
1,1,$1+$1,$4,$5*
1,1,$1+$1,$6,$7*
1,1,$1+$1,$8,$9*
0 Add four rect primitives between the rounded corners*
20,1,$1+$1,$2,$3,$4,$5,0*
20,1,$1+$1,$4,$5,$6,$7,0*
20,1,$1+$1,$6,$7,$8,$9,0*
20,1,$1+$1,$8,$9,$2,$3,0*%
G04 Aperture macros list end*
%ADD10RoundRect,0.155000X-0.212500X-0.155000X0.212500X-0.155000X0.212500X0.155000X-0.212500X0.155000X0*%
%ADD11C,1.600000*%
%ADD12RoundRect,0.160000X-0.197500X-0.160000X0.197500X-0.160000X0.197500X0.160000X-0.197500X0.160000X0*%
%ADD13C,6.000000*%
%ADD14RoundRect,0.250000X-1.500000X-0.650000X1.500000X-0.650000X1.500000X0.650000X-1.500000X0.650000X0*%
%ADD15C,0.700000*%
%ADD16C,4.400000*%
%ADD17RoundRect,0.250000X-0.412500X-1.100000X0.412500X-1.100000X0.412500X1.100000X-0.412500X1.100000X0*%
%ADD18RoundRect,0.155000X0.212500X0.155000X-0.212500X0.155000X-0.212500X-0.155000X0.212500X-0.155000X0*%
%ADD19R,3.500000X2.950000*%
%ADD20RoundRect,0.160000X0.197500X0.160000X-0.197500X0.160000X-0.197500X-0.160000X0.197500X-0.160000X0*%
%ADD21RoundRect,0.250000X-0.250000X-0.475000X0.250000X-0.475000X0.250000X0.475000X-0.250000X0.475000X0*%
%ADD22C,2.000000*%
%ADD23O,2.000000X2.000000*%
%ADD24C,1.800000*%
%ADD25C,2.200000*%
%ADD26RoundRect,0.150000X-0.512500X-0.150000X0.512500X-0.150000X0.512500X0.150000X-0.512500X0.150000X0*%
%ADD27C,3.000000*%
%ADD28R,1.000000X1.000000*%
%ADD29O,1.000000X1.000000*%
G04 APERTURE END LIST*
D10*
%TO.C,Cbst1*%
X151356500Y-90620000D03*
X152491500Y-90620000D03*
%TD*%
D11*
%TO.C,C5*%
X113510000Y-88630000D03*
X103510000Y-88630000D03*
%TD*%
D12*
%TO.C,RfBT1*%
X152315000Y-92380000D03*
X153510000Y-92380000D03*
%TD*%
D13*
%TO.C,J6*%
X156510000Y-89880000D03*
%TD*%
D14*
%TO.C,D1*%
X147510000Y-99130000D03*
X152510000Y-99130000D03*
%TD*%
D15*
%TO.C,H4*%
X101360000Y-64130000D03*
X101843274Y-62963274D03*
X101843274Y-65296726D03*
X103010000Y-62480000D03*
D16*
X103010000Y-64130000D03*
D15*
X103010000Y-65780000D03*
X104176726Y-62963274D03*
X104176726Y-65296726D03*
X104660000Y-64130000D03*
%TD*%
D17*
%TO.C,Cout1*%
X149297500Y-77880000D03*
X152422500Y-77880000D03*
%TD*%
D18*
%TO.C,Cff1*%
X153527500Y-95880000D03*
X152392500Y-95880000D03*
%TD*%
D15*
%TO.C,H1*%
X101360000Y-105630000D03*
X101843274Y-104463274D03*
X101843274Y-106796726D03*
X103010000Y-103980000D03*
D16*
X103010000Y-105630000D03*
D15*
X103010000Y-107280000D03*
X104176726Y-104463274D03*
X104176726Y-106796726D03*
X104660000Y-105630000D03*
%TD*%
D19*
%TO.C,L1*%
X149010000Y-86880000D03*
X149010000Y-81430000D03*
%TD*%
D13*
%TO.C,J3*%
X103564000Y-70880000D03*
%TD*%
%TO.C,J2*%
X103500000Y-78880000D03*
%TD*%
D20*
%TO.C,Rfbb1*%
X153510000Y-94130000D03*
X152315000Y-94130000D03*
%TD*%
D21*
%TO.C,C6*%
X148330000Y-96090000D03*
X150230000Y-96090000D03*
%TD*%
D22*
%TO.C,FL1*%
X104144000Y-93330000D03*
D23*
X104144000Y-100330000D03*
X112144000Y-100330000D03*
X112144000Y-93330000D03*
%TD*%
D15*
%TO.C,H2*%
X155360000Y-105630000D03*
X155843274Y-104463274D03*
X155843274Y-106796726D03*
X157010000Y-103980000D03*
D16*
X157010000Y-105630000D03*
D15*
X157010000Y-107280000D03*
X158176726Y-104463274D03*
X158176726Y-106796726D03*
X158660000Y-105630000D03*
%TD*%
D24*
%TO.C,RV1*%
X111100000Y-77637500D03*
X114000000Y-70137500D03*
%TD*%
D25*
%TO.C,H3*%
X157010000Y-64130000D03*
%TD*%
D13*
%TO.C,J5*%
X149510000Y-105130000D03*
%TD*%
D22*
%TO.C,F1*%
X107970000Y-83630000D03*
X113050000Y-83640000D03*
%TD*%
D26*
%TO.C,U4*%
X148510000Y-92180000D03*
X148510000Y-93130000D03*
X148510000Y-94080000D03*
X150785000Y-94080000D03*
X150785000Y-93130000D03*
X150785000Y-92180000D03*
%TD*%
D27*
%TO.C,U1*%
X126860000Y-106130000D03*
X134660000Y-106130000D03*
X142060000Y-63630000D03*
X119460000Y-63630000D03*
%TD*%
D22*
%TO.C,J1*%
X125010000Y-84880000D03*
%TD*%
%TO.C,J4*%
X130010000Y-84880000D03*
%TD*%
D28*
%TO.C,J7*%
X111760000Y-62880000D03*
D29*
X110490000Y-62880000D03*
X109220000Y-62880000D03*
X107950000Y-62880000D03*
%TD*%
G36*
X147737039Y-74159685D02*
G01*
X147782794Y-74212489D01*
X147794000Y-74264000D01*
X147794000Y-79266000D01*
X147774315Y-79333039D01*
X147721511Y-79378794D01*
X147670000Y-79390000D01*
X142668000Y-79390000D01*
X142600961Y-79370315D01*
X142555206Y-79317511D01*
X142544000Y-79266000D01*
X142544000Y-74264000D01*
X142563685Y-74196961D01*
X142616489Y-74151206D01*
X142668000Y-74140000D01*
X147670000Y-74140000D01*
X147737039Y-74159685D01*
G37*
M02*
