%TF.GenerationSoftware,KiCad,Pcbnew,7.0.6*%
%TF.CreationDate,2023-10-13T10:01:51+08:00*%
%TF.ProjectId,86_BOX_PANEL,38365f42-4f58-45f5-9041-4e454c2e6b69,rev?*%
%TF.SameCoordinates,Original*%
%TF.FileFunction,Paste,Bot*%
%TF.FilePolarity,Positive*%
%FSLAX46Y46*%
G04 Gerber Fmt 4.6, Leading zero omitted, Abs format (unit mm)*
G04 Created by KiCad (PCBNEW 7.0.6) date 2023-10-13 10:01:51*
%MOMM*%
%LPD*%
G01*
G04 APERTURE LIST*
G04 Aperture macros list*
%AMRoundRect*
0 Rectangle with rounded corners*
0 $1 Rounding radius*
0 $2 $3 $4 $5 $6 $7 $8 $9 X,Y pos of 4 corners*
0 Add a 4 corners polygon primitive as box body*
4,1,4,$2,$3,$4,$5,$6,$7,$8,$9,$2,$3,0*
0 Add four circle primitives for the rounded corners*
1,1,$1+$1,$2,$3*
1,1,$1+$1,$4,$5*
1,1,$1+$1,$6,$7*
1,1,$1+$1,$8,$9*
0 Add four rect primitives between the rounded corners*
20,1,$1+$1,$2,$3,$4,$5,0*
20,1,$1+$1,$4,$5,$6,$7,0*
20,1,$1+$1,$6,$7,$8,$9,0*
20,1,$1+$1,$8,$9,$2,$3,0*%
G04 Aperture macros list end*
%ADD10RoundRect,0.250000X0.250000X0.475000X-0.250000X0.475000X-0.250000X-0.475000X0.250000X-0.475000X0*%
%ADD11RoundRect,0.250000X-0.475000X0.250000X-0.475000X-0.250000X0.475000X-0.250000X0.475000X0.250000X0*%
%ADD12RoundRect,0.237500X-0.300000X-0.237500X0.300000X-0.237500X0.300000X0.237500X-0.300000X0.237500X0*%
%ADD13RoundRect,0.237500X0.250000X0.237500X-0.250000X0.237500X-0.250000X-0.237500X0.250000X-0.237500X0*%
%ADD14RoundRect,0.237500X-0.250000X-0.237500X0.250000X-0.237500X0.250000X0.237500X-0.250000X0.237500X0*%
%ADD15R,0.650000X1.560000*%
%ADD16R,0.900000X2.000000*%
%ADD17R,2.000000X0.900000*%
%ADD18R,5.000000X5.000000*%
%ADD19R,2.000000X1.500000*%
%ADD20R,2.000000X3.800000*%
%ADD21RoundRect,0.200000X0.200000X0.800000X-0.200000X0.800000X-0.200000X-0.800000X0.200000X-0.800000X0*%
%ADD22RoundRect,0.237500X0.300000X0.237500X-0.300000X0.237500X-0.300000X-0.237500X0.300000X-0.237500X0*%
%ADD23RoundRect,0.250000X-0.250000X-0.475000X0.250000X-0.475000X0.250000X0.475000X-0.250000X0.475000X0*%
G04 APERTURE END LIST*
D10*
%TO.C,C4*%
X130260000Y-91380000D03*
X128360000Y-91380000D03*
%TD*%
D11*
%TO.C,C2*%
X131141589Y-74370000D03*
X131141589Y-76270000D03*
%TD*%
D12*
%TO.C,C7*%
X141897500Y-101880000D03*
X143622500Y-101880000D03*
%TD*%
D13*
%TO.C,R2*%
X121672500Y-89630000D03*
X119847500Y-89630000D03*
%TD*%
D14*
%TO.C,R1*%
X119785000Y-91380000D03*
X121610000Y-91380000D03*
%TD*%
D13*
%TO.C,R5*%
X111672500Y-67880000D03*
X109847500Y-67880000D03*
%TD*%
D15*
%TO.C,U2*%
X126510000Y-93980000D03*
X125560000Y-93980000D03*
X124610000Y-93980000D03*
X124610000Y-91280000D03*
X126510000Y-91280000D03*
%TD*%
D16*
%TO.C,ESP1*%
X152550000Y-84180000D03*
X151280000Y-84180000D03*
X150010000Y-84180000D03*
X148740000Y-84180000D03*
X147470000Y-84180000D03*
X146200000Y-84180000D03*
X144930000Y-84180000D03*
X143660000Y-84180000D03*
X142390000Y-84180000D03*
X141120000Y-84180000D03*
X139850000Y-84180000D03*
X138580000Y-84180000D03*
X137310000Y-84180000D03*
X136040000Y-84180000D03*
D17*
X135040000Y-81395000D03*
X135040000Y-80125000D03*
X135040000Y-78855000D03*
X135040000Y-77585000D03*
X135040000Y-76315000D03*
X135040000Y-75045000D03*
X135040000Y-73775000D03*
X135040000Y-72505000D03*
X135040000Y-71235000D03*
X135040000Y-69965000D03*
D16*
X136040000Y-67180000D03*
X137310000Y-67180000D03*
X138580000Y-67180000D03*
X139850000Y-67180000D03*
X141120000Y-67180000D03*
X142390000Y-67180000D03*
X143660000Y-67180000D03*
X144930000Y-67180000D03*
X146200000Y-67180000D03*
X147470000Y-67180000D03*
X148740000Y-67180000D03*
X150010000Y-67180000D03*
X151280000Y-67180000D03*
X152550000Y-67180000D03*
D18*
X145050000Y-76680000D03*
%TD*%
D19*
%TO.C,U3*%
X122360000Y-76930000D03*
X122360000Y-74630000D03*
D20*
X128660000Y-74630000D03*
D19*
X122360000Y-72330000D03*
%TD*%
D14*
%TO.C,R3*%
X137935000Y-101880000D03*
X139760000Y-101880000D03*
%TD*%
D13*
%TO.C,R4*%
X111676500Y-65990000D03*
X109851500Y-65990000D03*
%TD*%
D21*
%TO.C,SW2*%
X122860000Y-105880000D03*
X118660000Y-105880000D03*
%TD*%
%TO.C,SW1*%
X143860000Y-105880000D03*
X139660000Y-105880000D03*
%TD*%
D22*
%TO.C,C9*%
X122260000Y-102480000D03*
X120535000Y-102480000D03*
%TD*%
D23*
%TO.C,C1*%
X122060000Y-69380000D03*
X123960000Y-69380000D03*
%TD*%
%TO.C,C3*%
X119884000Y-87520000D03*
X121784000Y-87520000D03*
%TD*%
D12*
%TO.C,C8*%
X137897500Y-99880000D03*
X139622500Y-99880000D03*
%TD*%
M02*
