%TF.GenerationSoftware,KiCad,Pcbnew,7.0.6*%
%TF.CreationDate,2023-10-13T10:01:51+08:00*%
%TF.ProjectId,86_BOX_PANEL,38365f42-4f58-45f5-9041-4e454c2e6b69,rev?*%
%TF.SameCoordinates,Original*%
%TF.FileFunction,Copper,L1,Top*%
%TF.FilePolarity,Positive*%
%FSLAX46Y46*%
G04 Gerber Fmt 4.6, Leading zero omitted, Abs format (unit mm)*
G04 Created by KiCad (PCBNEW 7.0.6) date 2023-10-13 10:01:51*
%MOMM*%
%LPD*%
G01*
G04 APERTURE LIST*
G04 Aperture macros list*
%AMRoundRect*
0 Rectangle with rounded corners*
0 $1 Rounding radius*
0 $2 $3 $4 $5 $6 $7 $8 $9 X,Y pos of 4 corners*
0 Add a 4 corners polygon primitive as box body*
4,1,4,$2,$3,$4,$5,$6,$7,$8,$9,$2,$3,0*
0 Add four circle primitives for the rounded corners*
1,1,$1+$1,$2,$3*
1,1,$1+$1,$4,$5*
1,1,$1+$1,$6,$7*
1,1,$1+$1,$8,$9*
0 Add four rect primitives between the rounded corners*
20,1,$1+$1,$2,$3,$4,$5,0*
20,1,$1+$1,$4,$5,$6,$7,0*
20,1,$1+$1,$6,$7,$8,$9,0*
20,1,$1+$1,$8,$9,$2,$3,0*%
G04 Aperture macros list end*
%TA.AperFunction,SMDPad,CuDef*%
%ADD10RoundRect,0.155000X-0.212500X-0.155000X0.212500X-0.155000X0.212500X0.155000X-0.212500X0.155000X0*%
%TD*%
%TA.AperFunction,ComponentPad*%
%ADD11C,1.600000*%
%TD*%
%TA.AperFunction,SMDPad,CuDef*%
%ADD12RoundRect,0.160000X-0.197500X-0.160000X0.197500X-0.160000X0.197500X0.160000X-0.197500X0.160000X0*%
%TD*%
%TA.AperFunction,ComponentPad*%
%ADD13C,6.000000*%
%TD*%
%TA.AperFunction,SMDPad,CuDef*%
%ADD14RoundRect,0.250000X-1.500000X-0.650000X1.500000X-0.650000X1.500000X0.650000X-1.500000X0.650000X0*%
%TD*%
%TA.AperFunction,ComponentPad*%
%ADD15C,0.700000*%
%TD*%
%TA.AperFunction,ComponentPad*%
%ADD16C,4.400000*%
%TD*%
%TA.AperFunction,SMDPad,CuDef*%
%ADD17RoundRect,0.250000X-0.412500X-1.100000X0.412500X-1.100000X0.412500X1.100000X-0.412500X1.100000X0*%
%TD*%
%TA.AperFunction,SMDPad,CuDef*%
%ADD18RoundRect,0.155000X0.212500X0.155000X-0.212500X0.155000X-0.212500X-0.155000X0.212500X-0.155000X0*%
%TD*%
%TA.AperFunction,SMDPad,CuDef*%
%ADD19R,3.500000X2.950000*%
%TD*%
%TA.AperFunction,SMDPad,CuDef*%
%ADD20RoundRect,0.160000X0.197500X0.160000X-0.197500X0.160000X-0.197500X-0.160000X0.197500X-0.160000X0*%
%TD*%
%TA.AperFunction,SMDPad,CuDef*%
%ADD21RoundRect,0.250000X-0.250000X-0.475000X0.250000X-0.475000X0.250000X0.475000X-0.250000X0.475000X0*%
%TD*%
%TA.AperFunction,ComponentPad*%
%ADD22C,2.000000*%
%TD*%
%TA.AperFunction,ComponentPad*%
%ADD23O,2.000000X2.000000*%
%TD*%
%TA.AperFunction,ComponentPad*%
%ADD24C,1.800000*%
%TD*%
%TA.AperFunction,SMDPad,CuDef*%
%ADD25RoundRect,0.150000X-0.512500X-0.150000X0.512500X-0.150000X0.512500X0.150000X-0.512500X0.150000X0*%
%TD*%
%TA.AperFunction,ComponentPad*%
%ADD26C,3.000000*%
%TD*%
%TA.AperFunction,ComponentPad*%
%ADD27R,1.000000X1.000000*%
%TD*%
%TA.AperFunction,ComponentPad*%
%ADD28O,1.000000X1.000000*%
%TD*%
%TA.AperFunction,ViaPad*%
%ADD29C,0.500000*%
%TD*%
%TA.AperFunction,ViaPad*%
%ADD30C,0.800000*%
%TD*%
%TA.AperFunction,Conductor*%
%ADD31C,0.250000*%
%TD*%
%TA.AperFunction,Conductor*%
%ADD32C,0.200000*%
%TD*%
%TA.AperFunction,Conductor*%
%ADD33C,1.000000*%
%TD*%
%TA.AperFunction,Conductor*%
%ADD34C,0.600000*%
%TD*%
%TA.AperFunction,Conductor*%
%ADD35C,1.500000*%
%TD*%
G04 APERTURE END LIST*
D10*
%TO.P,Cbst1,1*%
%TO.N,Net-(U4-BOOT)*%
X151356500Y-90620000D03*
%TO.P,Cbst1,2*%
%TO.N,Net-(U4-SW)*%
X152491500Y-90620000D03*
%TD*%
D11*
%TO.P,C5,1*%
%TO.N,Net-(C5-Pad1)*%
X113510000Y-88630000D03*
%TO.P,C5,2*%
%TO.N,Net-(J3-Pin_1)*%
X103510000Y-88630000D03*
%TD*%
D12*
%TO.P,RfBT1,1*%
%TO.N,Net-(U4-FB)*%
X152315000Y-92380000D03*
%TO.P,RfBT1,2*%
%TO.N,5V*%
X153510000Y-92380000D03*
%TD*%
D13*
%TO.P,J6,1,Pin_1*%
%TO.N,GND*%
X156510000Y-89880000D03*
%TD*%
D14*
%TO.P,D1,1,K*%
%TO.N,Net-(D1-K)*%
X147510000Y-99130000D03*
%TO.P,D1,2,A*%
%TO.N,Net-(D1-A)*%
X152510000Y-99130000D03*
%TD*%
D15*
%TO.P,H4,1*%
%TO.N,N/C*%
X101360000Y-64130000D03*
X101843274Y-62963274D03*
X101843274Y-65296726D03*
X103010000Y-62480000D03*
D16*
X103010000Y-64130000D03*
D15*
X103010000Y-65780000D03*
X104176726Y-62963274D03*
X104176726Y-65296726D03*
X104660000Y-64130000D03*
%TD*%
D17*
%TO.P,Cout1,1*%
%TO.N,5V*%
X149297500Y-77880000D03*
%TO.P,Cout1,2*%
%TO.N,GND*%
X152422500Y-77880000D03*
%TD*%
D18*
%TO.P,Cff1,1*%
%TO.N,5V*%
X153527500Y-95880000D03*
%TO.P,Cff1,2*%
%TO.N,Net-(U4-FB)*%
X152392500Y-95880000D03*
%TD*%
D15*
%TO.P,H1,1*%
%TO.N,N/C*%
X101360000Y-105630000D03*
X101843274Y-104463274D03*
X101843274Y-106796726D03*
X103010000Y-103980000D03*
D16*
X103010000Y-105630000D03*
D15*
X103010000Y-107280000D03*
X104176726Y-104463274D03*
X104176726Y-106796726D03*
X104660000Y-105630000D03*
%TD*%
D19*
%TO.P,L1,1,1*%
%TO.N,Net-(U4-SW)*%
X149010000Y-86880000D03*
%TO.P,L1,2,2*%
%TO.N,5V*%
X149010000Y-81430000D03*
%TD*%
D13*
%TO.P,J3,1,Pin_1*%
%TO.N,Net-(J3-Pin_1)*%
X103564000Y-70880000D03*
%TD*%
%TO.P,J2,1,Pin_1*%
%TO.N,Net-(J2-Pin_1)*%
X103500000Y-78880000D03*
%TD*%
D20*
%TO.P,Rfbb1,1*%
%TO.N,GND*%
X153510000Y-94130000D03*
%TO.P,Rfbb1,2*%
%TO.N,Net-(U4-FB)*%
X152315000Y-94130000D03*
%TD*%
D21*
%TO.P,C6,1*%
%TO.N,Net-(D1-K)*%
X148330000Y-96090000D03*
%TO.P,C6,2*%
%TO.N,GND*%
X150230000Y-96090000D03*
%TD*%
D22*
%TO.P,FL1,1,1*%
%TO.N,Net-(C5-Pad1)*%
X104144000Y-93330000D03*
D23*
%TO.P,FL1,2,2*%
%TO.N,Net-(U1-AC1)*%
X104144000Y-100330000D03*
%TO.P,FL1,3,3*%
%TO.N,Net-(U1-AC2)*%
X112144000Y-100330000D03*
%TO.P,FL1,4,4*%
%TO.N,Net-(J3-Pin_1)*%
X112144000Y-93330000D03*
%TD*%
D15*
%TO.P,H2,1*%
%TO.N,N/C*%
X155360000Y-105630000D03*
X155843274Y-104463274D03*
X155843274Y-106796726D03*
X157010000Y-103980000D03*
D16*
X157010000Y-105630000D03*
D15*
X157010000Y-107280000D03*
X158176726Y-104463274D03*
X158176726Y-106796726D03*
X158660000Y-105630000D03*
%TD*%
D24*
%TO.P,RV1,1*%
%TO.N,Net-(C5-Pad1)*%
X111100000Y-77637500D03*
%TO.P,RV1,2*%
%TO.N,Net-(J3-Pin_1)*%
X114000000Y-70137500D03*
%TD*%
D13*
%TO.P,J5,1,Pin_1*%
%TO.N,Net-(D1-A)*%
X149510000Y-105130000D03*
%TD*%
D22*
%TO.P,F1,1*%
%TO.N,Net-(J2-Pin_1)*%
X107970000Y-83630000D03*
%TO.P,F1,2*%
%TO.N,Net-(C5-Pad1)*%
X113050000Y-83640000D03*
%TD*%
D25*
%TO.P,U4,1,GND*%
%TO.N,GND*%
X148510000Y-92180000D03*
%TO.P,U4,2,SW*%
%TO.N,Net-(U4-SW)*%
X148510000Y-93130000D03*
%TO.P,U4,3,VIN*%
%TO.N,Net-(D1-K)*%
X148510000Y-94080000D03*
%TO.P,U4,4,FB*%
%TO.N,Net-(U4-FB)*%
X150785000Y-94080000D03*
%TO.P,U4,5,EN*%
%TO.N,unconnected-(U4-EN-Pad5)*%
X150785000Y-93130000D03*
%TO.P,U4,6,BOOT*%
%TO.N,Net-(U4-BOOT)*%
X150785000Y-92180000D03*
%TD*%
D26*
%TO.P,U1,1,AC1*%
%TO.N,Net-(U1-AC1)*%
X126860000Y-106130000D03*
%TO.P,U1,2,AC2*%
%TO.N,Net-(U1-AC2)*%
X134660000Y-106130000D03*
%TO.P,U1,3,VO+*%
%TO.N,5V*%
X142060000Y-63630000D03*
%TO.P,U1,4,VO-*%
%TO.N,GND*%
X119460000Y-63630000D03*
%TD*%
D22*
%TO.P,J1,1,Pin_1*%
%TO.N,5V_OUT*%
X125010000Y-84880000D03*
%TD*%
%TO.P,J4,1,Pin_1*%
%TO.N,GND*%
X130010000Y-84880000D03*
%TD*%
D27*
%TO.P,J7,1,Pin_1*%
%TO.N,3V3*%
X111760000Y-62880000D03*
D28*
%TO.P,J7,2,Pin_2*%
%TO.N,/TXD0*%
X110490000Y-62880000D03*
%TO.P,J7,3,Pin_3*%
%TO.N,/RXD0*%
X109220000Y-62880000D03*
%TO.P,J7,4,Pin_4*%
%TO.N,GND*%
X107950000Y-62880000D03*
%TD*%
D29*
%TO.N,5V*%
X153344000Y-87300000D03*
X153620000Y-94940000D03*
X153401225Y-91402775D03*
%TO.N,GND*%
X125510000Y-76880000D03*
X159284000Y-94080000D03*
X125510000Y-92130000D03*
X144760000Y-90380000D03*
X141010000Y-76380000D03*
X143760000Y-90380000D03*
X150510000Y-89380000D03*
D30*
X143552000Y-78196000D03*
D29*
X138010000Y-100880000D03*
X152604000Y-85770000D03*
X140510000Y-89380000D03*
X148760000Y-71380000D03*
X149760000Y-61880000D03*
X152010000Y-88880000D03*
X159464000Y-87560000D03*
X149260000Y-62880000D03*
D30*
X143552000Y-75148000D03*
D29*
X144760000Y-89380000D03*
X151510000Y-89630000D03*
X123010000Y-91380000D03*
D30*
X143552000Y-76672000D03*
D29*
X121760000Y-93130000D03*
X148260000Y-89380000D03*
D30*
X145050000Y-78204000D03*
D29*
X140510000Y-90380000D03*
X129010000Y-69880000D03*
X153260000Y-63130000D03*
X150510000Y-90380000D03*
X125760000Y-69630000D03*
X159510000Y-91380000D03*
X145740000Y-91310000D03*
D30*
X145050000Y-76680000D03*
D29*
X149510000Y-89380000D03*
X152794000Y-65140000D03*
X122510000Y-62630000D03*
D30*
X146600000Y-76672000D03*
D29*
X136510000Y-98380000D03*
X137260000Y-64630000D03*
X138510000Y-103380000D03*
X147010000Y-90380000D03*
D30*
X146600000Y-75148000D03*
D29*
X145760000Y-89380000D03*
X151510000Y-71380000D03*
X144260000Y-71630000D03*
X133010000Y-100130000D03*
X146900000Y-91330000D03*
D30*
X146600000Y-78196000D03*
D29*
X149510000Y-90380000D03*
X148260000Y-90380000D03*
X138010000Y-94630000D03*
X146870000Y-92380000D03*
X135510000Y-97130000D03*
D30*
X145050000Y-75156000D03*
D29*
X154010000Y-87630000D03*
X145760000Y-90380000D03*
X117010000Y-64380000D03*
X147010000Y-89380000D03*
X143760000Y-89380000D03*
X125084000Y-102250000D03*
X156760000Y-97630000D03*
X128760000Y-80630000D03*
X151260000Y-88880000D03*
X145700000Y-92390000D03*
X152044000Y-65390000D03*
X137260000Y-80880000D03*
X127010000Y-99130000D03*
X125510000Y-72630000D03*
X153260000Y-93380000D03*
%TO.N,/IO0*%
X128794000Y-67140000D03*
X120510000Y-100880000D03*
%TO.N,Net-(ESP1-RXD0)*%
X113010000Y-67880000D03*
X126760000Y-66155000D03*
%TO.N,Net-(ESP1-TXD0)*%
X127510000Y-65355500D03*
X113535000Y-65405000D03*
%TO.N,3V3*%
X132135000Y-71505000D03*
%TO.N,/CHARGER_EN*%
X118760000Y-89630000D03*
X118260000Y-73130000D03*
%TO.N,Net-(U4-SW)*%
X144260000Y-92380000D03*
X143510000Y-92380000D03*
X143760000Y-87380000D03*
X143010000Y-87380000D03*
X142760000Y-91630000D03*
X143510000Y-93130000D03*
X143010000Y-88130000D03*
X144260000Y-91630000D03*
X142260000Y-87380000D03*
X141510000Y-87380000D03*
X141510000Y-88130000D03*
X144260000Y-93130000D03*
X142760000Y-93130000D03*
X151260000Y-87380000D03*
X143760000Y-88130000D03*
X143510000Y-91630000D03*
X152604000Y-89510000D03*
X142260000Y-88130000D03*
X142760000Y-92380000D03*
%TD*%
D31*
%TO.N,5V*%
X153510000Y-92380000D02*
X153510000Y-91511550D01*
D32*
X153620000Y-95490000D02*
X153480000Y-95630000D01*
X153401225Y-91402775D02*
X153770000Y-91771550D01*
D33*
X149010000Y-73530000D02*
X142060000Y-66580000D01*
D32*
X153344000Y-87300000D02*
X153510000Y-87134000D01*
D31*
X153510000Y-91511550D02*
X153401225Y-91402775D01*
D32*
X153620000Y-94940000D02*
X153620000Y-95490000D01*
X153510000Y-87134000D02*
X153510000Y-82950000D01*
X153770000Y-91771550D02*
X153770000Y-92120000D01*
D33*
X149010000Y-81430000D02*
X149010000Y-73530000D01*
D32*
X153510000Y-82950000D02*
X151990000Y-81430000D01*
D33*
X142060000Y-66580000D02*
X142060000Y-63630000D01*
D32*
X151990000Y-81430000D02*
X149010000Y-81430000D01*
D34*
%TO.N,GND*%
X153510000Y-93630000D02*
X153260000Y-93380000D01*
X153510000Y-94130000D02*
X153510000Y-93630000D01*
D31*
%TO.N,/IO0*%
X119260000Y-88130000D02*
X119260000Y-70630000D01*
X119260000Y-70630000D02*
X121260000Y-68630000D01*
X121260000Y-68630000D02*
X127304000Y-68630000D01*
X120010000Y-100380000D02*
X120010000Y-88880000D01*
X120510000Y-100880000D02*
X120010000Y-100380000D01*
X127304000Y-68630000D02*
X128794000Y-67140000D01*
X120010000Y-88880000D02*
X119260000Y-88130000D01*
%TO.N,Net-(ESP1-RXD0)*%
X126635000Y-66030000D02*
X126760000Y-66155000D01*
X113010000Y-67880000D02*
X114860000Y-66030000D01*
X114860000Y-66030000D02*
X126635000Y-66030000D01*
%TO.N,Net-(ESP1-TXD0)*%
X113535000Y-65405000D02*
X113760000Y-65630000D01*
X113760000Y-65630000D02*
X127235500Y-65630000D01*
X127235500Y-65630000D02*
X127510000Y-65355500D01*
%TO.N,3V3*%
X130260000Y-69630000D02*
X132135000Y-71505000D01*
X130260000Y-63630000D02*
X130260000Y-69630000D01*
X128260000Y-61630000D02*
X130260000Y-63630000D01*
X113010000Y-61630000D02*
X128260000Y-61630000D01*
X111760000Y-62880000D02*
X113010000Y-61630000D01*
D35*
%TO.N,Net-(C5-Pad1)*%
X111100000Y-77637500D02*
X111100000Y-81690000D01*
X108810000Y-93330000D02*
X113510000Y-88630000D01*
X111100000Y-81690000D02*
X113050000Y-83640000D01*
X113050000Y-88170000D02*
X113510000Y-88630000D01*
X113050000Y-83640000D02*
X113050000Y-88170000D01*
X104144000Y-93330000D02*
X108810000Y-93330000D01*
%TO.N,Net-(U1-AC1)*%
X104010000Y-100630000D02*
X104004000Y-100630000D01*
X126860000Y-106130000D02*
X109944000Y-106130000D01*
X109944000Y-106130000D02*
X104144000Y-100330000D01*
D31*
%TO.N,/CHARGER_EN*%
X118260000Y-89130000D02*
X118760000Y-89630000D01*
X118260000Y-73130000D02*
X118260000Y-89130000D01*
D35*
%TO.N,Net-(J3-Pin_1)*%
X113307500Y-70830000D02*
X114000000Y-70137500D01*
X103500000Y-70830000D02*
X113307500Y-70830000D01*
%TO.N,Net-(J2-Pin_1)*%
X103500000Y-78880000D02*
X103500000Y-79160000D01*
X103500000Y-79160000D02*
X107970000Y-83630000D01*
%TO.N,Net-(D1-K)*%
X147210000Y-99130000D02*
X145510000Y-99130000D01*
D31*
%TO.N,Net-(U4-FB)*%
X152315000Y-94130000D02*
X150585000Y-94130000D01*
X152315000Y-92380000D02*
X152315000Y-95600000D01*
X152315000Y-95600000D02*
X152345000Y-95630000D01*
%TO.N,Net-(U4-BOOT)*%
X151356500Y-91608500D02*
X150785000Y-92180000D01*
X151356500Y-90620000D02*
X151356500Y-91608500D01*
%TO.N,Net-(U4-SW)*%
X152491500Y-89622500D02*
X152491500Y-90620000D01*
D32*
X150760000Y-86880000D02*
X151260000Y-87380000D01*
D34*
X142760000Y-92380000D02*
X142760000Y-91630000D01*
X143510000Y-91630000D02*
X142760000Y-91630000D01*
X143510000Y-92380000D02*
X143510000Y-93130000D01*
X143510000Y-91630000D02*
X143510000Y-92380000D01*
X142760000Y-92380000D02*
X143510000Y-92380000D01*
X146510000Y-93130000D02*
X146010000Y-93130000D01*
X146010000Y-93130000D02*
X145510000Y-93130000D01*
X142760000Y-93130000D02*
X143510000Y-92380000D01*
X145510000Y-93130000D02*
X142760000Y-93130000D01*
D31*
X152604000Y-89510000D02*
X152491500Y-89622500D01*
D34*
X148260000Y-93130000D02*
X146510000Y-93130000D01*
D32*
X149010000Y-86880000D02*
X150760000Y-86880000D01*
D34*
X143510000Y-93130000D02*
X143907500Y-93130000D01*
%TD*%
%TA.AperFunction,Conductor*%
%TO.N,Net-(U4-SW)*%
G36*
X144953039Y-91399685D02*
G01*
X144998794Y-91452489D01*
X145010000Y-91504000D01*
X145010000Y-93256000D01*
X144990315Y-93323039D01*
X144937511Y-93368794D01*
X144886000Y-93380000D01*
X142634000Y-93380000D01*
X142566961Y-93360315D01*
X142521206Y-93307511D01*
X142510000Y-93256000D01*
X142510000Y-91504000D01*
X142529685Y-91436961D01*
X142582489Y-91391206D01*
X142634000Y-91380000D01*
X144886000Y-91380000D01*
X144953039Y-91399685D01*
G37*
%TD.AperFunction*%
%TD*%
%TA.AperFunction,Conductor*%
%TO.N,Net-(D1-K)*%
G36*
X149040539Y-93950185D02*
G01*
X149086294Y-94002989D01*
X149097500Y-94054500D01*
X149097500Y-97506000D01*
X149077815Y-97573039D01*
X149025011Y-97618794D01*
X148973500Y-97630000D01*
X148097500Y-97630000D01*
X148097500Y-100506000D01*
X148077815Y-100573039D01*
X148025011Y-100618794D01*
X147973500Y-100630000D01*
X142621500Y-100630000D01*
X142554461Y-100610315D01*
X142508706Y-100557511D01*
X142497500Y-100506000D01*
X142497500Y-96754000D01*
X142517185Y-96686961D01*
X142569989Y-96641206D01*
X142621500Y-96630000D01*
X144697500Y-96630000D01*
X144697500Y-94054500D01*
X144717185Y-93987461D01*
X144769989Y-93941706D01*
X144821500Y-93930500D01*
X148973500Y-93930500D01*
X149040539Y-93950185D01*
G37*
%TD.AperFunction*%
%TD*%
%TA.AperFunction,Conductor*%
%TO.N,Net-(D1-A)*%
G36*
X148013582Y-106426654D02*
G01*
X148213346Y-106626418D01*
X148301295Y-106692256D01*
X147206509Y-107787043D01*
X147199276Y-107817489D01*
X147148939Y-107865945D01*
X147091596Y-107880000D01*
X146884000Y-107880000D01*
X146816961Y-107860315D01*
X146771206Y-107807511D01*
X146760000Y-107756000D01*
X146760000Y-107548402D01*
X146779685Y-107481363D01*
X146832489Y-107435608D01*
X146855148Y-107431296D01*
X147947742Y-106338702D01*
X148013582Y-106426654D01*
G37*
%TD.AperFunction*%
%TA.AperFunction,Conductor*%
G36*
X154203039Y-98149685D02*
G01*
X154248794Y-98202489D01*
X154260000Y-98254000D01*
X154260000Y-107756000D01*
X154240315Y-107823039D01*
X154187511Y-107868794D01*
X154136000Y-107880000D01*
X151928403Y-107880000D01*
X151861364Y-107860315D01*
X151815609Y-107807511D01*
X151811297Y-107784851D01*
X150718703Y-106692256D01*
X150806654Y-106626418D01*
X151006418Y-106426654D01*
X151072256Y-106338703D01*
X152156701Y-107423148D01*
X152156702Y-107423148D01*
X152345450Y-107190065D01*
X152545245Y-106882406D01*
X152711795Y-106555535D01*
X152843263Y-106213051D01*
X152938215Y-105858686D01*
X152938215Y-105858684D01*
X152995602Y-105496353D01*
X153014803Y-105130000D01*
X153014803Y-105129999D01*
X152995602Y-104763646D01*
X152938215Y-104401315D01*
X152938215Y-104401313D01*
X152843263Y-104046948D01*
X152711795Y-103704464D01*
X152545245Y-103377594D01*
X152345450Y-103069935D01*
X152156701Y-102836851D01*
X151072256Y-103921295D01*
X151006418Y-103833346D01*
X150806654Y-103633582D01*
X150718703Y-103567742D01*
X151803148Y-102483297D01*
X151570064Y-102294549D01*
X151262406Y-102094754D01*
X150935535Y-101928204D01*
X150590012Y-101795570D01*
X150590559Y-101794142D01*
X150537883Y-101758001D01*
X150510786Y-101693599D01*
X150510000Y-101679659D01*
X150510000Y-98254000D01*
X150529685Y-98186961D01*
X150582489Y-98141206D01*
X150634000Y-98130000D01*
X154136000Y-98130000D01*
X154203039Y-98149685D01*
G37*
%TD.AperFunction*%
%TA.AperFunction,Conductor*%
G36*
X147370010Y-102149685D02*
G01*
X147415765Y-102202489D01*
X147425709Y-102271647D01*
X147396684Y-102335203D01*
X147381007Y-102350366D01*
X147216851Y-102483297D01*
X148301296Y-103567742D01*
X148213346Y-103633582D01*
X148013582Y-103833346D01*
X147947743Y-103921296D01*
X146852954Y-102826508D01*
X146822511Y-102819276D01*
X146774056Y-102768939D01*
X146760000Y-102711596D01*
X146760000Y-102254000D01*
X146779685Y-102186961D01*
X146832489Y-102141206D01*
X146884000Y-102130000D01*
X147302971Y-102130000D01*
X147370010Y-102149685D01*
G37*
%TD.AperFunction*%
%TD*%
%TA.AperFunction,Conductor*%
%TO.N,Net-(U4-SW)*%
G36*
X150703039Y-86649685D02*
G01*
X150748794Y-86702489D01*
X150760000Y-86754000D01*
X150760000Y-88756000D01*
X150740315Y-88823039D01*
X150687511Y-88868794D01*
X150636000Y-88880000D01*
X141134000Y-88880000D01*
X141066961Y-88860315D01*
X141021206Y-88807511D01*
X141010000Y-88756000D01*
X141010000Y-86754000D01*
X141029685Y-86686961D01*
X141082489Y-86641206D01*
X141134000Y-86630000D01*
X150636000Y-86630000D01*
X150703039Y-86649685D01*
G37*
%TD.AperFunction*%
%TD*%
%TA.AperFunction,Conductor*%
%TO.N,GND*%
G36*
X153703039Y-61300185D02*
G01*
X153748794Y-61352989D01*
X153760000Y-61404500D01*
X153760000Y-82334244D01*
X153740315Y-82401283D01*
X153687511Y-82447038D01*
X153618353Y-82456982D01*
X153554797Y-82427957D01*
X153548319Y-82421925D01*
X152249287Y-81122893D01*
X152249256Y-81122864D01*
X152228342Y-81101950D01*
X152228341Y-81101949D01*
X152208600Y-81091890D01*
X152192014Y-81081726D01*
X152174090Y-81068704D01*
X152174091Y-81068704D01*
X152153018Y-81061857D01*
X152135045Y-81054412D01*
X152115307Y-81044355D01*
X152115304Y-81044354D01*
X152093418Y-81040887D01*
X152074507Y-81036346D01*
X152053439Y-81029501D01*
X152053434Y-81029500D01*
X152053433Y-81029500D01*
X152053429Y-81029500D01*
X151184499Y-81029500D01*
X151117460Y-81009815D01*
X151071705Y-80957011D01*
X151060499Y-80905500D01*
X151060499Y-79910143D01*
X151060499Y-79910136D01*
X151060497Y-79910117D01*
X151057586Y-79885012D01*
X151057585Y-79885010D01*
X151057585Y-79885009D01*
X151012206Y-79782235D01*
X150932765Y-79702794D01*
X150932763Y-79702793D01*
X150829992Y-79657415D01*
X150804868Y-79654500D01*
X150804865Y-79654500D01*
X150100343Y-79654500D01*
X150033304Y-79634815D01*
X149987549Y-79582011D01*
X149977605Y-79512853D01*
X150006630Y-79449297D01*
X150025417Y-79431696D01*
X150102922Y-79372922D01*
X150194361Y-79252342D01*
X150249877Y-79111564D01*
X150260500Y-79023102D01*
X150260500Y-76736898D01*
X150249877Y-76648436D01*
X150194361Y-76507658D01*
X150194360Y-76507657D01*
X150194360Y-76507656D01*
X150102922Y-76387077D01*
X149982341Y-76295638D01*
X149889009Y-76258832D01*
X149833866Y-76215926D01*
X149810673Y-76150018D01*
X149810500Y-76143478D01*
X149810500Y-73439807D01*
X149810500Y-73439806D01*
X149801207Y-73399093D01*
X149800042Y-73392233D01*
X149795368Y-73350745D01*
X149795367Y-73350742D01*
X149781576Y-73311328D01*
X149779650Y-73304641D01*
X149770361Y-73263941D01*
X149752244Y-73226320D01*
X149749581Y-73219891D01*
X149735789Y-73180477D01*
X149724577Y-73162635D01*
X149713567Y-73145112D01*
X149710206Y-73139030D01*
X149692091Y-73101412D01*
X149692090Y-73101411D01*
X149666055Y-73068765D01*
X149662028Y-73063089D01*
X149639816Y-73027738D01*
X149512262Y-72900184D01*
X142896819Y-66284740D01*
X142863334Y-66223417D01*
X142860500Y-66197059D01*
X142860500Y-65320817D01*
X142880185Y-65253778D01*
X142930699Y-65209097D01*
X142962775Y-65193651D01*
X143185741Y-65041635D01*
X143383561Y-64858085D01*
X143551815Y-64647102D01*
X143686743Y-64413398D01*
X143785334Y-64162195D01*
X143845383Y-63899103D01*
X143865549Y-63630000D01*
X143863039Y-63596512D01*
X143845383Y-63360898D01*
X143843027Y-63350575D01*
X143785334Y-63097805D01*
X143686743Y-62846602D01*
X143551815Y-62612898D01*
X143383561Y-62401915D01*
X143383560Y-62401914D01*
X143383557Y-62401910D01*
X143185741Y-62218365D01*
X143185741Y-62218364D01*
X142962775Y-62066349D01*
X142962769Y-62066346D01*
X142962768Y-62066345D01*
X142962767Y-62066344D01*
X142719643Y-61949263D01*
X142719645Y-61949263D01*
X142461773Y-61869720D01*
X142461767Y-61869718D01*
X142194936Y-61829500D01*
X142194929Y-61829500D01*
X141925071Y-61829500D01*
X141925063Y-61829500D01*
X141658232Y-61869718D01*
X141658226Y-61869720D01*
X141400358Y-61949262D01*
X141157230Y-62066346D01*
X140934258Y-62218365D01*
X140736442Y-62401910D01*
X140568185Y-62612898D01*
X140433258Y-62846599D01*
X140433256Y-62846603D01*
X140334666Y-63097804D01*
X140334664Y-63097811D01*
X140274616Y-63360898D01*
X140254451Y-63629995D01*
X140254451Y-63630004D01*
X140274616Y-63899101D01*
X140334664Y-64162188D01*
X140334666Y-64162195D01*
X140427998Y-64400000D01*
X140433257Y-64413398D01*
X140568185Y-64647102D01*
X140671711Y-64776919D01*
X140736442Y-64858089D01*
X140923183Y-65031358D01*
X140934259Y-65041635D01*
X141157226Y-65193651D01*
X141189302Y-65209097D01*
X141241161Y-65255918D01*
X141259500Y-65320817D01*
X141259500Y-66670191D01*
X141259501Y-66670200D01*
X141268791Y-66710908D01*
X141269955Y-66717763D01*
X141274632Y-66759259D01*
X141288420Y-66798662D01*
X141290345Y-66805345D01*
X141299639Y-66846061D01*
X141317759Y-66883688D01*
X141320421Y-66890114D01*
X141334212Y-66929525D01*
X141356422Y-66964872D01*
X141359787Y-66970959D01*
X141377910Y-67008589D01*
X141403940Y-67041229D01*
X141407966Y-67046904D01*
X141430182Y-67082259D01*
X141430184Y-67082262D01*
X148173181Y-73825259D01*
X148206666Y-73886582D01*
X148209500Y-73912940D01*
X148209500Y-79530500D01*
X148189815Y-79597539D01*
X148137011Y-79643294D01*
X148085500Y-79654500D01*
X147215143Y-79654500D01*
X147215117Y-79654502D01*
X147190012Y-79657413D01*
X147190008Y-79657415D01*
X147087235Y-79702793D01*
X147007794Y-79782234D01*
X146962415Y-79885006D01*
X146962415Y-79885008D01*
X146959500Y-79910131D01*
X146959500Y-82949856D01*
X146959502Y-82949882D01*
X146962413Y-82974987D01*
X146962415Y-82974991D01*
X147007793Y-83077764D01*
X147007794Y-83077765D01*
X147087235Y-83157206D01*
X147190009Y-83202585D01*
X147215135Y-83205500D01*
X150804864Y-83205499D01*
X150804879Y-83205497D01*
X150804882Y-83205497D01*
X150829987Y-83202586D01*
X150829988Y-83202585D01*
X150829991Y-83202585D01*
X150932765Y-83157206D01*
X151012206Y-83077765D01*
X151057585Y-82974991D01*
X151060500Y-82949865D01*
X151060500Y-81954500D01*
X151080185Y-81887461D01*
X151132989Y-81841706D01*
X151184500Y-81830500D01*
X151772745Y-81830500D01*
X151839784Y-81850185D01*
X151860426Y-81866819D01*
X153073181Y-83079573D01*
X153106666Y-83140896D01*
X153109500Y-83167254D01*
X153109500Y-86724898D01*
X153089815Y-86791937D01*
X153060987Y-86823273D01*
X152951381Y-86907377D01*
X152863137Y-87022377D01*
X152807671Y-87156287D01*
X152807670Y-87156291D01*
X152788750Y-87299999D01*
X152788750Y-87300000D01*
X152807670Y-87443708D01*
X152807671Y-87443712D01*
X152863137Y-87577622D01*
X152863138Y-87577624D01*
X152863139Y-87577625D01*
X152951379Y-87692621D01*
X153066375Y-87780861D01*
X153200291Y-87836330D01*
X153327280Y-87853048D01*
X153343999Y-87855250D01*
X153344000Y-87855250D01*
X153344001Y-87855250D01*
X153358977Y-87853278D01*
X153487709Y-87836330D01*
X153621625Y-87780861D01*
X153736621Y-87692621D01*
X153824861Y-87577625D01*
X153880330Y-87443709D01*
X153899250Y-87300000D01*
X153897035Y-87283176D01*
X153897499Y-87247596D01*
X153899113Y-87237404D01*
X153903655Y-87218494D01*
X153910499Y-87197433D01*
X153910499Y-87168076D01*
X153910500Y-87168051D01*
X153910500Y-87004000D01*
X153930185Y-86936961D01*
X153982989Y-86891206D01*
X154034500Y-86880000D01*
X154745531Y-86880000D01*
X154812570Y-86899685D01*
X154858325Y-86952489D01*
X154868269Y-87021647D01*
X154839244Y-87085203D01*
X154809459Y-87110250D01*
X154683477Y-87186049D01*
X154683460Y-87186061D01*
X154402907Y-87399333D01*
X154402903Y-87399336D01*
X154301843Y-87495065D01*
X154301842Y-87495066D01*
X155201852Y-88395075D01*
X155025075Y-88571852D01*
X154123105Y-87669881D01*
X154123104Y-87669882D01*
X153918900Y-87910291D01*
X153721124Y-88201988D01*
X153556052Y-88513347D01*
X153556043Y-88513365D01*
X153425602Y-88840749D01*
X153425600Y-88840756D01*
X153331325Y-89180306D01*
X153331319Y-89180330D01*
X153325721Y-89214480D01*
X153295449Y-89277452D01*
X153235938Y-89314060D01*
X153166082Y-89312684D01*
X153108060Y-89273758D01*
X153088793Y-89241869D01*
X153087721Y-89239281D01*
X153084861Y-89232375D01*
X152996621Y-89117379D01*
X152881625Y-89029139D01*
X152881624Y-89029138D01*
X152881622Y-89029137D01*
X152747712Y-88973671D01*
X152747710Y-88973670D01*
X152747709Y-88973670D01*
X152675854Y-88964210D01*
X152604001Y-88954750D01*
X152603999Y-88954750D01*
X152460291Y-88973670D01*
X152460287Y-88973671D01*
X152326377Y-89029137D01*
X152211379Y-89117379D01*
X152123137Y-89232377D01*
X152067671Y-89366287D01*
X152067670Y-89366291D01*
X152048750Y-89510000D01*
X152065469Y-89636990D01*
X152066000Y-89645092D01*
X152066000Y-89993481D01*
X152046315Y-90060520D01*
X152015632Y-90093252D01*
X151997631Y-90106537D01*
X151932002Y-90130507D01*
X151863832Y-90115191D01*
X151850365Y-90106536D01*
X151832366Y-90093252D01*
X151784245Y-90057737D01*
X151784243Y-90057736D01*
X151654640Y-90012385D01*
X151623868Y-90009500D01*
X151623864Y-90009500D01*
X151089136Y-90009500D01*
X151089132Y-90009500D01*
X151058360Y-90012385D01*
X151058358Y-90012385D01*
X150928756Y-90057736D01*
X150818275Y-90139275D01*
X150736736Y-90249756D01*
X150691385Y-90379358D01*
X150691385Y-90379360D01*
X150688500Y-90410132D01*
X150688500Y-90829867D01*
X150691385Y-90860639D01*
X150691385Y-90860641D01*
X150736736Y-90990243D01*
X150736737Y-90990245D01*
X150818275Y-91100725D01*
X150880635Y-91146749D01*
X150922884Y-91202394D01*
X150931000Y-91246517D01*
X150931000Y-91380889D01*
X150911315Y-91447928D01*
X150894682Y-91468570D01*
X150820072Y-91543181D01*
X150758749Y-91576666D01*
X150732390Y-91579500D01*
X150218230Y-91579500D01*
X150187800Y-91582353D01*
X150187798Y-91582353D01*
X150059619Y-91627206D01*
X150059617Y-91627207D01*
X149950350Y-91707850D01*
X149869707Y-91817117D01*
X149869706Y-91817119D01*
X149824853Y-91945298D01*
X149824853Y-91945300D01*
X149822000Y-91975730D01*
X149822000Y-92384269D01*
X149824853Y-92414699D01*
X149824853Y-92414701D01*
X149869706Y-92542880D01*
X149869707Y-92542882D01*
X149892629Y-92573941D01*
X149898109Y-92581365D01*
X149922080Y-92646994D01*
X149906765Y-92715165D01*
X149898111Y-92728631D01*
X149869707Y-92767118D01*
X149869706Y-92767119D01*
X149824853Y-92895298D01*
X149824853Y-92895300D01*
X149822000Y-92925730D01*
X149822000Y-93334269D01*
X149824853Y-93364699D01*
X149824853Y-93364701D01*
X149869009Y-93490887D01*
X149869707Y-93492882D01*
X149895885Y-93528353D01*
X149898110Y-93531367D01*
X149922080Y-93596997D01*
X149906764Y-93665167D01*
X149898110Y-93678633D01*
X149869707Y-93717118D01*
X149869706Y-93717119D01*
X149824853Y-93845298D01*
X149824853Y-93845299D01*
X149822425Y-93871192D01*
X149796566Y-93936100D01*
X149739719Y-93976723D01*
X149669934Y-93980164D01*
X149609367Y-93945331D01*
X149582918Y-93898141D01*
X149581290Y-93898683D01*
X149546116Y-93793002D01*
X149546113Y-93792996D01*
X149497349Y-93717119D01*
X149468325Y-93671957D01*
X149450861Y-93651802D01*
X149438373Y-93637390D01*
X149409349Y-93573834D01*
X149419293Y-93504675D01*
X149422459Y-93498242D01*
X149425288Y-93492887D01*
X149425293Y-93492882D01*
X149446302Y-93432841D01*
X149470146Y-93364701D01*
X149470146Y-93364699D01*
X149473000Y-93334269D01*
X149473000Y-92925730D01*
X149470146Y-92895300D01*
X149470146Y-92895298D01*
X149425293Y-92767119D01*
X149425292Y-92767117D01*
X149396888Y-92728631D01*
X149344650Y-92657850D01*
X149235382Y-92577207D01*
X149235380Y-92577206D01*
X149107200Y-92532353D01*
X149076770Y-92529500D01*
X149076766Y-92529500D01*
X148299361Y-92529500D01*
X146549361Y-92529500D01*
X146049361Y-92529500D01*
X145549361Y-92529500D01*
X145439500Y-92529500D01*
X145372461Y-92509815D01*
X145326706Y-92457011D01*
X145315500Y-92405500D01*
X145315500Y-91504009D01*
X145315500Y-91504000D01*
X145308518Y-91439059D01*
X145297312Y-91387549D01*
X145297313Y-91387550D01*
X145286355Y-91349345D01*
X145286354Y-91349344D01*
X145286354Y-91349342D01*
X145229675Y-91252429D01*
X145183920Y-91199625D01*
X145183918Y-91199623D01*
X145183908Y-91199612D01*
X145139192Y-91157451D01*
X145139189Y-91157449D01*
X145139187Y-91157447D01*
X145039111Y-91106561D01*
X145039110Y-91106560D01*
X145039109Y-91106560D01*
X144972078Y-91086877D01*
X144972072Y-91086876D01*
X144886000Y-91074500D01*
X144885997Y-91074500D01*
X143762752Y-91074500D01*
X143715299Y-91065061D01*
X143666762Y-91044956D01*
X143666760Y-91044955D01*
X143640351Y-91041479D01*
X143510001Y-91024318D01*
X143510000Y-91024318D01*
X143474670Y-91028969D01*
X143466572Y-91029500D01*
X142803428Y-91029500D01*
X142795329Y-91028969D01*
X142760000Y-91024318D01*
X142759999Y-91024318D01*
X142629649Y-91041479D01*
X142603239Y-91044955D01*
X142603237Y-91044956D01*
X142457158Y-91105464D01*
X142399109Y-91150005D01*
X142392667Y-91154336D01*
X142382435Y-91160321D01*
X142382426Y-91160327D01*
X142358796Y-91180801D01*
X142355941Y-91183130D01*
X142331718Y-91201717D01*
X142324808Y-91210722D01*
X142320730Y-91215511D01*
X142287446Y-91250812D01*
X142279667Y-91266110D01*
X142267518Y-91285383D01*
X142235463Y-91327160D01*
X142174956Y-91473237D01*
X142174955Y-91473239D01*
X142154318Y-91629998D01*
X142154318Y-91630000D01*
X142158969Y-91665326D01*
X142159500Y-91673427D01*
X142159500Y-92336571D01*
X142158969Y-92344669D01*
X142154318Y-92380000D01*
X142158886Y-92414701D01*
X142159500Y-92419360D01*
X142174955Y-92536760D01*
X142174956Y-92536762D01*
X142195061Y-92585299D01*
X142204500Y-92632752D01*
X142204500Y-92877247D01*
X142195061Y-92924699D01*
X142174957Y-92973234D01*
X142174955Y-92973239D01*
X142154318Y-93129998D01*
X142154318Y-93130000D01*
X142174955Y-93286760D01*
X142174956Y-93286762D01*
X142235464Y-93432842D01*
X142280003Y-93490887D01*
X142284336Y-93497332D01*
X142290325Y-93507571D01*
X142290330Y-93507577D01*
X142290331Y-93507578D01*
X142310793Y-93531193D01*
X142313124Y-93534051D01*
X142331715Y-93558279D01*
X142331716Y-93558280D01*
X142331718Y-93558282D01*
X142340724Y-93565193D01*
X142345512Y-93569268D01*
X142380813Y-93602553D01*
X142396105Y-93610328D01*
X142415388Y-93622484D01*
X142457157Y-93654535D01*
X142457158Y-93654535D01*
X142457159Y-93654536D01*
X142603238Y-93715044D01*
X142681619Y-93725363D01*
X142759999Y-93735682D01*
X142760000Y-93735682D01*
X142795329Y-93731030D01*
X142803428Y-93730500D01*
X143466572Y-93730500D01*
X143474670Y-93731030D01*
X143510000Y-93735682D01*
X143545329Y-93731030D01*
X143553428Y-93730500D01*
X143946861Y-93730500D01*
X144100149Y-93730500D01*
X144167188Y-93750185D01*
X144212943Y-93802989D01*
X144222887Y-93872147D01*
X144219126Y-93889437D01*
X144212478Y-93912075D01*
X144212476Y-93912080D01*
X144192000Y-94054501D01*
X144192000Y-96000500D01*
X144172315Y-96067539D01*
X144119511Y-96113294D01*
X144068000Y-96124500D01*
X142621500Y-96124500D01*
X142621491Y-96124500D01*
X142621490Y-96124501D01*
X142514049Y-96136052D01*
X142514037Y-96136054D01*
X142462527Y-96147260D01*
X142360002Y-96181383D01*
X142359996Y-96181386D01*
X142238962Y-96259171D01*
X142238951Y-96259179D01*
X142186159Y-96304923D01*
X142091933Y-96413664D01*
X142091930Y-96413668D01*
X142032164Y-96544534D01*
X142012478Y-96611575D01*
X142012476Y-96611580D01*
X141996095Y-96725516D01*
X141992000Y-96754000D01*
X141992000Y-100506000D01*
X141992001Y-100506009D01*
X142003552Y-100613450D01*
X142003554Y-100613462D01*
X142014760Y-100664972D01*
X142048883Y-100767497D01*
X142048886Y-100767503D01*
X142126671Y-100888537D01*
X142126679Y-100888548D01*
X142172423Y-100941340D01*
X142172426Y-100941343D01*
X142172430Y-100941347D01*
X142281164Y-101035567D01*
X142281167Y-101035568D01*
X142281168Y-101035569D01*
X142375425Y-101078616D01*
X142412041Y-101095338D01*
X142456857Y-101108497D01*
X142479075Y-101115022D01*
X142479080Y-101115023D01*
X142479084Y-101115024D01*
X142621500Y-101135500D01*
X142621503Y-101135500D01*
X147973490Y-101135500D01*
X147973500Y-101135500D01*
X148080956Y-101123947D01*
X148132467Y-101112741D01*
X148166697Y-101101347D01*
X148234997Y-101078616D01*
X148235001Y-101078613D01*
X148235004Y-101078613D01*
X148356043Y-101000825D01*
X148408847Y-100955070D01*
X148503067Y-100846336D01*
X148562838Y-100715459D01*
X148582523Y-100648420D01*
X148582524Y-100648416D01*
X148603000Y-100506000D01*
X148603000Y-100454500D01*
X148622685Y-100387461D01*
X148675489Y-100341706D01*
X148727000Y-100330500D01*
X149053097Y-100330500D01*
X149053102Y-100330500D01*
X149141564Y-100319877D01*
X149282342Y-100264361D01*
X149402922Y-100172922D01*
X149494361Y-100052342D01*
X149549877Y-99911564D01*
X149560500Y-99823102D01*
X149560500Y-98436898D01*
X149549877Y-98348436D01*
X149494361Y-98207658D01*
X149494360Y-98207657D01*
X149494360Y-98207656D01*
X149413065Y-98100453D01*
X149388242Y-98035142D01*
X149402670Y-97966778D01*
X149418150Y-97944333D01*
X149503067Y-97846336D01*
X149562838Y-97715459D01*
X149582523Y-97648420D01*
X149582524Y-97648416D01*
X149603000Y-97506000D01*
X149603000Y-94410488D01*
X149622685Y-94343449D01*
X149675489Y-94297694D01*
X149744647Y-94287750D01*
X149808203Y-94316775D01*
X149844041Y-94369533D01*
X149869707Y-94442882D01*
X149950350Y-94552150D01*
X150059618Y-94632793D01*
X150102345Y-94647744D01*
X150187799Y-94677646D01*
X150218230Y-94680500D01*
X150218234Y-94680500D01*
X151136000Y-94680500D01*
X151203039Y-94700185D01*
X151248794Y-94752989D01*
X151260000Y-94804500D01*
X151260000Y-96880000D01*
X154760000Y-96840000D01*
X154760000Y-92839312D01*
X154779685Y-92772273D01*
X154832489Y-92726518D01*
X154901647Y-92716574D01*
X154947931Y-92733063D01*
X154985445Y-92755635D01*
X155305273Y-92903603D01*
X155639256Y-93016136D01*
X155983437Y-93091896D01*
X156333788Y-93129999D01*
X156333795Y-93130000D01*
X156686205Y-93130000D01*
X156686211Y-93129999D01*
X157036562Y-93091896D01*
X157380743Y-93016136D01*
X157714726Y-92903603D01*
X158034554Y-92755635D01*
X158336535Y-92573941D01*
X158336539Y-92573938D01*
X158617092Y-92360665D01*
X158617096Y-92360662D01*
X158718155Y-92264933D01*
X158718155Y-92264932D01*
X157818147Y-91364924D01*
X157994924Y-91188147D01*
X158896893Y-92090117D01*
X158896894Y-92090116D01*
X159101102Y-91849704D01*
X159298875Y-91558011D01*
X159463947Y-91246652D01*
X159463956Y-91246634D01*
X159594397Y-90919250D01*
X159594399Y-90919243D01*
X159616020Y-90841373D01*
X159652921Y-90782043D01*
X159716041Y-90752082D01*
X159785339Y-90761003D01*
X159838814Y-90805973D01*
X159859486Y-90872714D01*
X159859500Y-90874546D01*
X159859500Y-108355500D01*
X159839815Y-108422539D01*
X159787011Y-108468294D01*
X159735500Y-108479500D01*
X150662029Y-108479500D01*
X150594990Y-108459815D01*
X150549235Y-108407011D01*
X150539291Y-108337853D01*
X150568316Y-108274297D01*
X150622433Y-108237991D01*
X150733435Y-108200591D01*
X151058253Y-108050315D01*
X151341347Y-107879982D01*
X151408938Y-107862287D01*
X151475367Y-107883943D01*
X151492956Y-107898552D01*
X151549136Y-107954732D01*
X151568493Y-107979813D01*
X151584723Y-108007565D01*
X151584726Y-108007568D01*
X151584728Y-108007571D01*
X151624879Y-108053908D01*
X151630484Y-108060376D01*
X151630494Y-108060387D01*
X151675210Y-108102548D01*
X151675212Y-108102549D01*
X151675216Y-108102553D01*
X151775292Y-108153439D01*
X151842331Y-108173124D01*
X151928403Y-108185500D01*
X151928406Y-108185500D01*
X154135990Y-108185500D01*
X154136000Y-108185500D01*
X154200941Y-108178518D01*
X154252450Y-108167312D01*
X154252450Y-108167313D01*
X154280846Y-108159168D01*
X154290658Y-108156354D01*
X154387571Y-108099675D01*
X154440375Y-108053920D01*
X154440382Y-108053912D01*
X154440387Y-108053908D01*
X154482548Y-108009192D01*
X154482553Y-108009187D01*
X154533439Y-107909111D01*
X154553124Y-107842072D01*
X154565500Y-107756000D01*
X154565500Y-106862677D01*
X154585185Y-106795638D01*
X154637989Y-106749883D01*
X154707147Y-106739939D01*
X154770703Y-106768964D01*
X154801697Y-106809879D01*
X154813088Y-106834085D01*
X154814464Y-106837009D01*
X154983051Y-107102661D01*
X154983054Y-107102665D01*
X155183606Y-107345090D01*
X155183608Y-107345092D01*
X155183610Y-107345094D01*
X155400111Y-107548402D01*
X155412968Y-107560476D01*
X155412978Y-107560484D01*
X155667504Y-107745408D01*
X155667509Y-107745410D01*
X155667516Y-107745416D01*
X155943234Y-107896994D01*
X155943239Y-107896996D01*
X155943241Y-107896997D01*
X155943242Y-107896998D01*
X156235771Y-108012818D01*
X156235774Y-108012819D01*
X156420993Y-108060375D01*
X156540527Y-108091066D01*
X156606010Y-108099338D01*
X156852670Y-108130499D01*
X156852679Y-108130499D01*
X156852682Y-108130500D01*
X156852684Y-108130500D01*
X157167316Y-108130500D01*
X157167318Y-108130500D01*
X157167321Y-108130499D01*
X157167329Y-108130499D01*
X157388543Y-108102553D01*
X157479473Y-108091066D01*
X157784225Y-108012819D01*
X157793386Y-108009192D01*
X158076757Y-107896998D01*
X158076758Y-107896997D01*
X158076756Y-107896997D01*
X158076766Y-107896994D01*
X158352484Y-107745416D01*
X158607030Y-107560478D01*
X158836390Y-107345094D01*
X159036947Y-107102663D01*
X159205537Y-106837007D01*
X159339503Y-106552315D01*
X159436731Y-106253079D01*
X159495688Y-105944015D01*
X159495689Y-105944004D01*
X159515444Y-105630005D01*
X159515444Y-105629994D01*
X159495689Y-105315995D01*
X159495688Y-105315988D01*
X159495688Y-105315985D01*
X159436731Y-105006921D01*
X159339503Y-104707685D01*
X159205537Y-104422993D01*
X159036947Y-104157337D01*
X158968501Y-104074600D01*
X158836393Y-103914909D01*
X158836391Y-103914907D01*
X158652383Y-103742111D01*
X158607030Y-103699522D01*
X158607027Y-103699520D01*
X158607021Y-103699515D01*
X158352495Y-103514591D01*
X158352488Y-103514586D01*
X158352484Y-103514584D01*
X158076766Y-103363006D01*
X158076763Y-103363004D01*
X158076758Y-103363002D01*
X158076757Y-103363001D01*
X157784228Y-103247181D01*
X157784225Y-103247180D01*
X157479476Y-103168934D01*
X157479463Y-103168932D01*
X157167329Y-103129500D01*
X157167318Y-103129500D01*
X156852682Y-103129500D01*
X156852670Y-103129500D01*
X156540536Y-103168932D01*
X156540523Y-103168934D01*
X156235774Y-103247180D01*
X156235771Y-103247181D01*
X155943242Y-103363001D01*
X155943241Y-103363002D01*
X155667516Y-103514584D01*
X155667504Y-103514591D01*
X155412978Y-103699515D01*
X155412968Y-103699523D01*
X155183608Y-103914907D01*
X155183606Y-103914909D01*
X154983054Y-104157334D01*
X154983051Y-104157338D01*
X154814464Y-104422990D01*
X154814460Y-104422996D01*
X154801698Y-104450119D01*
X154755343Y-104502397D01*
X154688083Y-104521314D01*
X154621273Y-104500864D01*
X154576124Y-104447541D01*
X154565500Y-104397322D01*
X154565500Y-98254009D01*
X154565500Y-98254000D01*
X154558518Y-98189059D01*
X154547312Y-98137549D01*
X154547313Y-98137550D01*
X154536355Y-98099345D01*
X154536354Y-98099344D01*
X154536354Y-98099342D01*
X154479675Y-98002429D01*
X154433920Y-97949625D01*
X154433918Y-97949623D01*
X154433908Y-97949612D01*
X154389192Y-97907451D01*
X154389189Y-97907449D01*
X154389187Y-97907447D01*
X154289111Y-97856561D01*
X154289110Y-97856560D01*
X154289109Y-97856560D01*
X154222078Y-97836877D01*
X154222072Y-97836876D01*
X154136000Y-97824500D01*
X150634000Y-97824500D01*
X150633991Y-97824500D01*
X150633990Y-97824501D01*
X150569064Y-97831481D01*
X150569052Y-97831483D01*
X150532682Y-97839395D01*
X150517549Y-97842687D01*
X150517550Y-97842687D01*
X150479345Y-97853644D01*
X150479341Y-97853646D01*
X150382431Y-97910323D01*
X150382428Y-97910325D01*
X150329623Y-97956081D01*
X150329612Y-97956091D01*
X150287451Y-98000807D01*
X150287445Y-98000816D01*
X150236560Y-98100890D01*
X150216877Y-98167921D01*
X150216875Y-98167928D01*
X150216876Y-98167928D01*
X150204502Y-98253990D01*
X150204500Y-98254002D01*
X150204500Y-101683962D01*
X150204742Y-101692563D01*
X150205769Y-101710790D01*
X150205770Y-101710800D01*
X150208533Y-101722744D01*
X150204461Y-101792495D01*
X150163325Y-101848972D01*
X150098186Y-101874244D01*
X150061067Y-101871787D01*
X150044747Y-101868195D01*
X149688949Y-101829500D01*
X149688948Y-101829500D01*
X149331052Y-101829500D01*
X149331050Y-101829500D01*
X148975255Y-101868194D01*
X148625726Y-101945131D01*
X148369970Y-102031306D01*
X148286565Y-102059409D01*
X148286562Y-102059410D01*
X148286563Y-102059410D01*
X148286552Y-102059414D01*
X147961755Y-102209680D01*
X147904321Y-102244237D01*
X147836729Y-102261932D01*
X147770300Y-102240275D01*
X147726126Y-102186142D01*
X147718700Y-102161792D01*
X147718158Y-102159021D01*
X147703710Y-102100890D01*
X147703325Y-102099342D01*
X147646646Y-102002429D01*
X147600891Y-101949625D01*
X147600889Y-101949623D01*
X147600879Y-101949612D01*
X147556163Y-101907451D01*
X147556160Y-101907449D01*
X147556158Y-101907447D01*
X147456082Y-101856561D01*
X147456081Y-101856560D01*
X147456080Y-101856560D01*
X147389049Y-101836877D01*
X147389043Y-101836876D01*
X147302971Y-101824500D01*
X146884000Y-101824500D01*
X146883991Y-101824500D01*
X146883990Y-101824501D01*
X146819064Y-101831481D01*
X146819052Y-101831483D01*
X146782682Y-101839395D01*
X146767549Y-101842687D01*
X146767550Y-101842687D01*
X146729345Y-101853644D01*
X146729341Y-101853646D01*
X146632431Y-101910323D01*
X146632428Y-101910325D01*
X146579623Y-101956081D01*
X146579612Y-101956091D01*
X146537451Y-102000807D01*
X146537445Y-102000816D01*
X146486560Y-102100890D01*
X146466877Y-102167921D01*
X146466875Y-102167928D01*
X146466876Y-102167928D01*
X146454500Y-102254000D01*
X146454500Y-102711596D01*
X146463284Y-102784327D01*
X146477340Y-102841670D01*
X146492287Y-102886992D01*
X146553960Y-102980806D01*
X146602415Y-103031143D01*
X146618762Y-103045014D01*
X146649298Y-103070926D01*
X146657088Y-103074386D01*
X146694430Y-103100027D01*
X146743733Y-103149329D01*
X146777219Y-103210652D01*
X146772235Y-103280343D01*
X146758687Y-103306598D01*
X146677789Y-103425914D01*
X146510151Y-103742111D01*
X146510142Y-103742129D01*
X146377674Y-104074600D01*
X146377672Y-104074607D01*
X146281932Y-104419434D01*
X146281926Y-104419460D01*
X146224029Y-104772614D01*
X146224028Y-104772631D01*
X146204652Y-105129997D01*
X146204652Y-105130002D01*
X146224028Y-105487368D01*
X146224029Y-105487385D01*
X146281926Y-105840539D01*
X146281932Y-105840565D01*
X146377672Y-106185392D01*
X146377674Y-106185399D01*
X146510142Y-106517870D01*
X146510151Y-106517888D01*
X146677789Y-106834085D01*
X146758685Y-106953399D01*
X146780013Y-107019934D01*
X146761985Y-107087438D01*
X146743732Y-107110667D01*
X146685261Y-107169138D01*
X146660184Y-107188493D01*
X146632429Y-107204726D01*
X146632423Y-107204730D01*
X146579634Y-107250473D01*
X146579612Y-107250493D01*
X146537451Y-107295209D01*
X146537445Y-107295218D01*
X146486560Y-107395292D01*
X146466877Y-107462323D01*
X146466875Y-107462330D01*
X146466876Y-107462330D01*
X146454500Y-107548402D01*
X146454500Y-107756000D01*
X146461482Y-107820941D01*
X146472165Y-107870050D01*
X146472688Y-107872451D01*
X146472687Y-107872450D01*
X146483644Y-107910654D01*
X146483646Y-107910658D01*
X146525901Y-107982909D01*
X146540325Y-108007571D01*
X146577366Y-108050319D01*
X146586081Y-108060376D01*
X146586091Y-108060387D01*
X146630807Y-108102548D01*
X146630809Y-108102549D01*
X146630813Y-108102553D01*
X146730889Y-108153439D01*
X146797928Y-108173124D01*
X146884000Y-108185500D01*
X146884003Y-108185500D01*
X147091590Y-108185500D01*
X147091596Y-108185500D01*
X147164323Y-108176717D01*
X147221666Y-108162662D01*
X147266994Y-108147713D01*
X147360809Y-108086039D01*
X147411146Y-108037583D01*
X147450925Y-107990704D01*
X147454388Y-107982906D01*
X147480029Y-107945564D01*
X147495094Y-107930499D01*
X147527041Y-107898551D01*
X147588363Y-107865066D01*
X147658054Y-107870050D01*
X147678651Y-107879982D01*
X147961750Y-108050317D01*
X147961755Y-108050319D01*
X148214633Y-108167312D01*
X148286565Y-108200591D01*
X148397566Y-108237991D01*
X148454809Y-108278051D01*
X148481309Y-108342701D01*
X148468649Y-108411414D01*
X148420850Y-108462375D01*
X148357971Y-108479500D01*
X116168000Y-108479500D01*
X116100961Y-108459815D01*
X116055206Y-108407011D01*
X116044000Y-108355500D01*
X116044000Y-107304500D01*
X116063685Y-107237461D01*
X116116489Y-107191706D01*
X116168000Y-107180500D01*
X125335104Y-107180500D01*
X125402143Y-107200185D01*
X125432051Y-107227187D01*
X125536442Y-107358089D01*
X125648788Y-107462330D01*
X125734259Y-107541635D01*
X125957226Y-107693651D01*
X126200359Y-107810738D01*
X126458228Y-107890280D01*
X126458229Y-107890280D01*
X126458232Y-107890281D01*
X126725063Y-107930499D01*
X126725068Y-107930499D01*
X126725071Y-107930500D01*
X126725072Y-107930500D01*
X126994928Y-107930500D01*
X126994929Y-107930500D01*
X126994936Y-107930499D01*
X127261767Y-107890281D01*
X127261768Y-107890280D01*
X127261772Y-107890280D01*
X127519641Y-107810738D01*
X127762775Y-107693651D01*
X127985741Y-107541635D01*
X128183561Y-107358085D01*
X128351815Y-107147102D01*
X128486743Y-106913398D01*
X128585334Y-106662195D01*
X128645383Y-106399103D01*
X128652105Y-106309401D01*
X128665549Y-106130004D01*
X132854451Y-106130004D01*
X132874616Y-106399101D01*
X132934664Y-106662188D01*
X132934666Y-106662195D01*
X133002128Y-106834085D01*
X133033257Y-106913398D01*
X133168185Y-107147102D01*
X133250621Y-107250473D01*
X133336442Y-107358089D01*
X133448788Y-107462330D01*
X133534259Y-107541635D01*
X133757226Y-107693651D01*
X134000359Y-107810738D01*
X134258228Y-107890280D01*
X134258229Y-107890280D01*
X134258232Y-107890281D01*
X134525063Y-107930499D01*
X134525068Y-107930499D01*
X134525071Y-107930500D01*
X134525072Y-107930500D01*
X134794928Y-107930500D01*
X134794929Y-107930500D01*
X134794936Y-107930499D01*
X135061767Y-107890281D01*
X135061768Y-107890280D01*
X135061772Y-107890280D01*
X135319641Y-107810738D01*
X135562775Y-107693651D01*
X135785741Y-107541635D01*
X135983561Y-107358085D01*
X136151815Y-107147102D01*
X136286743Y-106913398D01*
X136385334Y-106662195D01*
X136445383Y-106399103D01*
X136452105Y-106309401D01*
X136465549Y-106130004D01*
X136465549Y-106129995D01*
X136445383Y-105860898D01*
X136385335Y-105597811D01*
X136385334Y-105597805D01*
X136286743Y-105346602D01*
X136151815Y-105112898D01*
X135983561Y-104901915D01*
X135983560Y-104901914D01*
X135983557Y-104901910D01*
X135785741Y-104718365D01*
X135770066Y-104707678D01*
X135562775Y-104566349D01*
X135562769Y-104566346D01*
X135562768Y-104566345D01*
X135562767Y-104566344D01*
X135319643Y-104449263D01*
X135319645Y-104449263D01*
X135061773Y-104369720D01*
X135061767Y-104369718D01*
X134794936Y-104329500D01*
X134794929Y-104329500D01*
X134525071Y-104329500D01*
X134525063Y-104329500D01*
X134258232Y-104369718D01*
X134258226Y-104369720D01*
X134000358Y-104449262D01*
X133757230Y-104566346D01*
X133534258Y-104718365D01*
X133336442Y-104901910D01*
X133168185Y-105112898D01*
X133033258Y-105346599D01*
X133033256Y-105346603D01*
X132934666Y-105597804D01*
X132934664Y-105597811D01*
X132874616Y-105860898D01*
X132854451Y-106129995D01*
X132854451Y-106130004D01*
X128665549Y-106130004D01*
X128665549Y-106129995D01*
X128645383Y-105860898D01*
X128585335Y-105597811D01*
X128585334Y-105597805D01*
X128486743Y-105346602D01*
X128351815Y-105112898D01*
X128183561Y-104901915D01*
X128183560Y-104901914D01*
X128183557Y-104901910D01*
X127985741Y-104718365D01*
X127970066Y-104707678D01*
X127762775Y-104566349D01*
X127762769Y-104566346D01*
X127762768Y-104566345D01*
X127762767Y-104566344D01*
X127519643Y-104449263D01*
X127519645Y-104449263D01*
X127261773Y-104369720D01*
X127261767Y-104369718D01*
X126994936Y-104329500D01*
X126994929Y-104329500D01*
X126725071Y-104329500D01*
X126725063Y-104329500D01*
X126458232Y-104369718D01*
X126458226Y-104369720D01*
X126200358Y-104449262D01*
X125957230Y-104566346D01*
X125734258Y-104718365D01*
X125536442Y-104901910D01*
X125432051Y-105032813D01*
X125374862Y-105072953D01*
X125335104Y-105079500D01*
X116168000Y-105079500D01*
X116100961Y-105059815D01*
X116055206Y-105007011D01*
X116044000Y-104955500D01*
X116044000Y-73130000D01*
X117704750Y-73130000D01*
X117723670Y-73273708D01*
X117723671Y-73273712D01*
X117779137Y-73407622D01*
X117779138Y-73407624D01*
X117779139Y-73407625D01*
X117808875Y-73446378D01*
X117834070Y-73511545D01*
X117834500Y-73521864D01*
X117834500Y-89197394D01*
X117841962Y-89220358D01*
X117846503Y-89239273D01*
X117849470Y-89258010D01*
X117850281Y-89263127D01*
X117861243Y-89284641D01*
X117868688Y-89302615D01*
X117876150Y-89325580D01*
X117890340Y-89345110D01*
X117900508Y-89361703D01*
X117911470Y-89383218D01*
X118182035Y-89653783D01*
X118215520Y-89715106D01*
X118217293Y-89725276D01*
X118223670Y-89773710D01*
X118279137Y-89907622D01*
X118279138Y-89907624D01*
X118279139Y-89907625D01*
X118367379Y-90022621D01*
X118482375Y-90110861D01*
X118482376Y-90110861D01*
X118482377Y-90110862D01*
X118515735Y-90124679D01*
X118616291Y-90166330D01*
X118743280Y-90183048D01*
X118759999Y-90185250D01*
X118760000Y-90185250D01*
X118760001Y-90185250D01*
X118774977Y-90183278D01*
X118903709Y-90166330D01*
X119037625Y-90110861D01*
X119152621Y-90022621D01*
X119240861Y-89907625D01*
X119296330Y-89773709D01*
X119315250Y-89630000D01*
X119296330Y-89486291D01*
X119246625Y-89366291D01*
X119240862Y-89352377D01*
X119240861Y-89352376D01*
X119240861Y-89352375D01*
X119152621Y-89237379D01*
X119037625Y-89149139D01*
X119037624Y-89149138D01*
X119037622Y-89149137D01*
X118903710Y-89093670D01*
X118855276Y-89087293D01*
X118791380Y-89059025D01*
X118783783Y-89052035D01*
X118721819Y-88990071D01*
X118688334Y-88928748D01*
X118685500Y-88902390D01*
X118685500Y-88453829D01*
X118705185Y-88386790D01*
X118757989Y-88341035D01*
X118827147Y-88331091D01*
X118890703Y-88360116D01*
X118909817Y-88380941D01*
X118911470Y-88383216D01*
X118911472Y-88383220D01*
X118935445Y-88407193D01*
X118935446Y-88407194D01*
X119253612Y-88725360D01*
X119548181Y-89019928D01*
X119581666Y-89081251D01*
X119584500Y-89107609D01*
X119584500Y-100447394D01*
X119591962Y-100470358D01*
X119596503Y-100489273D01*
X119599151Y-100505989D01*
X119600281Y-100513127D01*
X119611243Y-100534641D01*
X119618688Y-100552615D01*
X119626150Y-100575580D01*
X119640340Y-100595110D01*
X119650508Y-100611703D01*
X119661470Y-100633218D01*
X119932035Y-100903783D01*
X119965520Y-100965106D01*
X119967293Y-100975276D01*
X119973670Y-101023710D01*
X120029137Y-101157622D01*
X120029138Y-101157624D01*
X120029139Y-101157625D01*
X120117379Y-101272621D01*
X120232375Y-101360861D01*
X120366291Y-101416330D01*
X120493280Y-101433048D01*
X120509999Y-101435250D01*
X120510000Y-101435250D01*
X120510001Y-101435250D01*
X120524977Y-101433278D01*
X120653709Y-101416330D01*
X120787625Y-101360861D01*
X120902621Y-101272621D01*
X120990861Y-101157625D01*
X121046330Y-101023709D01*
X121065250Y-100880000D01*
X121046330Y-100736291D01*
X120990861Y-100602375D01*
X120902621Y-100487379D01*
X120787625Y-100399139D01*
X120787624Y-100399138D01*
X120787622Y-100399137D01*
X120653710Y-100343670D01*
X120605276Y-100337293D01*
X120541380Y-100309025D01*
X120533783Y-100302035D01*
X120471819Y-100240071D01*
X120438334Y-100178748D01*
X120435500Y-100152390D01*
X120435500Y-88812608D01*
X120435499Y-88812604D01*
X120428039Y-88789645D01*
X120423495Y-88770721D01*
X120421164Y-88756000D01*
X140704500Y-88756000D01*
X140704501Y-88756009D01*
X140711481Y-88820935D01*
X140711483Y-88820947D01*
X140722688Y-88872451D01*
X140722687Y-88872450D01*
X140733644Y-88910654D01*
X140733646Y-88910658D01*
X140790323Y-89007568D01*
X140790325Y-89007571D01*
X140836081Y-89060376D01*
X140836091Y-89060387D01*
X140880807Y-89102548D01*
X140880809Y-89102549D01*
X140880813Y-89102553D01*
X140980889Y-89153439D01*
X141047928Y-89173124D01*
X141134000Y-89185500D01*
X141134003Y-89185500D01*
X150635990Y-89185500D01*
X150636000Y-89185500D01*
X150700941Y-89178518D01*
X150752450Y-89167312D01*
X150752450Y-89167313D01*
X150780846Y-89159168D01*
X150790658Y-89156354D01*
X150887571Y-89099675D01*
X150940375Y-89053920D01*
X150940382Y-89053912D01*
X150940387Y-89053908D01*
X150982548Y-89009192D01*
X150982553Y-89009187D01*
X151033439Y-88909111D01*
X151053124Y-88842072D01*
X151065500Y-88756000D01*
X151065500Y-88051038D01*
X151085185Y-87983999D01*
X151137989Y-87938244D01*
X151205684Y-87928099D01*
X151243180Y-87933035D01*
X151259999Y-87935250D01*
X151260000Y-87935250D01*
X151260001Y-87935250D01*
X151274977Y-87933278D01*
X151403709Y-87916330D01*
X151537625Y-87860861D01*
X151652621Y-87772621D01*
X151740861Y-87657625D01*
X151796330Y-87523709D01*
X151815250Y-87380000D01*
X151796330Y-87236291D01*
X151740861Y-87102375D01*
X151652621Y-86987379D01*
X151537625Y-86899139D01*
X151537624Y-86899138D01*
X151537622Y-86899137D01*
X151403712Y-86843671D01*
X151403710Y-86843670D01*
X151403709Y-86843670D01*
X151355009Y-86837258D01*
X151314563Y-86831933D01*
X151250666Y-86803666D01*
X151243068Y-86796675D01*
X151096818Y-86650425D01*
X151063333Y-86589102D01*
X151060499Y-86562744D01*
X151060499Y-85360143D01*
X151060499Y-85360136D01*
X151060497Y-85360117D01*
X151057586Y-85335012D01*
X151057585Y-85335010D01*
X151057585Y-85335009D01*
X151012206Y-85232235D01*
X150932765Y-85152794D01*
X150932763Y-85152793D01*
X150829992Y-85107415D01*
X150804865Y-85104500D01*
X147215143Y-85104500D01*
X147215117Y-85104502D01*
X147190012Y-85107413D01*
X147190008Y-85107415D01*
X147087235Y-85152793D01*
X147007794Y-85232234D01*
X146962415Y-85335006D01*
X146962415Y-85335008D01*
X146959500Y-85360131D01*
X146959500Y-86200500D01*
X146939815Y-86267539D01*
X146887011Y-86313294D01*
X146835500Y-86324500D01*
X141134000Y-86324500D01*
X141133991Y-86324500D01*
X141133990Y-86324501D01*
X141069064Y-86331481D01*
X141069052Y-86331483D01*
X141032682Y-86339395D01*
X141017549Y-86342687D01*
X141017550Y-86342687D01*
X140979345Y-86353644D01*
X140979341Y-86353646D01*
X140882431Y-86410323D01*
X140882428Y-86410325D01*
X140829623Y-86456081D01*
X140829612Y-86456091D01*
X140787451Y-86500807D01*
X140787445Y-86500816D01*
X140736560Y-86600890D01*
X140716877Y-86667921D01*
X140716875Y-86667928D01*
X140716876Y-86667928D01*
X140704500Y-86754000D01*
X140704500Y-88756000D01*
X120421164Y-88756000D01*
X120419719Y-88746874D01*
X120408753Y-88725354D01*
X120401308Y-88707378D01*
X120393849Y-88684419D01*
X120379653Y-88664880D01*
X120369493Y-88648301D01*
X120358528Y-88626780D01*
X120263220Y-88531472D01*
X120256155Y-88524407D01*
X120256148Y-88524401D01*
X119721819Y-87990071D01*
X119688334Y-87928748D01*
X119685500Y-87902390D01*
X119685500Y-84880001D01*
X123704532Y-84880001D01*
X123724364Y-85106686D01*
X123724366Y-85106697D01*
X123783258Y-85326488D01*
X123783261Y-85326497D01*
X123879431Y-85532732D01*
X123879432Y-85532734D01*
X124009954Y-85719141D01*
X124170858Y-85880045D01*
X124170861Y-85880047D01*
X124357266Y-86010568D01*
X124563504Y-86106739D01*
X124783308Y-86165635D01*
X124945230Y-86179801D01*
X125009998Y-86185468D01*
X125010000Y-86185468D01*
X125010002Y-86185468D01*
X125066673Y-86180509D01*
X125236692Y-86165635D01*
X125456496Y-86106739D01*
X125662734Y-86010568D01*
X125849139Y-85880047D01*
X126010047Y-85719139D01*
X126140568Y-85532734D01*
X126236739Y-85326496D01*
X126295635Y-85106692D01*
X126315468Y-84880000D01*
X128755225Y-84880000D01*
X128774287Y-85097884D01*
X128774289Y-85097894D01*
X128830894Y-85309150D01*
X128830898Y-85309159D01*
X128923332Y-85507386D01*
X128923333Y-85507388D01*
X129039677Y-85673545D01*
X129560184Y-85153038D01*
X129577058Y-85185604D01*
X129675564Y-85291077D01*
X129737832Y-85328943D01*
X129216453Y-85850321D01*
X129382612Y-85966666D01*
X129580840Y-86059101D01*
X129580849Y-86059105D01*
X129792105Y-86115710D01*
X129792115Y-86115712D01*
X130009999Y-86134775D01*
X130010001Y-86134775D01*
X130227884Y-86115712D01*
X130227894Y-86115710D01*
X130439150Y-86059105D01*
X130439159Y-86059101D01*
X130637387Y-85966666D01*
X130803545Y-85850321D01*
X130285712Y-85332489D01*
X130397296Y-85241709D01*
X130459856Y-85153080D01*
X130980321Y-85673545D01*
X131096666Y-85507387D01*
X131189101Y-85309159D01*
X131189105Y-85309150D01*
X131245710Y-85097894D01*
X131245712Y-85097884D01*
X131264775Y-84880000D01*
X131264775Y-84879999D01*
X131245712Y-84662115D01*
X131245710Y-84662105D01*
X131189105Y-84450849D01*
X131189101Y-84450840D01*
X131096668Y-84252615D01*
X130980320Y-84086454D01*
X130459815Y-84606959D01*
X130442942Y-84574396D01*
X130344436Y-84468923D01*
X130282167Y-84431056D01*
X130803545Y-83909677D01*
X130803545Y-83909676D01*
X130637388Y-83793333D01*
X130637386Y-83793332D01*
X130439159Y-83700898D01*
X130439150Y-83700894D01*
X130227894Y-83644289D01*
X130227884Y-83644287D01*
X130010001Y-83625225D01*
X130009999Y-83625225D01*
X129792115Y-83644287D01*
X129792105Y-83644289D01*
X129580849Y-83700894D01*
X129580840Y-83700898D01*
X129382613Y-83793333D01*
X129216454Y-83909678D01*
X129734287Y-84427510D01*
X129622704Y-84518291D01*
X129560143Y-84606919D01*
X129039678Y-84086454D01*
X128923333Y-84252613D01*
X128830898Y-84450840D01*
X128830894Y-84450849D01*
X128774289Y-84662105D01*
X128774287Y-84662115D01*
X128755225Y-84879999D01*
X128755225Y-84880000D01*
X126315468Y-84880000D01*
X126295635Y-84653308D01*
X126236739Y-84433504D01*
X126140568Y-84227266D01*
X126010047Y-84040861D01*
X126010045Y-84040858D01*
X125849141Y-83879954D01*
X125662734Y-83749432D01*
X125662732Y-83749431D01*
X125456497Y-83653261D01*
X125456488Y-83653258D01*
X125236697Y-83594366D01*
X125236693Y-83594365D01*
X125236692Y-83594365D01*
X125236691Y-83594364D01*
X125236686Y-83594364D01*
X125010002Y-83574532D01*
X125009998Y-83574532D01*
X124783313Y-83594364D01*
X124783302Y-83594366D01*
X124563511Y-83653258D01*
X124563502Y-83653261D01*
X124357267Y-83749431D01*
X124357265Y-83749432D01*
X124170858Y-83879954D01*
X124009954Y-84040858D01*
X123879432Y-84227265D01*
X123879431Y-84227267D01*
X123783261Y-84433502D01*
X123783258Y-84433511D01*
X123724366Y-84653302D01*
X123724364Y-84653313D01*
X123704532Y-84879998D01*
X123704532Y-84880001D01*
X119685500Y-84880001D01*
X119685500Y-70857609D01*
X119705185Y-70790570D01*
X119721819Y-70769928D01*
X121399928Y-69091819D01*
X121461251Y-69058334D01*
X121487609Y-69055500D01*
X127371392Y-69055500D01*
X127371393Y-69055500D01*
X127394360Y-69048036D01*
X127413276Y-69043495D01*
X127437126Y-69039719D01*
X127458636Y-69028757D01*
X127476614Y-69021310D01*
X127499581Y-69013849D01*
X127519118Y-68999653D01*
X127535706Y-68989488D01*
X127557220Y-68978528D01*
X127652528Y-68883220D01*
X127652528Y-68883219D01*
X128817784Y-67717961D01*
X128879105Y-67684478D01*
X128889263Y-67682707D01*
X128937709Y-67676330D01*
X129071625Y-67620861D01*
X129186621Y-67532621D01*
X129274861Y-67417625D01*
X129330330Y-67283709D01*
X129349250Y-67140000D01*
X129330330Y-66996291D01*
X129274861Y-66862375D01*
X129186621Y-66747379D01*
X129071625Y-66659139D01*
X129071624Y-66659138D01*
X129071622Y-66659137D01*
X128937712Y-66603671D01*
X128937710Y-66603670D01*
X128937709Y-66603670D01*
X128841974Y-66591066D01*
X128794001Y-66584750D01*
X128793999Y-66584750D01*
X128650291Y-66603670D01*
X128650287Y-66603671D01*
X128516377Y-66659137D01*
X128401379Y-66747379D01*
X128313137Y-66862377D01*
X128257670Y-66996289D01*
X128251293Y-67044723D01*
X128223025Y-67108619D01*
X128216035Y-67116216D01*
X127164071Y-68168181D01*
X127102748Y-68201666D01*
X127076390Y-68204500D01*
X121192604Y-68204500D01*
X121169639Y-68211962D01*
X121150722Y-68216503D01*
X121126873Y-68220280D01*
X121105358Y-68231243D01*
X121087385Y-68238688D01*
X121064418Y-68246150D01*
X121064416Y-68246151D01*
X121044883Y-68260343D01*
X121028301Y-68270505D01*
X121006782Y-68281470D01*
X120918541Y-68369710D01*
X118911472Y-70376778D01*
X118900510Y-70398293D01*
X118890346Y-70414878D01*
X118876152Y-70434414D01*
X118876151Y-70434417D01*
X118868688Y-70457385D01*
X118861243Y-70475358D01*
X118850280Y-70496873D01*
X118846503Y-70520722D01*
X118841962Y-70539639D01*
X118834500Y-70562604D01*
X118834500Y-70596512D01*
X118834499Y-72625492D01*
X118814814Y-72692532D01*
X118762010Y-72738286D01*
X118692852Y-72748230D01*
X118635014Y-72723869D01*
X118537625Y-72649139D01*
X118537624Y-72649138D01*
X118537622Y-72649137D01*
X118403712Y-72593671D01*
X118403710Y-72593670D01*
X118403709Y-72593670D01*
X118331854Y-72584210D01*
X118260001Y-72574750D01*
X118259999Y-72574750D01*
X118116291Y-72593670D01*
X118116287Y-72593671D01*
X117982377Y-72649137D01*
X117867379Y-72737379D01*
X117779137Y-72852377D01*
X117723671Y-72986287D01*
X117723670Y-72986291D01*
X117704750Y-73129999D01*
X117704750Y-73130000D01*
X116044000Y-73130000D01*
X116044000Y-66617402D01*
X116037696Y-66605858D01*
X116042680Y-66536166D01*
X116084552Y-66480233D01*
X116150016Y-66455816D01*
X116158862Y-66455500D01*
X126235542Y-66455500D01*
X126302581Y-66475185D01*
X126333917Y-66504013D01*
X126340674Y-66512819D01*
X126367379Y-66547621D01*
X126482375Y-66635861D01*
X126482376Y-66635861D01*
X126482377Y-66635862D01*
X126527013Y-66654350D01*
X126616291Y-66691330D01*
X126743280Y-66708048D01*
X126759999Y-66710250D01*
X126760000Y-66710250D01*
X126760001Y-66710250D01*
X126774977Y-66708278D01*
X126903709Y-66691330D01*
X127037625Y-66635861D01*
X127152621Y-66547621D01*
X127240861Y-66432625D01*
X127296330Y-66298709D01*
X127315250Y-66155000D01*
X127315250Y-66154999D01*
X127315250Y-66146872D01*
X127317765Y-66146872D01*
X127326585Y-66090305D01*
X127372963Y-66038047D01*
X127382440Y-66032679D01*
X127390148Y-66028751D01*
X127408114Y-66021310D01*
X127431081Y-66013849D01*
X127450618Y-65999653D01*
X127467206Y-65989488D01*
X127488720Y-65978528D01*
X127533783Y-65933463D01*
X127595106Y-65899978D01*
X127605266Y-65898207D01*
X127653709Y-65891830D01*
X127787625Y-65836361D01*
X127902621Y-65748121D01*
X127990861Y-65633125D01*
X128046330Y-65499209D01*
X128065250Y-65355500D01*
X128046330Y-65211791D01*
X127990861Y-65077875D01*
X127902621Y-64962879D01*
X127787625Y-64874639D01*
X127787624Y-64874638D01*
X127787622Y-64874637D01*
X127653712Y-64819171D01*
X127653710Y-64819170D01*
X127653709Y-64819170D01*
X127581854Y-64809710D01*
X127510001Y-64800250D01*
X127509999Y-64800250D01*
X127366291Y-64819170D01*
X127366287Y-64819171D01*
X127232377Y-64874637D01*
X127117379Y-64962879D01*
X127029138Y-65077876D01*
X127029138Y-65077877D01*
X127008396Y-65127953D01*
X126964557Y-65182355D01*
X126898264Y-65204421D01*
X126893836Y-65204500D01*
X120651916Y-65204500D01*
X120584877Y-65184815D01*
X120539122Y-65132011D01*
X120529178Y-65062853D01*
X120558203Y-64999297D01*
X120567573Y-64989603D01*
X120606607Y-64953382D01*
X119909912Y-64256687D01*
X119943125Y-64235819D01*
X120065819Y-64113125D01*
X120086687Y-64079912D01*
X120783694Y-64776919D01*
X120909972Y-64618574D01*
X121041116Y-64391426D01*
X121136941Y-64147270D01*
X121195306Y-63891550D01*
X121195307Y-63891545D01*
X121214907Y-63630004D01*
X121214907Y-63629995D01*
X121195307Y-63368454D01*
X121195306Y-63368449D01*
X121136941Y-63112729D01*
X121041116Y-62868573D01*
X121041117Y-62868573D01*
X120909971Y-62641426D01*
X120783695Y-62483079D01*
X120086687Y-63180087D01*
X120065819Y-63146875D01*
X119943125Y-63024181D01*
X119909910Y-63003311D01*
X120606607Y-62306615D01*
X120567574Y-62270398D01*
X120531820Y-62210370D01*
X120534195Y-62140540D01*
X120573946Y-62083080D01*
X120638452Y-62056233D01*
X120651916Y-62055500D01*
X128032390Y-62055500D01*
X128099429Y-62075185D01*
X128120071Y-62091819D01*
X129798180Y-63769928D01*
X129831665Y-63831251D01*
X129834499Y-63857609D01*
X129834500Y-69562606D01*
X129834500Y-69697394D01*
X129841962Y-69720358D01*
X129846503Y-69739273D01*
X129849470Y-69758010D01*
X129850281Y-69763127D01*
X129861243Y-69784641D01*
X129868688Y-69802615D01*
X129876150Y-69825580D01*
X129890340Y-69845110D01*
X129900508Y-69861703D01*
X129911470Y-69883218D01*
X131557035Y-71528783D01*
X131590520Y-71590106D01*
X131592293Y-71600276D01*
X131598670Y-71648710D01*
X131654137Y-71782622D01*
X131654138Y-71782624D01*
X131654139Y-71782625D01*
X131742379Y-71897621D01*
X131857375Y-71985861D01*
X131991291Y-72041330D01*
X132118280Y-72058048D01*
X132134999Y-72060250D01*
X132135000Y-72060250D01*
X132135001Y-72060250D01*
X132149977Y-72058278D01*
X132278709Y-72041330D01*
X132412625Y-71985861D01*
X132527621Y-71897621D01*
X132615861Y-71782625D01*
X132671330Y-71648709D01*
X132690250Y-71505000D01*
X132671330Y-71361291D01*
X132615861Y-71227375D01*
X132527621Y-71112379D01*
X132412625Y-71024139D01*
X132412624Y-71024138D01*
X132412622Y-71024137D01*
X132278710Y-70968670D01*
X132230276Y-70962293D01*
X132166380Y-70934025D01*
X132158783Y-70927035D01*
X130721819Y-69490071D01*
X130688334Y-69428748D01*
X130685500Y-69402390D01*
X130685500Y-63562608D01*
X130685499Y-63562604D01*
X130678039Y-63539645D01*
X130673495Y-63520721D01*
X130669719Y-63496874D01*
X130658753Y-63475354D01*
X130651308Y-63457378D01*
X130644446Y-63436258D01*
X130643849Y-63434419D01*
X130629653Y-63414880D01*
X130619493Y-63398301D01*
X130608528Y-63376780D01*
X130513220Y-63281472D01*
X130513218Y-63281470D01*
X128723928Y-61492180D01*
X128690444Y-61430858D01*
X128695428Y-61361166D01*
X128737300Y-61305233D01*
X128802764Y-61280816D01*
X128811610Y-61280500D01*
X153636000Y-61280500D01*
X153703039Y-61300185D01*
G37*
%TD.AperFunction*%
%TA.AperFunction,Conductor*%
G36*
X159802539Y-86899685D02*
G01*
X159848294Y-86952489D01*
X159859500Y-87004000D01*
X159859500Y-88885453D01*
X159839815Y-88952492D01*
X159787011Y-88998247D01*
X159717853Y-89008191D01*
X159654297Y-88979166D01*
X159616523Y-88920388D01*
X159616020Y-88918626D01*
X159594399Y-88840756D01*
X159594397Y-88840749D01*
X159463956Y-88513365D01*
X159463947Y-88513347D01*
X159298875Y-88201988D01*
X159101102Y-87910295D01*
X158896894Y-87669882D01*
X158896893Y-87669881D01*
X157994923Y-88571851D01*
X157818146Y-88395074D01*
X158718155Y-87495066D01*
X158617084Y-87399327D01*
X158617082Y-87399326D01*
X158336539Y-87186061D01*
X158336522Y-87186049D01*
X158210541Y-87110250D01*
X158163246Y-87058821D01*
X158151263Y-86989987D01*
X158178398Y-86925601D01*
X158236034Y-86886107D01*
X158274469Y-86880000D01*
X159735500Y-86880000D01*
X159802539Y-86899685D01*
G37*
%TD.AperFunction*%
%TA.AperFunction,Conductor*%
G36*
X112525429Y-61300185D02*
G01*
X112571184Y-61352989D01*
X112581128Y-61422147D01*
X112552103Y-61485703D01*
X112546071Y-61492181D01*
X111995069Y-62043181D01*
X111933746Y-62076666D01*
X111907388Y-62079500D01*
X111215143Y-62079500D01*
X111215117Y-62079502D01*
X111190012Y-62082413D01*
X111190008Y-62082415D01*
X111087235Y-62127793D01*
X111087233Y-62127794D01*
X111045347Y-62169681D01*
X110984024Y-62203165D01*
X110914332Y-62198180D01*
X110891696Y-62186993D01*
X110839521Y-62154209D01*
X110669262Y-62094633D01*
X110669249Y-62094630D01*
X110490004Y-62074435D01*
X110489996Y-62074435D01*
X110310750Y-62094630D01*
X110310745Y-62094631D01*
X110140476Y-62154211D01*
X109987737Y-62250184D01*
X109942680Y-62295241D01*
X109881357Y-62328725D01*
X109811665Y-62323740D01*
X109767320Y-62295241D01*
X109722263Y-62250185D01*
X109722262Y-62250184D01*
X109569523Y-62154211D01*
X109399254Y-62094631D01*
X109399249Y-62094630D01*
X109220004Y-62074435D01*
X109219996Y-62074435D01*
X109040750Y-62094630D01*
X109040745Y-62094631D01*
X108870476Y-62154211D01*
X108717737Y-62250184D01*
X108636972Y-62330950D01*
X108575649Y-62364435D01*
X108505957Y-62359451D01*
X108461610Y-62330950D01*
X108420575Y-62289915D01*
X108277471Y-62199996D01*
X108117945Y-62144176D01*
X108075000Y-62139337D01*
X108075000Y-62576890D01*
X108062871Y-62569888D01*
X107978436Y-62555000D01*
X107921564Y-62555000D01*
X107837129Y-62569888D01*
X107824999Y-62576890D01*
X107824999Y-62139337D01*
X107782054Y-62144176D01*
X107622528Y-62199996D01*
X107479424Y-62289915D01*
X107359915Y-62409424D01*
X107269996Y-62552528D01*
X107214176Y-62712054D01*
X107209337Y-62754999D01*
X107209337Y-62755000D01*
X107649638Y-62755000D01*
X107625000Y-62822694D01*
X107625000Y-62937306D01*
X107649638Y-63005000D01*
X107209337Y-63005000D01*
X107214176Y-63047945D01*
X107269996Y-63207471D01*
X107359915Y-63350575D01*
X107479424Y-63470084D01*
X107622528Y-63560003D01*
X107782051Y-63615822D01*
X107825000Y-63620660D01*
X107825000Y-63183109D01*
X107837129Y-63190112D01*
X107921564Y-63205000D01*
X107978436Y-63205000D01*
X108062871Y-63190112D01*
X108075000Y-63183109D01*
X108075000Y-63620659D01*
X108117948Y-63615822D01*
X108277471Y-63560003D01*
X108420575Y-63470084D01*
X108461610Y-63429050D01*
X108522933Y-63395565D01*
X108592625Y-63400549D01*
X108636971Y-63429050D01*
X108717738Y-63509816D01*
X108750437Y-63530362D01*
X108855713Y-63596512D01*
X108870478Y-63605789D01*
X109040745Y-63665367D01*
X109040745Y-63665368D01*
X109040750Y-63665369D01*
X109219996Y-63685565D01*
X109220000Y-63685565D01*
X109220004Y-63685565D01*
X109399249Y-63665369D01*
X109399252Y-63665368D01*
X109399255Y-63665368D01*
X109569522Y-63605789D01*
X109722262Y-63509816D01*
X109767318Y-63464758D01*
X109828642Y-63431274D01*
X109898334Y-63436258D01*
X109942681Y-63464759D01*
X109987738Y-63509816D01*
X110020437Y-63530362D01*
X110125713Y-63596512D01*
X110140478Y-63605789D01*
X110310745Y-63665367D01*
X110310745Y-63665368D01*
X110310750Y-63665369D01*
X110489996Y-63685565D01*
X110490000Y-63685565D01*
X110490004Y-63685565D01*
X110669249Y-63665369D01*
X110669252Y-63665368D01*
X110669255Y-63665368D01*
X110839522Y-63605789D01*
X110891694Y-63573006D01*
X110958931Y-63554006D01*
X111025766Y-63574373D01*
X111045347Y-63590318D01*
X111087235Y-63632206D01*
X111190009Y-63677585D01*
X111215135Y-63680500D01*
X112304864Y-63680499D01*
X112304879Y-63680497D01*
X112304882Y-63680497D01*
X112329987Y-63677586D01*
X112329988Y-63677585D01*
X112329991Y-63677585D01*
X112432765Y-63632206D01*
X112512206Y-63552765D01*
X112557585Y-63449991D01*
X112560500Y-63424865D01*
X112560499Y-62732608D01*
X112580183Y-62665570D01*
X112596813Y-62644933D01*
X113149928Y-62091819D01*
X113211252Y-62058334D01*
X113237610Y-62055500D01*
X118268084Y-62055500D01*
X118335123Y-62075185D01*
X118380878Y-62127989D01*
X118390822Y-62197147D01*
X118361797Y-62260703D01*
X118352425Y-62270399D01*
X118313392Y-62306616D01*
X119010087Y-63003311D01*
X118976875Y-63024181D01*
X118854181Y-63146875D01*
X118833312Y-63180087D01*
X118136303Y-62483079D01*
X118010030Y-62641422D01*
X117878883Y-62868573D01*
X117783058Y-63112729D01*
X117724693Y-63368449D01*
X117724692Y-63368454D01*
X117705093Y-63629995D01*
X117705093Y-63630004D01*
X117724692Y-63891545D01*
X117724693Y-63891550D01*
X117783058Y-64147270D01*
X117878883Y-64391426D01*
X117878882Y-64391426D01*
X118010028Y-64618573D01*
X118136303Y-64776919D01*
X118833311Y-64079911D01*
X118854181Y-64113125D01*
X118976875Y-64235819D01*
X119010087Y-64256687D01*
X118313391Y-64953382D01*
X118352426Y-64989602D01*
X118388180Y-65049630D01*
X118385805Y-65119460D01*
X118346054Y-65176920D01*
X118281548Y-65203767D01*
X118268084Y-65204500D01*
X114130661Y-65204500D01*
X114063622Y-65184815D01*
X114019941Y-65134404D01*
X114019925Y-65134414D01*
X114019876Y-65134330D01*
X114017867Y-65132011D01*
X114016113Y-65127984D01*
X114015861Y-65127375D01*
X113927621Y-65012379D01*
X113812625Y-64924139D01*
X113812624Y-64924138D01*
X113812622Y-64924137D01*
X113678712Y-64868671D01*
X113678710Y-64868670D01*
X113678709Y-64868670D01*
X113598340Y-64858089D01*
X113535001Y-64849750D01*
X113534999Y-64849750D01*
X113391291Y-64868670D01*
X113391287Y-64868671D01*
X113257377Y-64924137D01*
X113142379Y-65012379D01*
X113054137Y-65127377D01*
X112998671Y-65261287D01*
X112998670Y-65261291D01*
X112979750Y-65405000D01*
X112992153Y-65499212D01*
X112998670Y-65548708D01*
X112998671Y-65548712D01*
X113054137Y-65682622D01*
X113054138Y-65682624D01*
X113054139Y-65682625D01*
X113142379Y-65797621D01*
X113257375Y-65885861D01*
X113257376Y-65885861D01*
X113257377Y-65885862D01*
X113287176Y-65898205D01*
X113391291Y-65941330D01*
X113439719Y-65947705D01*
X113498292Y-65973616D01*
X113498889Y-65972795D01*
X113502707Y-65975569D01*
X113503615Y-65975971D01*
X113504948Y-65977197D01*
X113506777Y-65978526D01*
X113506779Y-65978527D01*
X113506780Y-65978528D01*
X113528301Y-65989493D01*
X113544880Y-65999653D01*
X113564419Y-66013849D01*
X113587381Y-66021309D01*
X113605354Y-66028753D01*
X113626874Y-66039719D01*
X113650724Y-66043495D01*
X113669645Y-66048039D01*
X113691489Y-66055136D01*
X113692607Y-66055500D01*
X113726512Y-66055500D01*
X113933391Y-66055500D01*
X114000430Y-66075185D01*
X114046185Y-66127989D01*
X114056129Y-66197147D01*
X114027104Y-66260703D01*
X114021072Y-66267181D01*
X113684572Y-66603681D01*
X113623249Y-66637166D01*
X113596891Y-66640000D01*
X104113035Y-66640000D01*
X104045996Y-66620315D01*
X104000241Y-66567511D01*
X103990297Y-66498353D01*
X104019322Y-66434797D01*
X104067386Y-66400708D01*
X104069786Y-66399757D01*
X104076766Y-66396994D01*
X104352484Y-66245416D01*
X104607030Y-66060478D01*
X104836390Y-65845094D01*
X105036947Y-65602663D01*
X105205537Y-65337007D01*
X105339503Y-65052315D01*
X105436731Y-64753079D01*
X105495688Y-64444015D01*
X105497614Y-64413400D01*
X105515444Y-64130005D01*
X105515444Y-64129994D01*
X105495689Y-63815995D01*
X105495688Y-63815988D01*
X105495688Y-63815985D01*
X105436731Y-63506921D01*
X105339503Y-63207685D01*
X105339402Y-63207471D01*
X105253152Y-63024181D01*
X105205537Y-62922993D01*
X105157056Y-62846599D01*
X105036948Y-62657338D01*
X105036945Y-62657334D01*
X104836393Y-62414909D01*
X104836391Y-62414907D01*
X104805596Y-62385988D01*
X104607030Y-62199522D01*
X104607027Y-62199520D01*
X104607021Y-62199515D01*
X104352495Y-62014591D01*
X104352488Y-62014586D01*
X104352484Y-62014584D01*
X104076766Y-61863006D01*
X104076763Y-61863004D01*
X104076758Y-61863002D01*
X104076757Y-61863001D01*
X103784228Y-61747181D01*
X103784225Y-61747180D01*
X103479476Y-61668934D01*
X103479463Y-61668932D01*
X103167329Y-61629500D01*
X103167318Y-61629500D01*
X102852682Y-61629500D01*
X102852670Y-61629500D01*
X102540536Y-61668932D01*
X102540523Y-61668934D01*
X102235774Y-61747180D01*
X102235771Y-61747181D01*
X101943242Y-61863001D01*
X101943241Y-61863002D01*
X101667516Y-62014584D01*
X101667504Y-62014591D01*
X101412978Y-62199515D01*
X101412968Y-62199523D01*
X101183608Y-62414907D01*
X101183606Y-62414909D01*
X100983054Y-62657334D01*
X100983051Y-62657338D01*
X100814464Y-62922990D01*
X100814461Y-62922996D01*
X100680499Y-63207678D01*
X100680497Y-63207683D01*
X100583270Y-63506916D01*
X100524311Y-63815988D01*
X100524310Y-63815995D01*
X100504556Y-64129994D01*
X100504556Y-64130005D01*
X100524310Y-64444004D01*
X100524311Y-64444011D01*
X100583270Y-64753083D01*
X100680497Y-65052316D01*
X100680499Y-65052321D01*
X100814461Y-65337003D01*
X100814464Y-65337009D01*
X100983051Y-65602661D01*
X100983054Y-65602665D01*
X101183606Y-65845090D01*
X101183608Y-65845092D01*
X101183610Y-65845094D01*
X101389084Y-66038047D01*
X101412968Y-66060476D01*
X101412978Y-66060484D01*
X101667504Y-66245408D01*
X101667509Y-66245410D01*
X101667516Y-66245416D01*
X101943234Y-66396994D01*
X101943238Y-66396995D01*
X101943237Y-66396995D01*
X101952614Y-66400708D01*
X102007698Y-66443690D01*
X102030801Y-66509629D01*
X102014587Y-66577592D01*
X101964203Y-66625999D01*
X101906965Y-66640000D01*
X100284500Y-66640000D01*
X100217461Y-66620315D01*
X100171706Y-66567511D01*
X100160500Y-66516000D01*
X100160500Y-61404500D01*
X100180185Y-61337461D01*
X100232989Y-61291706D01*
X100284500Y-61280500D01*
X112458390Y-61280500D01*
X112525429Y-61300185D01*
G37*
%TD.AperFunction*%
%TD*%
M02*
