%TF.GenerationSoftware,KiCad,Pcbnew,7.0.6*%
%TF.CreationDate,2023-10-13T10:01:59+08:00*%
%TF.ProjectId,86_BOX_PANEL,38365f42-4f58-45f5-9041-4e454c2e6b69,rev?*%
%TF.SameCoordinates,Original*%
%TF.FileFunction,Drillmap*%
%TF.FilePolarity,Positive*%
%FSLAX45Y45*%
G04 Gerber Fmt 4.5, Leading zero omitted, Abs format (unit mm)*
G04 Created by KiCad (PCBNEW 7.0.6) date 2023-10-13 10:01:59*
%MOMM*%
%LPD*%
G01*
G04 APERTURE LIST*
%ADD10C,0.100000*%
%ADD11C,0.200000*%
%ADD12C,0.030000*%
%ADD13C,0.040000*%
%ADD14C,0.060000*%
%ADD15C,0.065000*%
%ADD16C,0.080000*%
%ADD17C,0.105000*%
%ADD18C,0.154000*%
%ADD19C,0.220000*%
%ADD20C,0.395000*%
G04 APERTURE END LIST*
D10*
X11651000Y-10863000D02*
X16001000Y-10863000D01*
X11651000Y-10863000D02*
X10001000Y-10863000D01*
X11651000Y-6113000D02*
X16001000Y-6113000D01*
X10001000Y-6113000D02*
X10001000Y-10863000D01*
X16001000Y-10863000D02*
X16001000Y-6113000D01*
X11651000Y-6113000D02*
X10001000Y-6113000D01*
D11*
D12*
X11286000Y-6773000D02*
X11316000Y-6803000D01*
X11316000Y-6773000D02*
X11286000Y-6803000D01*
X11338500Y-6525500D02*
X11368500Y-6555500D01*
X11368500Y-6525500D02*
X11338500Y-6555500D01*
X11686000Y-6423000D02*
X11716000Y-6453000D01*
X11716000Y-6423000D02*
X11686000Y-6453000D01*
X11811000Y-7298000D02*
X11841000Y-7328000D01*
X11841000Y-7298000D02*
X11811000Y-7328000D01*
X11861000Y-8948000D02*
X11891000Y-8978000D01*
X11891000Y-8948000D02*
X11861000Y-8978000D01*
X12036000Y-10073000D02*
X12066000Y-10103000D01*
X12066000Y-10073000D02*
X12036000Y-10103000D01*
X12161000Y-9298000D02*
X12191000Y-9328000D01*
X12191000Y-9298000D02*
X12161000Y-9328000D01*
X12236000Y-6248000D02*
X12266000Y-6278000D01*
X12266000Y-6248000D02*
X12236000Y-6278000D01*
X12286000Y-9123000D02*
X12316000Y-9153000D01*
X12316000Y-9123000D02*
X12286000Y-9153000D01*
X12493400Y-10210000D02*
X12523400Y-10240000D01*
X12523400Y-10210000D02*
X12493400Y-10240000D01*
X12536000Y-7248000D02*
X12566000Y-7278000D01*
X12566000Y-7248000D02*
X12536000Y-7278000D01*
X12536000Y-7673000D02*
X12566000Y-7703000D01*
X12566000Y-7673000D02*
X12536000Y-7703000D01*
X12536000Y-9198000D02*
X12566000Y-9228000D01*
X12566000Y-9198000D02*
X12536000Y-9228000D01*
X12561000Y-6948000D02*
X12591000Y-6978000D01*
X12591000Y-6948000D02*
X12561000Y-6978000D01*
X12661000Y-6600500D02*
X12691000Y-6630500D01*
X12691000Y-6600500D02*
X12661000Y-6630500D01*
X12686000Y-9898000D02*
X12716000Y-9928000D01*
X12716000Y-9898000D02*
X12686000Y-9928000D01*
X12736000Y-6520550D02*
X12766000Y-6550550D01*
X12766000Y-6520550D02*
X12736000Y-6550550D01*
X12861000Y-8048000D02*
X12891000Y-8078000D01*
X12891000Y-8048000D02*
X12861000Y-8078000D01*
X12864400Y-6699000D02*
X12894400Y-6729000D01*
X12894400Y-6699000D02*
X12864400Y-6729000D01*
X12886000Y-6973000D02*
X12916000Y-7003000D01*
X12916000Y-6973000D02*
X12886000Y-7003000D01*
X13198500Y-7135500D02*
X13228500Y-7165500D01*
X13228500Y-7135500D02*
X13198500Y-7165500D01*
X13286000Y-9998000D02*
X13316000Y-10028000D01*
X13316000Y-9998000D02*
X13286000Y-10028000D01*
X13536000Y-9698000D02*
X13566000Y-9728000D01*
X13566000Y-9698000D02*
X13536000Y-9728000D01*
X13636000Y-9823000D02*
X13666000Y-9853000D01*
X13666000Y-9823000D02*
X13636000Y-9853000D01*
X13711000Y-6448000D02*
X13741000Y-6478000D01*
X13741000Y-6448000D02*
X13711000Y-6478000D01*
X13711000Y-8073000D02*
X13741000Y-8103000D01*
X13741000Y-8073000D02*
X13711000Y-8103000D01*
X13786000Y-9448000D02*
X13816000Y-9478000D01*
X13816000Y-9448000D02*
X13786000Y-9478000D01*
X13786000Y-10073000D02*
X13816000Y-10103000D01*
X13816000Y-10073000D02*
X13786000Y-10103000D01*
X13836000Y-10323000D02*
X13866000Y-10353000D01*
X13866000Y-10323000D02*
X13836000Y-10353000D01*
X14036000Y-8923000D02*
X14066000Y-8953000D01*
X14066000Y-8923000D02*
X14036000Y-8953000D01*
X14036000Y-9023000D02*
X14066000Y-9053000D01*
X14066000Y-9023000D02*
X14036000Y-9053000D01*
X14086000Y-7623000D02*
X14116000Y-7653000D01*
X14116000Y-7623000D02*
X14086000Y-7653000D01*
X14136000Y-8723000D02*
X14166000Y-8753000D01*
X14166000Y-8723000D02*
X14136000Y-8753000D01*
X14136000Y-8798000D02*
X14166000Y-8828000D01*
X14166000Y-8798000D02*
X14136000Y-8828000D01*
X14211000Y-8723000D02*
X14241000Y-8753000D01*
X14241000Y-8723000D02*
X14211000Y-8753000D01*
X14211000Y-8798000D02*
X14241000Y-8828000D01*
X14241000Y-8798000D02*
X14211000Y-8828000D01*
X14261000Y-9148000D02*
X14291000Y-9178000D01*
X14291000Y-9148000D02*
X14261000Y-9178000D01*
X14261000Y-9223000D02*
X14291000Y-9253000D01*
X14291000Y-9223000D02*
X14261000Y-9253000D01*
X14261000Y-9298000D02*
X14291000Y-9328000D01*
X14291000Y-9298000D02*
X14261000Y-9328000D01*
X14286000Y-8723000D02*
X14316000Y-8753000D01*
X14316000Y-8723000D02*
X14286000Y-8753000D01*
X14286000Y-8798000D02*
X14316000Y-8828000D01*
X14316000Y-8798000D02*
X14286000Y-8828000D01*
X14336000Y-9148000D02*
X14366000Y-9178000D01*
X14366000Y-9148000D02*
X14336000Y-9178000D01*
X14336000Y-9223000D02*
X14366000Y-9253000D01*
X14366000Y-9223000D02*
X14336000Y-9253000D01*
X14336000Y-9298000D02*
X14366000Y-9328000D01*
X14366000Y-9298000D02*
X14336000Y-9328000D01*
X14361000Y-8723000D02*
X14391000Y-8753000D01*
X14391000Y-8723000D02*
X14361000Y-8753000D01*
X14361000Y-8798000D02*
X14391000Y-8828000D01*
X14391000Y-8798000D02*
X14361000Y-8828000D01*
X14361000Y-8923000D02*
X14391000Y-8953000D01*
X14391000Y-8923000D02*
X14361000Y-8953000D01*
X14361000Y-9023000D02*
X14391000Y-9053000D01*
X14391000Y-9023000D02*
X14361000Y-9053000D01*
X14411000Y-7148000D02*
X14441000Y-7178000D01*
X14441000Y-7148000D02*
X14411000Y-7178000D01*
X14411000Y-9148000D02*
X14441000Y-9178000D01*
X14441000Y-9148000D02*
X14411000Y-9178000D01*
X14411000Y-9223000D02*
X14441000Y-9253000D01*
X14441000Y-9223000D02*
X14411000Y-9253000D01*
X14411000Y-9298000D02*
X14441000Y-9328000D01*
X14441000Y-9298000D02*
X14411000Y-9328000D01*
X14461000Y-8923000D02*
X14491000Y-8953000D01*
X14491000Y-8923000D02*
X14461000Y-8953000D01*
X14461000Y-9023000D02*
X14491000Y-9053000D01*
X14491000Y-9023000D02*
X14461000Y-9053000D01*
X14555000Y-9224000D02*
X14585000Y-9254000D01*
X14585000Y-9224000D02*
X14555000Y-9254000D01*
X14559000Y-9116000D02*
X14589000Y-9146000D01*
X14589000Y-9116000D02*
X14559000Y-9146000D01*
X14561000Y-8923000D02*
X14591000Y-8953000D01*
X14591000Y-8923000D02*
X14561000Y-8953000D01*
X14561000Y-9023000D02*
X14591000Y-9053000D01*
X14591000Y-9023000D02*
X14561000Y-9053000D01*
X14672000Y-9223000D02*
X14702000Y-9253000D01*
X14702000Y-9223000D02*
X14672000Y-9253000D01*
X14675000Y-9118000D02*
X14705000Y-9148000D01*
X14705000Y-9118000D02*
X14675000Y-9148000D01*
X14686000Y-8923000D02*
X14716000Y-8953000D01*
X14716000Y-8923000D02*
X14686000Y-8953000D01*
X14686000Y-9023000D02*
X14716000Y-9053000D01*
X14716000Y-9023000D02*
X14686000Y-9053000D01*
X14811000Y-8923000D02*
X14841000Y-8953000D01*
X14841000Y-8923000D02*
X14811000Y-8953000D01*
X14811000Y-9023000D02*
X14841000Y-9053000D01*
X14841000Y-9023000D02*
X14811000Y-9053000D01*
X14861000Y-7123000D02*
X14891000Y-7153000D01*
X14891000Y-7123000D02*
X14861000Y-7153000D01*
X14911000Y-6273000D02*
X14941000Y-6303000D01*
X14941000Y-6273000D02*
X14911000Y-6303000D01*
X14936000Y-8923000D02*
X14966000Y-8953000D01*
X14966000Y-8923000D02*
X14936000Y-8953000D01*
X14936000Y-9023000D02*
X14966000Y-9053000D01*
X14966000Y-9023000D02*
X14936000Y-9053000D01*
X14961000Y-6173000D02*
X14991000Y-6203000D01*
X14991000Y-6173000D02*
X14961000Y-6203000D01*
X15036000Y-8923000D02*
X15066000Y-8953000D01*
X15066000Y-8923000D02*
X15036000Y-8953000D01*
X15036000Y-9023000D02*
X15066000Y-9053000D01*
X15066000Y-9023000D02*
X15036000Y-9053000D01*
X15111000Y-8723000D02*
X15141000Y-8753000D01*
X15141000Y-8723000D02*
X15111000Y-8753000D01*
X15111000Y-8873000D02*
X15141000Y-8903000D01*
X15141000Y-8873000D02*
X15111000Y-8903000D01*
X15136000Y-7123000D02*
X15166000Y-7153000D01*
X15166000Y-7123000D02*
X15136000Y-7153000D01*
X15136000Y-8948000D02*
X15166000Y-8978000D01*
X15166000Y-8948000D02*
X15136000Y-8978000D01*
X15186000Y-8873000D02*
X15216000Y-8903000D01*
X15216000Y-8873000D02*
X15186000Y-8903000D01*
X15189400Y-6524000D02*
X15219400Y-6554000D01*
X15219400Y-6524000D02*
X15189400Y-6554000D01*
X15245400Y-8562000D02*
X15275400Y-8592000D01*
X15275400Y-8562000D02*
X15245400Y-8592000D01*
X15245400Y-8936000D02*
X15275400Y-8966000D01*
X15275400Y-8936000D02*
X15245400Y-8966000D01*
X15264400Y-6499000D02*
X15294400Y-6529000D01*
X15294400Y-6499000D02*
X15264400Y-6529000D01*
X15311000Y-6298000D02*
X15341000Y-6328000D01*
X15341000Y-6298000D02*
X15311000Y-6328000D01*
X15311000Y-9323000D02*
X15341000Y-9353000D01*
X15341000Y-9323000D02*
X15311000Y-9353000D01*
X15319400Y-8715000D02*
X15349400Y-8745000D01*
X15349400Y-8715000D02*
X15319400Y-8745000D01*
X15325122Y-9125278D02*
X15355122Y-9155278D01*
X15355122Y-9125278D02*
X15325122Y-9155278D01*
X15347000Y-9479000D02*
X15377000Y-9509000D01*
X15377000Y-9479000D02*
X15347000Y-9509000D01*
X15386000Y-8748000D02*
X15416000Y-8778000D01*
X15416000Y-8748000D02*
X15386000Y-8778000D01*
X15661000Y-9748000D02*
X15691000Y-9778000D01*
X15691000Y-9748000D02*
X15661000Y-9778000D01*
X15913400Y-9393000D02*
X15943400Y-9423000D01*
X15943400Y-9393000D02*
X15913400Y-9423000D01*
X15931400Y-8741000D02*
X15961400Y-8771000D01*
X15961400Y-8741000D02*
X15931400Y-8771000D01*
X15936000Y-9123000D02*
X15966000Y-9153000D01*
X15966000Y-9123000D02*
X15936000Y-9153000D01*
D13*
X10156000Y-6413000D02*
G75*
G03*
X10156000Y-6413000I-20000J0D01*
G01*
X10156000Y-10563000D02*
G75*
G03*
X10156000Y-10563000I-20000J0D01*
G01*
X10204327Y-6296327D02*
G75*
G03*
X10204327Y-6296327I-20000J0D01*
G01*
X10204327Y-6529673D02*
G75*
G03*
X10204327Y-6529673I-20000J0D01*
G01*
X10204327Y-10446327D02*
G75*
G03*
X10204327Y-10446327I-20000J0D01*
G01*
X10204327Y-10679673D02*
G75*
G03*
X10204327Y-10679673I-20000J0D01*
G01*
X10321000Y-6248000D02*
G75*
G03*
X10321000Y-6248000I-20000J0D01*
G01*
X10321000Y-6578000D02*
G75*
G03*
X10321000Y-6578000I-20000J0D01*
G01*
X10321000Y-10398000D02*
G75*
G03*
X10321000Y-10398000I-20000J0D01*
G01*
X10321000Y-10728000D02*
G75*
G03*
X10321000Y-10728000I-20000J0D01*
G01*
X10437673Y-6296327D02*
G75*
G03*
X10437673Y-6296327I-20000J0D01*
G01*
X10437673Y-6529673D02*
G75*
G03*
X10437673Y-6529673I-20000J0D01*
G01*
X10437673Y-10446327D02*
G75*
G03*
X10437673Y-10446327I-20000J0D01*
G01*
X10437673Y-10679673D02*
G75*
G03*
X10437673Y-10679673I-20000J0D01*
G01*
X10486000Y-6413000D02*
G75*
G03*
X10486000Y-6413000I-20000J0D01*
G01*
X10486000Y-10563000D02*
G75*
G03*
X10486000Y-10563000I-20000J0D01*
G01*
X15556000Y-10563000D02*
G75*
G03*
X15556000Y-10563000I-20000J0D01*
G01*
X15604327Y-10446327D02*
G75*
G03*
X15604327Y-10446327I-20000J0D01*
G01*
X15604327Y-10679673D02*
G75*
G03*
X15604327Y-10679673I-20000J0D01*
G01*
X15721000Y-10398000D02*
G75*
G03*
X15721000Y-10398000I-20000J0D01*
G01*
X15721000Y-10728000D02*
G75*
G03*
X15721000Y-10728000I-20000J0D01*
G01*
X15837673Y-10446327D02*
G75*
G03*
X15837673Y-10446327I-20000J0D01*
G01*
X15837673Y-10679673D02*
G75*
G03*
X15837673Y-10679673I-20000J0D01*
G01*
X15886000Y-10563000D02*
G75*
G03*
X15886000Y-10563000I-20000J0D01*
G01*
D14*
X14355200Y-7484800D02*
X14355200Y-7544800D01*
X14325200Y-7514800D02*
X14385200Y-7514800D01*
X14355200Y-7637200D02*
X14355200Y-7697200D01*
X14325200Y-7667200D02*
X14385200Y-7667200D01*
X14355200Y-7789600D02*
X14355200Y-7849600D01*
X14325200Y-7819600D02*
X14385200Y-7819600D01*
X14505000Y-7485600D02*
X14505000Y-7545600D01*
X14475000Y-7515600D02*
X14535000Y-7515600D01*
X14505000Y-7638000D02*
X14505000Y-7698000D01*
X14475000Y-7668000D02*
X14535000Y-7668000D01*
X14505000Y-7790400D02*
X14505000Y-7850400D01*
X14475000Y-7820400D02*
X14535000Y-7820400D01*
X14660000Y-7484800D02*
X14660000Y-7544800D01*
X14630000Y-7514800D02*
X14690000Y-7514800D01*
X14660000Y-7637200D02*
X14660000Y-7697200D01*
X14630000Y-7667200D02*
X14690000Y-7667200D01*
X14660000Y-7789600D02*
X14660000Y-7849600D01*
X14630000Y-7819600D02*
X14690000Y-7819600D01*
D15*
X10817981Y-6310981D02*
X10817981Y-6265019D01*
X10772019Y-6265019D01*
X10772019Y-6310981D01*
X10817981Y-6310981D01*
X10944981Y-6310981D02*
X10944981Y-6265019D01*
X10899019Y-6265019D01*
X10899019Y-6310981D01*
X10944981Y-6310981D01*
X11071981Y-6310981D02*
X11071981Y-6265019D01*
X11026019Y-6265019D01*
X11026019Y-6310981D01*
X11071981Y-6310981D01*
X11198981Y-6310981D02*
X11198981Y-6265019D01*
X11153019Y-6265019D01*
X11153019Y-6310981D01*
X11198981Y-6310981D01*
D16*
X10351000Y-8903000D02*
X10391000Y-8863000D01*
X10351000Y-8823000D01*
X10311000Y-8863000D01*
X10351000Y-8903000D01*
X11110000Y-7803750D02*
X11150000Y-7763750D01*
X11110000Y-7723750D01*
X11070000Y-7763750D01*
X11110000Y-7803750D01*
X11351000Y-8903000D02*
X11391000Y-8863000D01*
X11351000Y-8823000D01*
X11311000Y-8863000D01*
X11351000Y-8903000D01*
X11400000Y-7053750D02*
X11440000Y-7013750D01*
X11400000Y-6973750D01*
X11360000Y-7013750D01*
X11400000Y-7053750D01*
D10*
X10364400Y-9283000D02*
X10464400Y-9383000D01*
X10464400Y-9283000D02*
X10364400Y-9383000D01*
X10464400Y-9333000D02*
G75*
G03*
X10464400Y-9333000I-50000J0D01*
G01*
X10364400Y-9983000D02*
X10464400Y-10083000D01*
X10464400Y-9983000D02*
X10364400Y-10083000D01*
X10464400Y-10033000D02*
G75*
G03*
X10464400Y-10033000I-50000J0D01*
G01*
X10747000Y-8313000D02*
X10847000Y-8413000D01*
X10847000Y-8313000D02*
X10747000Y-8413000D01*
X10847000Y-8363000D02*
G75*
G03*
X10847000Y-8363000I-50000J0D01*
G01*
X11164400Y-9283000D02*
X11264400Y-9383000D01*
X11264400Y-9283000D02*
X11164400Y-9383000D01*
X11264400Y-9333000D02*
G75*
G03*
X11264400Y-9333000I-50000J0D01*
G01*
X11164400Y-9983000D02*
X11264400Y-10083000D01*
X11264400Y-9983000D02*
X11164400Y-10083000D01*
X11264400Y-10033000D02*
G75*
G03*
X11264400Y-10033000I-50000J0D01*
G01*
X11255000Y-8314000D02*
X11355000Y-8414000D01*
X11355000Y-8314000D02*
X11255000Y-8414000D01*
X11355000Y-8364000D02*
G75*
G03*
X11355000Y-8364000I-50000J0D01*
G01*
D17*
X12448500Y-8435500D02*
X12553500Y-8540500D01*
X12553500Y-8435500D02*
X12448500Y-8540500D01*
X12501000Y-8435500D02*
X12501000Y-8540500D01*
X12448500Y-8488000D02*
X12553500Y-8488000D01*
X12948500Y-8435500D02*
X13053500Y-8540500D01*
X13053500Y-8435500D02*
X12948500Y-8540500D01*
X13001000Y-8435500D02*
X13001000Y-8540500D01*
X12948500Y-8488000D02*
X13053500Y-8488000D01*
D18*
X11869000Y-6286000D02*
X12023000Y-6440000D01*
X12023000Y-6286000D02*
X11869000Y-6440000D01*
X12000448Y-6417448D02*
X12000448Y-6308552D01*
X11891552Y-6308552D01*
X11891552Y-6417448D01*
X12000448Y-6417448D01*
X12609000Y-10536000D02*
X12763000Y-10690000D01*
X12763000Y-10536000D02*
X12609000Y-10690000D01*
X12740448Y-10667448D02*
X12740448Y-10558552D01*
X12631552Y-10558552D01*
X12631552Y-10667448D01*
X12740448Y-10667448D01*
X13389000Y-10536000D02*
X13543000Y-10690000D01*
X13543000Y-10536000D02*
X13389000Y-10690000D01*
X13520448Y-10667448D02*
X13520448Y-10558552D01*
X13411552Y-10558552D01*
X13411552Y-10667448D01*
X13520448Y-10667448D01*
X14129000Y-6286000D02*
X14283000Y-6440000D01*
X14283000Y-6286000D02*
X14129000Y-6440000D01*
X14260448Y-6417448D02*
X14260448Y-6308552D01*
X14151552Y-6308552D01*
X14151552Y-6417448D01*
X14260448Y-6417448D01*
D19*
X10191000Y-6303000D02*
X10411000Y-6523000D01*
X10411000Y-6303000D02*
X10191000Y-6523000D01*
X10301000Y-6523000D02*
X10411000Y-6413000D01*
X10301000Y-6303000D01*
X10191000Y-6413000D01*
X10301000Y-6523000D01*
X10191000Y-10453000D02*
X10411000Y-10673000D01*
X10411000Y-10453000D02*
X10191000Y-10673000D01*
X10301000Y-10673000D02*
X10411000Y-10563000D01*
X10301000Y-10453000D01*
X10191000Y-10563000D01*
X10301000Y-10673000D01*
X15591000Y-10453000D02*
X15811000Y-10673000D01*
X15811000Y-10453000D02*
X15591000Y-10673000D01*
X15701000Y-10673000D02*
X15811000Y-10563000D01*
X15701000Y-10453000D01*
X15591000Y-10563000D01*
X15701000Y-10673000D01*
D20*
X10350000Y-7690500D02*
X10350000Y-8085500D01*
X10152500Y-7888000D02*
X10547500Y-7888000D01*
X10547500Y-7888000D02*
G75*
G03*
X10547500Y-7888000I-197500J0D01*
G01*
X10356400Y-6890500D02*
X10356400Y-7285500D01*
X10158900Y-7088000D02*
X10553900Y-7088000D01*
X10553900Y-7088000D02*
G75*
G03*
X10553900Y-7088000I-197500J0D01*
G01*
X14951000Y-10315500D02*
X14951000Y-10710500D01*
X14753500Y-10513000D02*
X15148500Y-10513000D01*
X15148500Y-10513000D02*
G75*
G03*
X15148500Y-10513000I-197500J0D01*
G01*
X15651000Y-8790500D02*
X15651000Y-9185500D01*
X15453500Y-8988000D02*
X15848500Y-8988000D01*
X15848500Y-8988000D02*
G75*
G03*
X15848500Y-8988000I-197500J0D01*
G01*
D11*
X10256777Y-11179484D02*
X10256777Y-10979484D01*
X10256777Y-10979484D02*
X10304396Y-10979484D01*
X10304396Y-10979484D02*
X10332967Y-10989008D01*
X10332967Y-10989008D02*
X10352015Y-11008055D01*
X10352015Y-11008055D02*
X10361539Y-11027103D01*
X10361539Y-11027103D02*
X10371063Y-11065198D01*
X10371063Y-11065198D02*
X10371063Y-11093770D01*
X10371063Y-11093770D02*
X10361539Y-11131865D01*
X10361539Y-11131865D02*
X10352015Y-11150912D01*
X10352015Y-11150912D02*
X10332967Y-11169960D01*
X10332967Y-11169960D02*
X10304396Y-11179484D01*
X10304396Y-11179484D02*
X10256777Y-11179484D01*
X10456777Y-11179484D02*
X10456777Y-11046150D01*
X10456777Y-11084246D02*
X10466301Y-11065198D01*
X10466301Y-11065198D02*
X10475824Y-11055674D01*
X10475824Y-11055674D02*
X10494872Y-11046150D01*
X10494872Y-11046150D02*
X10513920Y-11046150D01*
X10580586Y-11179484D02*
X10580586Y-11046150D01*
X10580586Y-10979484D02*
X10571063Y-10989008D01*
X10571063Y-10989008D02*
X10580586Y-10998531D01*
X10580586Y-10998531D02*
X10590110Y-10989008D01*
X10590110Y-10989008D02*
X10580586Y-10979484D01*
X10580586Y-10979484D02*
X10580586Y-10998531D01*
X10704396Y-11179484D02*
X10685348Y-11169960D01*
X10685348Y-11169960D02*
X10675824Y-11150912D01*
X10675824Y-11150912D02*
X10675824Y-10979484D01*
X10809158Y-11179484D02*
X10790110Y-11169960D01*
X10790110Y-11169960D02*
X10780586Y-11150912D01*
X10780586Y-11150912D02*
X10780586Y-10979484D01*
X11037729Y-11179484D02*
X11037729Y-10979484D01*
X11037729Y-10979484D02*
X11104396Y-11122341D01*
X11104396Y-11122341D02*
X11171063Y-10979484D01*
X11171063Y-10979484D02*
X11171063Y-11179484D01*
X11352015Y-11179484D02*
X11352015Y-11074722D01*
X11352015Y-11074722D02*
X11342491Y-11055674D01*
X11342491Y-11055674D02*
X11323443Y-11046150D01*
X11323443Y-11046150D02*
X11285348Y-11046150D01*
X11285348Y-11046150D02*
X11266301Y-11055674D01*
X11352015Y-11169960D02*
X11332967Y-11179484D01*
X11332967Y-11179484D02*
X11285348Y-11179484D01*
X11285348Y-11179484D02*
X11266301Y-11169960D01*
X11266301Y-11169960D02*
X11256777Y-11150912D01*
X11256777Y-11150912D02*
X11256777Y-11131865D01*
X11256777Y-11131865D02*
X11266301Y-11112817D01*
X11266301Y-11112817D02*
X11285348Y-11103293D01*
X11285348Y-11103293D02*
X11332967Y-11103293D01*
X11332967Y-11103293D02*
X11352015Y-11093770D01*
X11447253Y-11046150D02*
X11447253Y-11246150D01*
X11447253Y-11055674D02*
X11466301Y-11046150D01*
X11466301Y-11046150D02*
X11504396Y-11046150D01*
X11504396Y-11046150D02*
X11523443Y-11055674D01*
X11523443Y-11055674D02*
X11532967Y-11065198D01*
X11532967Y-11065198D02*
X11542491Y-11084246D01*
X11542491Y-11084246D02*
X11542491Y-11141389D01*
X11542491Y-11141389D02*
X11532967Y-11160436D01*
X11532967Y-11160436D02*
X11523443Y-11169960D01*
X11523443Y-11169960D02*
X11504396Y-11179484D01*
X11504396Y-11179484D02*
X11466301Y-11179484D01*
X11466301Y-11179484D02*
X11447253Y-11169960D01*
X11628205Y-11160436D02*
X11637729Y-11169960D01*
X11637729Y-11169960D02*
X11628205Y-11179484D01*
X11628205Y-11179484D02*
X11618682Y-11169960D01*
X11618682Y-11169960D02*
X11628205Y-11160436D01*
X11628205Y-11160436D02*
X11628205Y-11179484D01*
X11628205Y-11055674D02*
X11637729Y-11065198D01*
X11637729Y-11065198D02*
X11628205Y-11074722D01*
X11628205Y-11074722D02*
X11618682Y-11065198D01*
X11618682Y-11065198D02*
X11628205Y-11055674D01*
X11628205Y-11055674D02*
X11628205Y-11074722D01*
D12*
X9966000Y-11493000D02*
X9996000Y-11523000D01*
X9996000Y-11493000D02*
X9966000Y-11523000D01*
D11*
X10294872Y-11399484D02*
X10313920Y-11399484D01*
X10313920Y-11399484D02*
X10332967Y-11409008D01*
X10332967Y-11409008D02*
X10342491Y-11418531D01*
X10342491Y-11418531D02*
X10352015Y-11437579D01*
X10352015Y-11437579D02*
X10361539Y-11475674D01*
X10361539Y-11475674D02*
X10361539Y-11523293D01*
X10361539Y-11523293D02*
X10352015Y-11561388D01*
X10352015Y-11561388D02*
X10342491Y-11580436D01*
X10342491Y-11580436D02*
X10332967Y-11589960D01*
X10332967Y-11589960D02*
X10313920Y-11599484D01*
X10313920Y-11599484D02*
X10294872Y-11599484D01*
X10294872Y-11599484D02*
X10275824Y-11589960D01*
X10275824Y-11589960D02*
X10266301Y-11580436D01*
X10266301Y-11580436D02*
X10256777Y-11561388D01*
X10256777Y-11561388D02*
X10247253Y-11523293D01*
X10247253Y-11523293D02*
X10247253Y-11475674D01*
X10247253Y-11475674D02*
X10256777Y-11437579D01*
X10256777Y-11437579D02*
X10266301Y-11418531D01*
X10266301Y-11418531D02*
X10275824Y-11409008D01*
X10275824Y-11409008D02*
X10294872Y-11399484D01*
X10447253Y-11580436D02*
X10456777Y-11589960D01*
X10456777Y-11589960D02*
X10447253Y-11599484D01*
X10447253Y-11599484D02*
X10437729Y-11589960D01*
X10437729Y-11589960D02*
X10447253Y-11580436D01*
X10447253Y-11580436D02*
X10447253Y-11599484D01*
X10523444Y-11399484D02*
X10647253Y-11399484D01*
X10647253Y-11399484D02*
X10580586Y-11475674D01*
X10580586Y-11475674D02*
X10609158Y-11475674D01*
X10609158Y-11475674D02*
X10628205Y-11485198D01*
X10628205Y-11485198D02*
X10637729Y-11494722D01*
X10637729Y-11494722D02*
X10647253Y-11513769D01*
X10647253Y-11513769D02*
X10647253Y-11561388D01*
X10647253Y-11561388D02*
X10637729Y-11580436D01*
X10637729Y-11580436D02*
X10628205Y-11589960D01*
X10628205Y-11589960D02*
X10609158Y-11599484D01*
X10609158Y-11599484D02*
X10552015Y-11599484D01*
X10552015Y-11599484D02*
X10532967Y-11589960D01*
X10532967Y-11589960D02*
X10523444Y-11580436D01*
X10771063Y-11399484D02*
X10790110Y-11399484D01*
X10790110Y-11399484D02*
X10809158Y-11409008D01*
X10809158Y-11409008D02*
X10818682Y-11418531D01*
X10818682Y-11418531D02*
X10828205Y-11437579D01*
X10828205Y-11437579D02*
X10837729Y-11475674D01*
X10837729Y-11475674D02*
X10837729Y-11523293D01*
X10837729Y-11523293D02*
X10828205Y-11561388D01*
X10828205Y-11561388D02*
X10818682Y-11580436D01*
X10818682Y-11580436D02*
X10809158Y-11589960D01*
X10809158Y-11589960D02*
X10790110Y-11599484D01*
X10790110Y-11599484D02*
X10771063Y-11599484D01*
X10771063Y-11599484D02*
X10752015Y-11589960D01*
X10752015Y-11589960D02*
X10742491Y-11580436D01*
X10742491Y-11580436D02*
X10732967Y-11561388D01*
X10732967Y-11561388D02*
X10723444Y-11523293D01*
X10723444Y-11523293D02*
X10723444Y-11475674D01*
X10723444Y-11475674D02*
X10732967Y-11437579D01*
X10732967Y-11437579D02*
X10742491Y-11418531D01*
X10742491Y-11418531D02*
X10752015Y-11409008D01*
X10752015Y-11409008D02*
X10771063Y-11399484D01*
X10961539Y-11399484D02*
X10980586Y-11399484D01*
X10980586Y-11399484D02*
X10999634Y-11409008D01*
X10999634Y-11409008D02*
X11009158Y-11418531D01*
X11009158Y-11418531D02*
X11018682Y-11437579D01*
X11018682Y-11437579D02*
X11028205Y-11475674D01*
X11028205Y-11475674D02*
X11028205Y-11523293D01*
X11028205Y-11523293D02*
X11018682Y-11561388D01*
X11018682Y-11561388D02*
X11009158Y-11580436D01*
X11009158Y-11580436D02*
X10999634Y-11589960D01*
X10999634Y-11589960D02*
X10980586Y-11599484D01*
X10980586Y-11599484D02*
X10961539Y-11599484D01*
X10961539Y-11599484D02*
X10942491Y-11589960D01*
X10942491Y-11589960D02*
X10932967Y-11580436D01*
X10932967Y-11580436D02*
X10923444Y-11561388D01*
X10923444Y-11561388D02*
X10913920Y-11523293D01*
X10913920Y-11523293D02*
X10913920Y-11475674D01*
X10913920Y-11475674D02*
X10923444Y-11437579D01*
X10923444Y-11437579D02*
X10932967Y-11418531D01*
X10932967Y-11418531D02*
X10942491Y-11409008D01*
X10942491Y-11409008D02*
X10961539Y-11399484D01*
X11113920Y-11599484D02*
X11113920Y-11466150D01*
X11113920Y-11485198D02*
X11123444Y-11475674D01*
X11123444Y-11475674D02*
X11142491Y-11466150D01*
X11142491Y-11466150D02*
X11171063Y-11466150D01*
X11171063Y-11466150D02*
X11190110Y-11475674D01*
X11190110Y-11475674D02*
X11199634Y-11494722D01*
X11199634Y-11494722D02*
X11199634Y-11599484D01*
X11199634Y-11494722D02*
X11209158Y-11475674D01*
X11209158Y-11475674D02*
X11228205Y-11466150D01*
X11228205Y-11466150D02*
X11256777Y-11466150D01*
X11256777Y-11466150D02*
X11275824Y-11475674D01*
X11275824Y-11475674D02*
X11285348Y-11494722D01*
X11285348Y-11494722D02*
X11285348Y-11599484D01*
X11380586Y-11599484D02*
X11380586Y-11466150D01*
X11380586Y-11485198D02*
X11390110Y-11475674D01*
X11390110Y-11475674D02*
X11409158Y-11466150D01*
X11409158Y-11466150D02*
X11437729Y-11466150D01*
X11437729Y-11466150D02*
X11456777Y-11475674D01*
X11456777Y-11475674D02*
X11466301Y-11494722D01*
X11466301Y-11494722D02*
X11466301Y-11599484D01*
X11466301Y-11494722D02*
X11475824Y-11475674D01*
X11475824Y-11475674D02*
X11494872Y-11466150D01*
X11494872Y-11466150D02*
X11523443Y-11466150D01*
X11523443Y-11466150D02*
X11542491Y-11475674D01*
X11542491Y-11475674D02*
X11552015Y-11494722D01*
X11552015Y-11494722D02*
X11552015Y-11599484D01*
X11942491Y-11389960D02*
X11771063Y-11647103D01*
X12199634Y-11399484D02*
X12218682Y-11399484D01*
X12218682Y-11399484D02*
X12237729Y-11409008D01*
X12237729Y-11409008D02*
X12247253Y-11418531D01*
X12247253Y-11418531D02*
X12256777Y-11437579D01*
X12256777Y-11437579D02*
X12266301Y-11475674D01*
X12266301Y-11475674D02*
X12266301Y-11523293D01*
X12266301Y-11523293D02*
X12256777Y-11561388D01*
X12256777Y-11561388D02*
X12247253Y-11580436D01*
X12247253Y-11580436D02*
X12237729Y-11589960D01*
X12237729Y-11589960D02*
X12218682Y-11599484D01*
X12218682Y-11599484D02*
X12199634Y-11599484D01*
X12199634Y-11599484D02*
X12180586Y-11589960D01*
X12180586Y-11589960D02*
X12171063Y-11580436D01*
X12171063Y-11580436D02*
X12161539Y-11561388D01*
X12161539Y-11561388D02*
X12152015Y-11523293D01*
X12152015Y-11523293D02*
X12152015Y-11475674D01*
X12152015Y-11475674D02*
X12161539Y-11437579D01*
X12161539Y-11437579D02*
X12171063Y-11418531D01*
X12171063Y-11418531D02*
X12180586Y-11409008D01*
X12180586Y-11409008D02*
X12199634Y-11399484D01*
X12352015Y-11580436D02*
X12361539Y-11589960D01*
X12361539Y-11589960D02*
X12352015Y-11599484D01*
X12352015Y-11599484D02*
X12342491Y-11589960D01*
X12342491Y-11589960D02*
X12352015Y-11580436D01*
X12352015Y-11580436D02*
X12352015Y-11599484D01*
X12485348Y-11399484D02*
X12504396Y-11399484D01*
X12504396Y-11399484D02*
X12523444Y-11409008D01*
X12523444Y-11409008D02*
X12532967Y-11418531D01*
X12532967Y-11418531D02*
X12542491Y-11437579D01*
X12542491Y-11437579D02*
X12552015Y-11475674D01*
X12552015Y-11475674D02*
X12552015Y-11523293D01*
X12552015Y-11523293D02*
X12542491Y-11561388D01*
X12542491Y-11561388D02*
X12532967Y-11580436D01*
X12532967Y-11580436D02*
X12523444Y-11589960D01*
X12523444Y-11589960D02*
X12504396Y-11599484D01*
X12504396Y-11599484D02*
X12485348Y-11599484D01*
X12485348Y-11599484D02*
X12466301Y-11589960D01*
X12466301Y-11589960D02*
X12456777Y-11580436D01*
X12456777Y-11580436D02*
X12447253Y-11561388D01*
X12447253Y-11561388D02*
X12437729Y-11523293D01*
X12437729Y-11523293D02*
X12437729Y-11475674D01*
X12437729Y-11475674D02*
X12447253Y-11437579D01*
X12447253Y-11437579D02*
X12456777Y-11418531D01*
X12456777Y-11418531D02*
X12466301Y-11409008D01*
X12466301Y-11409008D02*
X12485348Y-11399484D01*
X12742491Y-11599484D02*
X12628206Y-11599484D01*
X12685348Y-11599484D02*
X12685348Y-11399484D01*
X12685348Y-11399484D02*
X12666301Y-11428055D01*
X12666301Y-11428055D02*
X12647253Y-11447103D01*
X12647253Y-11447103D02*
X12628206Y-11456627D01*
X12932967Y-11599484D02*
X12818682Y-11599484D01*
X12875825Y-11599484D02*
X12875825Y-11399484D01*
X12875825Y-11399484D02*
X12856777Y-11428055D01*
X12856777Y-11428055D02*
X12837729Y-11447103D01*
X12837729Y-11447103D02*
X12818682Y-11456627D01*
X13047253Y-11485198D02*
X13028206Y-11475674D01*
X13028206Y-11475674D02*
X13018682Y-11466150D01*
X13018682Y-11466150D02*
X13009158Y-11447103D01*
X13009158Y-11447103D02*
X13009158Y-11437579D01*
X13009158Y-11437579D02*
X13018682Y-11418531D01*
X13018682Y-11418531D02*
X13028206Y-11409008D01*
X13028206Y-11409008D02*
X13047253Y-11399484D01*
X13047253Y-11399484D02*
X13085348Y-11399484D01*
X13085348Y-11399484D02*
X13104396Y-11409008D01*
X13104396Y-11409008D02*
X13113920Y-11418531D01*
X13113920Y-11418531D02*
X13123444Y-11437579D01*
X13123444Y-11437579D02*
X13123444Y-11447103D01*
X13123444Y-11447103D02*
X13113920Y-11466150D01*
X13113920Y-11466150D02*
X13104396Y-11475674D01*
X13104396Y-11475674D02*
X13085348Y-11485198D01*
X13085348Y-11485198D02*
X13047253Y-11485198D01*
X13047253Y-11485198D02*
X13028206Y-11494722D01*
X13028206Y-11494722D02*
X13018682Y-11504246D01*
X13018682Y-11504246D02*
X13009158Y-11523293D01*
X13009158Y-11523293D02*
X13009158Y-11561388D01*
X13009158Y-11561388D02*
X13018682Y-11580436D01*
X13018682Y-11580436D02*
X13028206Y-11589960D01*
X13028206Y-11589960D02*
X13047253Y-11599484D01*
X13047253Y-11599484D02*
X13085348Y-11599484D01*
X13085348Y-11599484D02*
X13104396Y-11589960D01*
X13104396Y-11589960D02*
X13113920Y-11580436D01*
X13113920Y-11580436D02*
X13123444Y-11561388D01*
X13123444Y-11561388D02*
X13123444Y-11523293D01*
X13123444Y-11523293D02*
X13113920Y-11504246D01*
X13113920Y-11504246D02*
X13104396Y-11494722D01*
X13104396Y-11494722D02*
X13085348Y-11485198D01*
X13199634Y-11399484D02*
X13199634Y-11437579D01*
X13275825Y-11399484D02*
X13275825Y-11437579D01*
X13571063Y-11675674D02*
X13561539Y-11666150D01*
X13561539Y-11666150D02*
X13542491Y-11637579D01*
X13542491Y-11637579D02*
X13532968Y-11618531D01*
X13532968Y-11618531D02*
X13523444Y-11589960D01*
X13523444Y-11589960D02*
X13513920Y-11542341D01*
X13513920Y-11542341D02*
X13513920Y-11504246D01*
X13513920Y-11504246D02*
X13523444Y-11456627D01*
X13523444Y-11456627D02*
X13532968Y-11428055D01*
X13532968Y-11428055D02*
X13542491Y-11409008D01*
X13542491Y-11409008D02*
X13561539Y-11380436D01*
X13561539Y-11380436D02*
X13571063Y-11370912D01*
X13656777Y-11599484D02*
X13694872Y-11599484D01*
X13694872Y-11599484D02*
X13713920Y-11589960D01*
X13713920Y-11589960D02*
X13723444Y-11580436D01*
X13723444Y-11580436D02*
X13742491Y-11551865D01*
X13742491Y-11551865D02*
X13752015Y-11513769D01*
X13752015Y-11513769D02*
X13752015Y-11437579D01*
X13752015Y-11437579D02*
X13742491Y-11418531D01*
X13742491Y-11418531D02*
X13732968Y-11409008D01*
X13732968Y-11409008D02*
X13713920Y-11399484D01*
X13713920Y-11399484D02*
X13675825Y-11399484D01*
X13675825Y-11399484D02*
X13656777Y-11409008D01*
X13656777Y-11409008D02*
X13647253Y-11418531D01*
X13647253Y-11418531D02*
X13637729Y-11437579D01*
X13637729Y-11437579D02*
X13637729Y-11485198D01*
X13637729Y-11485198D02*
X13647253Y-11504246D01*
X13647253Y-11504246D02*
X13656777Y-11513769D01*
X13656777Y-11513769D02*
X13675825Y-11523293D01*
X13675825Y-11523293D02*
X13713920Y-11523293D01*
X13713920Y-11523293D02*
X13732968Y-11513769D01*
X13732968Y-11513769D02*
X13742491Y-11504246D01*
X13742491Y-11504246D02*
X13752015Y-11485198D01*
X13875825Y-11399484D02*
X13894872Y-11399484D01*
X13894872Y-11399484D02*
X13913920Y-11409008D01*
X13913920Y-11409008D02*
X13923444Y-11418531D01*
X13923444Y-11418531D02*
X13932968Y-11437579D01*
X13932968Y-11437579D02*
X13942491Y-11475674D01*
X13942491Y-11475674D02*
X13942491Y-11523293D01*
X13942491Y-11523293D02*
X13932968Y-11561388D01*
X13932968Y-11561388D02*
X13923444Y-11580436D01*
X13923444Y-11580436D02*
X13913920Y-11589960D01*
X13913920Y-11589960D02*
X13894872Y-11599484D01*
X13894872Y-11599484D02*
X13875825Y-11599484D01*
X13875825Y-11599484D02*
X13856777Y-11589960D01*
X13856777Y-11589960D02*
X13847253Y-11580436D01*
X13847253Y-11580436D02*
X13837729Y-11561388D01*
X13837729Y-11561388D02*
X13828206Y-11523293D01*
X13828206Y-11523293D02*
X13828206Y-11475674D01*
X13828206Y-11475674D02*
X13837729Y-11437579D01*
X13837729Y-11437579D02*
X13847253Y-11418531D01*
X13847253Y-11418531D02*
X13856777Y-11409008D01*
X13856777Y-11409008D02*
X13875825Y-11399484D01*
X14180587Y-11599484D02*
X14180587Y-11399484D01*
X14266301Y-11599484D02*
X14266301Y-11494722D01*
X14266301Y-11494722D02*
X14256777Y-11475674D01*
X14256777Y-11475674D02*
X14237730Y-11466150D01*
X14237730Y-11466150D02*
X14209158Y-11466150D01*
X14209158Y-11466150D02*
X14190110Y-11475674D01*
X14190110Y-11475674D02*
X14180587Y-11485198D01*
X14390110Y-11599484D02*
X14371063Y-11589960D01*
X14371063Y-11589960D02*
X14361539Y-11580436D01*
X14361539Y-11580436D02*
X14352015Y-11561388D01*
X14352015Y-11561388D02*
X14352015Y-11504246D01*
X14352015Y-11504246D02*
X14361539Y-11485198D01*
X14361539Y-11485198D02*
X14371063Y-11475674D01*
X14371063Y-11475674D02*
X14390110Y-11466150D01*
X14390110Y-11466150D02*
X14418682Y-11466150D01*
X14418682Y-11466150D02*
X14437730Y-11475674D01*
X14437730Y-11475674D02*
X14447253Y-11485198D01*
X14447253Y-11485198D02*
X14456777Y-11504246D01*
X14456777Y-11504246D02*
X14456777Y-11561388D01*
X14456777Y-11561388D02*
X14447253Y-11580436D01*
X14447253Y-11580436D02*
X14437730Y-11589960D01*
X14437730Y-11589960D02*
X14418682Y-11599484D01*
X14418682Y-11599484D02*
X14390110Y-11599484D01*
X14571063Y-11599484D02*
X14552015Y-11589960D01*
X14552015Y-11589960D02*
X14542491Y-11570912D01*
X14542491Y-11570912D02*
X14542491Y-11399484D01*
X14723444Y-11589960D02*
X14704396Y-11599484D01*
X14704396Y-11599484D02*
X14666301Y-11599484D01*
X14666301Y-11599484D02*
X14647253Y-11589960D01*
X14647253Y-11589960D02*
X14637730Y-11570912D01*
X14637730Y-11570912D02*
X14637730Y-11494722D01*
X14637730Y-11494722D02*
X14647253Y-11475674D01*
X14647253Y-11475674D02*
X14666301Y-11466150D01*
X14666301Y-11466150D02*
X14704396Y-11466150D01*
X14704396Y-11466150D02*
X14723444Y-11475674D01*
X14723444Y-11475674D02*
X14732968Y-11494722D01*
X14732968Y-11494722D02*
X14732968Y-11513769D01*
X14732968Y-11513769D02*
X14637730Y-11532817D01*
X14809158Y-11589960D02*
X14828206Y-11599484D01*
X14828206Y-11599484D02*
X14866301Y-11599484D01*
X14866301Y-11599484D02*
X14885349Y-11589960D01*
X14885349Y-11589960D02*
X14894872Y-11570912D01*
X14894872Y-11570912D02*
X14894872Y-11561388D01*
X14894872Y-11561388D02*
X14885349Y-11542341D01*
X14885349Y-11542341D02*
X14866301Y-11532817D01*
X14866301Y-11532817D02*
X14837730Y-11532817D01*
X14837730Y-11532817D02*
X14818682Y-11523293D01*
X14818682Y-11523293D02*
X14809158Y-11504246D01*
X14809158Y-11504246D02*
X14809158Y-11494722D01*
X14809158Y-11494722D02*
X14818682Y-11475674D01*
X14818682Y-11475674D02*
X14837730Y-11466150D01*
X14837730Y-11466150D02*
X14866301Y-11466150D01*
X14866301Y-11466150D02*
X14885349Y-11475674D01*
X14961539Y-11675674D02*
X14971063Y-11666150D01*
X14971063Y-11666150D02*
X14990111Y-11637579D01*
X14990111Y-11637579D02*
X14999634Y-11618531D01*
X14999634Y-11618531D02*
X15009158Y-11589960D01*
X15009158Y-11589960D02*
X15018682Y-11542341D01*
X15018682Y-11542341D02*
X15018682Y-11504246D01*
X15018682Y-11504246D02*
X15009158Y-11456627D01*
X15009158Y-11456627D02*
X14999634Y-11428055D01*
X14999634Y-11428055D02*
X14990111Y-11409008D01*
X14990111Y-11409008D02*
X14971063Y-11380436D01*
X14971063Y-11380436D02*
X14961539Y-11370912D01*
D13*
X9996000Y-11772000D02*
G75*
G03*
X9996000Y-11772000I-20000J0D01*
G01*
D11*
X10294872Y-11663484D02*
X10313920Y-11663484D01*
X10313920Y-11663484D02*
X10332967Y-11673008D01*
X10332967Y-11673008D02*
X10342491Y-11682531D01*
X10342491Y-11682531D02*
X10352015Y-11701579D01*
X10352015Y-11701579D02*
X10361539Y-11739674D01*
X10361539Y-11739674D02*
X10361539Y-11787293D01*
X10361539Y-11787293D02*
X10352015Y-11825388D01*
X10352015Y-11825388D02*
X10342491Y-11844436D01*
X10342491Y-11844436D02*
X10332967Y-11853960D01*
X10332967Y-11853960D02*
X10313920Y-11863484D01*
X10313920Y-11863484D02*
X10294872Y-11863484D01*
X10294872Y-11863484D02*
X10275824Y-11853960D01*
X10275824Y-11853960D02*
X10266301Y-11844436D01*
X10266301Y-11844436D02*
X10256777Y-11825388D01*
X10256777Y-11825388D02*
X10247253Y-11787293D01*
X10247253Y-11787293D02*
X10247253Y-11739674D01*
X10247253Y-11739674D02*
X10256777Y-11701579D01*
X10256777Y-11701579D02*
X10266301Y-11682531D01*
X10266301Y-11682531D02*
X10275824Y-11673008D01*
X10275824Y-11673008D02*
X10294872Y-11663484D01*
X10447253Y-11844436D02*
X10456777Y-11853960D01*
X10456777Y-11853960D02*
X10447253Y-11863484D01*
X10447253Y-11863484D02*
X10437729Y-11853960D01*
X10437729Y-11853960D02*
X10447253Y-11844436D01*
X10447253Y-11844436D02*
X10447253Y-11863484D01*
X10628205Y-11730150D02*
X10628205Y-11863484D01*
X10580586Y-11653960D02*
X10532967Y-11796817D01*
X10532967Y-11796817D02*
X10656777Y-11796817D01*
X10771063Y-11663484D02*
X10790110Y-11663484D01*
X10790110Y-11663484D02*
X10809158Y-11673008D01*
X10809158Y-11673008D02*
X10818682Y-11682531D01*
X10818682Y-11682531D02*
X10828205Y-11701579D01*
X10828205Y-11701579D02*
X10837729Y-11739674D01*
X10837729Y-11739674D02*
X10837729Y-11787293D01*
X10837729Y-11787293D02*
X10828205Y-11825388D01*
X10828205Y-11825388D02*
X10818682Y-11844436D01*
X10818682Y-11844436D02*
X10809158Y-11853960D01*
X10809158Y-11853960D02*
X10790110Y-11863484D01*
X10790110Y-11863484D02*
X10771063Y-11863484D01*
X10771063Y-11863484D02*
X10752015Y-11853960D01*
X10752015Y-11853960D02*
X10742491Y-11844436D01*
X10742491Y-11844436D02*
X10732967Y-11825388D01*
X10732967Y-11825388D02*
X10723444Y-11787293D01*
X10723444Y-11787293D02*
X10723444Y-11739674D01*
X10723444Y-11739674D02*
X10732967Y-11701579D01*
X10732967Y-11701579D02*
X10742491Y-11682531D01*
X10742491Y-11682531D02*
X10752015Y-11673008D01*
X10752015Y-11673008D02*
X10771063Y-11663484D01*
X10961539Y-11663484D02*
X10980586Y-11663484D01*
X10980586Y-11663484D02*
X10999634Y-11673008D01*
X10999634Y-11673008D02*
X11009158Y-11682531D01*
X11009158Y-11682531D02*
X11018682Y-11701579D01*
X11018682Y-11701579D02*
X11028205Y-11739674D01*
X11028205Y-11739674D02*
X11028205Y-11787293D01*
X11028205Y-11787293D02*
X11018682Y-11825388D01*
X11018682Y-11825388D02*
X11009158Y-11844436D01*
X11009158Y-11844436D02*
X10999634Y-11853960D01*
X10999634Y-11853960D02*
X10980586Y-11863484D01*
X10980586Y-11863484D02*
X10961539Y-11863484D01*
X10961539Y-11863484D02*
X10942491Y-11853960D01*
X10942491Y-11853960D02*
X10932967Y-11844436D01*
X10932967Y-11844436D02*
X10923444Y-11825388D01*
X10923444Y-11825388D02*
X10913920Y-11787293D01*
X10913920Y-11787293D02*
X10913920Y-11739674D01*
X10913920Y-11739674D02*
X10923444Y-11701579D01*
X10923444Y-11701579D02*
X10932967Y-11682531D01*
X10932967Y-11682531D02*
X10942491Y-11673008D01*
X10942491Y-11673008D02*
X10961539Y-11663484D01*
X11113920Y-11863484D02*
X11113920Y-11730150D01*
X11113920Y-11749198D02*
X11123444Y-11739674D01*
X11123444Y-11739674D02*
X11142491Y-11730150D01*
X11142491Y-11730150D02*
X11171063Y-11730150D01*
X11171063Y-11730150D02*
X11190110Y-11739674D01*
X11190110Y-11739674D02*
X11199634Y-11758722D01*
X11199634Y-11758722D02*
X11199634Y-11863484D01*
X11199634Y-11758722D02*
X11209158Y-11739674D01*
X11209158Y-11739674D02*
X11228205Y-11730150D01*
X11228205Y-11730150D02*
X11256777Y-11730150D01*
X11256777Y-11730150D02*
X11275824Y-11739674D01*
X11275824Y-11739674D02*
X11285348Y-11758722D01*
X11285348Y-11758722D02*
X11285348Y-11863484D01*
X11380586Y-11863484D02*
X11380586Y-11730150D01*
X11380586Y-11749198D02*
X11390110Y-11739674D01*
X11390110Y-11739674D02*
X11409158Y-11730150D01*
X11409158Y-11730150D02*
X11437729Y-11730150D01*
X11437729Y-11730150D02*
X11456777Y-11739674D01*
X11456777Y-11739674D02*
X11466301Y-11758722D01*
X11466301Y-11758722D02*
X11466301Y-11863484D01*
X11466301Y-11758722D02*
X11475824Y-11739674D01*
X11475824Y-11739674D02*
X11494872Y-11730150D01*
X11494872Y-11730150D02*
X11523443Y-11730150D01*
X11523443Y-11730150D02*
X11542491Y-11739674D01*
X11542491Y-11739674D02*
X11552015Y-11758722D01*
X11552015Y-11758722D02*
X11552015Y-11863484D01*
X11942491Y-11653960D02*
X11771063Y-11911103D01*
X12199634Y-11663484D02*
X12218682Y-11663484D01*
X12218682Y-11663484D02*
X12237729Y-11673008D01*
X12237729Y-11673008D02*
X12247253Y-11682531D01*
X12247253Y-11682531D02*
X12256777Y-11701579D01*
X12256777Y-11701579D02*
X12266301Y-11739674D01*
X12266301Y-11739674D02*
X12266301Y-11787293D01*
X12266301Y-11787293D02*
X12256777Y-11825388D01*
X12256777Y-11825388D02*
X12247253Y-11844436D01*
X12247253Y-11844436D02*
X12237729Y-11853960D01*
X12237729Y-11853960D02*
X12218682Y-11863484D01*
X12218682Y-11863484D02*
X12199634Y-11863484D01*
X12199634Y-11863484D02*
X12180586Y-11853960D01*
X12180586Y-11853960D02*
X12171063Y-11844436D01*
X12171063Y-11844436D02*
X12161539Y-11825388D01*
X12161539Y-11825388D02*
X12152015Y-11787293D01*
X12152015Y-11787293D02*
X12152015Y-11739674D01*
X12152015Y-11739674D02*
X12161539Y-11701579D01*
X12161539Y-11701579D02*
X12171063Y-11682531D01*
X12171063Y-11682531D02*
X12180586Y-11673008D01*
X12180586Y-11673008D02*
X12199634Y-11663484D01*
X12352015Y-11844436D02*
X12361539Y-11853960D01*
X12361539Y-11853960D02*
X12352015Y-11863484D01*
X12352015Y-11863484D02*
X12342491Y-11853960D01*
X12342491Y-11853960D02*
X12352015Y-11844436D01*
X12352015Y-11844436D02*
X12352015Y-11863484D01*
X12485348Y-11663484D02*
X12504396Y-11663484D01*
X12504396Y-11663484D02*
X12523444Y-11673008D01*
X12523444Y-11673008D02*
X12532967Y-11682531D01*
X12532967Y-11682531D02*
X12542491Y-11701579D01*
X12542491Y-11701579D02*
X12552015Y-11739674D01*
X12552015Y-11739674D02*
X12552015Y-11787293D01*
X12552015Y-11787293D02*
X12542491Y-11825388D01*
X12542491Y-11825388D02*
X12532967Y-11844436D01*
X12532967Y-11844436D02*
X12523444Y-11853960D01*
X12523444Y-11853960D02*
X12504396Y-11863484D01*
X12504396Y-11863484D02*
X12485348Y-11863484D01*
X12485348Y-11863484D02*
X12466301Y-11853960D01*
X12466301Y-11853960D02*
X12456777Y-11844436D01*
X12456777Y-11844436D02*
X12447253Y-11825388D01*
X12447253Y-11825388D02*
X12437729Y-11787293D01*
X12437729Y-11787293D02*
X12437729Y-11739674D01*
X12437729Y-11739674D02*
X12447253Y-11701579D01*
X12447253Y-11701579D02*
X12456777Y-11682531D01*
X12456777Y-11682531D02*
X12466301Y-11673008D01*
X12466301Y-11673008D02*
X12485348Y-11663484D01*
X12742491Y-11863484D02*
X12628206Y-11863484D01*
X12685348Y-11863484D02*
X12685348Y-11663484D01*
X12685348Y-11663484D02*
X12666301Y-11692055D01*
X12666301Y-11692055D02*
X12647253Y-11711103D01*
X12647253Y-11711103D02*
X12628206Y-11720627D01*
X12923444Y-11663484D02*
X12828206Y-11663484D01*
X12828206Y-11663484D02*
X12818682Y-11758722D01*
X12818682Y-11758722D02*
X12828206Y-11749198D01*
X12828206Y-11749198D02*
X12847253Y-11739674D01*
X12847253Y-11739674D02*
X12894872Y-11739674D01*
X12894872Y-11739674D02*
X12913920Y-11749198D01*
X12913920Y-11749198D02*
X12923444Y-11758722D01*
X12923444Y-11758722D02*
X12932967Y-11777769D01*
X12932967Y-11777769D02*
X12932967Y-11825388D01*
X12932967Y-11825388D02*
X12923444Y-11844436D01*
X12923444Y-11844436D02*
X12913920Y-11853960D01*
X12913920Y-11853960D02*
X12894872Y-11863484D01*
X12894872Y-11863484D02*
X12847253Y-11863484D01*
X12847253Y-11863484D02*
X12828206Y-11853960D01*
X12828206Y-11853960D02*
X12818682Y-11844436D01*
X12999634Y-11663484D02*
X13132967Y-11663484D01*
X13132967Y-11663484D02*
X13047253Y-11863484D01*
X13199634Y-11663484D02*
X13199634Y-11701579D01*
X13275825Y-11663484D02*
X13275825Y-11701579D01*
X13571063Y-11939674D02*
X13561539Y-11930150D01*
X13561539Y-11930150D02*
X13542491Y-11901579D01*
X13542491Y-11901579D02*
X13532968Y-11882531D01*
X13532968Y-11882531D02*
X13523444Y-11853960D01*
X13523444Y-11853960D02*
X13513920Y-11806341D01*
X13513920Y-11806341D02*
X13513920Y-11768246D01*
X13513920Y-11768246D02*
X13523444Y-11720627D01*
X13523444Y-11720627D02*
X13532968Y-11692055D01*
X13532968Y-11692055D02*
X13542491Y-11673008D01*
X13542491Y-11673008D02*
X13561539Y-11644436D01*
X13561539Y-11644436D02*
X13571063Y-11634912D01*
X13637729Y-11682531D02*
X13647253Y-11673008D01*
X13647253Y-11673008D02*
X13666301Y-11663484D01*
X13666301Y-11663484D02*
X13713920Y-11663484D01*
X13713920Y-11663484D02*
X13732968Y-11673008D01*
X13732968Y-11673008D02*
X13742491Y-11682531D01*
X13742491Y-11682531D02*
X13752015Y-11701579D01*
X13752015Y-11701579D02*
X13752015Y-11720627D01*
X13752015Y-11720627D02*
X13742491Y-11749198D01*
X13742491Y-11749198D02*
X13628206Y-11863484D01*
X13628206Y-11863484D02*
X13752015Y-11863484D01*
X13923444Y-11730150D02*
X13923444Y-11863484D01*
X13875825Y-11653960D02*
X13828206Y-11796817D01*
X13828206Y-11796817D02*
X13952015Y-11796817D01*
X14180587Y-11863484D02*
X14180587Y-11663484D01*
X14266301Y-11863484D02*
X14266301Y-11758722D01*
X14266301Y-11758722D02*
X14256777Y-11739674D01*
X14256777Y-11739674D02*
X14237730Y-11730150D01*
X14237730Y-11730150D02*
X14209158Y-11730150D01*
X14209158Y-11730150D02*
X14190110Y-11739674D01*
X14190110Y-11739674D02*
X14180587Y-11749198D01*
X14390110Y-11863484D02*
X14371063Y-11853960D01*
X14371063Y-11853960D02*
X14361539Y-11844436D01*
X14361539Y-11844436D02*
X14352015Y-11825388D01*
X14352015Y-11825388D02*
X14352015Y-11768246D01*
X14352015Y-11768246D02*
X14361539Y-11749198D01*
X14361539Y-11749198D02*
X14371063Y-11739674D01*
X14371063Y-11739674D02*
X14390110Y-11730150D01*
X14390110Y-11730150D02*
X14418682Y-11730150D01*
X14418682Y-11730150D02*
X14437730Y-11739674D01*
X14437730Y-11739674D02*
X14447253Y-11749198D01*
X14447253Y-11749198D02*
X14456777Y-11768246D01*
X14456777Y-11768246D02*
X14456777Y-11825388D01*
X14456777Y-11825388D02*
X14447253Y-11844436D01*
X14447253Y-11844436D02*
X14437730Y-11853960D01*
X14437730Y-11853960D02*
X14418682Y-11863484D01*
X14418682Y-11863484D02*
X14390110Y-11863484D01*
X14571063Y-11863484D02*
X14552015Y-11853960D01*
X14552015Y-11853960D02*
X14542491Y-11834912D01*
X14542491Y-11834912D02*
X14542491Y-11663484D01*
X14723444Y-11853960D02*
X14704396Y-11863484D01*
X14704396Y-11863484D02*
X14666301Y-11863484D01*
X14666301Y-11863484D02*
X14647253Y-11853960D01*
X14647253Y-11853960D02*
X14637730Y-11834912D01*
X14637730Y-11834912D02*
X14637730Y-11758722D01*
X14637730Y-11758722D02*
X14647253Y-11739674D01*
X14647253Y-11739674D02*
X14666301Y-11730150D01*
X14666301Y-11730150D02*
X14704396Y-11730150D01*
X14704396Y-11730150D02*
X14723444Y-11739674D01*
X14723444Y-11739674D02*
X14732968Y-11758722D01*
X14732968Y-11758722D02*
X14732968Y-11777769D01*
X14732968Y-11777769D02*
X14637730Y-11796817D01*
X14809158Y-11853960D02*
X14828206Y-11863484D01*
X14828206Y-11863484D02*
X14866301Y-11863484D01*
X14866301Y-11863484D02*
X14885349Y-11853960D01*
X14885349Y-11853960D02*
X14894872Y-11834912D01*
X14894872Y-11834912D02*
X14894872Y-11825388D01*
X14894872Y-11825388D02*
X14885349Y-11806341D01*
X14885349Y-11806341D02*
X14866301Y-11796817D01*
X14866301Y-11796817D02*
X14837730Y-11796817D01*
X14837730Y-11796817D02*
X14818682Y-11787293D01*
X14818682Y-11787293D02*
X14809158Y-11768246D01*
X14809158Y-11768246D02*
X14809158Y-11758722D01*
X14809158Y-11758722D02*
X14818682Y-11739674D01*
X14818682Y-11739674D02*
X14837730Y-11730150D01*
X14837730Y-11730150D02*
X14866301Y-11730150D01*
X14866301Y-11730150D02*
X14885349Y-11739674D01*
X14961539Y-11939674D02*
X14971063Y-11930150D01*
X14971063Y-11930150D02*
X14990111Y-11901579D01*
X14990111Y-11901579D02*
X14999634Y-11882531D01*
X14999634Y-11882531D02*
X15009158Y-11853960D01*
X15009158Y-11853960D02*
X15018682Y-11806341D01*
X15018682Y-11806341D02*
X15018682Y-11768246D01*
X15018682Y-11768246D02*
X15009158Y-11720627D01*
X15009158Y-11720627D02*
X14999634Y-11692055D01*
X14999634Y-11692055D02*
X14990111Y-11673008D01*
X14990111Y-11673008D02*
X14971063Y-11644436D01*
X14971063Y-11644436D02*
X14961539Y-11634912D01*
D14*
X9966000Y-12006000D02*
X9966000Y-12066000D01*
X9936000Y-12036000D02*
X9996000Y-12036000D01*
D11*
X10294872Y-11927484D02*
X10313920Y-11927484D01*
X10313920Y-11927484D02*
X10332967Y-11937008D01*
X10332967Y-11937008D02*
X10342491Y-11946531D01*
X10342491Y-11946531D02*
X10352015Y-11965579D01*
X10352015Y-11965579D02*
X10361539Y-12003674D01*
X10361539Y-12003674D02*
X10361539Y-12051293D01*
X10361539Y-12051293D02*
X10352015Y-12089388D01*
X10352015Y-12089388D02*
X10342491Y-12108436D01*
X10342491Y-12108436D02*
X10332967Y-12117960D01*
X10332967Y-12117960D02*
X10313920Y-12127484D01*
X10313920Y-12127484D02*
X10294872Y-12127484D01*
X10294872Y-12127484D02*
X10275824Y-12117960D01*
X10275824Y-12117960D02*
X10266301Y-12108436D01*
X10266301Y-12108436D02*
X10256777Y-12089388D01*
X10256777Y-12089388D02*
X10247253Y-12051293D01*
X10247253Y-12051293D02*
X10247253Y-12003674D01*
X10247253Y-12003674D02*
X10256777Y-11965579D01*
X10256777Y-11965579D02*
X10266301Y-11946531D01*
X10266301Y-11946531D02*
X10275824Y-11937008D01*
X10275824Y-11937008D02*
X10294872Y-11927484D01*
X10447253Y-12108436D02*
X10456777Y-12117960D01*
X10456777Y-12117960D02*
X10447253Y-12127484D01*
X10447253Y-12127484D02*
X10437729Y-12117960D01*
X10437729Y-12117960D02*
X10447253Y-12108436D01*
X10447253Y-12108436D02*
X10447253Y-12127484D01*
X10628205Y-11927484D02*
X10590110Y-11927484D01*
X10590110Y-11927484D02*
X10571063Y-11937008D01*
X10571063Y-11937008D02*
X10561539Y-11946531D01*
X10561539Y-11946531D02*
X10542491Y-11975103D01*
X10542491Y-11975103D02*
X10532967Y-12013198D01*
X10532967Y-12013198D02*
X10532967Y-12089388D01*
X10532967Y-12089388D02*
X10542491Y-12108436D01*
X10542491Y-12108436D02*
X10552015Y-12117960D01*
X10552015Y-12117960D02*
X10571063Y-12127484D01*
X10571063Y-12127484D02*
X10609158Y-12127484D01*
X10609158Y-12127484D02*
X10628205Y-12117960D01*
X10628205Y-12117960D02*
X10637729Y-12108436D01*
X10637729Y-12108436D02*
X10647253Y-12089388D01*
X10647253Y-12089388D02*
X10647253Y-12041769D01*
X10647253Y-12041769D02*
X10637729Y-12022722D01*
X10637729Y-12022722D02*
X10628205Y-12013198D01*
X10628205Y-12013198D02*
X10609158Y-12003674D01*
X10609158Y-12003674D02*
X10571063Y-12003674D01*
X10571063Y-12003674D02*
X10552015Y-12013198D01*
X10552015Y-12013198D02*
X10542491Y-12022722D01*
X10542491Y-12022722D02*
X10532967Y-12041769D01*
X10771063Y-11927484D02*
X10790110Y-11927484D01*
X10790110Y-11927484D02*
X10809158Y-11937008D01*
X10809158Y-11937008D02*
X10818682Y-11946531D01*
X10818682Y-11946531D02*
X10828205Y-11965579D01*
X10828205Y-11965579D02*
X10837729Y-12003674D01*
X10837729Y-12003674D02*
X10837729Y-12051293D01*
X10837729Y-12051293D02*
X10828205Y-12089388D01*
X10828205Y-12089388D02*
X10818682Y-12108436D01*
X10818682Y-12108436D02*
X10809158Y-12117960D01*
X10809158Y-12117960D02*
X10790110Y-12127484D01*
X10790110Y-12127484D02*
X10771063Y-12127484D01*
X10771063Y-12127484D02*
X10752015Y-12117960D01*
X10752015Y-12117960D02*
X10742491Y-12108436D01*
X10742491Y-12108436D02*
X10732967Y-12089388D01*
X10732967Y-12089388D02*
X10723444Y-12051293D01*
X10723444Y-12051293D02*
X10723444Y-12003674D01*
X10723444Y-12003674D02*
X10732967Y-11965579D01*
X10732967Y-11965579D02*
X10742491Y-11946531D01*
X10742491Y-11946531D02*
X10752015Y-11937008D01*
X10752015Y-11937008D02*
X10771063Y-11927484D01*
X10961539Y-11927484D02*
X10980586Y-11927484D01*
X10980586Y-11927484D02*
X10999634Y-11937008D01*
X10999634Y-11937008D02*
X11009158Y-11946531D01*
X11009158Y-11946531D02*
X11018682Y-11965579D01*
X11018682Y-11965579D02*
X11028205Y-12003674D01*
X11028205Y-12003674D02*
X11028205Y-12051293D01*
X11028205Y-12051293D02*
X11018682Y-12089388D01*
X11018682Y-12089388D02*
X11009158Y-12108436D01*
X11009158Y-12108436D02*
X10999634Y-12117960D01*
X10999634Y-12117960D02*
X10980586Y-12127484D01*
X10980586Y-12127484D02*
X10961539Y-12127484D01*
X10961539Y-12127484D02*
X10942491Y-12117960D01*
X10942491Y-12117960D02*
X10932967Y-12108436D01*
X10932967Y-12108436D02*
X10923444Y-12089388D01*
X10923444Y-12089388D02*
X10913920Y-12051293D01*
X10913920Y-12051293D02*
X10913920Y-12003674D01*
X10913920Y-12003674D02*
X10923444Y-11965579D01*
X10923444Y-11965579D02*
X10932967Y-11946531D01*
X10932967Y-11946531D02*
X10942491Y-11937008D01*
X10942491Y-11937008D02*
X10961539Y-11927484D01*
X11113920Y-12127484D02*
X11113920Y-11994150D01*
X11113920Y-12013198D02*
X11123444Y-12003674D01*
X11123444Y-12003674D02*
X11142491Y-11994150D01*
X11142491Y-11994150D02*
X11171063Y-11994150D01*
X11171063Y-11994150D02*
X11190110Y-12003674D01*
X11190110Y-12003674D02*
X11199634Y-12022722D01*
X11199634Y-12022722D02*
X11199634Y-12127484D01*
X11199634Y-12022722D02*
X11209158Y-12003674D01*
X11209158Y-12003674D02*
X11228205Y-11994150D01*
X11228205Y-11994150D02*
X11256777Y-11994150D01*
X11256777Y-11994150D02*
X11275824Y-12003674D01*
X11275824Y-12003674D02*
X11285348Y-12022722D01*
X11285348Y-12022722D02*
X11285348Y-12127484D01*
X11380586Y-12127484D02*
X11380586Y-11994150D01*
X11380586Y-12013198D02*
X11390110Y-12003674D01*
X11390110Y-12003674D02*
X11409158Y-11994150D01*
X11409158Y-11994150D02*
X11437729Y-11994150D01*
X11437729Y-11994150D02*
X11456777Y-12003674D01*
X11456777Y-12003674D02*
X11466301Y-12022722D01*
X11466301Y-12022722D02*
X11466301Y-12127484D01*
X11466301Y-12022722D02*
X11475824Y-12003674D01*
X11475824Y-12003674D02*
X11494872Y-11994150D01*
X11494872Y-11994150D02*
X11523443Y-11994150D01*
X11523443Y-11994150D02*
X11542491Y-12003674D01*
X11542491Y-12003674D02*
X11552015Y-12022722D01*
X11552015Y-12022722D02*
X11552015Y-12127484D01*
X11942491Y-11917960D02*
X11771063Y-12175103D01*
X12199634Y-11927484D02*
X12218682Y-11927484D01*
X12218682Y-11927484D02*
X12237729Y-11937008D01*
X12237729Y-11937008D02*
X12247253Y-11946531D01*
X12247253Y-11946531D02*
X12256777Y-11965579D01*
X12256777Y-11965579D02*
X12266301Y-12003674D01*
X12266301Y-12003674D02*
X12266301Y-12051293D01*
X12266301Y-12051293D02*
X12256777Y-12089388D01*
X12256777Y-12089388D02*
X12247253Y-12108436D01*
X12247253Y-12108436D02*
X12237729Y-12117960D01*
X12237729Y-12117960D02*
X12218682Y-12127484D01*
X12218682Y-12127484D02*
X12199634Y-12127484D01*
X12199634Y-12127484D02*
X12180586Y-12117960D01*
X12180586Y-12117960D02*
X12171063Y-12108436D01*
X12171063Y-12108436D02*
X12161539Y-12089388D01*
X12161539Y-12089388D02*
X12152015Y-12051293D01*
X12152015Y-12051293D02*
X12152015Y-12003674D01*
X12152015Y-12003674D02*
X12161539Y-11965579D01*
X12161539Y-11965579D02*
X12171063Y-11946531D01*
X12171063Y-11946531D02*
X12180586Y-11937008D01*
X12180586Y-11937008D02*
X12199634Y-11927484D01*
X12352015Y-12108436D02*
X12361539Y-12117960D01*
X12361539Y-12117960D02*
X12352015Y-12127484D01*
X12352015Y-12127484D02*
X12342491Y-12117960D01*
X12342491Y-12117960D02*
X12352015Y-12108436D01*
X12352015Y-12108436D02*
X12352015Y-12127484D01*
X12485348Y-11927484D02*
X12504396Y-11927484D01*
X12504396Y-11927484D02*
X12523444Y-11937008D01*
X12523444Y-11937008D02*
X12532967Y-11946531D01*
X12532967Y-11946531D02*
X12542491Y-11965579D01*
X12542491Y-11965579D02*
X12552015Y-12003674D01*
X12552015Y-12003674D02*
X12552015Y-12051293D01*
X12552015Y-12051293D02*
X12542491Y-12089388D01*
X12542491Y-12089388D02*
X12532967Y-12108436D01*
X12532967Y-12108436D02*
X12523444Y-12117960D01*
X12523444Y-12117960D02*
X12504396Y-12127484D01*
X12504396Y-12127484D02*
X12485348Y-12127484D01*
X12485348Y-12127484D02*
X12466301Y-12117960D01*
X12466301Y-12117960D02*
X12456777Y-12108436D01*
X12456777Y-12108436D02*
X12447253Y-12089388D01*
X12447253Y-12089388D02*
X12437729Y-12051293D01*
X12437729Y-12051293D02*
X12437729Y-12003674D01*
X12437729Y-12003674D02*
X12447253Y-11965579D01*
X12447253Y-11965579D02*
X12456777Y-11946531D01*
X12456777Y-11946531D02*
X12466301Y-11937008D01*
X12466301Y-11937008D02*
X12485348Y-11927484D01*
X12628206Y-11946531D02*
X12637729Y-11937008D01*
X12637729Y-11937008D02*
X12656777Y-11927484D01*
X12656777Y-11927484D02*
X12704396Y-11927484D01*
X12704396Y-11927484D02*
X12723444Y-11937008D01*
X12723444Y-11937008D02*
X12732967Y-11946531D01*
X12732967Y-11946531D02*
X12742491Y-11965579D01*
X12742491Y-11965579D02*
X12742491Y-11984627D01*
X12742491Y-11984627D02*
X12732967Y-12013198D01*
X12732967Y-12013198D02*
X12618682Y-12127484D01*
X12618682Y-12127484D02*
X12742491Y-12127484D01*
X12809158Y-11927484D02*
X12932967Y-11927484D01*
X12932967Y-11927484D02*
X12866301Y-12003674D01*
X12866301Y-12003674D02*
X12894872Y-12003674D01*
X12894872Y-12003674D02*
X12913920Y-12013198D01*
X12913920Y-12013198D02*
X12923444Y-12022722D01*
X12923444Y-12022722D02*
X12932967Y-12041769D01*
X12932967Y-12041769D02*
X12932967Y-12089388D01*
X12932967Y-12089388D02*
X12923444Y-12108436D01*
X12923444Y-12108436D02*
X12913920Y-12117960D01*
X12913920Y-12117960D02*
X12894872Y-12127484D01*
X12894872Y-12127484D02*
X12837729Y-12127484D01*
X12837729Y-12127484D02*
X12818682Y-12117960D01*
X12818682Y-12117960D02*
X12809158Y-12108436D01*
X13104396Y-11927484D02*
X13066301Y-11927484D01*
X13066301Y-11927484D02*
X13047253Y-11937008D01*
X13047253Y-11937008D02*
X13037729Y-11946531D01*
X13037729Y-11946531D02*
X13018682Y-11975103D01*
X13018682Y-11975103D02*
X13009158Y-12013198D01*
X13009158Y-12013198D02*
X13009158Y-12089388D01*
X13009158Y-12089388D02*
X13018682Y-12108436D01*
X13018682Y-12108436D02*
X13028206Y-12117960D01*
X13028206Y-12117960D02*
X13047253Y-12127484D01*
X13047253Y-12127484D02*
X13085348Y-12127484D01*
X13085348Y-12127484D02*
X13104396Y-12117960D01*
X13104396Y-12117960D02*
X13113920Y-12108436D01*
X13113920Y-12108436D02*
X13123444Y-12089388D01*
X13123444Y-12089388D02*
X13123444Y-12041769D01*
X13123444Y-12041769D02*
X13113920Y-12022722D01*
X13113920Y-12022722D02*
X13104396Y-12013198D01*
X13104396Y-12013198D02*
X13085348Y-12003674D01*
X13085348Y-12003674D02*
X13047253Y-12003674D01*
X13047253Y-12003674D02*
X13028206Y-12013198D01*
X13028206Y-12013198D02*
X13018682Y-12022722D01*
X13018682Y-12022722D02*
X13009158Y-12041769D01*
X13199634Y-11927484D02*
X13199634Y-11965579D01*
X13275825Y-11927484D02*
X13275825Y-11965579D01*
X13571063Y-12203674D02*
X13561539Y-12194150D01*
X13561539Y-12194150D02*
X13542491Y-12165579D01*
X13542491Y-12165579D02*
X13532968Y-12146531D01*
X13532968Y-12146531D02*
X13523444Y-12117960D01*
X13523444Y-12117960D02*
X13513920Y-12070341D01*
X13513920Y-12070341D02*
X13513920Y-12032246D01*
X13513920Y-12032246D02*
X13523444Y-11984627D01*
X13523444Y-11984627D02*
X13532968Y-11956055D01*
X13532968Y-11956055D02*
X13542491Y-11937008D01*
X13542491Y-11937008D02*
X13561539Y-11908436D01*
X13561539Y-11908436D02*
X13571063Y-11898912D01*
X13656777Y-12127484D02*
X13694872Y-12127484D01*
X13694872Y-12127484D02*
X13713920Y-12117960D01*
X13713920Y-12117960D02*
X13723444Y-12108436D01*
X13723444Y-12108436D02*
X13742491Y-12079865D01*
X13742491Y-12079865D02*
X13752015Y-12041769D01*
X13752015Y-12041769D02*
X13752015Y-11965579D01*
X13752015Y-11965579D02*
X13742491Y-11946531D01*
X13742491Y-11946531D02*
X13732968Y-11937008D01*
X13732968Y-11937008D02*
X13713920Y-11927484D01*
X13713920Y-11927484D02*
X13675825Y-11927484D01*
X13675825Y-11927484D02*
X13656777Y-11937008D01*
X13656777Y-11937008D02*
X13647253Y-11946531D01*
X13647253Y-11946531D02*
X13637729Y-11965579D01*
X13637729Y-11965579D02*
X13637729Y-12013198D01*
X13637729Y-12013198D02*
X13647253Y-12032246D01*
X13647253Y-12032246D02*
X13656777Y-12041769D01*
X13656777Y-12041769D02*
X13675825Y-12051293D01*
X13675825Y-12051293D02*
X13713920Y-12051293D01*
X13713920Y-12051293D02*
X13732968Y-12041769D01*
X13732968Y-12041769D02*
X13742491Y-12032246D01*
X13742491Y-12032246D02*
X13752015Y-12013198D01*
X13990110Y-12127484D02*
X13990110Y-11927484D01*
X14075825Y-12127484D02*
X14075825Y-12022722D01*
X14075825Y-12022722D02*
X14066301Y-12003674D01*
X14066301Y-12003674D02*
X14047253Y-11994150D01*
X14047253Y-11994150D02*
X14018682Y-11994150D01*
X14018682Y-11994150D02*
X13999634Y-12003674D01*
X13999634Y-12003674D02*
X13990110Y-12013198D01*
X14199634Y-12127484D02*
X14180587Y-12117960D01*
X14180587Y-12117960D02*
X14171063Y-12108436D01*
X14171063Y-12108436D02*
X14161539Y-12089388D01*
X14161539Y-12089388D02*
X14161539Y-12032246D01*
X14161539Y-12032246D02*
X14171063Y-12013198D01*
X14171063Y-12013198D02*
X14180587Y-12003674D01*
X14180587Y-12003674D02*
X14199634Y-11994150D01*
X14199634Y-11994150D02*
X14228206Y-11994150D01*
X14228206Y-11994150D02*
X14247253Y-12003674D01*
X14247253Y-12003674D02*
X14256777Y-12013198D01*
X14256777Y-12013198D02*
X14266301Y-12032246D01*
X14266301Y-12032246D02*
X14266301Y-12089388D01*
X14266301Y-12089388D02*
X14256777Y-12108436D01*
X14256777Y-12108436D02*
X14247253Y-12117960D01*
X14247253Y-12117960D02*
X14228206Y-12127484D01*
X14228206Y-12127484D02*
X14199634Y-12127484D01*
X14380587Y-12127484D02*
X14361539Y-12117960D01*
X14361539Y-12117960D02*
X14352015Y-12098912D01*
X14352015Y-12098912D02*
X14352015Y-11927484D01*
X14532968Y-12117960D02*
X14513920Y-12127484D01*
X14513920Y-12127484D02*
X14475825Y-12127484D01*
X14475825Y-12127484D02*
X14456777Y-12117960D01*
X14456777Y-12117960D02*
X14447253Y-12098912D01*
X14447253Y-12098912D02*
X14447253Y-12022722D01*
X14447253Y-12022722D02*
X14456777Y-12003674D01*
X14456777Y-12003674D02*
X14475825Y-11994150D01*
X14475825Y-11994150D02*
X14513920Y-11994150D01*
X14513920Y-11994150D02*
X14532968Y-12003674D01*
X14532968Y-12003674D02*
X14542491Y-12022722D01*
X14542491Y-12022722D02*
X14542491Y-12041769D01*
X14542491Y-12041769D02*
X14447253Y-12060817D01*
X14618682Y-12117960D02*
X14637730Y-12127484D01*
X14637730Y-12127484D02*
X14675825Y-12127484D01*
X14675825Y-12127484D02*
X14694872Y-12117960D01*
X14694872Y-12117960D02*
X14704396Y-12098912D01*
X14704396Y-12098912D02*
X14704396Y-12089388D01*
X14704396Y-12089388D02*
X14694872Y-12070341D01*
X14694872Y-12070341D02*
X14675825Y-12060817D01*
X14675825Y-12060817D02*
X14647253Y-12060817D01*
X14647253Y-12060817D02*
X14628206Y-12051293D01*
X14628206Y-12051293D02*
X14618682Y-12032246D01*
X14618682Y-12032246D02*
X14618682Y-12022722D01*
X14618682Y-12022722D02*
X14628206Y-12003674D01*
X14628206Y-12003674D02*
X14647253Y-11994150D01*
X14647253Y-11994150D02*
X14675825Y-11994150D01*
X14675825Y-11994150D02*
X14694872Y-12003674D01*
X14771063Y-12203674D02*
X14780587Y-12194150D01*
X14780587Y-12194150D02*
X14799634Y-12165579D01*
X14799634Y-12165579D02*
X14809158Y-12146531D01*
X14809158Y-12146531D02*
X14818682Y-12117960D01*
X14818682Y-12117960D02*
X14828206Y-12070341D01*
X14828206Y-12070341D02*
X14828206Y-12032246D01*
X14828206Y-12032246D02*
X14818682Y-11984627D01*
X14818682Y-11984627D02*
X14809158Y-11956055D01*
X14809158Y-11956055D02*
X14799634Y-11937008D01*
X14799634Y-11937008D02*
X14780587Y-11908436D01*
X14780587Y-11908436D02*
X14771063Y-11898912D01*
D15*
X9986481Y-12322981D02*
X9986481Y-12277019D01*
X9940519Y-12277019D01*
X9940519Y-12322981D01*
X9986481Y-12322981D01*
D11*
X10294872Y-12191484D02*
X10313920Y-12191484D01*
X10313920Y-12191484D02*
X10332967Y-12201008D01*
X10332967Y-12201008D02*
X10342491Y-12210531D01*
X10342491Y-12210531D02*
X10352015Y-12229579D01*
X10352015Y-12229579D02*
X10361539Y-12267674D01*
X10361539Y-12267674D02*
X10361539Y-12315293D01*
X10361539Y-12315293D02*
X10352015Y-12353388D01*
X10352015Y-12353388D02*
X10342491Y-12372436D01*
X10342491Y-12372436D02*
X10332967Y-12381960D01*
X10332967Y-12381960D02*
X10313920Y-12391484D01*
X10313920Y-12391484D02*
X10294872Y-12391484D01*
X10294872Y-12391484D02*
X10275824Y-12381960D01*
X10275824Y-12381960D02*
X10266301Y-12372436D01*
X10266301Y-12372436D02*
X10256777Y-12353388D01*
X10256777Y-12353388D02*
X10247253Y-12315293D01*
X10247253Y-12315293D02*
X10247253Y-12267674D01*
X10247253Y-12267674D02*
X10256777Y-12229579D01*
X10256777Y-12229579D02*
X10266301Y-12210531D01*
X10266301Y-12210531D02*
X10275824Y-12201008D01*
X10275824Y-12201008D02*
X10294872Y-12191484D01*
X10447253Y-12372436D02*
X10456777Y-12381960D01*
X10456777Y-12381960D02*
X10447253Y-12391484D01*
X10447253Y-12391484D02*
X10437729Y-12381960D01*
X10437729Y-12381960D02*
X10447253Y-12372436D01*
X10447253Y-12372436D02*
X10447253Y-12391484D01*
X10628205Y-12191484D02*
X10590110Y-12191484D01*
X10590110Y-12191484D02*
X10571063Y-12201008D01*
X10571063Y-12201008D02*
X10561539Y-12210531D01*
X10561539Y-12210531D02*
X10542491Y-12239103D01*
X10542491Y-12239103D02*
X10532967Y-12277198D01*
X10532967Y-12277198D02*
X10532967Y-12353388D01*
X10532967Y-12353388D02*
X10542491Y-12372436D01*
X10542491Y-12372436D02*
X10552015Y-12381960D01*
X10552015Y-12381960D02*
X10571063Y-12391484D01*
X10571063Y-12391484D02*
X10609158Y-12391484D01*
X10609158Y-12391484D02*
X10628205Y-12381960D01*
X10628205Y-12381960D02*
X10637729Y-12372436D01*
X10637729Y-12372436D02*
X10647253Y-12353388D01*
X10647253Y-12353388D02*
X10647253Y-12305769D01*
X10647253Y-12305769D02*
X10637729Y-12286722D01*
X10637729Y-12286722D02*
X10628205Y-12277198D01*
X10628205Y-12277198D02*
X10609158Y-12267674D01*
X10609158Y-12267674D02*
X10571063Y-12267674D01*
X10571063Y-12267674D02*
X10552015Y-12277198D01*
X10552015Y-12277198D02*
X10542491Y-12286722D01*
X10542491Y-12286722D02*
X10532967Y-12305769D01*
X10828205Y-12191484D02*
X10732967Y-12191484D01*
X10732967Y-12191484D02*
X10723444Y-12286722D01*
X10723444Y-12286722D02*
X10732967Y-12277198D01*
X10732967Y-12277198D02*
X10752015Y-12267674D01*
X10752015Y-12267674D02*
X10799634Y-12267674D01*
X10799634Y-12267674D02*
X10818682Y-12277198D01*
X10818682Y-12277198D02*
X10828205Y-12286722D01*
X10828205Y-12286722D02*
X10837729Y-12305769D01*
X10837729Y-12305769D02*
X10837729Y-12353388D01*
X10837729Y-12353388D02*
X10828205Y-12372436D01*
X10828205Y-12372436D02*
X10818682Y-12381960D01*
X10818682Y-12381960D02*
X10799634Y-12391484D01*
X10799634Y-12391484D02*
X10752015Y-12391484D01*
X10752015Y-12391484D02*
X10732967Y-12381960D01*
X10732967Y-12381960D02*
X10723444Y-12372436D01*
X10961539Y-12191484D02*
X10980586Y-12191484D01*
X10980586Y-12191484D02*
X10999634Y-12201008D01*
X10999634Y-12201008D02*
X11009158Y-12210531D01*
X11009158Y-12210531D02*
X11018682Y-12229579D01*
X11018682Y-12229579D02*
X11028205Y-12267674D01*
X11028205Y-12267674D02*
X11028205Y-12315293D01*
X11028205Y-12315293D02*
X11018682Y-12353388D01*
X11018682Y-12353388D02*
X11009158Y-12372436D01*
X11009158Y-12372436D02*
X10999634Y-12381960D01*
X10999634Y-12381960D02*
X10980586Y-12391484D01*
X10980586Y-12391484D02*
X10961539Y-12391484D01*
X10961539Y-12391484D02*
X10942491Y-12381960D01*
X10942491Y-12381960D02*
X10932967Y-12372436D01*
X10932967Y-12372436D02*
X10923444Y-12353388D01*
X10923444Y-12353388D02*
X10913920Y-12315293D01*
X10913920Y-12315293D02*
X10913920Y-12267674D01*
X10913920Y-12267674D02*
X10923444Y-12229579D01*
X10923444Y-12229579D02*
X10932967Y-12210531D01*
X10932967Y-12210531D02*
X10942491Y-12201008D01*
X10942491Y-12201008D02*
X10961539Y-12191484D01*
X11113920Y-12391484D02*
X11113920Y-12258150D01*
X11113920Y-12277198D02*
X11123444Y-12267674D01*
X11123444Y-12267674D02*
X11142491Y-12258150D01*
X11142491Y-12258150D02*
X11171063Y-12258150D01*
X11171063Y-12258150D02*
X11190110Y-12267674D01*
X11190110Y-12267674D02*
X11199634Y-12286722D01*
X11199634Y-12286722D02*
X11199634Y-12391484D01*
X11199634Y-12286722D02*
X11209158Y-12267674D01*
X11209158Y-12267674D02*
X11228205Y-12258150D01*
X11228205Y-12258150D02*
X11256777Y-12258150D01*
X11256777Y-12258150D02*
X11275824Y-12267674D01*
X11275824Y-12267674D02*
X11285348Y-12286722D01*
X11285348Y-12286722D02*
X11285348Y-12391484D01*
X11380586Y-12391484D02*
X11380586Y-12258150D01*
X11380586Y-12277198D02*
X11390110Y-12267674D01*
X11390110Y-12267674D02*
X11409158Y-12258150D01*
X11409158Y-12258150D02*
X11437729Y-12258150D01*
X11437729Y-12258150D02*
X11456777Y-12267674D01*
X11456777Y-12267674D02*
X11466301Y-12286722D01*
X11466301Y-12286722D02*
X11466301Y-12391484D01*
X11466301Y-12286722D02*
X11475824Y-12267674D01*
X11475824Y-12267674D02*
X11494872Y-12258150D01*
X11494872Y-12258150D02*
X11523443Y-12258150D01*
X11523443Y-12258150D02*
X11542491Y-12267674D01*
X11542491Y-12267674D02*
X11552015Y-12286722D01*
X11552015Y-12286722D02*
X11552015Y-12391484D01*
X11942491Y-12181960D02*
X11771063Y-12439103D01*
X12199634Y-12191484D02*
X12218682Y-12191484D01*
X12218682Y-12191484D02*
X12237729Y-12201008D01*
X12237729Y-12201008D02*
X12247253Y-12210531D01*
X12247253Y-12210531D02*
X12256777Y-12229579D01*
X12256777Y-12229579D02*
X12266301Y-12267674D01*
X12266301Y-12267674D02*
X12266301Y-12315293D01*
X12266301Y-12315293D02*
X12256777Y-12353388D01*
X12256777Y-12353388D02*
X12247253Y-12372436D01*
X12247253Y-12372436D02*
X12237729Y-12381960D01*
X12237729Y-12381960D02*
X12218682Y-12391484D01*
X12218682Y-12391484D02*
X12199634Y-12391484D01*
X12199634Y-12391484D02*
X12180586Y-12381960D01*
X12180586Y-12381960D02*
X12171063Y-12372436D01*
X12171063Y-12372436D02*
X12161539Y-12353388D01*
X12161539Y-12353388D02*
X12152015Y-12315293D01*
X12152015Y-12315293D02*
X12152015Y-12267674D01*
X12152015Y-12267674D02*
X12161539Y-12229579D01*
X12161539Y-12229579D02*
X12171063Y-12210531D01*
X12171063Y-12210531D02*
X12180586Y-12201008D01*
X12180586Y-12201008D02*
X12199634Y-12191484D01*
X12352015Y-12372436D02*
X12361539Y-12381960D01*
X12361539Y-12381960D02*
X12352015Y-12391484D01*
X12352015Y-12391484D02*
X12342491Y-12381960D01*
X12342491Y-12381960D02*
X12352015Y-12372436D01*
X12352015Y-12372436D02*
X12352015Y-12391484D01*
X12485348Y-12191484D02*
X12504396Y-12191484D01*
X12504396Y-12191484D02*
X12523444Y-12201008D01*
X12523444Y-12201008D02*
X12532967Y-12210531D01*
X12532967Y-12210531D02*
X12542491Y-12229579D01*
X12542491Y-12229579D02*
X12552015Y-12267674D01*
X12552015Y-12267674D02*
X12552015Y-12315293D01*
X12552015Y-12315293D02*
X12542491Y-12353388D01*
X12542491Y-12353388D02*
X12532967Y-12372436D01*
X12532967Y-12372436D02*
X12523444Y-12381960D01*
X12523444Y-12381960D02*
X12504396Y-12391484D01*
X12504396Y-12391484D02*
X12485348Y-12391484D01*
X12485348Y-12391484D02*
X12466301Y-12381960D01*
X12466301Y-12381960D02*
X12456777Y-12372436D01*
X12456777Y-12372436D02*
X12447253Y-12353388D01*
X12447253Y-12353388D02*
X12437729Y-12315293D01*
X12437729Y-12315293D02*
X12437729Y-12267674D01*
X12437729Y-12267674D02*
X12447253Y-12229579D01*
X12447253Y-12229579D02*
X12456777Y-12210531D01*
X12456777Y-12210531D02*
X12466301Y-12201008D01*
X12466301Y-12201008D02*
X12485348Y-12191484D01*
X12628206Y-12210531D02*
X12637729Y-12201008D01*
X12637729Y-12201008D02*
X12656777Y-12191484D01*
X12656777Y-12191484D02*
X12704396Y-12191484D01*
X12704396Y-12191484D02*
X12723444Y-12201008D01*
X12723444Y-12201008D02*
X12732967Y-12210531D01*
X12732967Y-12210531D02*
X12742491Y-12229579D01*
X12742491Y-12229579D02*
X12742491Y-12248627D01*
X12742491Y-12248627D02*
X12732967Y-12277198D01*
X12732967Y-12277198D02*
X12618682Y-12391484D01*
X12618682Y-12391484D02*
X12742491Y-12391484D01*
X12923444Y-12191484D02*
X12828206Y-12191484D01*
X12828206Y-12191484D02*
X12818682Y-12286722D01*
X12818682Y-12286722D02*
X12828206Y-12277198D01*
X12828206Y-12277198D02*
X12847253Y-12267674D01*
X12847253Y-12267674D02*
X12894872Y-12267674D01*
X12894872Y-12267674D02*
X12913920Y-12277198D01*
X12913920Y-12277198D02*
X12923444Y-12286722D01*
X12923444Y-12286722D02*
X12932967Y-12305769D01*
X12932967Y-12305769D02*
X12932967Y-12353388D01*
X12932967Y-12353388D02*
X12923444Y-12372436D01*
X12923444Y-12372436D02*
X12913920Y-12381960D01*
X12913920Y-12381960D02*
X12894872Y-12391484D01*
X12894872Y-12391484D02*
X12847253Y-12391484D01*
X12847253Y-12391484D02*
X12828206Y-12381960D01*
X12828206Y-12381960D02*
X12818682Y-12372436D01*
X13104396Y-12191484D02*
X13066301Y-12191484D01*
X13066301Y-12191484D02*
X13047253Y-12201008D01*
X13047253Y-12201008D02*
X13037729Y-12210531D01*
X13037729Y-12210531D02*
X13018682Y-12239103D01*
X13018682Y-12239103D02*
X13009158Y-12277198D01*
X13009158Y-12277198D02*
X13009158Y-12353388D01*
X13009158Y-12353388D02*
X13018682Y-12372436D01*
X13018682Y-12372436D02*
X13028206Y-12381960D01*
X13028206Y-12381960D02*
X13047253Y-12391484D01*
X13047253Y-12391484D02*
X13085348Y-12391484D01*
X13085348Y-12391484D02*
X13104396Y-12381960D01*
X13104396Y-12381960D02*
X13113920Y-12372436D01*
X13113920Y-12372436D02*
X13123444Y-12353388D01*
X13123444Y-12353388D02*
X13123444Y-12305769D01*
X13123444Y-12305769D02*
X13113920Y-12286722D01*
X13113920Y-12286722D02*
X13104396Y-12277198D01*
X13104396Y-12277198D02*
X13085348Y-12267674D01*
X13085348Y-12267674D02*
X13047253Y-12267674D01*
X13047253Y-12267674D02*
X13028206Y-12277198D01*
X13028206Y-12277198D02*
X13018682Y-12286722D01*
X13018682Y-12286722D02*
X13009158Y-12305769D01*
X13199634Y-12191484D02*
X13199634Y-12229579D01*
X13275825Y-12191484D02*
X13275825Y-12229579D01*
X13571063Y-12467674D02*
X13561539Y-12458150D01*
X13561539Y-12458150D02*
X13542491Y-12429579D01*
X13542491Y-12429579D02*
X13532968Y-12410531D01*
X13532968Y-12410531D02*
X13523444Y-12381960D01*
X13523444Y-12381960D02*
X13513920Y-12334341D01*
X13513920Y-12334341D02*
X13513920Y-12296246D01*
X13513920Y-12296246D02*
X13523444Y-12248627D01*
X13523444Y-12248627D02*
X13532968Y-12220055D01*
X13532968Y-12220055D02*
X13542491Y-12201008D01*
X13542491Y-12201008D02*
X13561539Y-12172436D01*
X13561539Y-12172436D02*
X13571063Y-12162912D01*
X13732968Y-12258150D02*
X13732968Y-12391484D01*
X13685348Y-12181960D02*
X13637729Y-12324817D01*
X13637729Y-12324817D02*
X13761539Y-12324817D01*
X13990110Y-12391484D02*
X13990110Y-12191484D01*
X14075825Y-12391484D02*
X14075825Y-12286722D01*
X14075825Y-12286722D02*
X14066301Y-12267674D01*
X14066301Y-12267674D02*
X14047253Y-12258150D01*
X14047253Y-12258150D02*
X14018682Y-12258150D01*
X14018682Y-12258150D02*
X13999634Y-12267674D01*
X13999634Y-12267674D02*
X13990110Y-12277198D01*
X14199634Y-12391484D02*
X14180587Y-12381960D01*
X14180587Y-12381960D02*
X14171063Y-12372436D01*
X14171063Y-12372436D02*
X14161539Y-12353388D01*
X14161539Y-12353388D02*
X14161539Y-12296246D01*
X14161539Y-12296246D02*
X14171063Y-12277198D01*
X14171063Y-12277198D02*
X14180587Y-12267674D01*
X14180587Y-12267674D02*
X14199634Y-12258150D01*
X14199634Y-12258150D02*
X14228206Y-12258150D01*
X14228206Y-12258150D02*
X14247253Y-12267674D01*
X14247253Y-12267674D02*
X14256777Y-12277198D01*
X14256777Y-12277198D02*
X14266301Y-12296246D01*
X14266301Y-12296246D02*
X14266301Y-12353388D01*
X14266301Y-12353388D02*
X14256777Y-12372436D01*
X14256777Y-12372436D02*
X14247253Y-12381960D01*
X14247253Y-12381960D02*
X14228206Y-12391484D01*
X14228206Y-12391484D02*
X14199634Y-12391484D01*
X14380587Y-12391484D02*
X14361539Y-12381960D01*
X14361539Y-12381960D02*
X14352015Y-12362912D01*
X14352015Y-12362912D02*
X14352015Y-12191484D01*
X14532968Y-12381960D02*
X14513920Y-12391484D01*
X14513920Y-12391484D02*
X14475825Y-12391484D01*
X14475825Y-12391484D02*
X14456777Y-12381960D01*
X14456777Y-12381960D02*
X14447253Y-12362912D01*
X14447253Y-12362912D02*
X14447253Y-12286722D01*
X14447253Y-12286722D02*
X14456777Y-12267674D01*
X14456777Y-12267674D02*
X14475825Y-12258150D01*
X14475825Y-12258150D02*
X14513920Y-12258150D01*
X14513920Y-12258150D02*
X14532968Y-12267674D01*
X14532968Y-12267674D02*
X14542491Y-12286722D01*
X14542491Y-12286722D02*
X14542491Y-12305769D01*
X14542491Y-12305769D02*
X14447253Y-12324817D01*
X14618682Y-12381960D02*
X14637730Y-12391484D01*
X14637730Y-12391484D02*
X14675825Y-12391484D01*
X14675825Y-12391484D02*
X14694872Y-12381960D01*
X14694872Y-12381960D02*
X14704396Y-12362912D01*
X14704396Y-12362912D02*
X14704396Y-12353388D01*
X14704396Y-12353388D02*
X14694872Y-12334341D01*
X14694872Y-12334341D02*
X14675825Y-12324817D01*
X14675825Y-12324817D02*
X14647253Y-12324817D01*
X14647253Y-12324817D02*
X14628206Y-12315293D01*
X14628206Y-12315293D02*
X14618682Y-12296246D01*
X14618682Y-12296246D02*
X14618682Y-12286722D01*
X14618682Y-12286722D02*
X14628206Y-12267674D01*
X14628206Y-12267674D02*
X14647253Y-12258150D01*
X14647253Y-12258150D02*
X14675825Y-12258150D01*
X14675825Y-12258150D02*
X14694872Y-12267674D01*
X14771063Y-12467674D02*
X14780587Y-12458150D01*
X14780587Y-12458150D02*
X14799634Y-12429579D01*
X14799634Y-12429579D02*
X14809158Y-12410531D01*
X14809158Y-12410531D02*
X14818682Y-12381960D01*
X14818682Y-12381960D02*
X14828206Y-12334341D01*
X14828206Y-12334341D02*
X14828206Y-12296246D01*
X14828206Y-12296246D02*
X14818682Y-12248627D01*
X14818682Y-12248627D02*
X14809158Y-12220055D01*
X14809158Y-12220055D02*
X14799634Y-12201008D01*
X14799634Y-12201008D02*
X14780587Y-12172436D01*
X14780587Y-12172436D02*
X14771063Y-12162912D01*
D16*
X9956000Y-12604000D02*
X9996000Y-12564000D01*
X9956000Y-12524000D01*
X9916000Y-12564000D01*
X9956000Y-12604000D01*
D11*
X10294872Y-12455484D02*
X10313920Y-12455484D01*
X10313920Y-12455484D02*
X10332967Y-12465008D01*
X10332967Y-12465008D02*
X10342491Y-12474531D01*
X10342491Y-12474531D02*
X10352015Y-12493579D01*
X10352015Y-12493579D02*
X10361539Y-12531674D01*
X10361539Y-12531674D02*
X10361539Y-12579293D01*
X10361539Y-12579293D02*
X10352015Y-12617388D01*
X10352015Y-12617388D02*
X10342491Y-12636436D01*
X10342491Y-12636436D02*
X10332967Y-12645960D01*
X10332967Y-12645960D02*
X10313920Y-12655484D01*
X10313920Y-12655484D02*
X10294872Y-12655484D01*
X10294872Y-12655484D02*
X10275824Y-12645960D01*
X10275824Y-12645960D02*
X10266301Y-12636436D01*
X10266301Y-12636436D02*
X10256777Y-12617388D01*
X10256777Y-12617388D02*
X10247253Y-12579293D01*
X10247253Y-12579293D02*
X10247253Y-12531674D01*
X10247253Y-12531674D02*
X10256777Y-12493579D01*
X10256777Y-12493579D02*
X10266301Y-12474531D01*
X10266301Y-12474531D02*
X10275824Y-12465008D01*
X10275824Y-12465008D02*
X10294872Y-12455484D01*
X10447253Y-12636436D02*
X10456777Y-12645960D01*
X10456777Y-12645960D02*
X10447253Y-12655484D01*
X10447253Y-12655484D02*
X10437729Y-12645960D01*
X10437729Y-12645960D02*
X10447253Y-12636436D01*
X10447253Y-12636436D02*
X10447253Y-12655484D01*
X10571063Y-12541198D02*
X10552015Y-12531674D01*
X10552015Y-12531674D02*
X10542491Y-12522150D01*
X10542491Y-12522150D02*
X10532967Y-12503103D01*
X10532967Y-12503103D02*
X10532967Y-12493579D01*
X10532967Y-12493579D02*
X10542491Y-12474531D01*
X10542491Y-12474531D02*
X10552015Y-12465008D01*
X10552015Y-12465008D02*
X10571063Y-12455484D01*
X10571063Y-12455484D02*
X10609158Y-12455484D01*
X10609158Y-12455484D02*
X10628205Y-12465008D01*
X10628205Y-12465008D02*
X10637729Y-12474531D01*
X10637729Y-12474531D02*
X10647253Y-12493579D01*
X10647253Y-12493579D02*
X10647253Y-12503103D01*
X10647253Y-12503103D02*
X10637729Y-12522150D01*
X10637729Y-12522150D02*
X10628205Y-12531674D01*
X10628205Y-12531674D02*
X10609158Y-12541198D01*
X10609158Y-12541198D02*
X10571063Y-12541198D01*
X10571063Y-12541198D02*
X10552015Y-12550722D01*
X10552015Y-12550722D02*
X10542491Y-12560246D01*
X10542491Y-12560246D02*
X10532967Y-12579293D01*
X10532967Y-12579293D02*
X10532967Y-12617388D01*
X10532967Y-12617388D02*
X10542491Y-12636436D01*
X10542491Y-12636436D02*
X10552015Y-12645960D01*
X10552015Y-12645960D02*
X10571063Y-12655484D01*
X10571063Y-12655484D02*
X10609158Y-12655484D01*
X10609158Y-12655484D02*
X10628205Y-12645960D01*
X10628205Y-12645960D02*
X10637729Y-12636436D01*
X10637729Y-12636436D02*
X10647253Y-12617388D01*
X10647253Y-12617388D02*
X10647253Y-12579293D01*
X10647253Y-12579293D02*
X10637729Y-12560246D01*
X10637729Y-12560246D02*
X10628205Y-12550722D01*
X10628205Y-12550722D02*
X10609158Y-12541198D01*
X10771063Y-12455484D02*
X10790110Y-12455484D01*
X10790110Y-12455484D02*
X10809158Y-12465008D01*
X10809158Y-12465008D02*
X10818682Y-12474531D01*
X10818682Y-12474531D02*
X10828205Y-12493579D01*
X10828205Y-12493579D02*
X10837729Y-12531674D01*
X10837729Y-12531674D02*
X10837729Y-12579293D01*
X10837729Y-12579293D02*
X10828205Y-12617388D01*
X10828205Y-12617388D02*
X10818682Y-12636436D01*
X10818682Y-12636436D02*
X10809158Y-12645960D01*
X10809158Y-12645960D02*
X10790110Y-12655484D01*
X10790110Y-12655484D02*
X10771063Y-12655484D01*
X10771063Y-12655484D02*
X10752015Y-12645960D01*
X10752015Y-12645960D02*
X10742491Y-12636436D01*
X10742491Y-12636436D02*
X10732967Y-12617388D01*
X10732967Y-12617388D02*
X10723444Y-12579293D01*
X10723444Y-12579293D02*
X10723444Y-12531674D01*
X10723444Y-12531674D02*
X10732967Y-12493579D01*
X10732967Y-12493579D02*
X10742491Y-12474531D01*
X10742491Y-12474531D02*
X10752015Y-12465008D01*
X10752015Y-12465008D02*
X10771063Y-12455484D01*
X10961539Y-12455484D02*
X10980586Y-12455484D01*
X10980586Y-12455484D02*
X10999634Y-12465008D01*
X10999634Y-12465008D02*
X11009158Y-12474531D01*
X11009158Y-12474531D02*
X11018682Y-12493579D01*
X11018682Y-12493579D02*
X11028205Y-12531674D01*
X11028205Y-12531674D02*
X11028205Y-12579293D01*
X11028205Y-12579293D02*
X11018682Y-12617388D01*
X11018682Y-12617388D02*
X11009158Y-12636436D01*
X11009158Y-12636436D02*
X10999634Y-12645960D01*
X10999634Y-12645960D02*
X10980586Y-12655484D01*
X10980586Y-12655484D02*
X10961539Y-12655484D01*
X10961539Y-12655484D02*
X10942491Y-12645960D01*
X10942491Y-12645960D02*
X10932967Y-12636436D01*
X10932967Y-12636436D02*
X10923444Y-12617388D01*
X10923444Y-12617388D02*
X10913920Y-12579293D01*
X10913920Y-12579293D02*
X10913920Y-12531674D01*
X10913920Y-12531674D02*
X10923444Y-12493579D01*
X10923444Y-12493579D02*
X10932967Y-12474531D01*
X10932967Y-12474531D02*
X10942491Y-12465008D01*
X10942491Y-12465008D02*
X10961539Y-12455484D01*
X11113920Y-12655484D02*
X11113920Y-12522150D01*
X11113920Y-12541198D02*
X11123444Y-12531674D01*
X11123444Y-12531674D02*
X11142491Y-12522150D01*
X11142491Y-12522150D02*
X11171063Y-12522150D01*
X11171063Y-12522150D02*
X11190110Y-12531674D01*
X11190110Y-12531674D02*
X11199634Y-12550722D01*
X11199634Y-12550722D02*
X11199634Y-12655484D01*
X11199634Y-12550722D02*
X11209158Y-12531674D01*
X11209158Y-12531674D02*
X11228205Y-12522150D01*
X11228205Y-12522150D02*
X11256777Y-12522150D01*
X11256777Y-12522150D02*
X11275824Y-12531674D01*
X11275824Y-12531674D02*
X11285348Y-12550722D01*
X11285348Y-12550722D02*
X11285348Y-12655484D01*
X11380586Y-12655484D02*
X11380586Y-12522150D01*
X11380586Y-12541198D02*
X11390110Y-12531674D01*
X11390110Y-12531674D02*
X11409158Y-12522150D01*
X11409158Y-12522150D02*
X11437729Y-12522150D01*
X11437729Y-12522150D02*
X11456777Y-12531674D01*
X11456777Y-12531674D02*
X11466301Y-12550722D01*
X11466301Y-12550722D02*
X11466301Y-12655484D01*
X11466301Y-12550722D02*
X11475824Y-12531674D01*
X11475824Y-12531674D02*
X11494872Y-12522150D01*
X11494872Y-12522150D02*
X11523443Y-12522150D01*
X11523443Y-12522150D02*
X11542491Y-12531674D01*
X11542491Y-12531674D02*
X11552015Y-12550722D01*
X11552015Y-12550722D02*
X11552015Y-12655484D01*
X11942491Y-12445960D02*
X11771063Y-12703103D01*
X12199634Y-12455484D02*
X12218682Y-12455484D01*
X12218682Y-12455484D02*
X12237729Y-12465008D01*
X12237729Y-12465008D02*
X12247253Y-12474531D01*
X12247253Y-12474531D02*
X12256777Y-12493579D01*
X12256777Y-12493579D02*
X12266301Y-12531674D01*
X12266301Y-12531674D02*
X12266301Y-12579293D01*
X12266301Y-12579293D02*
X12256777Y-12617388D01*
X12256777Y-12617388D02*
X12247253Y-12636436D01*
X12247253Y-12636436D02*
X12237729Y-12645960D01*
X12237729Y-12645960D02*
X12218682Y-12655484D01*
X12218682Y-12655484D02*
X12199634Y-12655484D01*
X12199634Y-12655484D02*
X12180586Y-12645960D01*
X12180586Y-12645960D02*
X12171063Y-12636436D01*
X12171063Y-12636436D02*
X12161539Y-12617388D01*
X12161539Y-12617388D02*
X12152015Y-12579293D01*
X12152015Y-12579293D02*
X12152015Y-12531674D01*
X12152015Y-12531674D02*
X12161539Y-12493579D01*
X12161539Y-12493579D02*
X12171063Y-12474531D01*
X12171063Y-12474531D02*
X12180586Y-12465008D01*
X12180586Y-12465008D02*
X12199634Y-12455484D01*
X12352015Y-12636436D02*
X12361539Y-12645960D01*
X12361539Y-12645960D02*
X12352015Y-12655484D01*
X12352015Y-12655484D02*
X12342491Y-12645960D01*
X12342491Y-12645960D02*
X12352015Y-12636436D01*
X12352015Y-12636436D02*
X12352015Y-12655484D01*
X12485348Y-12455484D02*
X12504396Y-12455484D01*
X12504396Y-12455484D02*
X12523444Y-12465008D01*
X12523444Y-12465008D02*
X12532967Y-12474531D01*
X12532967Y-12474531D02*
X12542491Y-12493579D01*
X12542491Y-12493579D02*
X12552015Y-12531674D01*
X12552015Y-12531674D02*
X12552015Y-12579293D01*
X12552015Y-12579293D02*
X12542491Y-12617388D01*
X12542491Y-12617388D02*
X12532967Y-12636436D01*
X12532967Y-12636436D02*
X12523444Y-12645960D01*
X12523444Y-12645960D02*
X12504396Y-12655484D01*
X12504396Y-12655484D02*
X12485348Y-12655484D01*
X12485348Y-12655484D02*
X12466301Y-12645960D01*
X12466301Y-12645960D02*
X12456777Y-12636436D01*
X12456777Y-12636436D02*
X12447253Y-12617388D01*
X12447253Y-12617388D02*
X12437729Y-12579293D01*
X12437729Y-12579293D02*
X12437729Y-12531674D01*
X12437729Y-12531674D02*
X12447253Y-12493579D01*
X12447253Y-12493579D02*
X12456777Y-12474531D01*
X12456777Y-12474531D02*
X12466301Y-12465008D01*
X12466301Y-12465008D02*
X12485348Y-12455484D01*
X12618682Y-12455484D02*
X12742491Y-12455484D01*
X12742491Y-12455484D02*
X12675825Y-12531674D01*
X12675825Y-12531674D02*
X12704396Y-12531674D01*
X12704396Y-12531674D02*
X12723444Y-12541198D01*
X12723444Y-12541198D02*
X12732967Y-12550722D01*
X12732967Y-12550722D02*
X12742491Y-12569769D01*
X12742491Y-12569769D02*
X12742491Y-12617388D01*
X12742491Y-12617388D02*
X12732967Y-12636436D01*
X12732967Y-12636436D02*
X12723444Y-12645960D01*
X12723444Y-12645960D02*
X12704396Y-12655484D01*
X12704396Y-12655484D02*
X12647253Y-12655484D01*
X12647253Y-12655484D02*
X12628206Y-12645960D01*
X12628206Y-12645960D02*
X12618682Y-12636436D01*
X12932967Y-12655484D02*
X12818682Y-12655484D01*
X12875825Y-12655484D02*
X12875825Y-12455484D01*
X12875825Y-12455484D02*
X12856777Y-12484055D01*
X12856777Y-12484055D02*
X12837729Y-12503103D01*
X12837729Y-12503103D02*
X12818682Y-12512627D01*
X13113920Y-12455484D02*
X13018682Y-12455484D01*
X13018682Y-12455484D02*
X13009158Y-12550722D01*
X13009158Y-12550722D02*
X13018682Y-12541198D01*
X13018682Y-12541198D02*
X13037729Y-12531674D01*
X13037729Y-12531674D02*
X13085348Y-12531674D01*
X13085348Y-12531674D02*
X13104396Y-12541198D01*
X13104396Y-12541198D02*
X13113920Y-12550722D01*
X13113920Y-12550722D02*
X13123444Y-12569769D01*
X13123444Y-12569769D02*
X13123444Y-12617388D01*
X13123444Y-12617388D02*
X13113920Y-12636436D01*
X13113920Y-12636436D02*
X13104396Y-12645960D01*
X13104396Y-12645960D02*
X13085348Y-12655484D01*
X13085348Y-12655484D02*
X13037729Y-12655484D01*
X13037729Y-12655484D02*
X13018682Y-12645960D01*
X13018682Y-12645960D02*
X13009158Y-12636436D01*
X13199634Y-12455484D02*
X13199634Y-12493579D01*
X13275825Y-12455484D02*
X13275825Y-12493579D01*
X13571063Y-12731674D02*
X13561539Y-12722150D01*
X13561539Y-12722150D02*
X13542491Y-12693579D01*
X13542491Y-12693579D02*
X13532968Y-12674531D01*
X13532968Y-12674531D02*
X13523444Y-12645960D01*
X13523444Y-12645960D02*
X13513920Y-12598341D01*
X13513920Y-12598341D02*
X13513920Y-12560246D01*
X13513920Y-12560246D02*
X13523444Y-12512627D01*
X13523444Y-12512627D02*
X13532968Y-12484055D01*
X13532968Y-12484055D02*
X13542491Y-12465008D01*
X13542491Y-12465008D02*
X13561539Y-12436436D01*
X13561539Y-12436436D02*
X13571063Y-12426912D01*
X13732968Y-12522150D02*
X13732968Y-12655484D01*
X13685348Y-12445960D02*
X13637729Y-12588817D01*
X13637729Y-12588817D02*
X13761539Y-12588817D01*
X13990110Y-12655484D02*
X13990110Y-12455484D01*
X14075825Y-12655484D02*
X14075825Y-12550722D01*
X14075825Y-12550722D02*
X14066301Y-12531674D01*
X14066301Y-12531674D02*
X14047253Y-12522150D01*
X14047253Y-12522150D02*
X14018682Y-12522150D01*
X14018682Y-12522150D02*
X13999634Y-12531674D01*
X13999634Y-12531674D02*
X13990110Y-12541198D01*
X14199634Y-12655484D02*
X14180587Y-12645960D01*
X14180587Y-12645960D02*
X14171063Y-12636436D01*
X14171063Y-12636436D02*
X14161539Y-12617388D01*
X14161539Y-12617388D02*
X14161539Y-12560246D01*
X14161539Y-12560246D02*
X14171063Y-12541198D01*
X14171063Y-12541198D02*
X14180587Y-12531674D01*
X14180587Y-12531674D02*
X14199634Y-12522150D01*
X14199634Y-12522150D02*
X14228206Y-12522150D01*
X14228206Y-12522150D02*
X14247253Y-12531674D01*
X14247253Y-12531674D02*
X14256777Y-12541198D01*
X14256777Y-12541198D02*
X14266301Y-12560246D01*
X14266301Y-12560246D02*
X14266301Y-12617388D01*
X14266301Y-12617388D02*
X14256777Y-12636436D01*
X14256777Y-12636436D02*
X14247253Y-12645960D01*
X14247253Y-12645960D02*
X14228206Y-12655484D01*
X14228206Y-12655484D02*
X14199634Y-12655484D01*
X14380587Y-12655484D02*
X14361539Y-12645960D01*
X14361539Y-12645960D02*
X14352015Y-12626912D01*
X14352015Y-12626912D02*
X14352015Y-12455484D01*
X14532968Y-12645960D02*
X14513920Y-12655484D01*
X14513920Y-12655484D02*
X14475825Y-12655484D01*
X14475825Y-12655484D02*
X14456777Y-12645960D01*
X14456777Y-12645960D02*
X14447253Y-12626912D01*
X14447253Y-12626912D02*
X14447253Y-12550722D01*
X14447253Y-12550722D02*
X14456777Y-12531674D01*
X14456777Y-12531674D02*
X14475825Y-12522150D01*
X14475825Y-12522150D02*
X14513920Y-12522150D01*
X14513920Y-12522150D02*
X14532968Y-12531674D01*
X14532968Y-12531674D02*
X14542491Y-12550722D01*
X14542491Y-12550722D02*
X14542491Y-12569769D01*
X14542491Y-12569769D02*
X14447253Y-12588817D01*
X14618682Y-12645960D02*
X14637730Y-12655484D01*
X14637730Y-12655484D02*
X14675825Y-12655484D01*
X14675825Y-12655484D02*
X14694872Y-12645960D01*
X14694872Y-12645960D02*
X14704396Y-12626912D01*
X14704396Y-12626912D02*
X14704396Y-12617388D01*
X14704396Y-12617388D02*
X14694872Y-12598341D01*
X14694872Y-12598341D02*
X14675825Y-12588817D01*
X14675825Y-12588817D02*
X14647253Y-12588817D01*
X14647253Y-12588817D02*
X14628206Y-12579293D01*
X14628206Y-12579293D02*
X14618682Y-12560246D01*
X14618682Y-12560246D02*
X14618682Y-12550722D01*
X14618682Y-12550722D02*
X14628206Y-12531674D01*
X14628206Y-12531674D02*
X14647253Y-12522150D01*
X14647253Y-12522150D02*
X14675825Y-12522150D01*
X14675825Y-12522150D02*
X14694872Y-12531674D01*
X14771063Y-12731674D02*
X14780587Y-12722150D01*
X14780587Y-12722150D02*
X14799634Y-12693579D01*
X14799634Y-12693579D02*
X14809158Y-12674531D01*
X14809158Y-12674531D02*
X14818682Y-12645960D01*
X14818682Y-12645960D02*
X14828206Y-12598341D01*
X14828206Y-12598341D02*
X14828206Y-12560246D01*
X14828206Y-12560246D02*
X14818682Y-12512627D01*
X14818682Y-12512627D02*
X14809158Y-12484055D01*
X14809158Y-12484055D02*
X14799634Y-12465008D01*
X14799634Y-12465008D02*
X14780587Y-12436436D01*
X14780587Y-12436436D02*
X14771063Y-12426912D01*
D10*
X9896000Y-12778000D02*
X9996000Y-12878000D01*
X9996000Y-12778000D02*
X9896000Y-12878000D01*
X9996000Y-12828000D02*
G75*
G03*
X9996000Y-12828000I-50000J0D01*
G01*
D11*
X10361539Y-12919484D02*
X10247253Y-12919484D01*
X10304396Y-12919484D02*
X10304396Y-12719484D01*
X10304396Y-12719484D02*
X10285348Y-12748055D01*
X10285348Y-12748055D02*
X10266301Y-12767103D01*
X10266301Y-12767103D02*
X10247253Y-12776627D01*
X10447253Y-12900436D02*
X10456777Y-12909960D01*
X10456777Y-12909960D02*
X10447253Y-12919484D01*
X10447253Y-12919484D02*
X10437729Y-12909960D01*
X10437729Y-12909960D02*
X10447253Y-12900436D01*
X10447253Y-12900436D02*
X10447253Y-12919484D01*
X10580586Y-12719484D02*
X10599634Y-12719484D01*
X10599634Y-12719484D02*
X10618682Y-12729008D01*
X10618682Y-12729008D02*
X10628205Y-12738531D01*
X10628205Y-12738531D02*
X10637729Y-12757579D01*
X10637729Y-12757579D02*
X10647253Y-12795674D01*
X10647253Y-12795674D02*
X10647253Y-12843293D01*
X10647253Y-12843293D02*
X10637729Y-12881388D01*
X10637729Y-12881388D02*
X10628205Y-12900436D01*
X10628205Y-12900436D02*
X10618682Y-12909960D01*
X10618682Y-12909960D02*
X10599634Y-12919484D01*
X10599634Y-12919484D02*
X10580586Y-12919484D01*
X10580586Y-12919484D02*
X10561539Y-12909960D01*
X10561539Y-12909960D02*
X10552015Y-12900436D01*
X10552015Y-12900436D02*
X10542491Y-12881388D01*
X10542491Y-12881388D02*
X10532967Y-12843293D01*
X10532967Y-12843293D02*
X10532967Y-12795674D01*
X10532967Y-12795674D02*
X10542491Y-12757579D01*
X10542491Y-12757579D02*
X10552015Y-12738531D01*
X10552015Y-12738531D02*
X10561539Y-12729008D01*
X10561539Y-12729008D02*
X10580586Y-12719484D01*
X10771063Y-12719484D02*
X10790110Y-12719484D01*
X10790110Y-12719484D02*
X10809158Y-12729008D01*
X10809158Y-12729008D02*
X10818682Y-12738531D01*
X10818682Y-12738531D02*
X10828205Y-12757579D01*
X10828205Y-12757579D02*
X10837729Y-12795674D01*
X10837729Y-12795674D02*
X10837729Y-12843293D01*
X10837729Y-12843293D02*
X10828205Y-12881388D01*
X10828205Y-12881388D02*
X10818682Y-12900436D01*
X10818682Y-12900436D02*
X10809158Y-12909960D01*
X10809158Y-12909960D02*
X10790110Y-12919484D01*
X10790110Y-12919484D02*
X10771063Y-12919484D01*
X10771063Y-12919484D02*
X10752015Y-12909960D01*
X10752015Y-12909960D02*
X10742491Y-12900436D01*
X10742491Y-12900436D02*
X10732967Y-12881388D01*
X10732967Y-12881388D02*
X10723444Y-12843293D01*
X10723444Y-12843293D02*
X10723444Y-12795674D01*
X10723444Y-12795674D02*
X10732967Y-12757579D01*
X10732967Y-12757579D02*
X10742491Y-12738531D01*
X10742491Y-12738531D02*
X10752015Y-12729008D01*
X10752015Y-12729008D02*
X10771063Y-12719484D01*
X10961539Y-12719484D02*
X10980586Y-12719484D01*
X10980586Y-12719484D02*
X10999634Y-12729008D01*
X10999634Y-12729008D02*
X11009158Y-12738531D01*
X11009158Y-12738531D02*
X11018682Y-12757579D01*
X11018682Y-12757579D02*
X11028205Y-12795674D01*
X11028205Y-12795674D02*
X11028205Y-12843293D01*
X11028205Y-12843293D02*
X11018682Y-12881388D01*
X11018682Y-12881388D02*
X11009158Y-12900436D01*
X11009158Y-12900436D02*
X10999634Y-12909960D01*
X10999634Y-12909960D02*
X10980586Y-12919484D01*
X10980586Y-12919484D02*
X10961539Y-12919484D01*
X10961539Y-12919484D02*
X10942491Y-12909960D01*
X10942491Y-12909960D02*
X10932967Y-12900436D01*
X10932967Y-12900436D02*
X10923444Y-12881388D01*
X10923444Y-12881388D02*
X10913920Y-12843293D01*
X10913920Y-12843293D02*
X10913920Y-12795674D01*
X10913920Y-12795674D02*
X10923444Y-12757579D01*
X10923444Y-12757579D02*
X10932967Y-12738531D01*
X10932967Y-12738531D02*
X10942491Y-12729008D01*
X10942491Y-12729008D02*
X10961539Y-12719484D01*
X11113920Y-12919484D02*
X11113920Y-12786150D01*
X11113920Y-12805198D02*
X11123444Y-12795674D01*
X11123444Y-12795674D02*
X11142491Y-12786150D01*
X11142491Y-12786150D02*
X11171063Y-12786150D01*
X11171063Y-12786150D02*
X11190110Y-12795674D01*
X11190110Y-12795674D02*
X11199634Y-12814722D01*
X11199634Y-12814722D02*
X11199634Y-12919484D01*
X11199634Y-12814722D02*
X11209158Y-12795674D01*
X11209158Y-12795674D02*
X11228205Y-12786150D01*
X11228205Y-12786150D02*
X11256777Y-12786150D01*
X11256777Y-12786150D02*
X11275824Y-12795674D01*
X11275824Y-12795674D02*
X11285348Y-12814722D01*
X11285348Y-12814722D02*
X11285348Y-12919484D01*
X11380586Y-12919484D02*
X11380586Y-12786150D01*
X11380586Y-12805198D02*
X11390110Y-12795674D01*
X11390110Y-12795674D02*
X11409158Y-12786150D01*
X11409158Y-12786150D02*
X11437729Y-12786150D01*
X11437729Y-12786150D02*
X11456777Y-12795674D01*
X11456777Y-12795674D02*
X11466301Y-12814722D01*
X11466301Y-12814722D02*
X11466301Y-12919484D01*
X11466301Y-12814722D02*
X11475824Y-12795674D01*
X11475824Y-12795674D02*
X11494872Y-12786150D01*
X11494872Y-12786150D02*
X11523443Y-12786150D01*
X11523443Y-12786150D02*
X11542491Y-12795674D01*
X11542491Y-12795674D02*
X11552015Y-12814722D01*
X11552015Y-12814722D02*
X11552015Y-12919484D01*
X11942491Y-12709960D02*
X11771063Y-12967103D01*
X12199634Y-12719484D02*
X12218682Y-12719484D01*
X12218682Y-12719484D02*
X12237729Y-12729008D01*
X12237729Y-12729008D02*
X12247253Y-12738531D01*
X12247253Y-12738531D02*
X12256777Y-12757579D01*
X12256777Y-12757579D02*
X12266301Y-12795674D01*
X12266301Y-12795674D02*
X12266301Y-12843293D01*
X12266301Y-12843293D02*
X12256777Y-12881388D01*
X12256777Y-12881388D02*
X12247253Y-12900436D01*
X12247253Y-12900436D02*
X12237729Y-12909960D01*
X12237729Y-12909960D02*
X12218682Y-12919484D01*
X12218682Y-12919484D02*
X12199634Y-12919484D01*
X12199634Y-12919484D02*
X12180586Y-12909960D01*
X12180586Y-12909960D02*
X12171063Y-12900436D01*
X12171063Y-12900436D02*
X12161539Y-12881388D01*
X12161539Y-12881388D02*
X12152015Y-12843293D01*
X12152015Y-12843293D02*
X12152015Y-12795674D01*
X12152015Y-12795674D02*
X12161539Y-12757579D01*
X12161539Y-12757579D02*
X12171063Y-12738531D01*
X12171063Y-12738531D02*
X12180586Y-12729008D01*
X12180586Y-12729008D02*
X12199634Y-12719484D01*
X12352015Y-12900436D02*
X12361539Y-12909960D01*
X12361539Y-12909960D02*
X12352015Y-12919484D01*
X12352015Y-12919484D02*
X12342491Y-12909960D01*
X12342491Y-12909960D02*
X12352015Y-12900436D01*
X12352015Y-12900436D02*
X12352015Y-12919484D01*
X12485348Y-12719484D02*
X12504396Y-12719484D01*
X12504396Y-12719484D02*
X12523444Y-12729008D01*
X12523444Y-12729008D02*
X12532967Y-12738531D01*
X12532967Y-12738531D02*
X12542491Y-12757579D01*
X12542491Y-12757579D02*
X12552015Y-12795674D01*
X12552015Y-12795674D02*
X12552015Y-12843293D01*
X12552015Y-12843293D02*
X12542491Y-12881388D01*
X12542491Y-12881388D02*
X12532967Y-12900436D01*
X12532967Y-12900436D02*
X12523444Y-12909960D01*
X12523444Y-12909960D02*
X12504396Y-12919484D01*
X12504396Y-12919484D02*
X12485348Y-12919484D01*
X12485348Y-12919484D02*
X12466301Y-12909960D01*
X12466301Y-12909960D02*
X12456777Y-12900436D01*
X12456777Y-12900436D02*
X12447253Y-12881388D01*
X12447253Y-12881388D02*
X12437729Y-12843293D01*
X12437729Y-12843293D02*
X12437729Y-12795674D01*
X12437729Y-12795674D02*
X12447253Y-12757579D01*
X12447253Y-12757579D02*
X12456777Y-12738531D01*
X12456777Y-12738531D02*
X12466301Y-12729008D01*
X12466301Y-12729008D02*
X12485348Y-12719484D01*
X12618682Y-12719484D02*
X12742491Y-12719484D01*
X12742491Y-12719484D02*
X12675825Y-12795674D01*
X12675825Y-12795674D02*
X12704396Y-12795674D01*
X12704396Y-12795674D02*
X12723444Y-12805198D01*
X12723444Y-12805198D02*
X12732967Y-12814722D01*
X12732967Y-12814722D02*
X12742491Y-12833769D01*
X12742491Y-12833769D02*
X12742491Y-12881388D01*
X12742491Y-12881388D02*
X12732967Y-12900436D01*
X12732967Y-12900436D02*
X12723444Y-12909960D01*
X12723444Y-12909960D02*
X12704396Y-12919484D01*
X12704396Y-12919484D02*
X12647253Y-12919484D01*
X12647253Y-12919484D02*
X12628206Y-12909960D01*
X12628206Y-12909960D02*
X12618682Y-12900436D01*
X12837729Y-12919484D02*
X12875825Y-12919484D01*
X12875825Y-12919484D02*
X12894872Y-12909960D01*
X12894872Y-12909960D02*
X12904396Y-12900436D01*
X12904396Y-12900436D02*
X12923444Y-12871865D01*
X12923444Y-12871865D02*
X12932967Y-12833769D01*
X12932967Y-12833769D02*
X12932967Y-12757579D01*
X12932967Y-12757579D02*
X12923444Y-12738531D01*
X12923444Y-12738531D02*
X12913920Y-12729008D01*
X12913920Y-12729008D02*
X12894872Y-12719484D01*
X12894872Y-12719484D02*
X12856777Y-12719484D01*
X12856777Y-12719484D02*
X12837729Y-12729008D01*
X12837729Y-12729008D02*
X12828206Y-12738531D01*
X12828206Y-12738531D02*
X12818682Y-12757579D01*
X12818682Y-12757579D02*
X12818682Y-12805198D01*
X12818682Y-12805198D02*
X12828206Y-12824246D01*
X12828206Y-12824246D02*
X12837729Y-12833769D01*
X12837729Y-12833769D02*
X12856777Y-12843293D01*
X12856777Y-12843293D02*
X12894872Y-12843293D01*
X12894872Y-12843293D02*
X12913920Y-12833769D01*
X12913920Y-12833769D02*
X12923444Y-12824246D01*
X12923444Y-12824246D02*
X12932967Y-12805198D01*
X13104396Y-12786150D02*
X13104396Y-12919484D01*
X13056777Y-12709960D02*
X13009158Y-12852817D01*
X13009158Y-12852817D02*
X13132967Y-12852817D01*
X13199634Y-12719484D02*
X13199634Y-12757579D01*
X13275825Y-12719484D02*
X13275825Y-12757579D01*
X13571063Y-12995674D02*
X13561539Y-12986150D01*
X13561539Y-12986150D02*
X13542491Y-12957579D01*
X13542491Y-12957579D02*
X13532968Y-12938531D01*
X13532968Y-12938531D02*
X13523444Y-12909960D01*
X13523444Y-12909960D02*
X13513920Y-12862341D01*
X13513920Y-12862341D02*
X13513920Y-12824246D01*
X13513920Y-12824246D02*
X13523444Y-12776627D01*
X13523444Y-12776627D02*
X13532968Y-12748055D01*
X13532968Y-12748055D02*
X13542491Y-12729008D01*
X13542491Y-12729008D02*
X13561539Y-12700436D01*
X13561539Y-12700436D02*
X13571063Y-12690912D01*
X13732968Y-12719484D02*
X13694872Y-12719484D01*
X13694872Y-12719484D02*
X13675825Y-12729008D01*
X13675825Y-12729008D02*
X13666301Y-12738531D01*
X13666301Y-12738531D02*
X13647253Y-12767103D01*
X13647253Y-12767103D02*
X13637729Y-12805198D01*
X13637729Y-12805198D02*
X13637729Y-12881388D01*
X13637729Y-12881388D02*
X13647253Y-12900436D01*
X13647253Y-12900436D02*
X13656777Y-12909960D01*
X13656777Y-12909960D02*
X13675825Y-12919484D01*
X13675825Y-12919484D02*
X13713920Y-12919484D01*
X13713920Y-12919484D02*
X13732968Y-12909960D01*
X13732968Y-12909960D02*
X13742491Y-12900436D01*
X13742491Y-12900436D02*
X13752015Y-12881388D01*
X13752015Y-12881388D02*
X13752015Y-12833769D01*
X13752015Y-12833769D02*
X13742491Y-12814722D01*
X13742491Y-12814722D02*
X13732968Y-12805198D01*
X13732968Y-12805198D02*
X13713920Y-12795674D01*
X13713920Y-12795674D02*
X13675825Y-12795674D01*
X13675825Y-12795674D02*
X13656777Y-12805198D01*
X13656777Y-12805198D02*
X13647253Y-12814722D01*
X13647253Y-12814722D02*
X13637729Y-12833769D01*
X13990110Y-12919484D02*
X13990110Y-12719484D01*
X14075825Y-12919484D02*
X14075825Y-12814722D01*
X14075825Y-12814722D02*
X14066301Y-12795674D01*
X14066301Y-12795674D02*
X14047253Y-12786150D01*
X14047253Y-12786150D02*
X14018682Y-12786150D01*
X14018682Y-12786150D02*
X13999634Y-12795674D01*
X13999634Y-12795674D02*
X13990110Y-12805198D01*
X14199634Y-12919484D02*
X14180587Y-12909960D01*
X14180587Y-12909960D02*
X14171063Y-12900436D01*
X14171063Y-12900436D02*
X14161539Y-12881388D01*
X14161539Y-12881388D02*
X14161539Y-12824246D01*
X14161539Y-12824246D02*
X14171063Y-12805198D01*
X14171063Y-12805198D02*
X14180587Y-12795674D01*
X14180587Y-12795674D02*
X14199634Y-12786150D01*
X14199634Y-12786150D02*
X14228206Y-12786150D01*
X14228206Y-12786150D02*
X14247253Y-12795674D01*
X14247253Y-12795674D02*
X14256777Y-12805198D01*
X14256777Y-12805198D02*
X14266301Y-12824246D01*
X14266301Y-12824246D02*
X14266301Y-12881388D01*
X14266301Y-12881388D02*
X14256777Y-12900436D01*
X14256777Y-12900436D02*
X14247253Y-12909960D01*
X14247253Y-12909960D02*
X14228206Y-12919484D01*
X14228206Y-12919484D02*
X14199634Y-12919484D01*
X14380587Y-12919484D02*
X14361539Y-12909960D01*
X14361539Y-12909960D02*
X14352015Y-12890912D01*
X14352015Y-12890912D02*
X14352015Y-12719484D01*
X14532968Y-12909960D02*
X14513920Y-12919484D01*
X14513920Y-12919484D02*
X14475825Y-12919484D01*
X14475825Y-12919484D02*
X14456777Y-12909960D01*
X14456777Y-12909960D02*
X14447253Y-12890912D01*
X14447253Y-12890912D02*
X14447253Y-12814722D01*
X14447253Y-12814722D02*
X14456777Y-12795674D01*
X14456777Y-12795674D02*
X14475825Y-12786150D01*
X14475825Y-12786150D02*
X14513920Y-12786150D01*
X14513920Y-12786150D02*
X14532968Y-12795674D01*
X14532968Y-12795674D02*
X14542491Y-12814722D01*
X14542491Y-12814722D02*
X14542491Y-12833769D01*
X14542491Y-12833769D02*
X14447253Y-12852817D01*
X14618682Y-12909960D02*
X14637730Y-12919484D01*
X14637730Y-12919484D02*
X14675825Y-12919484D01*
X14675825Y-12919484D02*
X14694872Y-12909960D01*
X14694872Y-12909960D02*
X14704396Y-12890912D01*
X14704396Y-12890912D02*
X14704396Y-12881388D01*
X14704396Y-12881388D02*
X14694872Y-12862341D01*
X14694872Y-12862341D02*
X14675825Y-12852817D01*
X14675825Y-12852817D02*
X14647253Y-12852817D01*
X14647253Y-12852817D02*
X14628206Y-12843293D01*
X14628206Y-12843293D02*
X14618682Y-12824246D01*
X14618682Y-12824246D02*
X14618682Y-12814722D01*
X14618682Y-12814722D02*
X14628206Y-12795674D01*
X14628206Y-12795674D02*
X14647253Y-12786150D01*
X14647253Y-12786150D02*
X14675825Y-12786150D01*
X14675825Y-12786150D02*
X14694872Y-12795674D01*
X14771063Y-12995674D02*
X14780587Y-12986150D01*
X14780587Y-12986150D02*
X14799634Y-12957579D01*
X14799634Y-12957579D02*
X14809158Y-12938531D01*
X14809158Y-12938531D02*
X14818682Y-12909960D01*
X14818682Y-12909960D02*
X14828206Y-12862341D01*
X14828206Y-12862341D02*
X14828206Y-12824246D01*
X14828206Y-12824246D02*
X14818682Y-12776627D01*
X14818682Y-12776627D02*
X14809158Y-12748055D01*
X14809158Y-12748055D02*
X14799634Y-12729008D01*
X14799634Y-12729008D02*
X14780587Y-12700436D01*
X14780587Y-12700436D02*
X14771063Y-12690912D01*
D17*
X9891000Y-13039500D02*
X9996000Y-13144500D01*
X9996000Y-13039500D02*
X9891000Y-13144500D01*
X9943500Y-13039500D02*
X9943500Y-13144500D01*
X9891000Y-13092000D02*
X9996000Y-13092000D01*
D11*
X10361539Y-13183484D02*
X10247253Y-13183484D01*
X10304396Y-13183484D02*
X10304396Y-12983484D01*
X10304396Y-12983484D02*
X10285348Y-13012055D01*
X10285348Y-13012055D02*
X10266301Y-13031103D01*
X10266301Y-13031103D02*
X10247253Y-13040627D01*
X10447253Y-13164436D02*
X10456777Y-13173960D01*
X10456777Y-13173960D02*
X10447253Y-13183484D01*
X10447253Y-13183484D02*
X10437729Y-13173960D01*
X10437729Y-13173960D02*
X10447253Y-13164436D01*
X10447253Y-13164436D02*
X10447253Y-13183484D01*
X10580586Y-12983484D02*
X10599634Y-12983484D01*
X10599634Y-12983484D02*
X10618682Y-12993008D01*
X10618682Y-12993008D02*
X10628205Y-13002531D01*
X10628205Y-13002531D02*
X10637729Y-13021579D01*
X10637729Y-13021579D02*
X10647253Y-13059674D01*
X10647253Y-13059674D02*
X10647253Y-13107293D01*
X10647253Y-13107293D02*
X10637729Y-13145388D01*
X10637729Y-13145388D02*
X10628205Y-13164436D01*
X10628205Y-13164436D02*
X10618682Y-13173960D01*
X10618682Y-13173960D02*
X10599634Y-13183484D01*
X10599634Y-13183484D02*
X10580586Y-13183484D01*
X10580586Y-13183484D02*
X10561539Y-13173960D01*
X10561539Y-13173960D02*
X10552015Y-13164436D01*
X10552015Y-13164436D02*
X10542491Y-13145388D01*
X10542491Y-13145388D02*
X10532967Y-13107293D01*
X10532967Y-13107293D02*
X10532967Y-13059674D01*
X10532967Y-13059674D02*
X10542491Y-13021579D01*
X10542491Y-13021579D02*
X10552015Y-13002531D01*
X10552015Y-13002531D02*
X10561539Y-12993008D01*
X10561539Y-12993008D02*
X10580586Y-12983484D01*
X10828205Y-12983484D02*
X10732967Y-12983484D01*
X10732967Y-12983484D02*
X10723444Y-13078722D01*
X10723444Y-13078722D02*
X10732967Y-13069198D01*
X10732967Y-13069198D02*
X10752015Y-13059674D01*
X10752015Y-13059674D02*
X10799634Y-13059674D01*
X10799634Y-13059674D02*
X10818682Y-13069198D01*
X10818682Y-13069198D02*
X10828205Y-13078722D01*
X10828205Y-13078722D02*
X10837729Y-13097769D01*
X10837729Y-13097769D02*
X10837729Y-13145388D01*
X10837729Y-13145388D02*
X10828205Y-13164436D01*
X10828205Y-13164436D02*
X10818682Y-13173960D01*
X10818682Y-13173960D02*
X10799634Y-13183484D01*
X10799634Y-13183484D02*
X10752015Y-13183484D01*
X10752015Y-13183484D02*
X10732967Y-13173960D01*
X10732967Y-13173960D02*
X10723444Y-13164436D01*
X10961539Y-12983484D02*
X10980586Y-12983484D01*
X10980586Y-12983484D02*
X10999634Y-12993008D01*
X10999634Y-12993008D02*
X11009158Y-13002531D01*
X11009158Y-13002531D02*
X11018682Y-13021579D01*
X11018682Y-13021579D02*
X11028205Y-13059674D01*
X11028205Y-13059674D02*
X11028205Y-13107293D01*
X11028205Y-13107293D02*
X11018682Y-13145388D01*
X11018682Y-13145388D02*
X11009158Y-13164436D01*
X11009158Y-13164436D02*
X10999634Y-13173960D01*
X10999634Y-13173960D02*
X10980586Y-13183484D01*
X10980586Y-13183484D02*
X10961539Y-13183484D01*
X10961539Y-13183484D02*
X10942491Y-13173960D01*
X10942491Y-13173960D02*
X10932967Y-13164436D01*
X10932967Y-13164436D02*
X10923444Y-13145388D01*
X10923444Y-13145388D02*
X10913920Y-13107293D01*
X10913920Y-13107293D02*
X10913920Y-13059674D01*
X10913920Y-13059674D02*
X10923444Y-13021579D01*
X10923444Y-13021579D02*
X10932967Y-13002531D01*
X10932967Y-13002531D02*
X10942491Y-12993008D01*
X10942491Y-12993008D02*
X10961539Y-12983484D01*
X11113920Y-13183484D02*
X11113920Y-13050150D01*
X11113920Y-13069198D02*
X11123444Y-13059674D01*
X11123444Y-13059674D02*
X11142491Y-13050150D01*
X11142491Y-13050150D02*
X11171063Y-13050150D01*
X11171063Y-13050150D02*
X11190110Y-13059674D01*
X11190110Y-13059674D02*
X11199634Y-13078722D01*
X11199634Y-13078722D02*
X11199634Y-13183484D01*
X11199634Y-13078722D02*
X11209158Y-13059674D01*
X11209158Y-13059674D02*
X11228205Y-13050150D01*
X11228205Y-13050150D02*
X11256777Y-13050150D01*
X11256777Y-13050150D02*
X11275824Y-13059674D01*
X11275824Y-13059674D02*
X11285348Y-13078722D01*
X11285348Y-13078722D02*
X11285348Y-13183484D01*
X11380586Y-13183484D02*
X11380586Y-13050150D01*
X11380586Y-13069198D02*
X11390110Y-13059674D01*
X11390110Y-13059674D02*
X11409158Y-13050150D01*
X11409158Y-13050150D02*
X11437729Y-13050150D01*
X11437729Y-13050150D02*
X11456777Y-13059674D01*
X11456777Y-13059674D02*
X11466301Y-13078722D01*
X11466301Y-13078722D02*
X11466301Y-13183484D01*
X11466301Y-13078722D02*
X11475824Y-13059674D01*
X11475824Y-13059674D02*
X11494872Y-13050150D01*
X11494872Y-13050150D02*
X11523443Y-13050150D01*
X11523443Y-13050150D02*
X11542491Y-13059674D01*
X11542491Y-13059674D02*
X11552015Y-13078722D01*
X11552015Y-13078722D02*
X11552015Y-13183484D01*
X11942491Y-12973960D02*
X11771063Y-13231103D01*
X12199634Y-12983484D02*
X12218682Y-12983484D01*
X12218682Y-12983484D02*
X12237729Y-12993008D01*
X12237729Y-12993008D02*
X12247253Y-13002531D01*
X12247253Y-13002531D02*
X12256777Y-13021579D01*
X12256777Y-13021579D02*
X12266301Y-13059674D01*
X12266301Y-13059674D02*
X12266301Y-13107293D01*
X12266301Y-13107293D02*
X12256777Y-13145388D01*
X12256777Y-13145388D02*
X12247253Y-13164436D01*
X12247253Y-13164436D02*
X12237729Y-13173960D01*
X12237729Y-13173960D02*
X12218682Y-13183484D01*
X12218682Y-13183484D02*
X12199634Y-13183484D01*
X12199634Y-13183484D02*
X12180586Y-13173960D01*
X12180586Y-13173960D02*
X12171063Y-13164436D01*
X12171063Y-13164436D02*
X12161539Y-13145388D01*
X12161539Y-13145388D02*
X12152015Y-13107293D01*
X12152015Y-13107293D02*
X12152015Y-13059674D01*
X12152015Y-13059674D02*
X12161539Y-13021579D01*
X12161539Y-13021579D02*
X12171063Y-13002531D01*
X12171063Y-13002531D02*
X12180586Y-12993008D01*
X12180586Y-12993008D02*
X12199634Y-12983484D01*
X12352015Y-13164436D02*
X12361539Y-13173960D01*
X12361539Y-13173960D02*
X12352015Y-13183484D01*
X12352015Y-13183484D02*
X12342491Y-13173960D01*
X12342491Y-13173960D02*
X12352015Y-13164436D01*
X12352015Y-13164436D02*
X12352015Y-13183484D01*
X12485348Y-12983484D02*
X12504396Y-12983484D01*
X12504396Y-12983484D02*
X12523444Y-12993008D01*
X12523444Y-12993008D02*
X12532967Y-13002531D01*
X12532967Y-13002531D02*
X12542491Y-13021579D01*
X12542491Y-13021579D02*
X12552015Y-13059674D01*
X12552015Y-13059674D02*
X12552015Y-13107293D01*
X12552015Y-13107293D02*
X12542491Y-13145388D01*
X12542491Y-13145388D02*
X12532967Y-13164436D01*
X12532967Y-13164436D02*
X12523444Y-13173960D01*
X12523444Y-13173960D02*
X12504396Y-13183484D01*
X12504396Y-13183484D02*
X12485348Y-13183484D01*
X12485348Y-13183484D02*
X12466301Y-13173960D01*
X12466301Y-13173960D02*
X12456777Y-13164436D01*
X12456777Y-13164436D02*
X12447253Y-13145388D01*
X12447253Y-13145388D02*
X12437729Y-13107293D01*
X12437729Y-13107293D02*
X12437729Y-13059674D01*
X12437729Y-13059674D02*
X12447253Y-13021579D01*
X12447253Y-13021579D02*
X12456777Y-13002531D01*
X12456777Y-13002531D02*
X12466301Y-12993008D01*
X12466301Y-12993008D02*
X12485348Y-12983484D01*
X12723444Y-13050150D02*
X12723444Y-13183484D01*
X12675825Y-12973960D02*
X12628206Y-13116817D01*
X12628206Y-13116817D02*
X12752015Y-13116817D01*
X12932967Y-13183484D02*
X12818682Y-13183484D01*
X12875825Y-13183484D02*
X12875825Y-12983484D01*
X12875825Y-12983484D02*
X12856777Y-13012055D01*
X12856777Y-13012055D02*
X12837729Y-13031103D01*
X12837729Y-13031103D02*
X12818682Y-13040627D01*
X12999634Y-12983484D02*
X13123444Y-12983484D01*
X13123444Y-12983484D02*
X13056777Y-13059674D01*
X13056777Y-13059674D02*
X13085348Y-13059674D01*
X13085348Y-13059674D02*
X13104396Y-13069198D01*
X13104396Y-13069198D02*
X13113920Y-13078722D01*
X13113920Y-13078722D02*
X13123444Y-13097769D01*
X13123444Y-13097769D02*
X13123444Y-13145388D01*
X13123444Y-13145388D02*
X13113920Y-13164436D01*
X13113920Y-13164436D02*
X13104396Y-13173960D01*
X13104396Y-13173960D02*
X13085348Y-13183484D01*
X13085348Y-13183484D02*
X13028206Y-13183484D01*
X13028206Y-13183484D02*
X13009158Y-13173960D01*
X13009158Y-13173960D02*
X12999634Y-13164436D01*
X13199634Y-12983484D02*
X13199634Y-13021579D01*
X13275825Y-12983484D02*
X13275825Y-13021579D01*
X13571063Y-13259674D02*
X13561539Y-13250150D01*
X13561539Y-13250150D02*
X13542491Y-13221579D01*
X13542491Y-13221579D02*
X13532968Y-13202531D01*
X13532968Y-13202531D02*
X13523444Y-13173960D01*
X13523444Y-13173960D02*
X13513920Y-13126341D01*
X13513920Y-13126341D02*
X13513920Y-13088246D01*
X13513920Y-13088246D02*
X13523444Y-13040627D01*
X13523444Y-13040627D02*
X13532968Y-13012055D01*
X13532968Y-13012055D02*
X13542491Y-12993008D01*
X13542491Y-12993008D02*
X13561539Y-12964436D01*
X13561539Y-12964436D02*
X13571063Y-12954912D01*
X13637729Y-13002531D02*
X13647253Y-12993008D01*
X13647253Y-12993008D02*
X13666301Y-12983484D01*
X13666301Y-12983484D02*
X13713920Y-12983484D01*
X13713920Y-12983484D02*
X13732968Y-12993008D01*
X13732968Y-12993008D02*
X13742491Y-13002531D01*
X13742491Y-13002531D02*
X13752015Y-13021579D01*
X13752015Y-13021579D02*
X13752015Y-13040627D01*
X13752015Y-13040627D02*
X13742491Y-13069198D01*
X13742491Y-13069198D02*
X13628206Y-13183484D01*
X13628206Y-13183484D02*
X13752015Y-13183484D01*
X13990110Y-13183484D02*
X13990110Y-12983484D01*
X14075825Y-13183484D02*
X14075825Y-13078722D01*
X14075825Y-13078722D02*
X14066301Y-13059674D01*
X14066301Y-13059674D02*
X14047253Y-13050150D01*
X14047253Y-13050150D02*
X14018682Y-13050150D01*
X14018682Y-13050150D02*
X13999634Y-13059674D01*
X13999634Y-13059674D02*
X13990110Y-13069198D01*
X14199634Y-13183484D02*
X14180587Y-13173960D01*
X14180587Y-13173960D02*
X14171063Y-13164436D01*
X14171063Y-13164436D02*
X14161539Y-13145388D01*
X14161539Y-13145388D02*
X14161539Y-13088246D01*
X14161539Y-13088246D02*
X14171063Y-13069198D01*
X14171063Y-13069198D02*
X14180587Y-13059674D01*
X14180587Y-13059674D02*
X14199634Y-13050150D01*
X14199634Y-13050150D02*
X14228206Y-13050150D01*
X14228206Y-13050150D02*
X14247253Y-13059674D01*
X14247253Y-13059674D02*
X14256777Y-13069198D01*
X14256777Y-13069198D02*
X14266301Y-13088246D01*
X14266301Y-13088246D02*
X14266301Y-13145388D01*
X14266301Y-13145388D02*
X14256777Y-13164436D01*
X14256777Y-13164436D02*
X14247253Y-13173960D01*
X14247253Y-13173960D02*
X14228206Y-13183484D01*
X14228206Y-13183484D02*
X14199634Y-13183484D01*
X14380587Y-13183484D02*
X14361539Y-13173960D01*
X14361539Y-13173960D02*
X14352015Y-13154912D01*
X14352015Y-13154912D02*
X14352015Y-12983484D01*
X14532968Y-13173960D02*
X14513920Y-13183484D01*
X14513920Y-13183484D02*
X14475825Y-13183484D01*
X14475825Y-13183484D02*
X14456777Y-13173960D01*
X14456777Y-13173960D02*
X14447253Y-13154912D01*
X14447253Y-13154912D02*
X14447253Y-13078722D01*
X14447253Y-13078722D02*
X14456777Y-13059674D01*
X14456777Y-13059674D02*
X14475825Y-13050150D01*
X14475825Y-13050150D02*
X14513920Y-13050150D01*
X14513920Y-13050150D02*
X14532968Y-13059674D01*
X14532968Y-13059674D02*
X14542491Y-13078722D01*
X14542491Y-13078722D02*
X14542491Y-13097769D01*
X14542491Y-13097769D02*
X14447253Y-13116817D01*
X14618682Y-13173960D02*
X14637730Y-13183484D01*
X14637730Y-13183484D02*
X14675825Y-13183484D01*
X14675825Y-13183484D02*
X14694872Y-13173960D01*
X14694872Y-13173960D02*
X14704396Y-13154912D01*
X14704396Y-13154912D02*
X14704396Y-13145388D01*
X14704396Y-13145388D02*
X14694872Y-13126341D01*
X14694872Y-13126341D02*
X14675825Y-13116817D01*
X14675825Y-13116817D02*
X14647253Y-13116817D01*
X14647253Y-13116817D02*
X14628206Y-13107293D01*
X14628206Y-13107293D02*
X14618682Y-13088246D01*
X14618682Y-13088246D02*
X14618682Y-13078722D01*
X14618682Y-13078722D02*
X14628206Y-13059674D01*
X14628206Y-13059674D02*
X14647253Y-13050150D01*
X14647253Y-13050150D02*
X14675825Y-13050150D01*
X14675825Y-13050150D02*
X14694872Y-13059674D01*
X14771063Y-13259674D02*
X14780587Y-13250150D01*
X14780587Y-13250150D02*
X14799634Y-13221579D01*
X14799634Y-13221579D02*
X14809158Y-13202531D01*
X14809158Y-13202531D02*
X14818682Y-13173960D01*
X14818682Y-13173960D02*
X14828206Y-13126341D01*
X14828206Y-13126341D02*
X14828206Y-13088246D01*
X14828206Y-13088246D02*
X14818682Y-13040627D01*
X14818682Y-13040627D02*
X14809158Y-13012055D01*
X14809158Y-13012055D02*
X14799634Y-12993008D01*
X14799634Y-12993008D02*
X14780587Y-12964436D01*
X14780587Y-12964436D02*
X14771063Y-12954912D01*
D18*
X9842000Y-13279000D02*
X9996000Y-13433000D01*
X9996000Y-13279000D02*
X9842000Y-13433000D01*
X9973448Y-13410448D02*
X9973448Y-13301552D01*
X9864552Y-13301552D01*
X9864552Y-13410448D01*
X9973448Y-13410448D01*
D11*
X10361539Y-13447484D02*
X10247253Y-13447484D01*
X10304396Y-13447484D02*
X10304396Y-13247484D01*
X10304396Y-13247484D02*
X10285348Y-13276055D01*
X10285348Y-13276055D02*
X10266301Y-13295103D01*
X10266301Y-13295103D02*
X10247253Y-13304627D01*
X10447253Y-13428436D02*
X10456777Y-13437960D01*
X10456777Y-13437960D02*
X10447253Y-13447484D01*
X10447253Y-13447484D02*
X10437729Y-13437960D01*
X10437729Y-13437960D02*
X10447253Y-13428436D01*
X10447253Y-13428436D02*
X10447253Y-13447484D01*
X10637729Y-13247484D02*
X10542491Y-13247484D01*
X10542491Y-13247484D02*
X10532967Y-13342722D01*
X10532967Y-13342722D02*
X10542491Y-13333198D01*
X10542491Y-13333198D02*
X10561539Y-13323674D01*
X10561539Y-13323674D02*
X10609158Y-13323674D01*
X10609158Y-13323674D02*
X10628205Y-13333198D01*
X10628205Y-13333198D02*
X10637729Y-13342722D01*
X10637729Y-13342722D02*
X10647253Y-13361769D01*
X10647253Y-13361769D02*
X10647253Y-13409388D01*
X10647253Y-13409388D02*
X10637729Y-13428436D01*
X10637729Y-13428436D02*
X10628205Y-13437960D01*
X10628205Y-13437960D02*
X10609158Y-13447484D01*
X10609158Y-13447484D02*
X10561539Y-13447484D01*
X10561539Y-13447484D02*
X10542491Y-13437960D01*
X10542491Y-13437960D02*
X10532967Y-13428436D01*
X10818682Y-13314150D02*
X10818682Y-13447484D01*
X10771063Y-13237960D02*
X10723444Y-13380817D01*
X10723444Y-13380817D02*
X10847253Y-13380817D01*
X10961539Y-13247484D02*
X10980586Y-13247484D01*
X10980586Y-13247484D02*
X10999634Y-13257008D01*
X10999634Y-13257008D02*
X11009158Y-13266531D01*
X11009158Y-13266531D02*
X11018682Y-13285579D01*
X11018682Y-13285579D02*
X11028205Y-13323674D01*
X11028205Y-13323674D02*
X11028205Y-13371293D01*
X11028205Y-13371293D02*
X11018682Y-13409388D01*
X11018682Y-13409388D02*
X11009158Y-13428436D01*
X11009158Y-13428436D02*
X10999634Y-13437960D01*
X10999634Y-13437960D02*
X10980586Y-13447484D01*
X10980586Y-13447484D02*
X10961539Y-13447484D01*
X10961539Y-13447484D02*
X10942491Y-13437960D01*
X10942491Y-13437960D02*
X10932967Y-13428436D01*
X10932967Y-13428436D02*
X10923444Y-13409388D01*
X10923444Y-13409388D02*
X10913920Y-13371293D01*
X10913920Y-13371293D02*
X10913920Y-13323674D01*
X10913920Y-13323674D02*
X10923444Y-13285579D01*
X10923444Y-13285579D02*
X10932967Y-13266531D01*
X10932967Y-13266531D02*
X10942491Y-13257008D01*
X10942491Y-13257008D02*
X10961539Y-13247484D01*
X11113920Y-13447484D02*
X11113920Y-13314150D01*
X11113920Y-13333198D02*
X11123444Y-13323674D01*
X11123444Y-13323674D02*
X11142491Y-13314150D01*
X11142491Y-13314150D02*
X11171063Y-13314150D01*
X11171063Y-13314150D02*
X11190110Y-13323674D01*
X11190110Y-13323674D02*
X11199634Y-13342722D01*
X11199634Y-13342722D02*
X11199634Y-13447484D01*
X11199634Y-13342722D02*
X11209158Y-13323674D01*
X11209158Y-13323674D02*
X11228205Y-13314150D01*
X11228205Y-13314150D02*
X11256777Y-13314150D01*
X11256777Y-13314150D02*
X11275824Y-13323674D01*
X11275824Y-13323674D02*
X11285348Y-13342722D01*
X11285348Y-13342722D02*
X11285348Y-13447484D01*
X11380586Y-13447484D02*
X11380586Y-13314150D01*
X11380586Y-13333198D02*
X11390110Y-13323674D01*
X11390110Y-13323674D02*
X11409158Y-13314150D01*
X11409158Y-13314150D02*
X11437729Y-13314150D01*
X11437729Y-13314150D02*
X11456777Y-13323674D01*
X11456777Y-13323674D02*
X11466301Y-13342722D01*
X11466301Y-13342722D02*
X11466301Y-13447484D01*
X11466301Y-13342722D02*
X11475824Y-13323674D01*
X11475824Y-13323674D02*
X11494872Y-13314150D01*
X11494872Y-13314150D02*
X11523443Y-13314150D01*
X11523443Y-13314150D02*
X11542491Y-13323674D01*
X11542491Y-13323674D02*
X11552015Y-13342722D01*
X11552015Y-13342722D02*
X11552015Y-13447484D01*
X11942491Y-13237960D02*
X11771063Y-13495103D01*
X12199634Y-13247484D02*
X12218682Y-13247484D01*
X12218682Y-13247484D02*
X12237729Y-13257008D01*
X12237729Y-13257008D02*
X12247253Y-13266531D01*
X12247253Y-13266531D02*
X12256777Y-13285579D01*
X12256777Y-13285579D02*
X12266301Y-13323674D01*
X12266301Y-13323674D02*
X12266301Y-13371293D01*
X12266301Y-13371293D02*
X12256777Y-13409388D01*
X12256777Y-13409388D02*
X12247253Y-13428436D01*
X12247253Y-13428436D02*
X12237729Y-13437960D01*
X12237729Y-13437960D02*
X12218682Y-13447484D01*
X12218682Y-13447484D02*
X12199634Y-13447484D01*
X12199634Y-13447484D02*
X12180586Y-13437960D01*
X12180586Y-13437960D02*
X12171063Y-13428436D01*
X12171063Y-13428436D02*
X12161539Y-13409388D01*
X12161539Y-13409388D02*
X12152015Y-13371293D01*
X12152015Y-13371293D02*
X12152015Y-13323674D01*
X12152015Y-13323674D02*
X12161539Y-13285579D01*
X12161539Y-13285579D02*
X12171063Y-13266531D01*
X12171063Y-13266531D02*
X12180586Y-13257008D01*
X12180586Y-13257008D02*
X12199634Y-13247484D01*
X12352015Y-13428436D02*
X12361539Y-13437960D01*
X12361539Y-13437960D02*
X12352015Y-13447484D01*
X12352015Y-13447484D02*
X12342491Y-13437960D01*
X12342491Y-13437960D02*
X12352015Y-13428436D01*
X12352015Y-13428436D02*
X12352015Y-13447484D01*
X12485348Y-13247484D02*
X12504396Y-13247484D01*
X12504396Y-13247484D02*
X12523444Y-13257008D01*
X12523444Y-13257008D02*
X12532967Y-13266531D01*
X12532967Y-13266531D02*
X12542491Y-13285579D01*
X12542491Y-13285579D02*
X12552015Y-13323674D01*
X12552015Y-13323674D02*
X12552015Y-13371293D01*
X12552015Y-13371293D02*
X12542491Y-13409388D01*
X12542491Y-13409388D02*
X12532967Y-13428436D01*
X12532967Y-13428436D02*
X12523444Y-13437960D01*
X12523444Y-13437960D02*
X12504396Y-13447484D01*
X12504396Y-13447484D02*
X12485348Y-13447484D01*
X12485348Y-13447484D02*
X12466301Y-13437960D01*
X12466301Y-13437960D02*
X12456777Y-13428436D01*
X12456777Y-13428436D02*
X12447253Y-13409388D01*
X12447253Y-13409388D02*
X12437729Y-13371293D01*
X12437729Y-13371293D02*
X12437729Y-13323674D01*
X12437729Y-13323674D02*
X12447253Y-13285579D01*
X12447253Y-13285579D02*
X12456777Y-13266531D01*
X12456777Y-13266531D02*
X12466301Y-13257008D01*
X12466301Y-13257008D02*
X12485348Y-13247484D01*
X12723444Y-13247484D02*
X12685348Y-13247484D01*
X12685348Y-13247484D02*
X12666301Y-13257008D01*
X12666301Y-13257008D02*
X12656777Y-13266531D01*
X12656777Y-13266531D02*
X12637729Y-13295103D01*
X12637729Y-13295103D02*
X12628206Y-13333198D01*
X12628206Y-13333198D02*
X12628206Y-13409388D01*
X12628206Y-13409388D02*
X12637729Y-13428436D01*
X12637729Y-13428436D02*
X12647253Y-13437960D01*
X12647253Y-13437960D02*
X12666301Y-13447484D01*
X12666301Y-13447484D02*
X12704396Y-13447484D01*
X12704396Y-13447484D02*
X12723444Y-13437960D01*
X12723444Y-13437960D02*
X12732967Y-13428436D01*
X12732967Y-13428436D02*
X12742491Y-13409388D01*
X12742491Y-13409388D02*
X12742491Y-13361769D01*
X12742491Y-13361769D02*
X12732967Y-13342722D01*
X12732967Y-13342722D02*
X12723444Y-13333198D01*
X12723444Y-13333198D02*
X12704396Y-13323674D01*
X12704396Y-13323674D02*
X12666301Y-13323674D01*
X12666301Y-13323674D02*
X12647253Y-13333198D01*
X12647253Y-13333198D02*
X12637729Y-13342722D01*
X12637729Y-13342722D02*
X12628206Y-13361769D01*
X12866301Y-13247484D02*
X12885348Y-13247484D01*
X12885348Y-13247484D02*
X12904396Y-13257008D01*
X12904396Y-13257008D02*
X12913920Y-13266531D01*
X12913920Y-13266531D02*
X12923444Y-13285579D01*
X12923444Y-13285579D02*
X12932967Y-13323674D01*
X12932967Y-13323674D02*
X12932967Y-13371293D01*
X12932967Y-13371293D02*
X12923444Y-13409388D01*
X12923444Y-13409388D02*
X12913920Y-13428436D01*
X12913920Y-13428436D02*
X12904396Y-13437960D01*
X12904396Y-13437960D02*
X12885348Y-13447484D01*
X12885348Y-13447484D02*
X12866301Y-13447484D01*
X12866301Y-13447484D02*
X12847253Y-13437960D01*
X12847253Y-13437960D02*
X12837729Y-13428436D01*
X12837729Y-13428436D02*
X12828206Y-13409388D01*
X12828206Y-13409388D02*
X12818682Y-13371293D01*
X12818682Y-13371293D02*
X12818682Y-13323674D01*
X12818682Y-13323674D02*
X12828206Y-13285579D01*
X12828206Y-13285579D02*
X12837729Y-13266531D01*
X12837729Y-13266531D02*
X12847253Y-13257008D01*
X12847253Y-13257008D02*
X12866301Y-13247484D01*
X13104396Y-13247484D02*
X13066301Y-13247484D01*
X13066301Y-13247484D02*
X13047253Y-13257008D01*
X13047253Y-13257008D02*
X13037729Y-13266531D01*
X13037729Y-13266531D02*
X13018682Y-13295103D01*
X13018682Y-13295103D02*
X13009158Y-13333198D01*
X13009158Y-13333198D02*
X13009158Y-13409388D01*
X13009158Y-13409388D02*
X13018682Y-13428436D01*
X13018682Y-13428436D02*
X13028206Y-13437960D01*
X13028206Y-13437960D02*
X13047253Y-13447484D01*
X13047253Y-13447484D02*
X13085348Y-13447484D01*
X13085348Y-13447484D02*
X13104396Y-13437960D01*
X13104396Y-13437960D02*
X13113920Y-13428436D01*
X13113920Y-13428436D02*
X13123444Y-13409388D01*
X13123444Y-13409388D02*
X13123444Y-13361769D01*
X13123444Y-13361769D02*
X13113920Y-13342722D01*
X13113920Y-13342722D02*
X13104396Y-13333198D01*
X13104396Y-13333198D02*
X13085348Y-13323674D01*
X13085348Y-13323674D02*
X13047253Y-13323674D01*
X13047253Y-13323674D02*
X13028206Y-13333198D01*
X13028206Y-13333198D02*
X13018682Y-13342722D01*
X13018682Y-13342722D02*
X13009158Y-13361769D01*
X13199634Y-13247484D02*
X13199634Y-13285579D01*
X13275825Y-13247484D02*
X13275825Y-13285579D01*
X13571063Y-13523674D02*
X13561539Y-13514150D01*
X13561539Y-13514150D02*
X13542491Y-13485579D01*
X13542491Y-13485579D02*
X13532968Y-13466531D01*
X13532968Y-13466531D02*
X13523444Y-13437960D01*
X13523444Y-13437960D02*
X13513920Y-13390341D01*
X13513920Y-13390341D02*
X13513920Y-13352246D01*
X13513920Y-13352246D02*
X13523444Y-13304627D01*
X13523444Y-13304627D02*
X13532968Y-13276055D01*
X13532968Y-13276055D02*
X13542491Y-13257008D01*
X13542491Y-13257008D02*
X13561539Y-13228436D01*
X13561539Y-13228436D02*
X13571063Y-13218912D01*
X13732968Y-13314150D02*
X13732968Y-13447484D01*
X13685348Y-13237960D02*
X13637729Y-13380817D01*
X13637729Y-13380817D02*
X13761539Y-13380817D01*
X13990110Y-13447484D02*
X13990110Y-13247484D01*
X14075825Y-13447484D02*
X14075825Y-13342722D01*
X14075825Y-13342722D02*
X14066301Y-13323674D01*
X14066301Y-13323674D02*
X14047253Y-13314150D01*
X14047253Y-13314150D02*
X14018682Y-13314150D01*
X14018682Y-13314150D02*
X13999634Y-13323674D01*
X13999634Y-13323674D02*
X13990110Y-13333198D01*
X14199634Y-13447484D02*
X14180587Y-13437960D01*
X14180587Y-13437960D02*
X14171063Y-13428436D01*
X14171063Y-13428436D02*
X14161539Y-13409388D01*
X14161539Y-13409388D02*
X14161539Y-13352246D01*
X14161539Y-13352246D02*
X14171063Y-13333198D01*
X14171063Y-13333198D02*
X14180587Y-13323674D01*
X14180587Y-13323674D02*
X14199634Y-13314150D01*
X14199634Y-13314150D02*
X14228206Y-13314150D01*
X14228206Y-13314150D02*
X14247253Y-13323674D01*
X14247253Y-13323674D02*
X14256777Y-13333198D01*
X14256777Y-13333198D02*
X14266301Y-13352246D01*
X14266301Y-13352246D02*
X14266301Y-13409388D01*
X14266301Y-13409388D02*
X14256777Y-13428436D01*
X14256777Y-13428436D02*
X14247253Y-13437960D01*
X14247253Y-13437960D02*
X14228206Y-13447484D01*
X14228206Y-13447484D02*
X14199634Y-13447484D01*
X14380587Y-13447484D02*
X14361539Y-13437960D01*
X14361539Y-13437960D02*
X14352015Y-13418912D01*
X14352015Y-13418912D02*
X14352015Y-13247484D01*
X14532968Y-13437960D02*
X14513920Y-13447484D01*
X14513920Y-13447484D02*
X14475825Y-13447484D01*
X14475825Y-13447484D02*
X14456777Y-13437960D01*
X14456777Y-13437960D02*
X14447253Y-13418912D01*
X14447253Y-13418912D02*
X14447253Y-13342722D01*
X14447253Y-13342722D02*
X14456777Y-13323674D01*
X14456777Y-13323674D02*
X14475825Y-13314150D01*
X14475825Y-13314150D02*
X14513920Y-13314150D01*
X14513920Y-13314150D02*
X14532968Y-13323674D01*
X14532968Y-13323674D02*
X14542491Y-13342722D01*
X14542491Y-13342722D02*
X14542491Y-13361769D01*
X14542491Y-13361769D02*
X14447253Y-13380817D01*
X14618682Y-13437960D02*
X14637730Y-13447484D01*
X14637730Y-13447484D02*
X14675825Y-13447484D01*
X14675825Y-13447484D02*
X14694872Y-13437960D01*
X14694872Y-13437960D02*
X14704396Y-13418912D01*
X14704396Y-13418912D02*
X14704396Y-13409388D01*
X14704396Y-13409388D02*
X14694872Y-13390341D01*
X14694872Y-13390341D02*
X14675825Y-13380817D01*
X14675825Y-13380817D02*
X14647253Y-13380817D01*
X14647253Y-13380817D02*
X14628206Y-13371293D01*
X14628206Y-13371293D02*
X14618682Y-13352246D01*
X14618682Y-13352246D02*
X14618682Y-13342722D01*
X14618682Y-13342722D02*
X14628206Y-13323674D01*
X14628206Y-13323674D02*
X14647253Y-13314150D01*
X14647253Y-13314150D02*
X14675825Y-13314150D01*
X14675825Y-13314150D02*
X14694872Y-13323674D01*
X14771063Y-13523674D02*
X14780587Y-13514150D01*
X14780587Y-13514150D02*
X14799634Y-13485579D01*
X14799634Y-13485579D02*
X14809158Y-13466531D01*
X14809158Y-13466531D02*
X14818682Y-13437960D01*
X14818682Y-13437960D02*
X14828206Y-13390341D01*
X14828206Y-13390341D02*
X14828206Y-13352246D01*
X14828206Y-13352246D02*
X14818682Y-13304627D01*
X14818682Y-13304627D02*
X14809158Y-13276055D01*
X14809158Y-13276055D02*
X14799634Y-13257008D01*
X14799634Y-13257008D02*
X14780587Y-13228436D01*
X14780587Y-13228436D02*
X14771063Y-13218912D01*
X9796000Y-13530000D02*
X9996000Y-13730000D01*
X9996000Y-13530000D02*
X9796000Y-13730000D01*
X9896000Y-13730000D02*
X9996000Y-13630000D01*
X9896000Y-13530000D01*
X9796000Y-13630000D01*
X9896000Y-13730000D01*
X10247253Y-13540531D02*
X10256777Y-13531008D01*
X10256777Y-13531008D02*
X10275824Y-13521484D01*
X10275824Y-13521484D02*
X10323444Y-13521484D01*
X10323444Y-13521484D02*
X10342491Y-13531008D01*
X10342491Y-13531008D02*
X10352015Y-13540531D01*
X10352015Y-13540531D02*
X10361539Y-13559579D01*
X10361539Y-13559579D02*
X10361539Y-13578627D01*
X10361539Y-13578627D02*
X10352015Y-13607198D01*
X10352015Y-13607198D02*
X10237729Y-13721484D01*
X10237729Y-13721484D02*
X10361539Y-13721484D01*
X10447253Y-13702436D02*
X10456777Y-13711960D01*
X10456777Y-13711960D02*
X10447253Y-13721484D01*
X10447253Y-13721484D02*
X10437729Y-13711960D01*
X10437729Y-13711960D02*
X10447253Y-13702436D01*
X10447253Y-13702436D02*
X10447253Y-13721484D01*
X10532967Y-13540531D02*
X10542491Y-13531008D01*
X10542491Y-13531008D02*
X10561539Y-13521484D01*
X10561539Y-13521484D02*
X10609158Y-13521484D01*
X10609158Y-13521484D02*
X10628205Y-13531008D01*
X10628205Y-13531008D02*
X10637729Y-13540531D01*
X10637729Y-13540531D02*
X10647253Y-13559579D01*
X10647253Y-13559579D02*
X10647253Y-13578627D01*
X10647253Y-13578627D02*
X10637729Y-13607198D01*
X10637729Y-13607198D02*
X10523444Y-13721484D01*
X10523444Y-13721484D02*
X10647253Y-13721484D01*
X10771063Y-13521484D02*
X10790110Y-13521484D01*
X10790110Y-13521484D02*
X10809158Y-13531008D01*
X10809158Y-13531008D02*
X10818682Y-13540531D01*
X10818682Y-13540531D02*
X10828205Y-13559579D01*
X10828205Y-13559579D02*
X10837729Y-13597674D01*
X10837729Y-13597674D02*
X10837729Y-13645293D01*
X10837729Y-13645293D02*
X10828205Y-13683388D01*
X10828205Y-13683388D02*
X10818682Y-13702436D01*
X10818682Y-13702436D02*
X10809158Y-13711960D01*
X10809158Y-13711960D02*
X10790110Y-13721484D01*
X10790110Y-13721484D02*
X10771063Y-13721484D01*
X10771063Y-13721484D02*
X10752015Y-13711960D01*
X10752015Y-13711960D02*
X10742491Y-13702436D01*
X10742491Y-13702436D02*
X10732967Y-13683388D01*
X10732967Y-13683388D02*
X10723444Y-13645293D01*
X10723444Y-13645293D02*
X10723444Y-13597674D01*
X10723444Y-13597674D02*
X10732967Y-13559579D01*
X10732967Y-13559579D02*
X10742491Y-13540531D01*
X10742491Y-13540531D02*
X10752015Y-13531008D01*
X10752015Y-13531008D02*
X10771063Y-13521484D01*
X10961539Y-13521484D02*
X10980586Y-13521484D01*
X10980586Y-13521484D02*
X10999634Y-13531008D01*
X10999634Y-13531008D02*
X11009158Y-13540531D01*
X11009158Y-13540531D02*
X11018682Y-13559579D01*
X11018682Y-13559579D02*
X11028205Y-13597674D01*
X11028205Y-13597674D02*
X11028205Y-13645293D01*
X11028205Y-13645293D02*
X11018682Y-13683388D01*
X11018682Y-13683388D02*
X11009158Y-13702436D01*
X11009158Y-13702436D02*
X10999634Y-13711960D01*
X10999634Y-13711960D02*
X10980586Y-13721484D01*
X10980586Y-13721484D02*
X10961539Y-13721484D01*
X10961539Y-13721484D02*
X10942491Y-13711960D01*
X10942491Y-13711960D02*
X10932967Y-13702436D01*
X10932967Y-13702436D02*
X10923444Y-13683388D01*
X10923444Y-13683388D02*
X10913920Y-13645293D01*
X10913920Y-13645293D02*
X10913920Y-13597674D01*
X10913920Y-13597674D02*
X10923444Y-13559579D01*
X10923444Y-13559579D02*
X10932967Y-13540531D01*
X10932967Y-13540531D02*
X10942491Y-13531008D01*
X10942491Y-13531008D02*
X10961539Y-13521484D01*
X11113920Y-13721484D02*
X11113920Y-13588150D01*
X11113920Y-13607198D02*
X11123444Y-13597674D01*
X11123444Y-13597674D02*
X11142491Y-13588150D01*
X11142491Y-13588150D02*
X11171063Y-13588150D01*
X11171063Y-13588150D02*
X11190110Y-13597674D01*
X11190110Y-13597674D02*
X11199634Y-13616722D01*
X11199634Y-13616722D02*
X11199634Y-13721484D01*
X11199634Y-13616722D02*
X11209158Y-13597674D01*
X11209158Y-13597674D02*
X11228205Y-13588150D01*
X11228205Y-13588150D02*
X11256777Y-13588150D01*
X11256777Y-13588150D02*
X11275824Y-13597674D01*
X11275824Y-13597674D02*
X11285348Y-13616722D01*
X11285348Y-13616722D02*
X11285348Y-13721484D01*
X11380586Y-13721484D02*
X11380586Y-13588150D01*
X11380586Y-13607198D02*
X11390110Y-13597674D01*
X11390110Y-13597674D02*
X11409158Y-13588150D01*
X11409158Y-13588150D02*
X11437729Y-13588150D01*
X11437729Y-13588150D02*
X11456777Y-13597674D01*
X11456777Y-13597674D02*
X11466301Y-13616722D01*
X11466301Y-13616722D02*
X11466301Y-13721484D01*
X11466301Y-13616722D02*
X11475824Y-13597674D01*
X11475824Y-13597674D02*
X11494872Y-13588150D01*
X11494872Y-13588150D02*
X11523443Y-13588150D01*
X11523443Y-13588150D02*
X11542491Y-13597674D01*
X11542491Y-13597674D02*
X11552015Y-13616722D01*
X11552015Y-13616722D02*
X11552015Y-13721484D01*
X11942491Y-13511960D02*
X11771063Y-13769103D01*
X12199634Y-13521484D02*
X12218682Y-13521484D01*
X12218682Y-13521484D02*
X12237729Y-13531008D01*
X12237729Y-13531008D02*
X12247253Y-13540531D01*
X12247253Y-13540531D02*
X12256777Y-13559579D01*
X12256777Y-13559579D02*
X12266301Y-13597674D01*
X12266301Y-13597674D02*
X12266301Y-13645293D01*
X12266301Y-13645293D02*
X12256777Y-13683388D01*
X12256777Y-13683388D02*
X12247253Y-13702436D01*
X12247253Y-13702436D02*
X12237729Y-13711960D01*
X12237729Y-13711960D02*
X12218682Y-13721484D01*
X12218682Y-13721484D02*
X12199634Y-13721484D01*
X12199634Y-13721484D02*
X12180586Y-13711960D01*
X12180586Y-13711960D02*
X12171063Y-13702436D01*
X12171063Y-13702436D02*
X12161539Y-13683388D01*
X12161539Y-13683388D02*
X12152015Y-13645293D01*
X12152015Y-13645293D02*
X12152015Y-13597674D01*
X12152015Y-13597674D02*
X12161539Y-13559579D01*
X12161539Y-13559579D02*
X12171063Y-13540531D01*
X12171063Y-13540531D02*
X12180586Y-13531008D01*
X12180586Y-13531008D02*
X12199634Y-13521484D01*
X12352015Y-13702436D02*
X12361539Y-13711960D01*
X12361539Y-13711960D02*
X12352015Y-13721484D01*
X12352015Y-13721484D02*
X12342491Y-13711960D01*
X12342491Y-13711960D02*
X12352015Y-13702436D01*
X12352015Y-13702436D02*
X12352015Y-13721484D01*
X12485348Y-13521484D02*
X12504396Y-13521484D01*
X12504396Y-13521484D02*
X12523444Y-13531008D01*
X12523444Y-13531008D02*
X12532967Y-13540531D01*
X12532967Y-13540531D02*
X12542491Y-13559579D01*
X12542491Y-13559579D02*
X12552015Y-13597674D01*
X12552015Y-13597674D02*
X12552015Y-13645293D01*
X12552015Y-13645293D02*
X12542491Y-13683388D01*
X12542491Y-13683388D02*
X12532967Y-13702436D01*
X12532967Y-13702436D02*
X12523444Y-13711960D01*
X12523444Y-13711960D02*
X12504396Y-13721484D01*
X12504396Y-13721484D02*
X12485348Y-13721484D01*
X12485348Y-13721484D02*
X12466301Y-13711960D01*
X12466301Y-13711960D02*
X12456777Y-13702436D01*
X12456777Y-13702436D02*
X12447253Y-13683388D01*
X12447253Y-13683388D02*
X12437729Y-13645293D01*
X12437729Y-13645293D02*
X12437729Y-13597674D01*
X12437729Y-13597674D02*
X12447253Y-13559579D01*
X12447253Y-13559579D02*
X12456777Y-13540531D01*
X12456777Y-13540531D02*
X12466301Y-13531008D01*
X12466301Y-13531008D02*
X12485348Y-13521484D01*
X12666301Y-13607198D02*
X12647253Y-13597674D01*
X12647253Y-13597674D02*
X12637729Y-13588150D01*
X12637729Y-13588150D02*
X12628206Y-13569103D01*
X12628206Y-13569103D02*
X12628206Y-13559579D01*
X12628206Y-13559579D02*
X12637729Y-13540531D01*
X12637729Y-13540531D02*
X12647253Y-13531008D01*
X12647253Y-13531008D02*
X12666301Y-13521484D01*
X12666301Y-13521484D02*
X12704396Y-13521484D01*
X12704396Y-13521484D02*
X12723444Y-13531008D01*
X12723444Y-13531008D02*
X12732967Y-13540531D01*
X12732967Y-13540531D02*
X12742491Y-13559579D01*
X12742491Y-13559579D02*
X12742491Y-13569103D01*
X12742491Y-13569103D02*
X12732967Y-13588150D01*
X12732967Y-13588150D02*
X12723444Y-13597674D01*
X12723444Y-13597674D02*
X12704396Y-13607198D01*
X12704396Y-13607198D02*
X12666301Y-13607198D01*
X12666301Y-13607198D02*
X12647253Y-13616722D01*
X12647253Y-13616722D02*
X12637729Y-13626246D01*
X12637729Y-13626246D02*
X12628206Y-13645293D01*
X12628206Y-13645293D02*
X12628206Y-13683388D01*
X12628206Y-13683388D02*
X12637729Y-13702436D01*
X12637729Y-13702436D02*
X12647253Y-13711960D01*
X12647253Y-13711960D02*
X12666301Y-13721484D01*
X12666301Y-13721484D02*
X12704396Y-13721484D01*
X12704396Y-13721484D02*
X12723444Y-13711960D01*
X12723444Y-13711960D02*
X12732967Y-13702436D01*
X12732967Y-13702436D02*
X12742491Y-13683388D01*
X12742491Y-13683388D02*
X12742491Y-13645293D01*
X12742491Y-13645293D02*
X12732967Y-13626246D01*
X12732967Y-13626246D02*
X12723444Y-13616722D01*
X12723444Y-13616722D02*
X12704396Y-13607198D01*
X12913920Y-13521484D02*
X12875825Y-13521484D01*
X12875825Y-13521484D02*
X12856777Y-13531008D01*
X12856777Y-13531008D02*
X12847253Y-13540531D01*
X12847253Y-13540531D02*
X12828206Y-13569103D01*
X12828206Y-13569103D02*
X12818682Y-13607198D01*
X12818682Y-13607198D02*
X12818682Y-13683388D01*
X12818682Y-13683388D02*
X12828206Y-13702436D01*
X12828206Y-13702436D02*
X12837729Y-13711960D01*
X12837729Y-13711960D02*
X12856777Y-13721484D01*
X12856777Y-13721484D02*
X12894872Y-13721484D01*
X12894872Y-13721484D02*
X12913920Y-13711960D01*
X12913920Y-13711960D02*
X12923444Y-13702436D01*
X12923444Y-13702436D02*
X12932967Y-13683388D01*
X12932967Y-13683388D02*
X12932967Y-13635769D01*
X12932967Y-13635769D02*
X12923444Y-13616722D01*
X12923444Y-13616722D02*
X12913920Y-13607198D01*
X12913920Y-13607198D02*
X12894872Y-13597674D01*
X12894872Y-13597674D02*
X12856777Y-13597674D01*
X12856777Y-13597674D02*
X12837729Y-13607198D01*
X12837729Y-13607198D02*
X12828206Y-13616722D01*
X12828206Y-13616722D02*
X12818682Y-13635769D01*
X13104396Y-13521484D02*
X13066301Y-13521484D01*
X13066301Y-13521484D02*
X13047253Y-13531008D01*
X13047253Y-13531008D02*
X13037729Y-13540531D01*
X13037729Y-13540531D02*
X13018682Y-13569103D01*
X13018682Y-13569103D02*
X13009158Y-13607198D01*
X13009158Y-13607198D02*
X13009158Y-13683388D01*
X13009158Y-13683388D02*
X13018682Y-13702436D01*
X13018682Y-13702436D02*
X13028206Y-13711960D01*
X13028206Y-13711960D02*
X13047253Y-13721484D01*
X13047253Y-13721484D02*
X13085348Y-13721484D01*
X13085348Y-13721484D02*
X13104396Y-13711960D01*
X13104396Y-13711960D02*
X13113920Y-13702436D01*
X13113920Y-13702436D02*
X13123444Y-13683388D01*
X13123444Y-13683388D02*
X13123444Y-13635769D01*
X13123444Y-13635769D02*
X13113920Y-13616722D01*
X13113920Y-13616722D02*
X13104396Y-13607198D01*
X13104396Y-13607198D02*
X13085348Y-13597674D01*
X13085348Y-13597674D02*
X13047253Y-13597674D01*
X13047253Y-13597674D02*
X13028206Y-13607198D01*
X13028206Y-13607198D02*
X13018682Y-13616722D01*
X13018682Y-13616722D02*
X13009158Y-13635769D01*
X13199634Y-13521484D02*
X13199634Y-13559579D01*
X13275825Y-13521484D02*
X13275825Y-13559579D01*
X13571063Y-13797674D02*
X13561539Y-13788150D01*
X13561539Y-13788150D02*
X13542491Y-13759579D01*
X13542491Y-13759579D02*
X13532968Y-13740531D01*
X13532968Y-13740531D02*
X13523444Y-13711960D01*
X13523444Y-13711960D02*
X13513920Y-13664341D01*
X13513920Y-13664341D02*
X13513920Y-13626246D01*
X13513920Y-13626246D02*
X13523444Y-13578627D01*
X13523444Y-13578627D02*
X13532968Y-13550055D01*
X13532968Y-13550055D02*
X13542491Y-13531008D01*
X13542491Y-13531008D02*
X13561539Y-13502436D01*
X13561539Y-13502436D02*
X13571063Y-13492912D01*
X13628206Y-13521484D02*
X13752015Y-13521484D01*
X13752015Y-13521484D02*
X13685348Y-13597674D01*
X13685348Y-13597674D02*
X13713920Y-13597674D01*
X13713920Y-13597674D02*
X13732968Y-13607198D01*
X13732968Y-13607198D02*
X13742491Y-13616722D01*
X13742491Y-13616722D02*
X13752015Y-13635769D01*
X13752015Y-13635769D02*
X13752015Y-13683388D01*
X13752015Y-13683388D02*
X13742491Y-13702436D01*
X13742491Y-13702436D02*
X13732968Y-13711960D01*
X13732968Y-13711960D02*
X13713920Y-13721484D01*
X13713920Y-13721484D02*
X13656777Y-13721484D01*
X13656777Y-13721484D02*
X13637729Y-13711960D01*
X13637729Y-13711960D02*
X13628206Y-13702436D01*
X13990110Y-13721484D02*
X13990110Y-13521484D01*
X14075825Y-13721484D02*
X14075825Y-13616722D01*
X14075825Y-13616722D02*
X14066301Y-13597674D01*
X14066301Y-13597674D02*
X14047253Y-13588150D01*
X14047253Y-13588150D02*
X14018682Y-13588150D01*
X14018682Y-13588150D02*
X13999634Y-13597674D01*
X13999634Y-13597674D02*
X13990110Y-13607198D01*
X14199634Y-13721484D02*
X14180587Y-13711960D01*
X14180587Y-13711960D02*
X14171063Y-13702436D01*
X14171063Y-13702436D02*
X14161539Y-13683388D01*
X14161539Y-13683388D02*
X14161539Y-13626246D01*
X14161539Y-13626246D02*
X14171063Y-13607198D01*
X14171063Y-13607198D02*
X14180587Y-13597674D01*
X14180587Y-13597674D02*
X14199634Y-13588150D01*
X14199634Y-13588150D02*
X14228206Y-13588150D01*
X14228206Y-13588150D02*
X14247253Y-13597674D01*
X14247253Y-13597674D02*
X14256777Y-13607198D01*
X14256777Y-13607198D02*
X14266301Y-13626246D01*
X14266301Y-13626246D02*
X14266301Y-13683388D01*
X14266301Y-13683388D02*
X14256777Y-13702436D01*
X14256777Y-13702436D02*
X14247253Y-13711960D01*
X14247253Y-13711960D02*
X14228206Y-13721484D01*
X14228206Y-13721484D02*
X14199634Y-13721484D01*
X14380587Y-13721484D02*
X14361539Y-13711960D01*
X14361539Y-13711960D02*
X14352015Y-13692912D01*
X14352015Y-13692912D02*
X14352015Y-13521484D01*
X14532968Y-13711960D02*
X14513920Y-13721484D01*
X14513920Y-13721484D02*
X14475825Y-13721484D01*
X14475825Y-13721484D02*
X14456777Y-13711960D01*
X14456777Y-13711960D02*
X14447253Y-13692912D01*
X14447253Y-13692912D02*
X14447253Y-13616722D01*
X14447253Y-13616722D02*
X14456777Y-13597674D01*
X14456777Y-13597674D02*
X14475825Y-13588150D01*
X14475825Y-13588150D02*
X14513920Y-13588150D01*
X14513920Y-13588150D02*
X14532968Y-13597674D01*
X14532968Y-13597674D02*
X14542491Y-13616722D01*
X14542491Y-13616722D02*
X14542491Y-13635769D01*
X14542491Y-13635769D02*
X14447253Y-13654817D01*
X14618682Y-13711960D02*
X14637730Y-13721484D01*
X14637730Y-13721484D02*
X14675825Y-13721484D01*
X14675825Y-13721484D02*
X14694872Y-13711960D01*
X14694872Y-13711960D02*
X14704396Y-13692912D01*
X14704396Y-13692912D02*
X14704396Y-13683388D01*
X14704396Y-13683388D02*
X14694872Y-13664341D01*
X14694872Y-13664341D02*
X14675825Y-13654817D01*
X14675825Y-13654817D02*
X14647253Y-13654817D01*
X14647253Y-13654817D02*
X14628206Y-13645293D01*
X14628206Y-13645293D02*
X14618682Y-13626246D01*
X14618682Y-13626246D02*
X14618682Y-13616722D01*
X14618682Y-13616722D02*
X14628206Y-13597674D01*
X14628206Y-13597674D02*
X14647253Y-13588150D01*
X14647253Y-13588150D02*
X14675825Y-13588150D01*
X14675825Y-13588150D02*
X14694872Y-13597674D01*
X14771063Y-13797674D02*
X14780587Y-13788150D01*
X14780587Y-13788150D02*
X14799634Y-13759579D01*
X14799634Y-13759579D02*
X14809158Y-13740531D01*
X14809158Y-13740531D02*
X14818682Y-13711960D01*
X14818682Y-13711960D02*
X14828206Y-13664341D01*
X14828206Y-13664341D02*
X14828206Y-13626246D01*
X14828206Y-13626246D02*
X14818682Y-13578627D01*
X14818682Y-13578627D02*
X14809158Y-13550055D01*
X14809158Y-13550055D02*
X14799634Y-13531008D01*
X14799634Y-13531008D02*
X14780587Y-13502436D01*
X14780587Y-13502436D02*
X14771063Y-13492912D01*
X9896000Y-13850000D02*
X9896000Y-14050000D01*
X9796000Y-13950000D02*
X9996000Y-13950000D01*
X9996000Y-13950000D02*
G75*
G03*
X9996000Y-13950000I-100000J0D01*
G01*
X10237729Y-13841484D02*
X10361539Y-13841484D01*
X10361539Y-13841484D02*
X10294872Y-13917674D01*
X10294872Y-13917674D02*
X10323444Y-13917674D01*
X10323444Y-13917674D02*
X10342491Y-13927198D01*
X10342491Y-13927198D02*
X10352015Y-13936722D01*
X10352015Y-13936722D02*
X10361539Y-13955769D01*
X10361539Y-13955769D02*
X10361539Y-14003388D01*
X10361539Y-14003388D02*
X10352015Y-14022436D01*
X10352015Y-14022436D02*
X10342491Y-14031960D01*
X10342491Y-14031960D02*
X10323444Y-14041484D01*
X10323444Y-14041484D02*
X10266301Y-14041484D01*
X10266301Y-14041484D02*
X10247253Y-14031960D01*
X10247253Y-14031960D02*
X10237729Y-14022436D01*
X10447253Y-14022436D02*
X10456777Y-14031960D01*
X10456777Y-14031960D02*
X10447253Y-14041484D01*
X10447253Y-14041484D02*
X10437729Y-14031960D01*
X10437729Y-14031960D02*
X10447253Y-14022436D01*
X10447253Y-14022436D02*
X10447253Y-14041484D01*
X10552015Y-14041484D02*
X10590110Y-14041484D01*
X10590110Y-14041484D02*
X10609158Y-14031960D01*
X10609158Y-14031960D02*
X10618682Y-14022436D01*
X10618682Y-14022436D02*
X10637729Y-13993865D01*
X10637729Y-13993865D02*
X10647253Y-13955769D01*
X10647253Y-13955769D02*
X10647253Y-13879579D01*
X10647253Y-13879579D02*
X10637729Y-13860531D01*
X10637729Y-13860531D02*
X10628205Y-13851008D01*
X10628205Y-13851008D02*
X10609158Y-13841484D01*
X10609158Y-13841484D02*
X10571063Y-13841484D01*
X10571063Y-13841484D02*
X10552015Y-13851008D01*
X10552015Y-13851008D02*
X10542491Y-13860531D01*
X10542491Y-13860531D02*
X10532967Y-13879579D01*
X10532967Y-13879579D02*
X10532967Y-13927198D01*
X10532967Y-13927198D02*
X10542491Y-13946246D01*
X10542491Y-13946246D02*
X10552015Y-13955769D01*
X10552015Y-13955769D02*
X10571063Y-13965293D01*
X10571063Y-13965293D02*
X10609158Y-13965293D01*
X10609158Y-13965293D02*
X10628205Y-13955769D01*
X10628205Y-13955769D02*
X10637729Y-13946246D01*
X10637729Y-13946246D02*
X10647253Y-13927198D01*
X10828205Y-13841484D02*
X10732967Y-13841484D01*
X10732967Y-13841484D02*
X10723444Y-13936722D01*
X10723444Y-13936722D02*
X10732967Y-13927198D01*
X10732967Y-13927198D02*
X10752015Y-13917674D01*
X10752015Y-13917674D02*
X10799634Y-13917674D01*
X10799634Y-13917674D02*
X10818682Y-13927198D01*
X10818682Y-13927198D02*
X10828205Y-13936722D01*
X10828205Y-13936722D02*
X10837729Y-13955769D01*
X10837729Y-13955769D02*
X10837729Y-14003388D01*
X10837729Y-14003388D02*
X10828205Y-14022436D01*
X10828205Y-14022436D02*
X10818682Y-14031960D01*
X10818682Y-14031960D02*
X10799634Y-14041484D01*
X10799634Y-14041484D02*
X10752015Y-14041484D01*
X10752015Y-14041484D02*
X10732967Y-14031960D01*
X10732967Y-14031960D02*
X10723444Y-14022436D01*
X10961539Y-13841484D02*
X10980586Y-13841484D01*
X10980586Y-13841484D02*
X10999634Y-13851008D01*
X10999634Y-13851008D02*
X11009158Y-13860531D01*
X11009158Y-13860531D02*
X11018682Y-13879579D01*
X11018682Y-13879579D02*
X11028205Y-13917674D01*
X11028205Y-13917674D02*
X11028205Y-13965293D01*
X11028205Y-13965293D02*
X11018682Y-14003388D01*
X11018682Y-14003388D02*
X11009158Y-14022436D01*
X11009158Y-14022436D02*
X10999634Y-14031960D01*
X10999634Y-14031960D02*
X10980586Y-14041484D01*
X10980586Y-14041484D02*
X10961539Y-14041484D01*
X10961539Y-14041484D02*
X10942491Y-14031960D01*
X10942491Y-14031960D02*
X10932967Y-14022436D01*
X10932967Y-14022436D02*
X10923444Y-14003388D01*
X10923444Y-14003388D02*
X10913920Y-13965293D01*
X10913920Y-13965293D02*
X10913920Y-13917674D01*
X10913920Y-13917674D02*
X10923444Y-13879579D01*
X10923444Y-13879579D02*
X10932967Y-13860531D01*
X10932967Y-13860531D02*
X10942491Y-13851008D01*
X10942491Y-13851008D02*
X10961539Y-13841484D01*
X11113920Y-14041484D02*
X11113920Y-13908150D01*
X11113920Y-13927198D02*
X11123444Y-13917674D01*
X11123444Y-13917674D02*
X11142491Y-13908150D01*
X11142491Y-13908150D02*
X11171063Y-13908150D01*
X11171063Y-13908150D02*
X11190110Y-13917674D01*
X11190110Y-13917674D02*
X11199634Y-13936722D01*
X11199634Y-13936722D02*
X11199634Y-14041484D01*
X11199634Y-13936722D02*
X11209158Y-13917674D01*
X11209158Y-13917674D02*
X11228205Y-13908150D01*
X11228205Y-13908150D02*
X11256777Y-13908150D01*
X11256777Y-13908150D02*
X11275824Y-13917674D01*
X11275824Y-13917674D02*
X11285348Y-13936722D01*
X11285348Y-13936722D02*
X11285348Y-14041484D01*
X11380586Y-14041484D02*
X11380586Y-13908150D01*
X11380586Y-13927198D02*
X11390110Y-13917674D01*
X11390110Y-13917674D02*
X11409158Y-13908150D01*
X11409158Y-13908150D02*
X11437729Y-13908150D01*
X11437729Y-13908150D02*
X11456777Y-13917674D01*
X11456777Y-13917674D02*
X11466301Y-13936722D01*
X11466301Y-13936722D02*
X11466301Y-14041484D01*
X11466301Y-13936722D02*
X11475824Y-13917674D01*
X11475824Y-13917674D02*
X11494872Y-13908150D01*
X11494872Y-13908150D02*
X11523443Y-13908150D01*
X11523443Y-13908150D02*
X11542491Y-13917674D01*
X11542491Y-13917674D02*
X11552015Y-13936722D01*
X11552015Y-13936722D02*
X11552015Y-14041484D01*
X11942491Y-13831960D02*
X11771063Y-14089103D01*
X12199634Y-13841484D02*
X12218682Y-13841484D01*
X12218682Y-13841484D02*
X12237729Y-13851008D01*
X12237729Y-13851008D02*
X12247253Y-13860531D01*
X12247253Y-13860531D02*
X12256777Y-13879579D01*
X12256777Y-13879579D02*
X12266301Y-13917674D01*
X12266301Y-13917674D02*
X12266301Y-13965293D01*
X12266301Y-13965293D02*
X12256777Y-14003388D01*
X12256777Y-14003388D02*
X12247253Y-14022436D01*
X12247253Y-14022436D02*
X12237729Y-14031960D01*
X12237729Y-14031960D02*
X12218682Y-14041484D01*
X12218682Y-14041484D02*
X12199634Y-14041484D01*
X12199634Y-14041484D02*
X12180586Y-14031960D01*
X12180586Y-14031960D02*
X12171063Y-14022436D01*
X12171063Y-14022436D02*
X12161539Y-14003388D01*
X12161539Y-14003388D02*
X12152015Y-13965293D01*
X12152015Y-13965293D02*
X12152015Y-13917674D01*
X12152015Y-13917674D02*
X12161539Y-13879579D01*
X12161539Y-13879579D02*
X12171063Y-13860531D01*
X12171063Y-13860531D02*
X12180586Y-13851008D01*
X12180586Y-13851008D02*
X12199634Y-13841484D01*
X12352015Y-14022436D02*
X12361539Y-14031960D01*
X12361539Y-14031960D02*
X12352015Y-14041484D01*
X12352015Y-14041484D02*
X12342491Y-14031960D01*
X12342491Y-14031960D02*
X12352015Y-14022436D01*
X12352015Y-14022436D02*
X12352015Y-14041484D01*
X12552015Y-14041484D02*
X12437729Y-14041484D01*
X12494872Y-14041484D02*
X12494872Y-13841484D01*
X12494872Y-13841484D02*
X12475825Y-13870055D01*
X12475825Y-13870055D02*
X12456777Y-13889103D01*
X12456777Y-13889103D02*
X12437729Y-13898627D01*
X12732967Y-13841484D02*
X12637729Y-13841484D01*
X12637729Y-13841484D02*
X12628206Y-13936722D01*
X12628206Y-13936722D02*
X12637729Y-13927198D01*
X12637729Y-13927198D02*
X12656777Y-13917674D01*
X12656777Y-13917674D02*
X12704396Y-13917674D01*
X12704396Y-13917674D02*
X12723444Y-13927198D01*
X12723444Y-13927198D02*
X12732967Y-13936722D01*
X12732967Y-13936722D02*
X12742491Y-13955769D01*
X12742491Y-13955769D02*
X12742491Y-14003388D01*
X12742491Y-14003388D02*
X12732967Y-14022436D01*
X12732967Y-14022436D02*
X12723444Y-14031960D01*
X12723444Y-14031960D02*
X12704396Y-14041484D01*
X12704396Y-14041484D02*
X12656777Y-14041484D01*
X12656777Y-14041484D02*
X12637729Y-14031960D01*
X12637729Y-14031960D02*
X12628206Y-14022436D01*
X12923444Y-13841484D02*
X12828206Y-13841484D01*
X12828206Y-13841484D02*
X12818682Y-13936722D01*
X12818682Y-13936722D02*
X12828206Y-13927198D01*
X12828206Y-13927198D02*
X12847253Y-13917674D01*
X12847253Y-13917674D02*
X12894872Y-13917674D01*
X12894872Y-13917674D02*
X12913920Y-13927198D01*
X12913920Y-13927198D02*
X12923444Y-13936722D01*
X12923444Y-13936722D02*
X12932967Y-13955769D01*
X12932967Y-13955769D02*
X12932967Y-14003388D01*
X12932967Y-14003388D02*
X12923444Y-14022436D01*
X12923444Y-14022436D02*
X12913920Y-14031960D01*
X12913920Y-14031960D02*
X12894872Y-14041484D01*
X12894872Y-14041484D02*
X12847253Y-14041484D01*
X12847253Y-14041484D02*
X12828206Y-14031960D01*
X12828206Y-14031960D02*
X12818682Y-14022436D01*
X13113920Y-13841484D02*
X13018682Y-13841484D01*
X13018682Y-13841484D02*
X13009158Y-13936722D01*
X13009158Y-13936722D02*
X13018682Y-13927198D01*
X13018682Y-13927198D02*
X13037729Y-13917674D01*
X13037729Y-13917674D02*
X13085348Y-13917674D01*
X13085348Y-13917674D02*
X13104396Y-13927198D01*
X13104396Y-13927198D02*
X13113920Y-13936722D01*
X13113920Y-13936722D02*
X13123444Y-13955769D01*
X13123444Y-13955769D02*
X13123444Y-14003388D01*
X13123444Y-14003388D02*
X13113920Y-14022436D01*
X13113920Y-14022436D02*
X13104396Y-14031960D01*
X13104396Y-14031960D02*
X13085348Y-14041484D01*
X13085348Y-14041484D02*
X13037729Y-14041484D01*
X13037729Y-14041484D02*
X13018682Y-14031960D01*
X13018682Y-14031960D02*
X13009158Y-14022436D01*
X13199634Y-13841484D02*
X13199634Y-13879579D01*
X13275825Y-13841484D02*
X13275825Y-13879579D01*
X13571063Y-14117674D02*
X13561539Y-14108150D01*
X13561539Y-14108150D02*
X13542491Y-14079579D01*
X13542491Y-14079579D02*
X13532968Y-14060531D01*
X13532968Y-14060531D02*
X13523444Y-14031960D01*
X13523444Y-14031960D02*
X13513920Y-13984341D01*
X13513920Y-13984341D02*
X13513920Y-13946246D01*
X13513920Y-13946246D02*
X13523444Y-13898627D01*
X13523444Y-13898627D02*
X13532968Y-13870055D01*
X13532968Y-13870055D02*
X13542491Y-13851008D01*
X13542491Y-13851008D02*
X13561539Y-13822436D01*
X13561539Y-13822436D02*
X13571063Y-13812912D01*
X13732968Y-13908150D02*
X13732968Y-14041484D01*
X13685348Y-13831960D02*
X13637729Y-13974817D01*
X13637729Y-13974817D02*
X13761539Y-13974817D01*
X13990110Y-14041484D02*
X13990110Y-13841484D01*
X14075825Y-14041484D02*
X14075825Y-13936722D01*
X14075825Y-13936722D02*
X14066301Y-13917674D01*
X14066301Y-13917674D02*
X14047253Y-13908150D01*
X14047253Y-13908150D02*
X14018682Y-13908150D01*
X14018682Y-13908150D02*
X13999634Y-13917674D01*
X13999634Y-13917674D02*
X13990110Y-13927198D01*
X14199634Y-14041484D02*
X14180587Y-14031960D01*
X14180587Y-14031960D02*
X14171063Y-14022436D01*
X14171063Y-14022436D02*
X14161539Y-14003388D01*
X14161539Y-14003388D02*
X14161539Y-13946246D01*
X14161539Y-13946246D02*
X14171063Y-13927198D01*
X14171063Y-13927198D02*
X14180587Y-13917674D01*
X14180587Y-13917674D02*
X14199634Y-13908150D01*
X14199634Y-13908150D02*
X14228206Y-13908150D01*
X14228206Y-13908150D02*
X14247253Y-13917674D01*
X14247253Y-13917674D02*
X14256777Y-13927198D01*
X14256777Y-13927198D02*
X14266301Y-13946246D01*
X14266301Y-13946246D02*
X14266301Y-14003388D01*
X14266301Y-14003388D02*
X14256777Y-14022436D01*
X14256777Y-14022436D02*
X14247253Y-14031960D01*
X14247253Y-14031960D02*
X14228206Y-14041484D01*
X14228206Y-14041484D02*
X14199634Y-14041484D01*
X14380587Y-14041484D02*
X14361539Y-14031960D01*
X14361539Y-14031960D02*
X14352015Y-14012912D01*
X14352015Y-14012912D02*
X14352015Y-13841484D01*
X14532968Y-14031960D02*
X14513920Y-14041484D01*
X14513920Y-14041484D02*
X14475825Y-14041484D01*
X14475825Y-14041484D02*
X14456777Y-14031960D01*
X14456777Y-14031960D02*
X14447253Y-14012912D01*
X14447253Y-14012912D02*
X14447253Y-13936722D01*
X14447253Y-13936722D02*
X14456777Y-13917674D01*
X14456777Y-13917674D02*
X14475825Y-13908150D01*
X14475825Y-13908150D02*
X14513920Y-13908150D01*
X14513920Y-13908150D02*
X14532968Y-13917674D01*
X14532968Y-13917674D02*
X14542491Y-13936722D01*
X14542491Y-13936722D02*
X14542491Y-13955769D01*
X14542491Y-13955769D02*
X14447253Y-13974817D01*
X14618682Y-14031960D02*
X14637730Y-14041484D01*
X14637730Y-14041484D02*
X14675825Y-14041484D01*
X14675825Y-14041484D02*
X14694872Y-14031960D01*
X14694872Y-14031960D02*
X14704396Y-14012912D01*
X14704396Y-14012912D02*
X14704396Y-14003388D01*
X14704396Y-14003388D02*
X14694872Y-13984341D01*
X14694872Y-13984341D02*
X14675825Y-13974817D01*
X14675825Y-13974817D02*
X14647253Y-13974817D01*
X14647253Y-13974817D02*
X14628206Y-13965293D01*
X14628206Y-13965293D02*
X14618682Y-13946246D01*
X14618682Y-13946246D02*
X14618682Y-13936722D01*
X14618682Y-13936722D02*
X14628206Y-13917674D01*
X14628206Y-13917674D02*
X14647253Y-13908150D01*
X14647253Y-13908150D02*
X14675825Y-13908150D01*
X14675825Y-13908150D02*
X14694872Y-13917674D01*
X14771063Y-14117674D02*
X14780587Y-14108150D01*
X14780587Y-14108150D02*
X14799634Y-14079579D01*
X14799634Y-14079579D02*
X14809158Y-14060531D01*
X14809158Y-14060531D02*
X14818682Y-14031960D01*
X14818682Y-14031960D02*
X14828206Y-13984341D01*
X14828206Y-13984341D02*
X14828206Y-13946246D01*
X14828206Y-13946246D02*
X14818682Y-13898627D01*
X14818682Y-13898627D02*
X14809158Y-13870055D01*
X14809158Y-13870055D02*
X14799634Y-13851008D01*
X14799634Y-13851008D02*
X14780587Y-13822436D01*
X14780587Y-13822436D02*
X14771063Y-13812912D01*
M02*
